<svg width="44" height="44" viewBox="0 0 44 44" fill="none" xmlns="http://www.w3.org/2000/svg">
    <path d="M21 39H4.63636C3.18034 39 2 37.8197 2 36.3636V20C2 9.50659 10.5066 1 21 1C31.4934 1 40 9.50659 40 20C40 30.4934 31.4934 39 21 39Z" fill="#147BDA" stroke="white" stroke-width="2"/>
    <path d="M31.9412 25.4706C31.9412 34.0148 25.0148 40.9412 16.4706 40.9412C7.92642 40.9412 1 34.0148 1 25.4706C1 16.9264 7.92642 10 16.4706 10C25.0148 10 31.9412 16.9264 31.9412 25.4706Z" fill="#147BDA" stroke="white" stroke-width="2"/>
    <path d="M27.2353 28.1176C27.2353 35.3623 21.3623 41.2353 14.1176 41.2353C6.87297 41.2353 1 35.3623 1 28.1176C1 20.873 6.87297 15 14.1176 15C21.3623 15 27.2353 20.873 27.2353 28.1176Z" fill="#147BDA" stroke="white" stroke-width="2"/>
    <circle cx="11.7647" cy="30.7646" r="10.7647" fill="#147BDA" stroke="white" stroke-width="2"/>
    <circle cx="9.41177" cy="33.4119" r="8.41177" fill="#147BDA" stroke="white" stroke-width="2"/>
    <circle cx="7.05882" cy="36.0588" r="6.05882" fill="#147BDA" stroke="white" stroke-width="2"/>
    <path d="M8.41177 38.7058C8.41177 40.7525 6.75258 42.4116 4.70588 42.4116C2.65918 42.4116 1 40.7525 1 38.7058C1 36.6591 2.65918 34.9999 4.70588 34.9999C6.75258 34.9999 8.41177 36.6591 8.41177 38.7058Z" fill="#147BDA" stroke="white" stroke-width="2"/>
    <path d="M57.9068 29.2C56.8135 29.2 55.8068 29.02 54.8868 28.66C53.9668 28.3 53.1668 27.8 52.4868 27.16C51.8068 26.5067 51.2801 25.7467 50.9068 24.88C50.5335 24 50.3468 23.04 50.3468 22C50.3468 20.96 50.5335 20.0067 50.9068 19.14C51.2801 18.26 51.8068 17.5 52.4868 16.86C53.1668 16.2067 53.9668 15.7 54.8868 15.34C55.8068 14.98 56.8068 14.8 57.8868 14.8C58.9801 14.8 59.9801 14.98 60.8868 15.34C61.8068 15.7 62.6068 16.2067 63.2868 16.86C63.9668 17.5 64.4935 18.26 64.8668 19.14C65.2401 20.0067 65.4268 20.96 65.4268 22C65.4268 23.04 65.2401 24 64.8668 24.88C64.4935 25.76 63.9668 26.52 63.2868 27.16C62.6068 27.8 61.8068 28.3 60.8868 28.66C59.9801 29.02 58.9868 29.2 57.9068 29.2ZM57.8868 26.92C58.5935 26.92 59.2468 26.8 59.8468 26.56C60.4468 26.32 60.9668 25.98 61.4068 25.54C61.8468 25.0867 62.1868 24.5667 62.4268 23.98C62.6801 23.38 62.8068 22.72 62.8068 22C62.8068 21.28 62.6801 20.6267 62.4268 20.04C62.1868 19.44 61.8468 18.92 61.4068 18.48C60.9668 18.0267 60.4468 17.68 59.8468 17.44C59.2468 17.2 58.5935 17.08 57.8868 17.08C57.1801 17.08 56.5268 17.2 55.9268 17.44C55.3401 17.68 54.8201 18.0267 54.3668 18.48C53.9268 18.92 53.5801 19.44 53.3268 20.04C53.0868 20.6267 52.9668 21.28 52.9668 22C52.9668 22.7067 53.0868 23.36 53.3268 23.96C53.5801 24.56 53.9268 25.0867 54.3668 25.54C54.8068 25.98 55.3268 26.32 55.9268 26.56C56.5268 26.8 57.1801 26.92 57.8868 26.92ZM66.7898 29L71.4898 22.88L71.4498 24.22L66.9698 18.32H69.7498L72.8898 22.52H71.8298L74.9898 18.32H77.6898L73.1698 24.22L73.1898 22.88L77.8698 29H75.0498L71.7498 24.54L72.7898 24.68L69.5498 29H66.7898ZM80.5891 33.02C80.0691 33.02 79.5491 32.9333 79.0291 32.76C78.5091 32.5867 78.0758 32.3467 77.7291 32.04L78.7291 30.2C78.9825 30.4267 79.2691 30.6067 79.5891 30.74C79.9091 30.8733 80.2358 30.94 80.5691 30.94C81.0225 30.94 81.3891 30.8267 81.6691 30.6C81.9491 30.3733 82.2091 29.9933 82.4491 29.46L83.0691 28.06L83.2691 27.76L87.3091 18.32H89.7091L84.7091 29.86C84.3758 30.66 84.0025 31.2933 83.5891 31.76C83.1891 32.2267 82.7358 32.5533 82.2291 32.74C81.7358 32.9267 81.1891 33.02 80.5891 33.02ZM82.7891 29.38L77.9691 18.32H80.5691L84.4891 27.54L82.7891 29.38ZM90.4787 33.02C90.012 33.02 89.572 32.9667 89.1587 32.86C88.732 32.7667 88.372 32.6133 88.0787 32.4L88.7987 30.54C89.1853 30.82 89.672 30.96 90.2587 30.96C90.712 30.96 91.0653 30.8133 91.3187 30.52C91.572 30.24 91.6987 29.82 91.6987 29.26V18.32H94.1987V29.2C94.1987 30.3733 93.872 31.3 93.2187 31.98C92.5787 32.6733 91.6653 33.02 90.4787 33.02ZM92.9387 16.56C92.472 16.56 92.0853 16.4133 91.7787 16.12C91.4853 15.8267 91.3387 15.4733 91.3387 15.06C91.3387 14.6333 91.4853 14.28 91.7787 14C92.0853 13.7067 92.472 13.56 92.9387 13.56C93.4053 13.56 93.7853 13.7 94.0787 13.98C94.3853 14.2467 94.5387 14.5867 94.5387 15C94.5387 15.44 94.392 15.8133 94.0987 16.12C93.8053 16.4133 93.4187 16.56 92.9387 16.56ZM103.097 29.14C101.91 29.14 100.87 28.9067 99.9771 28.44C99.0971 27.96 98.4104 27.3067 97.9171 26.48C97.4371 25.6533 97.1971 24.7133 97.1971 23.66C97.1971 22.5933 97.4304 21.6533 97.8971 20.84C98.3771 20.0133 99.0304 19.3667 99.8571 18.9C100.697 18.4333 101.65 18.2 102.717 18.2C103.757 18.2 104.684 18.4267 105.497 18.88C106.31 19.3333 106.95 19.9733 107.417 20.8C107.884 21.6267 108.117 22.6 108.117 23.72C108.117 23.8267 108.11 23.9467 108.097 24.08C108.097 24.2133 108.09 24.34 108.077 24.46H99.1771V22.8H106.757L105.777 23.32C105.79 22.7067 105.664 22.1667 105.397 21.7C105.13 21.2333 104.764 20.8667 104.297 20.6C103.844 20.3333 103.317 20.2 102.717 20.2C102.104 20.2 101.564 20.3333 101.097 20.6C100.644 20.8667 100.284 21.24 100.017 21.72C99.7638 22.1867 99.6371 22.74 99.6371 23.38V23.78C99.6371 24.42 99.7838 24.9867 100.077 25.48C100.37 25.9733 100.784 26.3533 101.317 26.62C101.85 26.8867 102.464 27.02 103.157 27.02C103.757 27.02 104.297 26.9267 104.777 26.74C105.257 26.5533 105.684 26.26 106.057 25.86L107.397 27.4C106.917 27.96 106.31 28.3933 105.577 28.7C104.857 28.9933 104.03 29.14 103.097 29.14ZM124.599 18.2C125.452 18.2 126.205 18.3667 126.859 18.7C127.525 19.0333 128.045 19.5467 128.419 20.24C128.792 20.92 128.979 21.8 128.979 22.88V29H126.479V23.2C126.479 22.2533 126.272 21.5467 125.859 21.08C125.445 20.6133 124.852 20.38 124.079 20.38C123.532 20.38 123.045 20.5 122.619 20.74C122.205 20.98 121.879 21.3333 121.639 21.8C121.412 22.2667 121.299 22.86 121.299 23.58V29H118.799V23.2C118.799 22.2533 118.592 21.5467 118.179 21.08C117.765 20.6133 117.172 20.38 116.399 20.38C115.852 20.38 115.365 20.5 114.939 20.74C114.525 20.98 114.199 21.3333 113.959 21.8C113.732 22.2667 113.619 22.86 113.619 23.58V29H111.119V18.32H113.499V21.16L113.079 20.32C113.439 19.6267 113.959 19.1 114.639 18.74C115.332 18.38 116.119 18.2 116.999 18.2C117.999 18.2 118.865 18.4467 119.599 18.94C120.345 19.4333 120.839 20.18 121.079 21.18L120.099 20.84C120.445 20.04 121.019 19.4 121.819 18.92C122.619 18.44 123.545 18.2 124.599 18.2Z" fill="#11111B"/>
</svg>