<svg width="1216" height="224" viewBox="0 0 1216 224" fill="none" xmlns="http://www.w3.org/2000/svg">

<rect width="1216" height="224" rx="30" fill="#11111B"/>
<circle opacity="0.15" cx="929.5" cy="49.5547" r="44.5" fill="#D2E3F3"/>
<circle opacity="0.08" cx="16" cy="188" r="161" fill="#BAD2E8"/>
<path opacity="0.15" d="M917.984 6.948C941.723 0.587085 923.789 13.1572 906.196 34.4354C888.604 55.7136 892.878 85.1884 886.517 61.4491C880.157 37.7099 894.244 13.3089 917.984 6.948Z" fill="#D2E3F3"/>
<circle opacity="0.2" cx="927.402" cy="39.0947" r="4.5" transform="rotate(-89.3201 927.402 39.0947)" fill="#D2E3F3"/>
<circle opacity="0.2" cx="941.602" cy="22.2645" r="8.5" transform="rotate(-89.3201 941.602 22.2645)" fill="#D2E3F3"/>
<!--<path d="M59.984 101V67.4H67.76V94.664H84.608V101H59.984ZM100.572 101.384C97.8201 101.384 95.3721 100.808 93.2281 99.656C91.1161 98.504 89.4361 96.936 88.1881 94.952C86.9721 92.936 86.3641 90.648 86.3641 88.088C86.3641 85.496 86.9721 83.208 88.1881 81.224C89.4361 79.208 91.1161 77.64 93.2281 76.52C95.3721 75.368 97.8201 74.792 100.572 74.792C103.292 74.792 105.724 75.368 107.868 76.52C110.012 77.64 111.692 79.192 112.908 81.176C114.124 83.16 114.732 85.464 114.732 88.088C114.732 90.648 114.124 92.936 112.908 94.952C111.692 96.936 110.012 98.504 107.868 99.656C105.724 100.808 103.292 101.384 100.572 101.384ZM100.572 95.24C101.82 95.24 102.94 94.952 103.932 94.376C104.924 93.8 105.708 92.984 106.284 91.928C106.86 90.84 107.148 89.56 107.148 88.088C107.148 86.584 106.86 85.304 106.284 84.248C105.708 83.192 104.924 82.376 103.932 81.8C102.94 81.224 101.82 80.936 100.572 80.936C99.3241 80.936 98.2041 81.224 97.2121 81.8C96.2201 82.376 95.4201 83.192 94.8121 84.248C94.2361 85.304 93.9481 86.584 93.9481 88.088C93.9481 89.56 94.2361 90.84 94.8121 91.928C95.4201 92.984 96.2201 93.8 97.2121 94.376C98.2041 94.952 99.3241 95.24 100.572 95.24ZM132.025 101.384C129.273 101.384 126.825 100.808 124.681 99.656C122.569 98.504 120.889 96.936 119.641 94.952C118.425 92.936 117.817 90.648 117.817 88.088C117.817 85.496 118.425 83.208 119.641 81.224C120.889 79.208 122.569 77.64 124.681 76.52C126.825 75.368 129.273 74.792 132.025 74.792C134.745 74.792 137.177 75.368 139.321 76.52C141.465 77.64 143.145 79.192 144.361 81.176C145.577 83.16 146.185 85.464 146.185 88.088C146.185 90.648 145.577 92.936 144.361 94.952C143.145 96.936 141.465 98.504 139.321 99.656C137.177 100.808 134.745 101.384 132.025 101.384ZM132.025 95.24C133.273 95.24 134.393 94.952 135.385 94.376C136.377 93.8 137.161 92.984 137.737 91.928C138.313 90.84 138.601 89.56 138.601 88.088C138.601 86.584 138.313 85.304 137.737 84.248C137.161 83.192 136.377 82.376 135.385 81.8C134.393 81.224 133.273 80.936 132.025 80.936C130.777 80.936 129.657 81.224 128.665 81.8C127.673 82.376 126.873 83.192 126.265 84.248C125.689 85.304 125.401 86.584 125.401 88.088C125.401 89.56 125.689 90.84 126.265 91.928C126.873 92.984 127.673 93.8 128.665 94.376C129.657 94.952 130.777 95.24 132.025 95.24ZM157.382 95.72L157.574 86.6L169.622 75.176H178.55L166.982 86.936L163.094 90.104L157.382 95.72ZM151.19 101V65.384H158.678V101H151.19ZM170.438 101L161.702 90.152L166.406 84.344L179.51 101H170.438ZM182.878 101V75.176H190.366V101H182.878ZM186.622 71.576C185.246 71.576 184.126 71.176 183.262 70.376C182.398 69.576 181.966 68.584 181.966 67.4C181.966 66.216 182.398 65.224 183.262 64.424C184.126 63.624 185.246 63.224 186.622 63.224C187.998 63.224 189.118 63.608 189.982 64.376C190.846 65.112 191.278 66.072 191.278 67.256C191.278 68.504 190.846 69.544 189.982 70.376C189.15 71.176 188.03 71.576 186.622 71.576ZM213.011 74.792C215.059 74.792 216.883 75.208 218.483 76.04C220.115 76.84 221.395 78.088 222.323 79.784C223.251 81.448 223.715 83.592 223.715 86.216V101H216.227V87.368C216.227 85.288 215.763 83.752 214.835 82.76C213.939 81.768 212.659 81.272 210.995 81.272C209.811 81.272 208.739 81.528 207.779 82.04C206.851 82.52 206.115 83.272 205.571 84.296C205.059 85.32 204.803 86.632 204.803 88.232V101H197.315V75.176H204.467V82.328L203.123 80.168C204.051 78.44 205.379 77.112 207.107 76.184C208.835 75.256 210.803 74.792 213.011 74.792ZM242.834 110.696C240.402 110.696 238.05 110.392 235.778 109.784C233.538 109.208 231.666 108.328 230.162 107.144L233.138 101.768C234.226 102.664 235.602 103.368 237.266 103.88C238.962 104.424 240.626 104.696 242.258 104.696C244.914 104.696 246.834 104.104 248.018 102.92C249.234 101.736 249.842 99.976 249.842 97.64V93.752L250.322 87.272L250.226 80.744V75.176H257.33V96.68C257.33 101.48 256.082 105.016 253.586 107.288C251.09 109.56 247.506 110.696 242.834 110.696ZM241.682 99.752C239.282 99.752 237.106 99.24 235.154 98.216C233.234 97.16 231.682 95.704 230.498 93.848C229.346 91.96 228.77 89.768 228.77 87.272C228.77 84.744 229.346 82.552 230.498 80.696C231.682 78.808 233.234 77.352 235.154 76.328C237.106 75.304 239.282 74.792 241.682 74.792C243.858 74.792 245.778 75.24 247.442 76.136C249.106 77 250.402 78.36 251.33 80.216C252.258 82.04 252.722 84.392 252.722 87.272C252.722 90.12 252.258 92.472 251.33 94.328C250.402 96.152 249.106 97.512 247.442 98.408C245.778 99.304 243.858 99.752 241.682 99.752ZM243.17 93.608C244.482 93.608 245.65 93.352 246.674 92.84C247.698 92.296 248.498 91.544 249.074 90.584C249.65 89.624 249.938 88.52 249.938 87.272C249.938 85.992 249.65 84.888 249.074 83.96C248.498 83 247.698 82.264 246.674 81.752C245.65 81.208 244.482 80.936 243.17 80.936C241.858 80.936 240.69 81.208 239.666 81.752C238.642 82.264 237.826 83 237.218 83.96C236.642 84.888 236.354 85.992 236.354 87.272C236.354 88.52 236.642 89.624 237.218 90.584C237.826 91.544 238.642 92.296 239.666 92.84C240.69 93.352 241.858 93.608 243.17 93.608ZM288.454 101.384C285.414 101.384 283.046 100.616 281.35 99.08C279.654 97.512 278.806 95.192 278.806 92.12V69.464H286.294V92.024C286.294 93.112 286.582 93.96 287.158 94.568C287.734 95.144 288.518 95.432 289.51 95.432C290.694 95.432 291.702 95.112 292.534 94.472L294.55 99.752C293.782 100.296 292.854 100.712 291.766 101C290.71 101.256 289.606 101.384 288.454 101.384ZM274.822 81.512V75.752H292.726V81.512H274.822ZM310.244 101.384C307.492 101.384 305.044 100.808 302.9 99.656C300.788 98.504 299.108 96.936 297.86 94.952C296.644 92.936 296.036 90.648 296.036 88.088C296.036 85.496 296.644 83.208 297.86 81.224C299.108 79.208 300.788 77.64 302.9 76.52C305.044 75.368 307.492 74.792 310.244 74.792C312.964 74.792 315.396 75.368 317.54 76.52C319.684 77.64 321.364 79.192 322.58 81.176C323.796 83.16 324.404 85.464 324.404 88.088C324.404 90.648 323.796 92.936 322.58 94.952C321.364 96.936 319.684 98.504 317.54 99.656C315.396 100.808 312.964 101.384 310.244 101.384ZM310.244 95.24C311.492 95.24 312.612 94.952 313.604 94.376C314.596 93.8 315.38 92.984 315.956 91.928C316.532 90.84 316.82 89.56 316.82 88.088C316.82 86.584 316.532 85.304 315.956 84.248C315.38 83.192 314.596 82.376 313.604 81.8C312.612 81.224 311.492 80.936 310.244 80.936C308.996 80.936 307.876 81.224 306.884 81.8C305.892 82.376 305.092 83.192 304.484 84.248C303.908 85.304 303.62 86.584 303.62 88.088C303.62 89.56 303.908 90.84 304.484 91.928C305.092 92.984 305.892 93.8 306.884 94.376C307.876 94.952 308.996 95.24 310.244 95.24ZM355.483 101.384C352.699 101.384 350.219 100.824 348.043 99.704C345.867 98.552 344.155 96.968 342.907 94.952C341.691 92.936 341.083 90.648 341.083 88.088C341.083 85.496 341.691 83.208 342.907 81.224C344.155 79.208 345.867 77.64 348.043 76.52C350.219 75.368 352.699 74.792 355.483 74.792C358.203 74.792 360.571 75.368 362.587 76.52C364.603 77.64 366.091 79.256 367.051 81.368L361.243 84.488C360.571 83.272 359.723 82.376 358.699 81.8C357.707 81.224 356.619 80.936 355.435 80.936C354.155 80.936 353.003 81.224 351.979 81.8C350.955 82.376 350.139 83.192 349.531 84.248C348.955 85.304 348.667 86.584 348.667 88.088C348.667 89.592 348.955 90.872 349.531 91.928C350.139 92.984 350.955 93.8 351.979 94.376C353.003 94.952 354.155 95.24 355.435 95.24C356.619 95.24 357.707 94.968 358.699 94.424C359.723 93.848 360.571 92.936 361.243 91.688L367.051 94.856C366.091 96.936 364.603 98.552 362.587 99.704C360.571 100.824 358.203 101.384 355.483 101.384ZM383.322 101.384C380.57 101.384 378.122 100.808 375.978 99.656C373.866 98.504 372.186 96.936 370.938 94.952C369.722 92.936 369.114 90.648 369.114 88.088C369.114 85.496 369.722 83.208 370.938 81.224C372.186 79.208 373.866 77.64 375.978 76.52C378.122 75.368 380.57 74.792 383.322 74.792C386.042 74.792 388.474 75.368 390.618 76.52C392.762 77.64 394.442 79.192 395.658 81.176C396.874 83.16 397.482 85.464 397.482 88.088C397.482 90.648 396.874 92.936 395.658 94.952C394.442 96.936 392.762 98.504 390.618 99.656C388.474 100.808 386.042 101.384 383.322 101.384ZM383.322 95.24C384.57 95.24 385.69 94.952 386.682 94.376C387.674 93.8 388.458 92.984 389.034 91.928C389.61 90.84 389.898 89.56 389.898 88.088C389.898 86.584 389.61 85.304 389.034 84.248C388.458 83.192 387.674 82.376 386.682 81.8C385.69 81.224 384.57 80.936 383.322 80.936C382.074 80.936 380.954 81.224 379.962 81.8C378.97 82.376 378.17 83.192 377.562 84.248C376.986 85.304 376.698 86.584 376.698 88.088C376.698 89.56 376.986 90.84 377.562 91.928C378.17 92.984 378.97 93.8 379.962 94.376C380.954 94.952 382.074 95.24 383.322 95.24ZM402.487 101V65.384H409.975V101H402.487ZM416.925 101V65.384H424.413V101H416.925ZM447.202 101V95.96L446.722 94.856V85.832C446.722 84.232 446.226 82.984 445.234 82.088C444.274 81.192 442.786 80.744 440.77 80.744C439.394 80.744 438.034 80.968 436.69 81.416C435.378 81.832 434.258 82.408 433.33 83.144L430.642 77.912C432.05 76.92 433.746 76.152 435.73 75.608C437.714 75.064 439.73 74.792 441.778 74.792C445.714 74.792 448.77 75.72 450.946 77.576C453.122 79.432 454.21 82.328 454.21 86.264V101H447.202ZM439.33 101.384C437.314 101.384 435.586 101.048 434.146 100.376C432.706 99.672 431.602 98.728 430.834 97.544C430.066 96.36 429.682 95.032 429.682 93.56C429.682 92.024 430.05 90.68 430.786 89.528C431.554 88.376 432.754 87.48 434.386 86.84C436.018 86.168 438.146 85.832 440.77 85.832H447.634V90.2H441.586C439.826 90.2 438.61 90.488 437.938 91.064C437.298 91.64 436.978 92.36 436.978 93.224C436.978 94.184 437.346 94.952 438.082 95.528C438.85 96.072 439.89 96.344 441.202 96.344C442.45 96.344 443.57 96.056 444.562 95.48C445.554 94.872 446.274 93.992 446.722 92.84L447.874 96.296C447.33 97.96 446.338 99.224 444.898 100.088C443.458 100.952 441.602 101.384 439.33 101.384ZM476.251 101.384C473.979 101.384 472.027 100.904 470.395 99.944C468.763 98.984 467.515 97.528 466.651 95.576C465.787 93.592 465.355 91.096 465.355 88.088C465.355 85.048 465.803 82.552 466.699 80.6C467.627 78.648 468.907 77.192 470.539 76.232C472.171 75.272 474.075 74.792 476.251 74.792C478.683 74.792 480.859 75.336 482.779 76.424C484.731 77.512 486.267 79.048 487.387 81.032C488.539 83.016 489.115 85.368 489.115 88.088C489.115 90.776 488.539 93.112 487.387 95.096C486.267 97.08 484.731 98.632 482.779 99.752C480.859 100.84 478.683 101.384 476.251 101.384ZM460.987 101V65.384H468.475V80.408L467.995 88.04L468.139 95.72V101H460.987ZM474.955 95.24C476.203 95.24 477.307 94.952 478.267 94.376C479.259 93.8 480.043 92.984 480.619 91.928C481.227 90.84 481.531 89.56 481.531 88.088C481.531 86.584 481.227 85.304 480.619 84.248C480.043 83.192 479.259 82.376 478.267 81.8C477.307 81.224 476.203 80.936 474.955 80.936C473.707 80.936 472.587 81.224 471.595 81.8C470.603 82.376 469.819 83.192 469.243 84.248C468.667 85.304 468.379 86.584 468.379 88.088C468.379 89.56 468.667 90.84 469.243 91.928C469.819 92.984 470.603 93.8 471.595 94.376C472.587 94.952 473.707 95.24 474.955 95.24ZM506.416 101.384C503.664 101.384 501.216 100.808 499.072 99.656C496.96 98.504 495.28 96.936 494.032 94.952C492.816 92.936 492.208 90.648 492.208 88.088C492.208 85.496 492.816 83.208 494.032 81.224C495.28 79.208 496.96 77.64 499.072 76.52C501.216 75.368 503.664 74.792 506.416 74.792C509.136 74.792 511.568 75.368 513.712 76.52C515.856 77.64 517.536 79.192 518.752 81.176C519.968 83.16 520.576 85.464 520.576 88.088C520.576 90.648 519.968 92.936 518.752 94.952C517.536 96.936 515.856 98.504 513.712 99.656C511.568 100.808 509.136 101.384 506.416 101.384ZM506.416 95.24C507.664 95.24 508.784 94.952 509.776 94.376C510.768 93.8 511.552 92.984 512.128 91.928C512.704 90.84 512.992 89.56 512.992 88.088C512.992 86.584 512.704 85.304 512.128 84.248C511.552 83.192 510.768 82.376 509.776 81.8C508.784 81.224 507.664 80.936 506.416 80.936C505.168 80.936 504.048 81.224 503.056 81.8C502.064 82.376 501.264 83.192 500.656 84.248C500.08 85.304 499.792 86.584 499.792 88.088C499.792 89.56 500.08 90.84 500.656 91.928C501.264 92.984 502.064 93.8 503.056 94.376C504.048 94.952 505.168 95.24 506.416 95.24ZM525.581 101V75.176H532.733V82.472L531.725 80.36C532.493 78.536 533.725 77.16 535.421 76.232C537.117 75.272 539.181 74.792 541.613 74.792V81.704C541.293 81.672 541.005 81.656 540.749 81.656C540.493 81.624 540.221 81.608 539.933 81.608C537.885 81.608 536.221 82.2 534.941 83.384C533.693 84.536 533.069 86.344 533.069 88.808V101H525.581ZM560.218 101V95.96L559.738 94.856V85.832C559.738 84.232 559.242 82.984 558.25 82.088C557.29 81.192 555.802 80.744 553.786 80.744C552.41 80.744 551.05 80.968 549.706 81.416C548.394 81.832 547.274 82.408 546.346 83.144L543.658 77.912C545.066 76.92 546.762 76.152 548.746 75.608C550.73 75.064 552.746 74.792 554.794 74.792C558.73 74.792 561.786 75.72 563.962 77.576C566.138 79.432 567.226 82.328 567.226 86.264V101H560.218ZM552.346 101.384C550.33 101.384 548.602 101.048 547.162 100.376C545.722 99.672 544.618 98.728 543.85 97.544C543.082 96.36 542.698 95.032 542.698 93.56C542.698 92.024 543.066 90.68 543.802 89.528C544.57 88.376 545.77 87.48 547.402 86.84C549.034 86.168 551.162 85.832 553.786 85.832H560.65V90.2H554.602C552.842 90.2 551.626 90.488 550.954 91.064C550.314 91.64 549.994 92.36 549.994 93.224C549.994 94.184 550.362 94.952 551.098 95.528C551.866 96.072 552.906 96.344 554.218 96.344C555.466 96.344 556.586 96.056 557.578 95.48C558.57 94.872 559.29 93.992 559.738 92.84L560.89 96.296C560.346 97.96 559.354 99.224 557.914 100.088C556.474 100.952 554.618 101.384 552.346 101.384ZM584.563 101.384C581.523 101.384 579.155 100.616 577.459 99.08C575.763 97.512 574.915 95.192 574.915 92.12V69.464H582.403V92.024C582.403 93.112 582.691 93.96 583.267 94.568C583.843 95.144 584.627 95.432 585.619 95.432C586.803 95.432 587.811 95.112 588.643 94.472L590.659 99.752C589.891 100.296 588.963 100.712 587.875 101C586.819 101.256 585.715 101.384 584.563 101.384ZM570.931 81.512V75.752H588.835V81.512H570.931ZM606.881 101.384C603.937 101.384 601.345 100.808 599.105 99.656C596.897 98.504 595.185 96.936 593.969 94.952C592.753 92.936 592.145 90.648 592.145 88.088C592.145 85.496 592.737 83.208 593.921 81.224C595.137 79.208 596.785 77.64 598.865 76.52C600.945 75.368 603.297 74.792 605.921 74.792C608.449 74.792 610.721 75.336 612.737 76.424C614.785 77.48 616.401 79.016 617.585 81.032C618.769 83.016 619.361 85.4 619.361 88.184C619.361 88.472 619.345 88.808 619.313 89.192C619.281 89.544 619.249 89.88 619.217 90.2H598.241V85.832H615.281L612.401 87.128C612.401 85.784 612.129 84.616 611.585 83.624C611.041 82.632 610.289 81.864 609.329 81.32C608.369 80.744 607.249 80.456 605.969 80.456C604.689 80.456 603.553 80.744 602.561 81.32C601.601 81.864 600.849 82.648 600.305 83.672C599.761 84.664 599.489 85.848 599.489 87.224V88.376C599.489 89.784 599.793 91.032 600.401 92.12C601.041 93.176 601.921 93.992 603.041 94.568C604.193 95.112 605.537 95.384 607.073 95.384C608.449 95.384 609.649 95.176 610.673 94.76C611.729 94.344 612.689 93.72 613.553 92.888L617.537 97.208C616.353 98.552 614.865 99.592 613.073 100.328C611.281 101.032 609.217 101.384 606.881 101.384ZM629.244 89.336C629.244 88.216 629.42 87.224 629.772 86.36C630.156 85.496 630.62 84.728 631.164 84.056C631.74 83.384 632.348 82.76 632.988 82.184C633.628 81.608 634.22 81.064 634.764 80.552C635.34 80.008 635.804 79.448 636.156 78.872C636.54 78.296 636.732 77.656 636.732 76.952C636.732 75.8 636.252 74.872 635.292 74.168C634.364 73.464 633.116 73.112 631.548 73.112C630.044 73.112 628.7 73.432 627.516 74.072C626.332 74.68 625.356 75.544 624.588 76.664L618.78 73.256C620.06 71.304 621.836 69.752 624.108 68.6C626.38 67.416 629.132 66.824 632.364 66.824C634.764 66.824 636.876 67.176 638.7 67.88C640.524 68.552 641.948 69.544 642.972 70.856C644.028 72.168 644.556 73.784 644.556 75.704C644.556 76.952 644.364 78.056 643.98 79.016C643.596 79.976 643.1 80.808 642.492 81.512C641.884 82.216 641.228 82.872 640.524 83.48C639.852 84.088 639.212 84.68 638.604 85.256C637.996 85.832 637.484 86.44 637.068 87.08C636.684 87.72 636.492 88.472 636.492 89.336H629.244ZM632.892 101.384C631.548 101.384 630.444 100.952 629.58 100.088C628.716 99.224 628.284 98.2 628.284 97.016C628.284 95.8 628.716 94.792 629.58 93.992C630.444 93.16 631.548 92.744 632.892 92.744C634.268 92.744 635.372 93.16 636.204 93.992C637.068 94.792 637.5 95.8 637.5 97.016C637.5 98.2 637.068 99.224 636.204 100.088C635.372 100.952 634.268 101.384 632.892 101.384ZM59.984 157V123.4H67.76V150.664H84.608V157H59.984ZM101.1 157.384C98.1561 157.384 95.5641 156.808 93.3241 155.656C91.1161 154.504 89.4041 152.936 88.1881 150.952C86.9721 148.936 86.3641 146.648 86.3641 144.088C86.3641 141.496 86.9561 139.208 88.1401 137.224C89.3561 135.208 91.0041 133.64 93.0841 132.52C95.1641 131.368 97.5161 130.792 100.14 130.792C102.668 130.792 104.94 131.336 106.956 132.424C109.004 133.48 110.62 135.016 111.804 137.032C112.988 139.016 113.58 141.4 113.58 144.184C113.58 144.472 113.564 144.808 113.532 145.192C113.5 145.544 113.468 145.88 113.436 146.2H92.4601V141.832H109.5L106.62 143.128C106.62 141.784 106.348 140.616 105.804 139.624C105.26 138.632 104.508 137.864 103.548 137.32C102.588 136.744 101.468 136.456 100.188 136.456C98.9081 136.456 97.7721 136.744 96.7801 137.32C95.8201 137.864 95.0681 138.648 94.5241 139.672C93.9801 140.664 93.7081 141.848 93.7081 143.224V144.376C93.7081 145.784 94.0121 147.032 94.6201 148.12C95.2601 149.176 96.1401 149.992 97.2601 150.568C98.4121 151.112 99.7561 151.384 101.292 151.384C102.668 151.384 103.868 151.176 104.892 150.76C105.948 150.344 106.908 149.72 107.772 148.888L111.756 153.208C110.572 154.552 109.084 155.592 107.292 156.328C105.5 157.032 103.436 157.384 101.1 157.384ZM129.125 157.384C126.085 157.384 123.717 156.616 122.021 155.08C120.325 153.512 119.477 151.192 119.477 148.12V125.464H126.965V148.024C126.965 149.112 127.253 149.96 127.829 150.568C128.405 151.144 129.189 151.432 130.181 151.432C131.365 151.432 132.373 151.112 133.205 150.472L135.221 155.752C134.453 156.296 133.525 156.712 132.437 157C131.381 157.256 130.277 157.384 129.125 157.384ZM115.493 137.512V131.752H133.397V137.512H115.493ZM138.129 137.32L141.297 125.8L142.353 130.168C140.977 130.168 139.841 129.768 138.945 128.968C138.081 128.136 137.649 127.016 137.649 125.608C137.649 124.232 138.097 123.128 138.993 122.296C139.889 121.432 140.993 121 142.305 121C143.649 121 144.753 121.432 145.617 122.296C146.481 123.128 146.913 124.232 146.913 125.608C146.913 126.024 146.881 126.44 146.817 126.856C146.785 127.24 146.673 127.704 146.481 128.248C146.321 128.792 146.049 129.512 145.665 130.408L142.881 137.32H138.129ZM159.832 157.384C157.624 157.384 155.496 157.128 153.448 156.616C151.432 156.072 149.832 155.4 148.648 154.6L151.144 149.224C152.328 149.96 153.72 150.568 155.32 151.048C156.952 151.496 158.552 151.72 160.12 151.72C161.848 151.72 163.064 151.512 163.768 151.096C164.504 150.68 164.872 150.104 164.872 149.368C164.872 148.76 164.584 148.312 164.008 148.024C163.464 147.704 162.728 147.464 161.799 147.304C160.872 147.144 159.848 146.984 158.728 146.824C157.64 146.664 156.536 146.456 155.416 146.2C154.296 145.912 153.272 145.496 152.344 144.952C151.416 144.408 150.664 143.672 150.088 142.744C149.544 141.816 149.271 140.616 149.271 139.144C149.271 137.512 149.736 136.072 150.664 134.824C151.624 133.576 153 132.6 154.792 131.896C156.584 131.16 158.728 130.792 161.224 130.792C162.984 130.792 164.776 130.984 166.6 131.368C168.424 131.752 169.944 132.312 171.16 133.048L168.664 138.376C167.416 137.64 166.152 137.144 164.872 136.888C163.624 136.6 162.408 136.456 161.224 136.456C159.56 136.456 158.344 136.68 157.576 137.128C156.808 137.576 156.424 138.152 156.424 138.856C156.424 139.496 156.696 139.976 157.24 140.296C157.816 140.616 158.568 140.872 159.496 141.064C160.424 141.256 161.432 141.432 162.52 141.592C163.64 141.72 164.76 141.928 165.88 142.216C167 142.504 168.008 142.92 168.904 143.464C169.832 143.976 170.584 144.696 171.16 145.624C171.736 146.52 172.024 147.704 172.024 149.176C172.024 150.776 171.544 152.2 170.584 153.448C169.624 154.664 168.232 155.624 166.408 156.328C164.616 157.032 162.424 157.384 159.832 157.384ZM202.381 166.696C199.949 166.696 197.597 166.392 195.325 165.784C193.085 165.208 191.213 164.328 189.709 163.144L192.685 157.768C193.773 158.664 195.149 159.368 196.813 159.88C198.509 160.424 200.173 160.696 201.805 160.696C204.461 160.696 206.381 160.104 207.565 158.92C208.781 157.736 209.389 155.976 209.389 153.64V149.752L209.869 143.272L209.773 136.744V131.176H216.877V152.68C216.877 157.48 215.629 161.016 213.133 163.288C210.637 165.56 207.053 166.696 202.381 166.696ZM201.229 155.752C198.829 155.752 196.653 155.24 194.701 154.216C192.781 153.16 191.229 151.704 190.045 149.848C188.893 147.96 188.317 145.768 188.317 143.272C188.317 140.744 188.893 138.552 190.045 136.696C191.229 134.808 192.781 133.352 194.701 132.328C196.653 131.304 198.829 130.792 201.229 130.792C203.405 130.792 205.325 131.24 206.989 132.136C208.653 133 209.949 134.36 210.877 136.216C211.805 138.04 212.269 140.392 212.269 143.272C212.269 146.12 211.805 148.472 210.877 150.328C209.949 152.152 208.653 153.512 206.989 154.408C205.325 155.304 203.405 155.752 201.229 155.752ZM202.717 149.608C204.029 149.608 205.197 149.352 206.221 148.84C207.245 148.296 208.045 147.544 208.621 146.584C209.197 145.624 209.485 144.52 209.485 143.272C209.485 141.992 209.197 140.888 208.621 139.96C208.045 139 207.245 138.264 206.221 137.752C205.197 137.208 204.029 136.936 202.717 136.936C201.405 136.936 200.237 137.208 199.213 137.752C198.189 138.264 197.373 139 196.765 139.96C196.189 140.888 195.901 141.992 195.901 143.272C195.901 144.52 196.189 145.624 196.765 146.584C197.373 147.544 198.189 148.296 199.213 148.84C200.237 149.352 201.405 149.608 202.717 149.608ZM236.663 157.384C233.719 157.384 231.127 156.808 228.887 155.656C226.679 154.504 224.967 152.936 223.751 150.952C222.535 148.936 221.927 146.648 221.927 144.088C221.927 141.496 222.519 139.208 223.703 137.224C224.919 135.208 226.567 133.64 228.647 132.52C230.727 131.368 233.079 130.792 235.703 130.792C238.231 130.792 240.503 131.336 242.519 132.424C244.567 133.48 246.183 135.016 247.367 137.032C248.551 139.016 249.143 141.4 249.143 144.184C249.143 144.472 249.127 144.808 249.095 145.192C249.063 145.544 249.031 145.88 248.999 146.2H228.023V141.832H245.063L242.183 143.128C242.183 141.784 241.911 140.616 241.367 139.624C240.823 138.632 240.071 137.864 239.111 137.32C238.151 136.744 237.031 136.456 235.751 136.456C234.471 136.456 233.335 136.744 232.343 137.32C231.383 137.864 230.631 138.648 230.087 139.672C229.543 140.664 229.271 141.848 229.271 143.224V144.376C229.271 145.784 229.575 147.032 230.183 148.12C230.823 149.176 231.703 149.992 232.823 150.568C233.975 151.112 235.319 151.384 236.855 151.384C238.231 151.384 239.431 151.176 240.455 150.76C241.511 150.344 242.471 149.72 243.335 148.888L247.319 153.208C246.135 154.552 244.647 155.592 242.855 156.328C241.063 157.032 238.999 157.384 236.663 157.384ZM264.688 157.384C261.648 157.384 259.28 156.616 257.584 155.08C255.888 153.512 255.04 151.192 255.04 148.12V125.464H262.528V148.024C262.528 149.112 262.816 149.96 263.392 150.568C263.968 151.144 264.752 151.432 265.744 151.432C266.928 151.432 267.936 151.112 268.768 150.472L270.784 155.752C270.016 156.296 269.088 156.712 268 157C266.944 157.256 265.84 157.384 264.688 157.384ZM251.056 137.512V131.752H268.96V137.512H251.056ZM288.581 157V131.176H296.069V157H288.581ZM292.325 127.576C290.949 127.576 289.829 127.176 288.965 126.376C288.101 125.576 287.669 124.584 287.669 123.4C287.669 122.216 288.101 121.224 288.965 120.424C289.829 119.624 290.949 119.224 292.325 119.224C293.701 119.224 294.821 119.608 295.685 120.376C296.549 121.112 296.981 122.072 296.981 123.256C296.981 124.504 296.549 125.544 295.685 126.376C294.853 127.176 293.733 127.576 292.325 127.576ZM318.715 130.792C320.763 130.792 322.587 131.208 324.187 132.04C325.819 132.84 327.099 134.088 328.027 135.784C328.955 137.448 329.419 139.592 329.419 142.216V157H321.931V143.368C321.931 141.288 321.467 139.752 320.539 138.76C319.643 137.768 318.363 137.272 316.699 137.272C315.515 137.272 314.443 137.528 313.483 138.04C312.555 138.52 311.819 139.272 311.275 140.296C310.763 141.32 310.507 142.632 310.507 144.232V157H303.019V131.176H310.171V138.328L308.827 136.168C309.755 134.44 311.083 133.112 312.811 132.184C314.539 131.256 316.507 130.792 318.715 130.792ZM360.36 157.384C357.32 157.384 354.952 156.616 353.256 155.08C351.56 153.512 350.712 151.192 350.712 148.12V125.464H358.2V148.024C358.2 149.112 358.488 149.96 359.064 150.568C359.64 151.144 360.424 151.432 361.416 151.432C362.6 151.432 363.608 151.112 364.44 150.472L366.456 155.752C365.688 156.296 364.76 156.712 363.672 157C362.616 157.256 361.512 157.384 360.36 157.384ZM346.728 137.512V131.752H364.632V137.512H346.728ZM382.15 157.384C379.398 157.384 376.95 156.808 374.806 155.656C372.694 154.504 371.014 152.936 369.766 150.952C368.55 148.936 367.942 146.648 367.942 144.088C367.942 141.496 368.55 139.208 369.766 137.224C371.014 135.208 372.694 133.64 374.806 132.52C376.95 131.368 379.398 130.792 382.15 130.792C384.87 130.792 387.302 131.368 389.446 132.52C391.59 133.64 393.27 135.192 394.486 137.176C395.702 139.16 396.31 141.464 396.31 144.088C396.31 146.648 395.702 148.936 394.486 150.952C393.27 152.936 391.59 154.504 389.446 155.656C387.302 156.808 384.87 157.384 382.15 157.384ZM382.15 151.24C383.398 151.24 384.518 150.952 385.51 150.376C386.502 149.8 387.286 148.984 387.862 147.928C388.438 146.84 388.726 145.56 388.726 144.088C388.726 142.584 388.438 141.304 387.862 140.248C387.286 139.192 386.502 138.376 385.51 137.8C384.518 137.224 383.398 136.936 382.15 136.936C380.902 136.936 379.782 137.224 378.79 137.8C377.798 138.376 376.998 139.192 376.39 140.248C375.814 141.304 375.526 142.584 375.526 144.088C375.526 145.56 375.814 146.84 376.39 147.928C376.998 148.984 377.798 149.8 378.79 150.376C379.782 150.952 380.902 151.24 382.15 151.24ZM412.211 157.384C410.067 157.384 408.147 156.968 406.451 156.136C404.787 155.304 403.491 154.04 402.563 152.344C401.635 150.616 401.171 148.424 401.171 145.768V131.176H408.659V144.664C408.659 146.808 409.107 148.392 410.003 149.416C410.931 150.408 412.227 150.904 413.891 150.904C415.043 150.904 416.067 150.664 416.963 150.184C417.859 149.672 418.563 148.904 419.075 147.88C419.587 146.824 419.843 145.512 419.843 143.944V131.176H427.331V157H420.227V149.896L421.523 151.96C420.659 153.752 419.379 155.112 417.683 156.04C416.019 156.936 414.195 157.384 412.211 157.384ZM446.749 157.384C443.965 157.384 441.485 156.824 439.309 155.704C437.133 154.552 435.421 152.968 434.173 150.952C432.957 148.936 432.349 146.648 432.349 144.088C432.349 141.496 432.957 139.208 434.173 137.224C435.421 135.208 437.133 133.64 439.309 132.52C441.485 131.368 443.965 130.792 446.749 130.792C449.469 130.792 451.837 131.368 453.853 132.52C455.869 133.64 457.357 135.256 458.317 137.368L452.509 140.488C451.837 139.272 450.989 138.376 449.965 137.8C448.973 137.224 447.885 136.936 446.701 136.936C445.421 136.936 444.269 137.224 443.245 137.8C442.221 138.376 441.405 139.192 440.797 140.248C440.221 141.304 439.933 142.584 439.933 144.088C439.933 145.592 440.221 146.872 440.797 147.928C441.405 148.984 442.221 149.8 443.245 150.376C444.269 150.952 445.421 151.24 446.701 151.24C447.885 151.24 448.973 150.968 449.965 150.424C450.989 149.848 451.837 148.936 452.509 147.688L458.317 150.856C457.357 152.936 455.869 154.552 453.853 155.704C451.837 156.824 449.469 157.384 446.749 157.384ZM478.183 130.792C480.231 130.792 482.055 131.208 483.655 132.04C485.287 132.84 486.567 134.088 487.495 135.784C488.423 137.448 488.887 139.592 488.887 142.216V157H481.399V143.368C481.399 141.288 480.935 139.752 480.007 138.76C479.111 137.768 477.831 137.272 476.167 137.272C474.983 137.272 473.911 137.528 472.951 138.04C472.023 138.52 471.287 139.272 470.743 140.296C470.231 141.32 469.975 142.632 469.975 144.232V157H462.487V121.384H469.975V138.328L468.295 136.168C469.223 134.44 470.551 133.112 472.279 132.184C474.007 131.256 475.975 130.792 478.183 130.792ZM496.203 145.336L494.715 123.4H503.643L502.155 145.336H496.203ZM499.179 157.384C497.835 157.384 496.731 156.952 495.867 156.088C495.003 155.224 494.571 154.2 494.571 153.016C494.571 151.8 495.003 150.792 495.867 149.992C496.731 149.16 497.835 148.744 499.179 148.744C500.555 148.744 501.659 149.16 502.491 149.992C503.355 150.792 503.787 151.8 503.787 153.016C503.787 154.2 503.355 155.224 502.491 156.088C501.659 156.952 500.555 157.384 499.179 157.384Z" fill="white"/>-->
<!--<rect x="1017" y="87" width="143" height="50" rx="24" fill="white"/>-->
<path d="M1051.42 119V105H1053.42V117.26H1061V119H1051.42ZM1067.6 119.12C1066.47 119.12 1065.47 118.887 1064.6 118.42C1063.75 117.953 1063.08 117.313 1062.6 116.5C1062.13 115.687 1061.9 114.753 1061.9 113.7C1061.9 112.647 1062.13 111.713 1062.58 110.9C1063.05 110.087 1063.68 109.453 1064.48 109C1065.29 108.533 1066.21 108.3 1067.22 108.3C1068.25 108.3 1069.15 108.527 1069.94 108.98C1070.73 109.433 1071.34 110.073 1071.78 110.9C1072.23 111.713 1072.46 112.667 1072.46 113.76C1072.46 113.84 1072.45 113.933 1072.44 114.04C1072.44 114.147 1072.43 114.247 1072.42 114.34H1063.4V112.96H1071.42L1070.64 113.44C1070.65 112.76 1070.51 112.153 1070.22 111.62C1069.93 111.087 1069.52 110.673 1069 110.38C1068.49 110.073 1067.9 109.92 1067.22 109.92C1066.55 109.92 1065.96 110.073 1065.44 110.38C1064.92 110.673 1064.51 111.093 1064.22 111.64C1063.93 112.173 1063.78 112.787 1063.78 113.48V113.8C1063.78 114.507 1063.94 115.14 1064.26 115.7C1064.59 116.247 1065.05 116.673 1065.64 116.98C1066.23 117.287 1066.9 117.44 1067.66 117.44C1068.29 117.44 1068.85 117.333 1069.36 117.12C1069.88 116.907 1070.33 116.587 1070.72 116.16L1071.78 117.4C1071.3 117.96 1070.7 118.387 1069.98 118.68C1069.27 118.973 1068.48 119.12 1067.6 119.12ZM1078.76 119.12C1077.7 119.12 1076.87 118.833 1076.28 118.26C1075.7 117.687 1075.4 116.867 1075.4 115.8V106.08H1077.32V115.72C1077.32 116.293 1077.46 116.733 1077.74 117.04C1078.04 117.347 1078.45 117.5 1078.98 117.5C1079.58 117.5 1080.08 117.333 1080.48 117L1081.08 118.38C1080.79 118.633 1080.44 118.82 1080.02 118.94C1079.62 119.06 1079.2 119.12 1078.76 119.12ZM1073.6 109.98V108.4H1080.36V109.98H1073.6ZM1082.65 109.62L1083.65 105.56L1083.91 106.72C1083.52 106.72 1083.19 106.6 1082.93 106.36C1082.67 106.12 1082.55 105.8 1082.55 105.4C1082.55 104.987 1082.67 104.66 1082.93 104.42C1083.19 104.167 1083.51 104.04 1083.89 104.04C1084.27 104.04 1084.59 104.173 1084.83 104.44C1085.07 104.693 1085.19 105.013 1085.19 105.4C1085.19 105.52 1085.18 105.647 1085.17 105.78C1085.15 105.9 1085.12 106.04 1085.07 106.2C1085.03 106.36 1084.96 106.567 1084.87 106.82L1083.91 109.62H1082.65ZM1090.65 119.12C1089.77 119.12 1088.93 119 1088.13 118.76C1087.34 118.52 1086.72 118.227 1086.27 117.88L1087.07 116.36C1087.52 116.667 1088.08 116.927 1088.75 117.14C1089.41 117.353 1090.09 117.46 1090.79 117.46C1091.68 117.46 1092.32 117.333 1092.71 117.08C1093.11 116.827 1093.31 116.473 1093.31 116.02C1093.31 115.687 1093.19 115.427 1092.95 115.24C1092.71 115.053 1092.39 114.913 1091.99 114.82C1091.6 114.727 1091.17 114.647 1090.69 114.58C1090.21 114.5 1089.73 114.407 1089.25 114.3C1088.77 114.18 1088.33 114.02 1087.93 113.82C1087.53 113.607 1087.21 113.32 1086.97 112.96C1086.73 112.587 1086.61 112.093 1086.61 111.48C1086.61 110.84 1086.79 110.28 1087.15 109.8C1087.51 109.32 1088.01 108.953 1088.67 108.7C1089.33 108.433 1090.12 108.3 1091.03 108.3C1091.72 108.3 1092.42 108.387 1093.13 108.56C1093.85 108.72 1094.43 108.953 1094.89 109.26L1094.07 110.78C1093.59 110.46 1093.09 110.24 1092.57 110.12C1092.05 110 1091.53 109.94 1091.01 109.94C1090.17 109.94 1089.54 110.08 1089.13 110.36C1088.71 110.627 1088.51 110.973 1088.51 111.4C1088.51 111.76 1088.63 112.04 1088.87 112.24C1089.12 112.427 1089.44 112.573 1089.83 112.68C1090.23 112.787 1090.67 112.88 1091.15 112.96C1091.63 113.027 1092.11 113.12 1092.59 113.24C1093.07 113.347 1093.5 113.5 1093.89 113.7C1094.29 113.9 1094.61 114.18 1094.85 114.54C1095.1 114.9 1095.23 115.38 1095.23 115.98C1095.23 116.62 1095.04 117.173 1094.67 117.64C1094.29 118.107 1093.77 118.473 1093.09 118.74C1092.41 118.993 1091.59 119.12 1090.65 119.12ZM1107.64 123C1106.66 123 1105.72 122.86 1104.8 122.58C1103.89 122.313 1103.15 121.927 1102.58 121.42L1103.5 119.94C1103.99 120.367 1104.6 120.7 1105.32 120.94C1106.04 121.193 1106.79 121.32 1107.58 121.32C1108.83 121.32 1109.75 121.027 1110.34 120.44C1110.92 119.853 1111.22 118.96 1111.22 117.76V115.52L1111.42 113.42L1111.32 111.3V108.4H1113.14V117.56C1113.14 119.427 1112.67 120.8 1111.74 121.68C1110.8 122.56 1109.44 123 1107.64 123ZM1107.4 118.56C1106.37 118.56 1105.45 118.347 1104.64 117.92C1103.84 117.48 1103.2 116.873 1102.72 116.1C1102.25 115.327 1102.02 114.433 1102.02 113.42C1102.02 112.393 1102.25 111.5 1102.72 110.74C1103.2 109.967 1103.84 109.367 1104.64 108.94C1105.45 108.513 1106.37 108.3 1107.4 108.3C1108.3 108.3 1109.13 108.487 1109.88 108.86C1110.62 109.22 1111.22 109.78 1111.66 110.54C1112.11 111.3 1112.34 112.26 1112.34 113.42C1112.34 114.567 1112.11 115.52 1111.66 116.28C1111.22 117.04 1110.62 117.613 1109.88 118C1109.13 118.373 1108.3 118.56 1107.4 118.56ZM1107.62 116.88C1108.32 116.88 1108.95 116.733 1109.5 116.44C1110.04 116.147 1110.47 115.74 1110.78 115.22C1111.1 114.7 1111.26 114.1 1111.26 113.42C1111.26 112.74 1111.1 112.14 1110.78 111.62C1110.47 111.1 1110.04 110.7 1109.5 110.42C1108.95 110.127 1108.32 109.98 1107.62 109.98C1106.91 109.98 1106.28 110.127 1105.72 110.42C1105.17 110.7 1104.74 111.1 1104.42 111.62C1104.11 112.14 1103.96 112.74 1103.96 113.42C1103.96 114.1 1104.11 114.7 1104.42 115.22C1104.74 115.74 1105.17 116.147 1105.72 116.44C1106.28 116.733 1106.91 116.88 1107.62 116.88ZM1121.34 119.12C1120.28 119.12 1119.33 118.887 1118.5 118.42C1117.68 117.953 1117.02 117.313 1116.54 116.5C1116.06 115.673 1115.82 114.74 1115.82 113.7C1115.82 112.647 1116.06 111.713 1116.54 110.9C1117.02 110.087 1117.68 109.453 1118.5 109C1119.33 108.533 1120.28 108.3 1121.34 108.3C1122.4 108.3 1123.34 108.533 1124.16 109C1125 109.453 1125.66 110.087 1126.12 110.9C1126.6 111.7 1126.84 112.633 1126.84 113.7C1126.84 114.753 1126.6 115.687 1126.12 116.5C1125.66 117.313 1125 117.953 1124.16 118.42C1123.34 118.887 1122.4 119.12 1121.34 119.12ZM1121.34 117.44C1122.02 117.44 1122.63 117.287 1123.16 116.98C1123.71 116.673 1124.14 116.24 1124.44 115.68C1124.75 115.107 1124.9 114.447 1124.9 113.7C1124.9 112.94 1124.75 112.287 1124.44 111.74C1124.14 111.18 1123.71 110.747 1123.16 110.44C1122.63 110.133 1122.02 109.98 1121.34 109.98C1120.66 109.98 1120.06 110.133 1119.52 110.44C1118.99 110.747 1118.56 111.18 1118.24 111.74C1117.92 112.287 1117.76 112.94 1117.76 113.7C1117.76 114.447 1117.92 115.107 1118.24 115.68C1118.56 116.24 1118.99 116.673 1119.52 116.98C1120.06 117.287 1120.66 117.44 1121.34 117.44Z" fill="#11111B"/>
<path d="M760.217 92.5637C759.66 92.0286 729.965 82.2505 706.718 104.691C685.354 125.338 681.116 159.909 684.333 160.354C688.263 160.893 696.828 143.634 715.864 132.461C722.615 128.52 734.309 130.316 734.309 130.316L760.217 92.5637Z" fill="#147BDA"/>
<path opacity="0.1" d="M734.31 130.317C730.843 129.846 727.334 129.785 723.853 130.136C727.192 120.367 733.45 102.052 737.49 90.3192C745.131 89.3583 752.891 90.1252 760.197 92.5634L734.31 130.317Z" fill="#11111B"/>
<path d="M812.992 141.886C813.55 142.401 825.321 171.375 804.498 196.073C785.365 218.799 751.144 225.345 750.475 222.169C749.672 218.304 766.318 208.558 776.178 188.824C779.661 181.822 777.064 170.275 777.064 170.275L812.992 141.886Z" fill="#147BDA"/>
<path opacity="0.1" d="M816.758 164.546L777.96 180.913C778.085 177.344 777.784 173.772 777.064 170.274L812.992 141.886C815.927 149.062 817.214 156.806 816.758 164.546Z" fill="#11111B"/>
<path d="M751.675 186.117L720.364 156.862C720.364 156.862 730.24 116.725 761.337 86.9079C776.663 72.6639 794.025 60.7831 812.853 51.657C836.495 39.9422 856.859 34.9568 860.493 38.3742C864.126 41.7916 860.557 62.4042 850.472 86.8109C842.607 106.217 831.9 124.346 818.703 140.603C791.054 173.556 751.675 186.117 751.675 186.117Z" fill="#BAD2E8"/>
<path d="M812.546 127.146C809.215 130.687 804.91 133.162 800.175 134.26C795.439 135.357 790.484 135.028 785.935 133.314C781.387 131.599 777.447 128.576 774.614 124.626C771.781 120.676 770.181 115.975 770.015 111.117C769.85 106.259 771.127 101.46 773.685 97.3264C776.243 93.1927 779.968 89.909 784.389 87.8893C788.811 85.8696 793.732 85.2043 798.531 85.9774C803.331 86.7505 807.794 88.9273 811.357 92.2333C813.738 94.4416 815.658 97.099 817.007 100.053C818.356 103.006 819.107 106.197 819.218 109.442C819.328 112.688 818.796 115.922 817.651 118.961C816.505 121.999 814.77 124.781 812.546 127.146Z" fill="#BAD2E8"/>
<path d="M813.611 124.715C810.278 128.254 805.972 130.727 801.235 131.822C796.499 132.917 791.544 132.585 786.996 130.868C782.448 129.151 778.511 126.126 775.68 122.174C772.849 118.223 771.251 113.521 771.089 108.662C770.926 103.804 772.206 99.0057 774.766 94.8734C777.327 90.7412 781.054 87.4596 785.477 85.4426C789.9 83.4256 794.821 82.7633 799.62 83.5395C804.419 84.3156 808.881 86.4953 812.443 89.8038C814.822 92.0134 816.74 94.6718 818.087 97.6259C819.434 100.58 820.184 103.771 820.292 107.016C820.401 110.261 819.866 113.496 818.72 116.533C817.573 119.571 815.836 122.351 813.611 124.715Z" fill="#147BDA"/>
<path d="M808.093 119.532C805.781 122.008 802.787 123.743 799.489 124.517C796.191 125.292 792.738 125.071 789.565 123.883C786.393 122.695 783.644 120.593 781.666 117.842C779.689 115.092 778.571 111.817 778.455 108.431C778.338 105.046 779.229 101.702 781.013 98.822C782.797 95.9423 785.395 93.6563 788.478 92.2531C791.561 90.8498 794.991 90.3923 798.334 90.9385C801.678 91.4846 804.784 93.0099 807.26 95.3213C810.577 98.4242 812.527 102.716 812.683 107.255C812.839 111.793 811.188 116.209 808.093 119.532Z" fill="white"/>
<path d="M808.093 119.532C806.652 121.084 804.932 122.352 803.022 123.268L789.226 123.744C785.785 122.383 782.883 119.935 780.961 116.773L810.761 115.739C810.055 117.123 809.157 118.4 808.093 119.532Z" fill="#D2E3F3"/>
<path d="M808.974 97.1776L781.463 98.1347C781.944 97.4519 782.474 96.8039 783.047 96.1955C784.58 94.5494 786.423 93.2216 788.47 92.2878C790.517 91.354 792.728 90.8327 794.976 90.7535C797.225 90.6743 799.467 91.0388 801.574 91.8263C803.682 92.6137 805.613 93.8086 807.259 95.3428C807.877 95.9097 808.45 96.5231 808.974 97.1776Z" fill="#D2E3F3"/>
<path d="M812.189 112.022L779.297 113.155C779.13 112.665 778.989 112.167 778.873 111.663L812.508 110.503C812.429 111.011 812.309 111.517 812.189 112.022Z" fill="#D2E3F3"/>
<path d="M850.519 86.7343L812.863 51.516C836.505 39.8012 856.87 34.8158 860.503 38.2332C864.137 41.6505 860.563 62.3246 850.519 86.7343Z" fill="#147BDA"/>
<path d="M822.962 53.7481C822.831 53.8887 822.674 54.0021 822.5 54.0818C822.326 54.1616 822.137 54.2061 821.946 54.2129C821.754 54.2196 821.563 54.1885 821.383 54.1213C821.204 54.054 821.039 53.952 820.899 53.821C820.619 53.5601 820.453 53.1984 820.439 52.8155C820.425 52.4325 820.564 52.0597 820.825 51.7791C821.086 51.4984 821.447 51.3329 821.83 51.319C822.213 51.305 822.586 51.4438 822.867 51.7047C823.011 51.8303 823.128 51.9837 823.211 52.1559C823.294 52.328 823.342 52.5152 823.351 52.7061C823.36 52.8971 823.33 53.0879 823.263 53.267C823.196 53.4461 823.093 53.6097 822.962 53.7481Z" fill="white"/>
<path d="M829.654 60.0049C829.524 60.1454 829.367 60.2588 829.193 60.3385C829.018 60.4183 828.83 60.4628 828.638 60.4696C828.447 60.4764 828.256 60.4452 828.076 60.378C827.896 60.3108 827.732 60.2087 827.592 60.0777C827.451 59.9474 827.337 59.7901 827.257 59.615C827.178 59.4399 827.135 59.2506 827.13 59.0584C827.125 58.8662 827.159 58.675 827.229 58.4961C827.299 58.3172 827.405 58.1542 827.539 58.0169C827.669 57.8793 827.824 57.7684 827.995 57.6907C828.167 57.6129 828.353 57.5698 828.542 57.5638C828.73 57.5578 828.918 57.5889 829.095 57.6555C829.271 57.7221 829.433 57.8229 829.57 57.952C829.708 58.081 829.819 58.236 829.897 58.4079C829.974 58.5798 830.017 58.7654 830.024 58.954C830.03 59.1426 829.998 59.3305 829.932 59.507C829.865 59.6836 829.764 59.8453 829.635 59.9829L829.654 60.0049Z" fill="white"/>
<path d="M836.347 66.2615C836.217 66.4029 836.06 66.5167 835.885 66.5961C835.709 66.6755 835.52 66.7189 835.328 66.7238C835.136 66.7287 834.945 66.6949 834.766 66.6245C834.587 66.5541 834.424 66.4485 834.286 66.3139C834.008 66.0532 833.846 65.6928 833.833 65.3119C833.821 64.9311 833.961 64.5609 834.221 64.283C834.482 64.0051 834.843 63.8421 835.224 63.8299C835.604 63.8177 835.974 63.9574 836.252 64.2181C836.394 64.3452 836.509 64.4993 836.591 64.6713C836.672 64.8433 836.719 65.0298 836.727 65.2199C836.736 65.4101 836.707 65.6001 836.642 65.7789C836.577 65.9577 836.477 66.1218 836.347 66.2615Z" fill="white"/>
<path d="M843.04 72.5179C842.777 72.7956 842.414 72.9573 842.031 72.9674C841.648 72.9776 841.277 72.8353 841 72.5719C840.722 72.3084 840.56 71.9455 840.55 71.5628C840.54 71.1802 840.682 70.8092 840.946 70.5314C841.075 70.3875 841.231 70.2714 841.407 70.1903C841.582 70.1092 841.772 70.0649 841.965 70.06C842.158 70.0551 842.35 70.0897 842.529 70.1618C842.708 70.2338 842.871 70.3418 843.007 70.479C843.143 70.6103 843.253 70.7673 843.329 70.9411C843.404 71.1149 843.445 71.3019 843.448 71.4915C843.451 71.681 843.417 71.8693 843.347 72.0455C843.277 72.2217 843.173 72.3822 843.04 72.5179Z" fill="white"/>
<path d="M849.735 78.7549C849.605 78.8925 849.451 79.0033 849.279 79.0811C849.107 79.1588 848.921 79.2019 848.733 79.208C848.544 79.214 848.356 79.1828 848.179 79.1162C848.003 79.0496 847.841 78.9489 847.704 78.8198C847.566 78.6907 847.455 78.5358 847.377 78.3638C847.3 78.1919 847.257 78.0064 847.251 77.8178C847.245 77.6292 847.276 77.4412 847.342 77.2647C847.409 77.0882 847.51 76.9265 847.639 76.7889C847.899 76.5109 848.26 76.3479 848.641 76.3358C849.022 76.3236 849.392 76.4632 849.67 76.7239C849.948 76.9846 850.111 77.3451 850.123 77.7259C850.135 78.1068 849.995 78.4769 849.735 78.7549Z" fill="white"/>
<path d="M728.182 155.182C727.987 155.385 727.735 155.526 727.46 155.587C727.185 155.649 726.898 155.628 726.634 155.527C726.371 155.426 726.143 155.25 725.979 155.021C725.815 154.791 725.723 154.518 725.713 154.237C725.703 153.955 725.776 153.676 725.923 153.436C726.071 153.195 726.285 153.004 726.541 152.884C726.797 152.765 727.082 152.724 727.361 152.766C727.639 152.808 727.9 152.931 728.109 153.119C728.25 153.25 728.363 153.407 728.443 153.581C728.523 153.756 728.567 153.944 728.574 154.135C728.581 154.327 728.55 154.518 728.482 154.698C728.415 154.877 728.313 155.042 728.182 155.182Z" fill="#BAD2E8"/>
<path d="M734.916 161.442C734.72 161.645 734.469 161.786 734.194 161.847C733.919 161.909 733.631 161.888 733.368 161.787C733.105 161.686 732.877 161.51 732.713 161.28C732.549 161.051 732.456 160.778 732.446 160.496C732.436 160.215 732.51 159.936 732.657 159.696C732.804 159.455 733.019 159.263 733.275 159.144C733.53 159.025 733.815 158.984 734.094 159.026C734.373 159.067 734.633 159.19 734.843 159.379C734.983 159.51 735.097 159.667 735.177 159.841C735.256 160.015 735.301 160.204 735.308 160.395C735.314 160.587 735.283 160.778 735.216 160.957C735.149 161.137 735.047 161.302 734.916 161.442Z" fill="#BAD2E8"/>
<path d="M741.649 167.701C741.454 167.904 741.203 168.046 740.927 168.107C740.652 168.168 740.365 168.147 740.102 168.046C739.838 167.946 739.61 167.77 739.447 167.54C739.283 167.311 739.19 167.038 739.18 166.756C739.17 166.474 739.243 166.196 739.391 165.955C739.538 165.715 739.753 165.523 740.008 165.404C740.264 165.285 740.549 165.244 740.828 165.285C741.107 165.327 741.367 165.45 741.577 165.639C741.717 165.769 741.83 165.926 741.91 166.101C741.99 166.275 742.034 166.463 742.041 166.655C742.048 166.847 742.017 167.038 741.95 167.217C741.882 167.397 741.78 167.561 741.649 167.701Z" fill="#BAD2E8"/>
<path d="M748.302 173.955C748.106 174.158 747.855 174.299 747.58 174.361C747.304 174.422 747.017 174.401 746.754 174.3C746.49 174.2 746.263 174.023 746.099 173.794C745.935 173.565 745.842 173.292 745.832 173.01C745.822 172.728 745.895 172.45 746.043 172.209C746.19 171.969 746.405 171.777 746.66 171.658C746.916 171.539 747.201 171.498 747.48 171.539C747.759 171.581 748.019 171.704 748.229 171.893C748.369 172.023 748.483 172.18 748.562 172.355C748.642 172.529 748.687 172.717 748.693 172.909C748.7 173.101 748.669 173.292 748.602 173.471C748.535 173.651 748.432 173.815 748.302 173.955Z" fill="#BAD2E8"/>
<path d="M754.994 180.214C754.799 180.417 754.547 180.558 754.272 180.62C753.997 180.681 753.71 180.66 753.446 180.559C753.183 180.458 752.955 180.282 752.791 180.053C752.627 179.823 752.535 179.551 752.525 179.269C752.515 178.987 752.588 178.709 752.735 178.468C752.883 178.228 753.097 178.036 753.353 177.917C753.609 177.798 753.894 177.756 754.172 177.798C754.451 177.84 754.712 177.963 754.921 178.152C755.062 178.282 755.175 178.439 755.255 178.613C755.335 178.788 755.379 178.976 755.386 179.168C755.393 179.359 755.362 179.55 755.294 179.73C755.227 179.91 755.125 180.074 754.994 180.214Z" fill="#BAD2E8"/>
<path opacity="0.2" d="M858.851 37.4918C839.948 41.0843 808.327 56.3608 776.765 87.727C753.448 110.841 738.84 148.22 732.307 168.036L720.364 156.863C720.364 156.863 730.24 116.726 761.337 86.9087C776.663 72.6647 794.025 60.7839 812.853 51.6578C834.065 41.0788 852.609 35.9579 858.851 37.4918Z" fill="white"/>
<path d="M739.986 192.839L714.542 169.04L722.132 158.538L749.982 184.552L739.986 192.839Z" fill="#147BDA"/>
<path opacity="0.1" d="M749.982 184.552L745.116 188.571L719.241 162.56L722.132 158.537L749.982 184.552Z" fill="#11111B"/>
<path d="M843.62 52.8345L837.859 53.126L835.806 58.8768L835.354 52.7957L829.872 50.9893L835.657 50.3705L837.686 44.947L838.223 50.7259L843.62 52.8345Z" fill="#D2E3F3"/>
<path d="M810.909 174.314L805.171 174.587L803.116 180.358L802.645 174.255L797.162 172.469L802.947 171.85L804.975 166.426L805.514 172.185L810.909 174.314Z" fill="#D2E3F3"/>
<path d="M703.325 135.663L697.566 135.934L695.513 141.685L695.06 135.603L689.579 133.797L695.363 133.199L697.391 127.775L697.909 133.532L703.325 135.663Z" fill="#D2E3F3"/>
<path opacity="0.6" d="M734.389 187.609C724.695 195.736 716.807 205.799 711.231 217.153C705.624 228.664 703.188 241.463 704.175 254.229C704.752 260.705 706.29 267.059 708.738 273.081C711.243 279.202 714.613 284.932 718.745 290.096C722.978 295.345 727.862 300.035 733.278 304.053C738.813 308.131 744.758 311.62 751.016 314.465C744.412 312.322 738.045 309.504 732.018 306.058C725.904 302.541 720.264 298.257 715.235 293.311C704.845 283.062 697.711 269.973 694.728 255.686C691.902 241.03 693.029 225.885 697.991 211.807C702.961 197.649 710.833 184.685 721.104 173.745L734.389 187.609Z" fill="#147BDA"/>
<path d="M718.495 205.494L714.516 206.72L714.106 211.133L712.69 206.934L708.516 206.644L712.47 205.19L712.926 201.007L714.317 204.978L718.495 205.494Z" fill="white"/>
<path d="M713.933 192.443L711.702 193.121L711.457 195.591L710.664 193.249L708.332 193.076L710.551 192.274L710.808 189.928L711.589 192.145L713.933 192.443Z" fill="white"/>
<path d="M725.758 187.768C725.604 187.811 725.47 187.908 725.38 188.041C725.291 188.174 725.252 188.335 725.269 188.494C725.287 188.654 725.361 188.801 725.478 188.911C725.594 189.021 725.746 189.087 725.906 189.095C726.061 189.051 726.195 188.955 726.284 188.821C726.374 188.688 726.413 188.528 726.395 188.368C726.378 188.209 726.304 188.061 726.187 187.951C726.07 187.841 725.918 187.776 725.758 187.768Z" fill="white"/>
<path d="M699.641 222.81C699.329 222.881 699.055 223.064 698.871 223.325C698.686 223.586 698.605 223.906 698.643 224.223C698.681 224.541 698.835 224.833 699.075 225.043C699.316 225.254 699.625 225.368 699.945 225.363C700.257 225.292 700.531 225.109 700.715 224.848C700.9 224.587 700.981 224.267 700.943 223.95C700.905 223.632 700.751 223.34 700.511 223.13C700.27 222.919 699.961 222.806 699.641 222.81Z" fill="white"/>
<path opacity="0.5" d="M738.461 28.7946L730.088 29.1923L727.09 37.6138L726.402 28.708L718.401 26.102L726.843 25.1991L729.803 17.285L730.588 25.6877L738.461 28.7946Z" fill="#D2E3F3"/>
<path opacity="0.8" d="M245.345 198.304L236.971 198.702L233.974 207.124L233.286 198.218L225.285 195.612L233.727 194.709L236.686 186.795L237.472 195.197L245.345 198.304Z" fill="#D2E3F3"/>
<path d="M157.416 17.4403L141.693 26.8474L144.608 46.1657L134.092 29.7178L115.989 32.9524L131.321 22.5021L128.857 4.20044L139.042 19.5786L157.416 17.4403Z" fill="#147BDA"/>
<path opacity="0.7" d="M931.298 165.432L925.559 165.705L923.505 171.476L923.033 165.373L917.551 163.587L923.336 162.968L925.364 157.545L925.902 163.303L931.298 165.432Z" fill="#D2E3F3"/>
<path opacity="0.2" d="M1197.55 199.498L1184.01 200.141L1179.16 213.756L1178.05 199.358L1165.12 195.144L1178.76 193.685L1183.55 180.889L1184.82 194.475L1197.55 199.498Z" fill="#D2E3F3"/>
<path opacity="0.5" d="M1183.3 25.4322L1177.56 25.7048L1175.51 31.4761L1175.03 25.3729L1169.55 23.587L1175.34 22.9682L1177.36 17.5447L1177.9 23.3031L1183.3 25.4322Z" fill="#D2E3F3"/>

</svg>
