<svg width="180" height="160" viewBox="0 0 180 160" fill="none" xmlns="http://www.w3.org/2000/svg">
<path d="M121 118H7C5.34315 118 4 119.343 4 121C4 122.657 5.34315 124 7 124H121V118Z" fill="#147BDA"/>
<path d="M122 118V124H48L48.7305 118H122Z" fill="white"/>
<path d="M51.7302 124H162.328C164.348 124 166.052 122.493 166.298 120.487L174.83 50.9677C175.123 48.5832 173.262 46.4805 170.86 46.4805H64.7681C62.7471 46.4805 61.0436 47.988 60.7978 49.994L51.7302 124Z" fill="#147BDA"/>
<path d="M114.712 77.1174C113.057 76.963 111.393 77.3027 109.931 78.0938C108.469 78.8848 107.275 80.0916 106.499 81.5615C105.723 83.0314 105.4 84.6984 105.572 86.3517C105.743 88.005 106.401 89.5704 107.462 90.8498C108.523 92.1292 109.94 93.0652 111.533 93.5395C113.126 94.0138 114.824 94.005 116.412 93.5143C118 93.0236 119.407 92.073 120.455 90.7827C121.502 89.4924 122.144 87.9204 122.298 86.2654C122.403 85.1663 122.289 84.0574 121.964 83.0024C121.638 81.9473 121.108 80.9668 120.403 80.117C119.699 79.2672 118.833 78.5648 117.856 78.0501C116.88 77.5354 115.811 77.2184 114.712 77.1174ZM118.517 85.9117C118.434 86.8201 118.082 87.6833 117.508 88.392C116.933 89.1007 116.162 89.6231 115.29 89.893C114.419 90.1629 113.487 90.1683 112.612 89.9084C111.738 89.6485 110.96 89.1349 110.378 88.4329C109.795 87.7308 109.434 86.8717 109.34 85.9643C109.246 85.0568 109.423 84.1419 109.849 83.3353C110.276 82.5287 110.931 81.8666 111.734 81.4328C112.536 80.9991 113.45 80.8131 114.358 80.8986C115.573 81.0161 116.691 81.609 117.471 82.5481C118.25 83.4872 118.626 84.6963 118.517 85.9117Z" fill="white"/>
<path d="M114.797 93.657L111.577 93.3521L111.54 95.6451L114.407 95.9135L114.797 93.657Z" fill="white"/>
<path d="M108.772 91.9975L106.698 89.5093L105.052 91.1071L106.893 93.327L108.772 91.9975Z" fill="white"/>
<path d="M105.673 86.5696L105.978 83.3496L103.685 83.313L103.417 86.1793L105.673 86.5696Z" fill="white"/>
<path d="M107.332 80.5449L109.821 78.4835L108.223 76.8369L106.003 78.6665L107.332 80.5449Z" fill="white"/>
<path d="M112.76 77.4581L115.98 77.7509L116.017 75.4578L113.15 75.1895L112.76 77.4581Z" fill="white"/>
<path d="M118.786 79.1044L120.847 81.5927L122.494 79.9948L120.664 77.7871L118.786 79.1044Z" fill="white"/>
<path d="M121.872 84.5327L121.579 87.7528L123.872 87.7894L124.14 84.923L121.872 84.5327Z" fill="white"/>
<path d="M120.225 90.5586L117.737 92.6321L119.334 94.2788L121.542 92.4369L120.225 90.5586Z" fill="white"/>
</svg>
