<svg width="90" height="90" viewBox="0 0 90 90" fill="none" xmlns="http://www.w3.org/2000/svg">
<path fill-rule="evenodd" clip-rule="evenodd" d="M0.630087 15C2.8503 6.37386 10.6808 0 20 0H70C79.3192 0 87.1497 6.37386 89.3699 15H77.7013C77.3804 14.9149 77.0433 14.8696 76.6957 14.8696H67.3043H52.4348H37.5652H22.6957H13.3043C12.9567 14.8696 12.6196 14.9149 12.2987 15H0.630087ZM0.0987503 18C0.0334388 18.6578 0 19.325 0 20V70C0 81.0457 8.9543 90 20 90H70C81.0457 90 90 81.0457 90 70V20C90 19.325 89.9666 18.6578 89.9013 18H80.5304C80.5817 18.2529 80.6087 18.5146 80.6087 18.7826V48.5217C80.6087 50.6828 78.8568 52.4348 76.6957 52.4348H71.2174V59.8696C71.2174 62.0307 69.4655 63.7826 67.3043 63.7826H56.3478V70.8261C56.3478 72.9872 54.5959 74.7391 52.4348 74.7391H37.5652C35.4041 74.7391 33.6522 72.9872 33.6522 70.8261V63.7826H22.6957C20.5345 63.7826 18.7826 62.0307 18.7826 59.8696V52.4348H13.3043C11.1432 52.4348 9.3913 50.6828 9.3913 48.5217V18.7826C9.3913 18.5146 9.41825 18.2529 9.46958 18H0.0987503Z" fill="#147BDA"/>
<rect x="14.8696" y="20.7393" width="9.78261" height="18.7826" rx="4.8913" fill="#147BDA"/>
<rect x="31.6956" y="20.7393" width="9.78261" height="18.7826" rx="4.8913" fill="#147BDA"/>
<rect x="48.5217" y="20.7393" width="9.78261" height="18.7826" rx="4.8913" fill="#147BDA"/>
<rect x="65.3479" y="20.7393" width="9.78261" height="18.7826" rx="4.8913" fill="#147BDA"/>
</svg>
