<svg width="32" height="32" viewBox="0 0 32 32" fill="none" xmlns="http://www.w3.org/2000/svg">
    <rect width="18" height="18" rx="2" fill="#BAD2E8"/>
    <path d="M5 6.8H11.3636M9.54545 5V6.8C9.54545 10.7762 7.51 14 5 14M5.90909 10.4C5.90909 12.3296 8.59273 13.9172 12 14" stroke="black" stroke-width="1.6" stroke-linecap="round" stroke-linejoin="round"/>
    <rect x="14" y="14" width="18" height="18" rx="2" fill="#D2E3F3"/>
    <path d="M19 27L23 18L27 27M26.1 25H19.9" stroke="black" stroke-width="1.6" stroke-linecap="round" stroke-linejoin="round"/>
    <path d="M28.35 12C28.35 12.359 28.641 12.65 29 12.65C29.359 12.65 29.65 12.359 29.65 12H28.35ZM19.5404 5.54038C19.2865 5.79422 19.2865 6.20578 19.5404 6.45962L23.677 10.5962C23.9308 10.85 24.3424 10.85 24.5962 10.5962C24.85 10.3424 24.85 9.9308 24.5962 9.67696L20.9192 6L24.5962 2.32304C24.85 2.0692 24.85 1.65765 24.5962 1.40381C24.3424 1.14997 23.9308 1.14997 23.677 1.40381L19.5404 5.54038ZM29.65 12V8H28.35V12H29.65ZM27 5.35L20 5.35V6.65L27 6.65V5.35ZM29.65 8C29.65 6.53645 28.4636 5.35 27 5.35V6.65C27.7456 6.65 28.35 7.25442 28.35 8H29.65Z" fill="black"/>
    <path d="M3.65 20C3.65 19.641 3.35898 19.35 3 19.35C2.64102 19.35 2.35 19.641 2.35 20H3.65ZM12.4596 26.4596C12.7135 26.2058 12.7135 25.7942 12.4596 25.5404L8.32304 21.4038C8.0692 21.15 7.65765 21.15 7.40381 21.4038C7.14997 21.6576 7.14997 22.0692 7.40381 22.323L11.0808 26L7.40381 29.677C7.14997 29.9308 7.14997 30.3424 7.40381 30.5962C7.65765 30.85 8.0692 30.85 8.32304 30.5962L12.4596 26.4596ZM2.35 20V24H3.65V20H2.35ZM5 26.65H12V25.35H5V26.65ZM2.35 24C2.35 25.4636 3.53645 26.65 5 26.65V25.35C4.25442 25.35 3.65 24.7456 3.65 24H2.35Z" fill="black"/>
    <path d="M48.0098 15.04H55.2098V16.74H48.0098V15.04ZM48.1898 21.26H56.3498V23H46.1898V9H56.0698V10.74H48.1898V21.26ZM64.9683 12.3C65.8349 12.3 66.5949 12.4667 67.2483 12.8C67.9149 13.1333 68.4349 13.64 68.8083 14.32C69.1816 15 69.3683 15.86 69.3683 16.9V23H67.4483V17.12C67.4483 16.0933 67.1949 15.32 66.6883 14.8C66.1949 14.28 65.4949 14.02 64.5883 14.02C63.9083 14.02 63.3149 14.1533 62.8083 14.42C62.3016 14.6867 61.9083 15.08 61.6283 15.6C61.3616 16.12 61.2283 16.7667 61.2283 17.54V23H59.3083V12.4H61.1483V15.26L60.8483 14.5C61.1949 13.8067 61.7283 13.2667 62.4483 12.88C63.1683 12.4933 64.0083 12.3 64.9683 12.3ZM77.5616 27C76.5882 27 75.6416 26.86 74.7216 26.58C73.8149 26.3133 73.0749 25.9267 72.5016 25.42L73.4216 23.94C73.9149 24.3667 74.5216 24.7 75.2416 24.94C75.9616 25.1933 76.7149 25.32 77.5016 25.32C78.7549 25.32 79.6749 25.0267 80.2616 24.44C80.8482 23.8533 81.1416 22.96 81.1416 21.76V19.52L81.3416 17.42L81.2416 15.3V12.4H83.0616V21.56C83.0616 23.4267 82.5949 24.8 81.6616 25.68C80.7282 26.56 79.3616 27 77.5616 27ZM77.3216 22.56C76.2949 22.56 75.3749 22.3467 74.5616 21.92C73.7616 21.48 73.1216 20.8733 72.6416 20.1C72.1749 19.3267 71.9416 18.4333 71.9416 17.42C71.9416 16.3933 72.1749 15.5 72.6416 14.74C73.1216 13.9667 73.7616 13.3667 74.5616 12.94C75.3749 12.5133 76.2949 12.3 77.3216 12.3C78.2282 12.3 79.0549 12.4867 79.8016 12.86C80.5482 13.22 81.1416 13.78 81.5816 14.54C82.0349 15.3 82.2616 16.26 82.2616 17.42C82.2616 18.5667 82.0349 19.52 81.5816 20.28C81.1416 21.04 80.5482 21.6133 79.8016 22C79.0549 22.3733 78.2282 22.56 77.3216 22.56ZM77.5416 20.88C78.2482 20.88 78.8749 20.7333 79.4216 20.44C79.9682 20.1467 80.3949 19.74 80.7016 19.22C81.0216 18.7 81.1816 18.1 81.1816 17.42C81.1816 16.74 81.0216 16.14 80.7016 15.62C80.3949 15.1 79.9682 14.7 79.4216 14.42C78.8749 14.1267 78.2482 13.98 77.5416 13.98C76.8349 13.98 76.2016 14.1267 75.6416 14.42C75.0949 14.7 74.6616 15.1 74.3416 15.62C74.0349 16.14 73.8816 16.74 73.8816 17.42C73.8816 18.1 74.0349 18.7 74.3416 19.22C74.6616 19.74 75.0949 20.1467 75.6416 20.44C76.2016 20.7333 76.8349 20.88 77.5416 20.88Z" fill="#11111B"/>
</svg>