<svg width="181" height="160" viewBox="0 0 181 160" fill="none" xmlns="http://www.w3.org/2000/svg">
<path d="M143.8 39.36C144.297 39.0559 144.868 38.895 145.45 38.895C146.032 38.895 146.603 39.0559 147.1 39.36L147.95 39.85L148.82 40.29C149.351 40.5283 149.804 40.9102 150.129 41.3926C150.455 41.875 150.638 42.4387 150.66 43.02L150.79 47.08L164.02 46.67L163.9 42.61C163.882 42.0258 164.028 41.4483 164.321 40.9429C164.615 40.4374 165.044 40.0242 165.56 39.75C166.138 39.4472 166.698 39.1134 167.24 38.75C167.715 38.4145 168.275 38.2173 168.855 38.1802C169.436 38.1432 170.016 38.2677 170.53 38.54L174.1 40.45L180.36 28.75L176.78 26.84C176.271 26.5595 175.848 26.1444 175.559 25.64C175.27 25.1355 175.125 24.5613 175.14 23.98C175.156 23.3127 175.136 22.6451 175.08 21.98C175.014 21.393 175.117 20.7995 175.375 20.2685C175.634 19.7374 176.038 19.2906 176.54 18.98L179.99 16.83L172.99 5.58L169.52 7.73C169.025 8.03429 168.456 8.19538 167.875 8.19538C167.294 8.19538 166.725 8.03429 166.23 7.73C165.95 7.56 165.67 7.4 165.38 7.25C165.09 7.1 164.81 6.95 164.51 6.81C163.979 6.56908 163.526 6.18517 163.201 5.70125C162.876 5.21732 162.692 4.65249 162.67 4.07L162.54 0L149.3 0.480003L149.43 4.54C149.446 5.12248 149.299 5.69787 149.006 6.20139C148.713 6.7049 148.285 7.11655 147.77 7.39C147.19 7.71 146.63 8.06 146.09 8.39C145.615 8.72705 145.057 8.92603 144.476 8.96487C143.895 9.0037 143.315 8.88087 142.8 8.61L139.3 6.75L133 18.4L136.57 20.32C137.081 20.5962 137.505 21.009 137.794 21.5123C138.084 22.0156 138.228 22.5896 138.21 23.17C138.21 23.8367 138.23 24.5033 138.27 25.17C138.334 25.7568 138.231 26.3499 137.973 26.8807C137.715 27.4116 137.312 27.8585 136.81 28.17L133.37 30.3L140.37 41.55L143.8 39.36ZM147.11 18.46C148.124 16.5687 149.675 15.0205 151.569 14.0111C153.463 13.0017 155.613 12.5764 157.748 12.789C159.883 13.0016 161.908 13.8426 163.565 15.2056C165.222 16.5686 166.438 18.3925 167.059 20.4465C167.68 22.5005 167.678 24.6925 167.053 26.7453C166.428 28.7981 165.208 30.6195 163.548 31.9792C161.888 33.339 159.862 34.1759 157.727 34.3843C155.591 34.5927 153.442 34.1632 151.55 33.15C149.015 31.7891 147.123 29.4778 146.291 26.7235C145.459 23.9693 145.753 20.9972 147.11 18.46Z" fill="#D2E3F3"/>
<path d="M160 22H21V116.452L72.139 116.452L69.8643 133.48L63.4116 133.477V138H117.583V133.477L111.133 133.48L108.855 116.452L160 116.452V22Z" fill="#147BDA"/>
<path d="M153.591 27.5942H27.4822V108.567H153.591V27.5942Z" fill="white"/>
<path d="M36.6163 54.978H32.4912V57.3336H36.6163V54.978Z" fill="#D2E3F3"/>
<path d="M136.502 54.978H42.2146V57.0391H136.502V54.978Z" fill="#D2E3F3"/>
<path d="M36.6163 59.3945H32.4912V61.7501H36.6163V59.3945Z" fill="#D2E3F3"/>
<path d="M78.4562 59.3945H46.3396V61.4557H78.4562V59.3945Z" fill="#024786"/>
<path d="M72.8579 73.8223H42.2146V75.8834H72.8579V73.8223Z" fill="#024786"/>
<path d="M67.8489 64.4004H46.3396V66.4615H67.8489V64.4004Z" fill="#147BDA"/>
<path d="M136.502 91.7837H95.8406V93.8448H136.502V91.7837Z" fill="#024786"/>
<path d="M135.323 78.2393H42.2146V80.3004H135.323V78.2393Z" fill="#147BDA"/>
<path d="M146.225 59.3945H80.2241V61.4557H146.225V59.3945Z" fill="#D2E3F3"/>
<path d="M36.6163 64.4004H32.4912V66.756H36.6163V64.4004Z" fill="#D2E3F3"/>
<path d="M36.6163 68.8169H32.4912V71.1725H36.6163V68.8169Z" fill="#D2E3F3"/>
<path d="M67.2596 68.8169H42.2146V70.878H67.2596V68.8169Z" fill="#D2E3F3"/>
<path d="M71.3846 82.6558H46.3396V84.7169H71.3846V82.6558Z" fill="#D2E3F3"/>
<path d="M136.502 87.6616H69.0276V89.7227H136.502V87.6616Z" fill="#D2E3F3"/>
<path d="M65.197 87.6616H46.3396V89.7227H65.197V87.6616Z" fill="#024786"/>
<path d="M147.404 73.8223H74.3313V75.8834H147.404V73.8223Z" fill="#D2E3F3"/>
<path d="M142.69 68.8169H69.9116V70.878H142.69V68.8169Z" fill="#147BDA"/>
<path d="M36.6163 73.5278H32.4912V75.8834H36.6163V73.5278Z" fill="#D2E3F3"/>
<path d="M36.6163 78.2393H32.4912V80.5948H36.6163V78.2393Z" fill="#D2E3F3"/>
<path d="M36.6163 82.6558H32.4912V85.0113H36.6163V82.6558Z" fill="#D2E3F3"/>
<path d="M36.6163 87.3672H32.4912V89.7228H36.6163V87.3672Z" fill="#D2E3F3"/>
<path d="M36.6163 91.7837H32.4912V94.1393H36.6163V91.7837Z" fill="#D2E3F3"/>
<path d="M92.01 91.7837H42.2146V93.8448H92.01V91.7837Z" fill="#D2E3F3"/>
<path d="M36.6163 96.2002H32.4912V98.5558H36.6163V96.2002Z" fill="#D2E3F3"/>
<path d="M78.4562 96.2002H46.3396V98.2613H78.4562V96.2002Z" fill="#024786"/>
<path d="M114.109 96.2002H82.2866V98.2613H114.109V96.2002Z" fill="#024786"/>
<path d="M153.653 27.5942H27.4822V30.6653H153.653V27.5942Z" fill="#D2E3F3"/>
<path d="M30.3756 29.1314C30.3756 29.2478 30.3411 29.3617 30.2763 29.4585C30.2115 29.5554 30.1195 29.6309 30.0118 29.6754C29.9042 29.72 29.7857 29.7317 29.6714 29.7089C29.557 29.6862 29.452 29.6301 29.3696 29.5478C29.2872 29.4654 29.2311 29.3605 29.2083 29.2463C29.1856 29.132 29.1973 29.0136 29.2419 28.906C29.2865 28.7984 29.362 28.7064 29.4589 28.6417C29.5558 28.577 29.6698 28.5425 29.7863 28.5425C29.9426 28.5425 30.0925 28.6045 30.203 28.715C30.3135 28.8254 30.3756 28.9752 30.3756 29.1314Z" fill="#147BDA"/>
<path d="M32.7506 29.1314C32.7506 29.2478 32.716 29.3617 32.6513 29.4585C32.5865 29.5554 32.4945 29.6309 32.3868 29.6754C32.2791 29.72 32.1607 29.7317 32.0463 29.7089C31.932 29.6862 31.827 29.6301 31.7446 29.5478C31.6622 29.4654 31.6061 29.3605 31.5833 29.2463C31.5606 29.132 31.5723 29.0136 31.6169 28.906C31.6615 28.7984 31.737 28.7064 31.8339 28.6417C31.9308 28.577 32.0448 28.5425 32.1613 28.5425C32.3176 28.5425 32.4675 28.6045 32.578 28.715C32.6885 28.8254 32.7506 28.9752 32.7506 29.1314Z" fill="white"/>
<path d="M35.1254 29.1314C35.1254 29.2478 35.0908 29.3617 35.0261 29.4585C34.9613 29.5554 34.8693 29.6309 34.7616 29.6754C34.6539 29.72 34.5354 29.7317 34.4211 29.7089C34.3068 29.6862 34.2018 29.6301 34.1194 29.5478C34.037 29.4654 33.9808 29.3605 33.9581 29.2463C33.9354 29.132 33.947 29.0136 33.9916 28.906C34.0362 28.7984 34.1118 28.7064 34.2087 28.6417C34.3056 28.577 34.4195 28.5425 34.5361 28.5425C34.6924 28.5425 34.8423 28.6045 34.9528 28.715C35.0633 28.8254 35.1254 28.9752 35.1254 29.1314Z" fill="#11111B"/>
<path d="M36.91 44.5031C36.9845 44.5761 37.0437 44.6639 37.0842 44.7611C37.1247 44.8584 37.1456 44.9632 37.1456 45.069C37.1456 45.1749 37.1247 45.2796 37.0842 45.3769C37.0437 45.4742 36.9845 45.562 36.91 45.6349C36.769 45.7687 36.5856 45.8451 36.394 45.85C36.1953 45.8475 36.0042 45.7711 35.8559 45.6349L32.5618 42.2396C32.5451 42.2372 32.5296 42.2293 32.5177 42.2171C32.5058 42.2048 32.4981 42.1888 32.4959 42.1717C32.4897 42.138 32.4897 42.1034 32.4959 42.0698C32.4959 42.0698 32.4959 42.0698 32.4959 42.0019V41.9114C32.4959 41.9114 32.4959 41.9113 32.4959 41.8434C32.4959 41.7755 32.4959 41.8434 32.4959 41.7755V41.5379C32.4959 41.5379 32.4959 41.5379 32.4959 41.436C32.4939 41.4021 32.4939 41.3681 32.4959 41.3341C32.5018 41.3143 32.5117 41.296 32.5249 41.2804C32.5382 41.2648 32.5545 41.2523 32.5728 41.2436L35.8669 37.8482C35.9377 37.7715 36.0228 37.7105 36.1172 37.6687C36.2116 37.627 36.3132 37.6055 36.4159 37.6055C36.5186 37.6055 36.6203 37.627 36.7146 37.6687C36.809 37.7105 36.8942 37.7715 36.965 37.8482C37.0408 37.9203 37.1014 38.0078 37.1428 38.1052C37.1842 38.2026 37.2056 38.3078 37.2056 38.4141C37.2056 38.5205 37.1842 38.6257 37.1428 38.7231C37.1014 38.8205 37.0408 38.9079 36.965 38.98L34.2088 41.8548L36.91 44.5031Z" fill="#147BDA"/>
<path d="M40.2216 44.9306L43.0588 38.0078C43.0909 37.9277 43.1383 37.855 43.1982 37.794C43.2581 37.7329 43.3293 37.6848 43.4076 37.6525C43.4859 37.6201 43.5697 37.6042 43.6541 37.6056C43.7385 37.6069 43.8218 37.6256 43.899 37.6605C43.9744 37.6935 44.0426 37.7414 44.0999 37.8015C44.1571 37.8616 44.2023 37.9327 44.2327 38.0108C44.2631 38.0889 44.2782 38.1723 44.2771 38.2564C44.276 38.3405 44.2588 38.4235 44.2264 38.5007L41.3892 45.4459C41.3374 45.5619 41.2545 45.6604 41.1501 45.7299C41.0457 45.7993 40.9243 45.8368 40.7999 45.838C40.7243 45.854 40.6464 45.854 40.5708 45.838C40.4862 45.8067 40.409 45.7573 40.3445 45.6931C40.2799 45.6288 40.2294 45.5512 40.1964 45.4653C40.1633 45.3795 40.1485 45.2874 40.1528 45.1952C40.1572 45.103 40.1806 45.0128 40.2216 44.9306Z" fill="#147BDA"/>
<path d="M50.9458 42.128C50.9219 42.1601 50.8925 42.1872 50.8593 42.2079L47.6149 45.633C47.4782 45.7718 47.2961 45.8495 47.1066 45.85C46.9143 45.8468 46.7297 45.7697 46.5875 45.633C46.5113 45.5613 46.4503 45.4733 46.4085 45.375C46.3668 45.2766 46.3452 45.17 46.3452 45.0622C46.3452 44.9544 46.3668 44.8478 46.4085 44.7494C46.4503 44.651 46.5113 44.5631 46.5875 44.4913L49.302 41.6028L46.5875 38.7029C46.5097 38.6322 46.4473 38.5446 46.4045 38.446C46.3617 38.3475 46.3396 38.2404 46.3396 38.1321C46.3396 38.0237 46.3617 37.9166 46.4045 37.8181C46.4473 37.7196 46.5097 37.632 46.5875 37.5612C46.6563 37.4823 46.7399 37.4194 46.833 37.3763C46.9261 37.3333 47.0266 37.311 47.1282 37.311C47.2298 37.311 47.3303 37.3333 47.4234 37.3763C47.5165 37.4194 47.6001 37.4823 47.6689 37.5612L50.9134 40.9863C50.9499 41.0073 50.98 41.0391 50.9999 41.0777C51.0198 41.1108 51.0378 41.1451 51.054 41.1804C51.0492 41.2183 51.0492 41.2567 51.054 41.2946V41.5914C51.054 41.5914 51.054 41.5914 51.054 41.6599V41.7627C51.0524 41.7969 51.0524 41.8312 51.054 41.8654L50.9458 42.128Z" fill="#147BDA"/>
</svg>
