<svg width="40" height="40" viewBox="0 0 40 40" fill="none" xmlns="http://www.w3.org/2000/svg">
<rect width="40" height="40" rx="4" fill="#147BDA"/>
<path d="M31.6666 22.3751V31.6663H26.7755V23.0237C26.7755 22.3728 26.517 21.7485 26.0567 21.2882C25.5964 20.828 24.9722 20.5694 24.3212 20.5694C22.9714 20.5694 21.8845 21.6738 21.8845 23.0237V31.6663H16.9934V16.9932H21.8845V18.9391C22.7259 17.5717 24.4615 16.6601 25.9516 16.6601C27.4673 16.6601 28.9209 17.2622 29.9927 18.3339C31.0645 19.4057 31.6666 20.8594 31.6666 22.3751Z" fill="white"/>
<path d="M13.3785 13.3782C12.8262 13.9306 12.077 14.2408 11.2959 14.2408C9.66558 14.2408 8.33325 12.926 8.33325 11.2957C8.33325 10.5099 8.64539 9.75637 9.201 9.20076C9.75661 8.64515 10.5102 8.33301 11.2959 8.33301C12.9263 8.33301 14.2411 9.66535 14.2411 11.2957C14.2411 12.0768 13.9308 12.8259 13.3785 13.3782Z" fill="white"/>
<path d="M13.7327 16.9932V31.6663H8.8767V16.9932H13.7327Z" fill="white"/>
</svg>
