<svg width="24" height="24" viewBox="0 0 24 24" fill="none" xmlns="http://www.w3.org/2000/svg">
<path fill-rule="evenodd" clip-rule="evenodd" d="M6.64996 5.44575C6.80309 5.29305 6.98691 5.17461 7.18925 5.09828C7.39159 5.02195 7.60784 4.98947 7.82367 5.00299C8.03951 5.01651 8.25001 5.07572 8.44124 5.1767C8.63248 5.27768 8.80008 5.41813 8.93296 5.58875L10.504 7.60675C10.792 7.97675 10.894 8.45875 10.78 8.91375L10.301 10.8308C10.2764 10.9299 10.2779 11.0338 10.3052 11.1322C10.3326 11.2307 10.3848 11.3204 10.457 11.3928L12.607 13.5428C12.6794 13.6151 12.7693 13.6676 12.8679 13.6949C12.9666 13.7222 13.0706 13.7236 13.17 13.6988L15.085 13.2198C15.3096 13.1636 15.5442 13.1592 15.7708 13.207C15.9974 13.2548 16.2101 13.3536 16.393 13.4958L18.41 15.0658C19.136 15.6298 19.202 16.7018 18.553 17.3498L17.648 18.2547C17.001 18.9027 16.033 19.1867 15.131 18.8687C12.8219 18.0565 10.7254 16.7349 8.99696 15.0017C7.26401 13.2735 5.94234 11.1774 5.12996 8.86875C4.81296 7.96675 5.09796 6.99875 5.74496 6.35075L6.64996 5.44575Z" fill="#828282"/>
</svg>
