<svg width="180" height="160" viewBox="0 0 180 160" fill="none" xmlns="http://www.w3.org/2000/svg">
<path fill-rule="evenodd" clip-rule="evenodd" d="M45.6301 50C47.8503 41.3739 55.6808 35 65 35H115C124.319 35 132.15 41.3739 134.37 50H122.701C122.38 49.9149 122.043 49.8696 121.696 49.8696H112.304H97.4348H82.5652H67.6957H58.3043C57.9567 49.8696 57.6196 49.9149 57.2987 50H45.6301ZM45.0988 53C45.0334 53.6578 45 54.325 45 55V105C45 116.046 53.9543 125 65 125H115C126.046 125 135 116.046 135 105V55C135 54.325 134.967 53.6578 134.901 53H125.53C125.582 53.2529 125.609 53.5146 125.609 53.7826V83.5217C125.609 85.6828 123.857 87.4348 121.696 87.4348H116.217V94.8696C116.217 97.0307 114.465 98.7826 112.304 98.7826H101.348V105.826C101.348 107.987 99.5959 109.739 97.4348 109.739H82.5652C80.4041 109.739 78.6522 107.987 78.6522 105.826V98.7826H67.6957C65.5345 98.7826 63.7826 97.0307 63.7826 94.8696V87.4348H58.3043C56.1432 87.4348 54.3913 85.6828 54.3913 83.5217V53.7826C54.3913 53.5146 54.4183 53.2529 54.4696 53H45.0988Z" fill="#147BDA"/>
<rect x="59.8696" y="55.7393" width="9.78261" height="18.7826" rx="4.8913" fill="#147BDA"/>
<rect x="76.6957" y="55.7393" width="9.78261" height="18.7826" rx="4.8913" fill="#147BDA"/>
<rect x="93.5217" y="55.7393" width="9.78261" height="18.7826" rx="4.8913" fill="#147BDA"/>
<rect x="110.348" y="55.7393" width="9.78261" height="18.7826" rx="4.8913" fill="#147BDA"/>
</svg>
