<svg width="180" height="160" viewBox="0 0 180 160" fill="none" xmlns="http://www.w3.org/2000/svg">
<path fill-rule="evenodd" clip-rule="evenodd" d="M46.7432 42.0379C43.6912 42.2893 39.7955 43.0733 37.41 43.9162C36.8211 44.1242 36.0445 44.3951 35.6844 44.518C34.7535 44.836 31.7365 46.3052 30.4329 47.0756C27.2982 48.928 24.2703 51.4885 21.7241 54.4398C21.0075 55.2705 20.8618 55.5258 20.9175 55.8532C20.9963 56.3152 21.2316 58.0767 21.4315 59.7005C22.3745 67.365 22.3041 66.9977 22.9129 67.4232C23.3362 67.7189 23.9664 67.7063 26.59 67.3493C28.6043 67.0752 29.5194 66.9627 32.2492 66.6538C33.1912 66.5471 33.2788 66.5056 33.6916 65.9692C34.5027 64.9154 36.9119 62.6471 38.013 61.9003C44.6053 57.4295 53.3861 56.9862 60.5457 60.7627C63.2138 62.1701 65.2225 63.7755 67.4056 66.2453C68.0859 67.015 68.6812 67.6454 68.7286 67.6464C68.7761 67.6475 68.8609 65.4137 68.9172 62.6824C68.9872 59.282 69.0752 57.6005 69.1961 57.3488C69.5275 56.6593 69.7219 56.6401 75.3359 56.7457C78.2171 56.7999 80.6274 56.802 80.6922 56.7503C80.8824 56.5987 76.0575 51.8196 74.3901 50.5077C69.0758 46.3267 62.756 43.4907 56.6379 42.5416C56.0376 42.4486 55.1864 42.3066 54.7462 42.2262C53.9386 42.0787 47.956 41.938 46.7432 42.0379ZM127.138 42.0361C122.627 42.4552 118.412 43.5181 114.405 45.2469C110.596 46.8906 107.01 49.2233 103.744 52.1821C102.064 53.7044 101.374 54.4059 101.467 54.4983C101.532 54.5637 104.129 54.7383 109.313 55.0263C110.953 55.1175 112.481 55.261 112.707 55.3455C113.54 55.6562 113.58 55.8693 113.388 58.9712C113.103 63.5548 113.001 65.5382 113.046 65.6321C113.069 65.6808 113.601 65.2225 114.228 64.6134C120.247 58.7685 128.959 56.7271 136.842 59.3148L137.96 59.6821L141.352 59.0937C143.218 58.7701 145.366 58.4017 146.127 58.275C147.929 57.9746 148.223 57.8523 148.536 57.2717C148.826 56.7358 148.812 56.6089 147.937 51.6075C147.741 50.4897 147.445 48.7913 147.278 47.8332C147.112 46.8751 146.944 45.9768 146.905 45.8369C146.825 45.547 145.8 45.0454 143.799 44.3165C141.151 43.3524 138.837 42.7845 135.359 42.2459C134.295 42.0811 128.3 41.9281 127.138 42.0361ZM149.074 47.2617C149.159 47.8528 149.902 52.1732 150.566 55.9397C150.977 58.2686 150.951 58.8217 150.419 59.1696C150.233 59.2914 148.782 59.6121 147.194 59.8825C142.563 60.6712 141.713 60.8232 141.268 60.9428C140.854 61.054 140.87 61.0729 142.242 62.0428C146.674 65.1775 149.578 70.0783 150.507 75.9954C150.744 77.5023 150.747 81.0474 150.513 82.5278C150.028 85.5919 148.885 88.6138 147.218 91.2378C146.146 92.9255 143.613 95.6452 142.176 96.6503C141.528 97.1042 141.544 97.0589 139.872 103.033C139.228 105.332 138.878 106.828 138.933 107.047C139.136 107.853 139.359 107.946 144.526 109.384C145.607 109.684 147.244 110.143 148.164 110.403C149.084 110.664 149.978 110.908 150.149 110.947C150.757 111.085 154.588 107.905 156.931 105.319C162.449 99.2286 165.591 92.4891 166.812 84.1247C167.062 82.4188 167.063 76.17 166.814 74.326C166.063 68.7456 164.564 64.1493 162.058 59.7368C160.559 57.0997 158.664 54.6058 156.533 52.4686C154.579 50.5089 151.713 48.2561 149.705 47.101L148.991 46.6902L149.074 47.2617ZM52.6727 47.5617C53.2242 47.7092 53.0371 47.9058 52.3453 47.9058C51.694 47.9058 51.6905 47.9085 51.6905 48.4139C51.6905 48.9099 51.7043 48.9219 52.2726 48.9219C52.5927 48.9219 52.8546 48.9873 52.8546 49.0671C52.8546 49.1469 52.5927 49.2123 52.2726 49.2123H51.6905V49.7929V50.3736H52.3453C52.7054 50.3736 53.0001 50.4389 53.0001 50.5188C53.0001 50.5995 52.612 50.6639 52.127 50.6639H51.254V49.0671V47.4703L51.7996 47.4723C52.0998 47.4733 52.4926 47.5137 52.6727 47.5617ZM49.8663 48.0459C50.591 48.7252 50.4142 50.2586 49.5668 50.6437C49.0728 50.8683 47.9142 50.8576 47.8377 50.6276C47.8044 50.5279 47.7574 49.8436 47.7331 49.107C47.6832 47.5925 47.6725 47.6064 48.8215 47.6766C49.3014 47.7057 49.6256 47.8204 49.8663 48.0459ZM48.4122 48.016C48.1414 48.0589 48.1209 48.1501 48.1665 49.1093C48.2342 50.5266 48.256 50.5726 48.8094 50.4621C49.5399 50.3164 49.7989 49.9892 49.7989 49.2123C49.7989 48.3074 49.2983 47.8756 48.4122 48.016ZM46.1691 48.2005C46.5768 48.4181 46.8887 49.1101 46.8887 49.7969C46.8887 50.6581 46.2845 51.2446 45.3973 51.2446C44.6289 51.2446 44.1654 50.8381 43.9754 49.9973C43.8062 49.2488 43.9456 48.6785 44.3809 48.3368C44.7801 48.0237 45.7058 47.953 46.1691 48.2005ZM44.7385 48.5673C44.256 48.9044 44.2759 50.1029 44.7722 50.5979C45.2085 51.0332 45.5653 51.0485 46.0687 50.6533C46.4908 50.3222 46.5581 49.849 46.2914 49.0857C46.0361 48.3555 45.363 48.1308 44.7385 48.5673ZM128.147 48.7695C128.281 48.8803 128.374 49.187 128.374 49.5167C128.374 49.9891 128.308 50.1101 127.945 50.2972C127.709 50.419 127.342 50.5188 127.13 50.5188C126.766 50.5188 126.747 50.5535 126.799 51.1039C126.844 51.5693 126.81 51.6804 126.633 51.6466C126.453 51.6121 126.401 51.3024 126.364 50.0265L126.318 48.4488L127.119 48.5152C127.56 48.5516 128.022 48.666 128.147 48.7695ZM129.757 49.9381L129.653 51.3898H130.408C130.948 51.3898 131.146 51.4416 131.103 51.5712C131.021 51.8155 130.651 51.8723 129.885 51.7578L129.248 51.6622V50.7478C129.248 49.3387 129.398 48.4864 129.647 48.4864C129.828 48.4864 129.845 48.7097 129.757 49.9381ZM42.9599 48.7768C42.9599 48.8566 42.8257 48.9219 42.6616 48.9219C42.1746 48.9219 41.5451 49.3223 41.4524 49.6913C41.3446 50.1196 41.5618 50.9065 41.8868 51.2646C42.161 51.567 42.684 51.6148 43.1274 51.378C43.485 51.1871 43.6466 51.3067 43.412 51.5888C43.176 51.8726 42.3466 52.0066 41.8924 51.8343C41.4566 51.6691 40.9203 50.7189 40.9278 50.1254C40.9347 49.5954 41.233 49.0738 41.6663 48.8343C42.0765 48.6074 42.9599 48.5682 42.9599 48.7768ZM125.319 48.7679C125.319 48.8428 125.019 48.9491 124.652 49.004C124.062 49.0921 123.994 49.1394 124.068 49.412C124.113 49.5816 124.152 49.805 124.153 49.9083C124.154 50.0438 124.295 50.0702 124.655 50.0028C125.226 49.8959 125.617 50.0426 125.298 50.2444C125.189 50.3131 124.88 50.3701 124.611 50.3714C124.174 50.3733 124.13 50.4092 124.209 50.7002C124.257 50.8798 124.297 51.1486 124.298 51.2974C124.3 51.5355 124.378 51.5561 124.955 51.4699C125.493 51.3893 125.61 51.4123 125.61 51.5986C125.61 51.7698 125.452 51.8253 124.967 51.8253C124.613 51.8253 124.227 51.8623 124.109 51.9074C123.939 51.9726 123.875 51.7988 123.801 51.0727C123.75 50.5684 123.672 49.8514 123.629 49.4792C123.561 48.9063 123.59 48.7922 123.815 48.7339C124.307 48.6074 125.319 48.6302 125.319 48.7679ZM133.96 48.9157C134.713 49.2012 134.973 50.481 134.47 51.4202C134.029 52.242 132.372 52.2233 131.941 51.3916C131.542 50.6233 131.791 49.2937 132.399 48.9412C132.735 48.7459 133.48 48.7338 133.96 48.9157ZM126.774 49.4939C126.774 50.0464 126.8 50.0833 127.193 50.0833C127.694 50.0833 127.978 49.7865 127.913 49.3291C127.874 49.0577 127.762 48.986 127.32 48.9495L126.774 48.9044V49.4939ZM121.955 49.2279C122.854 49.5406 123.209 51.0569 122.548 51.7588C122.216 52.1114 121.458 52.4036 120.87 52.405C120.601 52.4058 120.539 52.2454 120.311 50.9431C120.17 50.1386 120.09 49.445 120.133 49.402C120.209 49.3258 121.011 49.1117 121.332 49.0819C121.42 49.0738 121.7 49.1395 121.955 49.2279ZM136.087 49.544C136.088 49.6409 136.161 49.9816 136.25 50.301L136.411 50.8817L136.957 50.2502C137.287 49.867 137.598 49.6388 137.748 49.6695C137.94 49.7093 137.837 49.8957 137.27 50.5292C136.795 51.0595 136.511 51.5259 136.443 51.8836C136.387 52.1837 136.248 52.4646 136.135 52.508C135.824 52.627 135.796 52.525 135.963 51.8704C136.112 51.2835 136.084 51.1102 135.555 49.3087C135.487 49.0778 135.518 49.0639 135.782 49.2049C135.949 49.2944 136.087 49.447 136.087 49.544ZM132.532 49.4913C132.392 49.6449 132.245 50.0204 132.204 50.326C132.051 51.474 133.223 52.148 133.893 51.2976C134.222 50.8802 134.299 49.9676 134.044 49.493C133.837 49.1075 132.881 49.1063 132.532 49.4913ZM120.607 49.6193C120.568 49.6835 120.59 49.9937 120.656 50.3089C120.723 50.6239 120.82 51.1267 120.872 51.426C120.949 51.8716 121.028 51.9704 121.304 51.9704C121.9 51.9704 122.409 51.4403 122.409 50.8181C122.409 50.0116 121.957 49.5026 121.242 49.5026C120.933 49.5026 120.647 49.5552 120.607 49.6193ZM97.9461 58.2555C97.0349 59.3171 96.0201 60.5092 95.6908 60.9048C93.704 63.2915 92.5008 64.7112 91.3421 66.0361L90.0325 67.5335L89.4003 66.8287C89.0526 66.4411 87.3598 64.4419 85.6384 62.3861L82.5086 58.6481L80.9594 58.6478C80.1074 58.6476 77.6967 58.6046 75.6025 58.5522L71.7947 58.4569L71.3628 58.8877C70.9338 59.3157 70.9303 59.3329 70.8445 61.4149C70.7971 62.5678 70.7221 64.9809 70.6779 66.7773L70.5975 70.0436L73.6025 73.3824C77.1784 77.3554 78.6692 79.1096 78.9804 79.7102C79.2478 80.2261 79.498 79.867 76.0088 83.9766L73.9161 86.4417L74.4077 86.5399C74.6781 86.5939 77.0602 86.8777 79.7013 87.1707C82.8129 87.5156 84.6175 87.7765 84.8282 87.9118C85.4577 88.3158 85.4584 88.2988 84.5136 96.5363C84.2434 98.8917 84.0532 100.85 84.0907 100.889C84.1284 100.928 84.2694 100.821 84.4039 100.652C86.5296 97.9752 90.0303 93.8046 90.1099 93.8537C90.1672 93.889 91.2504 95.2092 92.5169 96.7876C93.7836 98.366 94.8559 99.6901 94.8998 99.73C94.9439 99.7699 95.3697 100.26 95.8462 100.819C97.7054 103 103.074 108.186 103.265 107.986C103.32 107.929 102.99 101.543 102.845 99.8344C102.747 98.6802 102.965 98.1114 103.594 97.8778C103.818 97.7946 105.344 97.6553 106.984 97.5679C108.625 97.4806 111.31 97.3374 112.95 97.2497C114.591 97.1619 116.022 97.0632 116.129 97.0302C116.241 96.9961 115.709 96.4787 114.892 95.8274C112.975 94.2977 110.994 92.2532 108.123 88.8426C106.813 87.2857 104.695 84.7779 103.416 83.2698C102.137 81.7618 101.099 80.4482 101.108 80.3509C101.117 80.2535 103.278 77.5463 105.91 74.335C108.542 71.1236 110.775 68.3855 110.873 68.2502C110.987 68.0928 111.157 66.36 111.346 63.435C111.724 57.5642 111.737 57.9881 111.168 57.4269L110.695 56.9606L107.494 56.7786C105.733 56.6786 103.481 56.5356 102.489 56.461C99.3791 56.2271 99.8451 56.043 97.9461 58.2555ZM18.4167 59.0497C13.7695 66.8819 12.049 76.1598 13.5019 85.5545C13.7336 87.0525 14.5179 90.2379 14.9906 91.6007L15.2675 92.3991L17.3638 93.1566C18.5166 93.5732 20.0165 94.1077 20.6968 94.3443C21.3771 94.581 22.6788 95.0403 23.5897 95.3652C24.5004 95.6899 25.4627 95.9557 25.7278 95.9557C26.6642 95.9557 26.8388 95.6446 28.4983 91.02C30.4752 85.511 30.3622 85.9349 30.0975 85.0259C29.1338 81.7137 29.1578 76.9522 30.1572 73.2372C30.5211 71.8844 30.7396 71.2874 31.394 69.8594C31.6967 69.1991 31.9181 68.6333 31.8863 68.6019C31.8544 68.5704 31.1081 68.6392 30.2277 68.7548C21.9902 69.8355 21.8687 69.8469 21.4101 69.5766C20.843 69.2424 20.7856 68.9991 20.2518 64.6724C20.0055 62.6764 19.7114 60.39 19.5984 59.5916C19.4851 58.7932 19.3913 58.0584 19.3898 57.9585C19.384 57.5597 19.1352 57.8389 18.4167 59.0497ZM76.7183 63.2687C76.7183 64.1773 75.6919 64.4894 74.9707 63.8L74.5515 63.3993L74.0947 63.7829C73.6853 64.1266 73.2853 64.1802 73.4002 63.8761C73.4245 63.8119 73.9682 63.3252 74.6084 62.7944L75.7725 61.8294L76.2454 62.3415C76.5491 62.6703 76.7183 63.0022 76.7183 63.2687ZM75.3723 62.7294C74.8788 63.0968 74.8657 63.3622 75.3262 63.6632C76.0145 64.1133 76.5943 63.3533 76.0792 62.6764C75.8429 62.3659 75.8627 62.3644 75.3723 62.7294ZM77.3677 64.7829C77.0505 65.0413 76.571 65.4517 76.3023 65.6948L75.8135 66.1369L76.1932 66.5869C76.5684 67.032 76.6805 67.358 76.4581 67.358C76.395 67.358 76.0922 67.0582 75.7851 66.6917C75.1477 65.9309 75.0753 66.0898 76.6335 64.826C77.3337 64.2581 77.6864 64.0559 77.7922 64.1614C77.8979 64.267 77.7687 64.4561 77.3677 64.7829ZM79.975 66.712C80.0989 67.0343 78.4502 69.8697 78.2531 69.6731C78.1494 69.5696 78.181 69.3866 78.3549 69.0843C78.6031 68.6527 78.6008 68.6375 78.2085 68.1423C77.8817 67.7299 77.7439 67.656 77.4458 67.7334C76.8775 67.8807 76.6811 67.8778 76.6247 67.7208C76.5796 67.5951 79.2655 66.5367 79.7221 66.5002C79.8136 66.493 79.9274 66.5883 79.975 66.712ZM78.7918 67.1809C78.4518 67.3113 78.1756 67.4535 78.1782 67.4969C78.181 67.5402 78.3182 67.7378 78.4832 67.9356C78.779 68.2904 78.7864 68.2914 78.9987 68.0082C79.3378 67.5562 79.6473 66.9215 79.5232 66.9332C79.461 66.9391 79.1319 67.0505 78.7918 67.1809ZM81.4874 68.6032C81.5094 68.7567 81.3353 69.4702 81.1008 70.1887C80.8661 70.9073 80.7021 71.5237 80.736 71.5584C80.77 71.5931 81.0423 71.3958 81.3409 71.1198C82.5156 70.0344 82.6855 69.9142 82.8348 70.0632C82.9336 70.1617 82.6014 70.5271 81.8208 71.1791C81.1824 71.7123 80.6047 72.1485 80.5371 72.1485C80.1128 72.1485 80.1244 71.7783 80.5908 70.4423C80.8588 69.6744 81.0494 69.0175 81.0145 68.9827C80.9794 68.9477 80.5281 69.2894 80.0113 69.7421C79.4078 70.2706 79.0354 70.5061 78.9699 70.4004C78.851 70.2085 78.8212 70.2413 80.1378 69.1167C81.1925 68.2158 81.4195 68.1294 81.4874 68.6032ZM97.8173 70.0729C97.8173 70.1291 97.62 70.378 97.3787 70.6264L96.9402 71.0779L97.3199 71.4316L97.6999 71.7856L98.0901 71.3216C98.3326 71.0332 98.5476 70.8992 98.6584 70.9674C98.7851 71.0455 98.71 71.1982 98.3991 71.4955L97.9616 71.9136L98.3542 72.3225L98.747 72.7313L99.2257 72.2684C99.7858 71.7269 100.016 71.8053 99.595 72.3941C98.8839 73.3895 98.8881 73.3898 97.5753 72.2523L96.3875 71.2229L96.9016 70.5969C97.3553 70.0447 97.8173 69.7802 97.8173 70.0729ZM96.0712 72.0229C96.0712 72.1136 95.9075 72.3391 95.7074 72.5242C94.9391 73.2345 95.4078 73.6459 96.5275 73.2442C97.188 73.0073 97.2655 73.006 97.6011 73.2252C98.1032 73.5534 98.082 74.1883 97.549 74.7834C97.2792 75.0847 97.054 75.2142 96.9015 75.1559C96.7098 75.0826 96.7584 74.9759 97.1705 74.5648C97.9135 73.8235 97.5333 73.213 96.6136 73.6707C96.0381 73.9571 95.5047 73.9496 95.1732 73.6502C94.7923 73.3063 94.8429 72.9573 95.3588 72.3713C95.8178 71.8496 96.0712 71.7258 96.0712 72.0229ZM21.154 73.1051C21.5847 73.3246 21.8944 74.0372 21.7865 74.561C21.5243 75.8342 21.7282 75.7544 19.8438 75.3215L18.4817 75.0085L18.56 74.4257C18.7521 72.9968 19.8472 72.4392 21.154 73.1051ZM19.5669 73.312C19.2245 73.4525 18.9078 74.0686 18.9814 74.4507C19.0087 74.5922 19.4093 74.7677 20.1017 74.9416C21.3222 75.2482 21.4546 75.1864 21.3896 74.3403C21.3301 73.5672 20.3259 73.0006 19.5669 73.312ZM95.3072 75.0136C96.0475 75.2957 96.6532 75.5792 96.6532 75.6435C96.6532 75.8755 96.3766 75.9231 96.0066 75.755C95.6703 75.602 95.582 75.6285 95.1954 75.998C94.7192 76.4531 94.6718 76.6543 94.9398 77.0825C95.0705 77.2911 95.0749 77.4103 94.9564 77.5285C94.838 77.6466 94.5961 77.3229 94.0506 76.3165C93.6414 75.5612 93.3065 74.848 93.3065 74.7314C93.3065 74.4286 93.474 74.3024 93.7354 74.4087C93.8596 74.4592 94.567 74.7314 95.3072 75.0136ZM94.034 75.4873C94.368 76.1404 94.4684 76.181 94.8118 75.8024C95.1473 75.4327 95.123 75.3754 94.5256 75.1263C93.7576 74.8062 93.7053 74.8445 94.034 75.4873ZM92.3476 76.1921C92.3899 76.2603 92.2627 76.4676 92.0651 76.6528C91.626 77.0644 91.6158 77.2483 92.0126 77.606C92.3164 77.8801 92.3227 77.8785 92.7079 77.4186C92.9511 77.128 93.1634 76.9959 93.2758 77.0651C93.4057 77.1454 93.3546 77.2699 93.0898 77.5182C92.6379 77.9416 92.6331 78.1093 93.0612 78.5104L93.3977 78.8258L93.8159 78.3905C94.0458 78.1511 94.2872 77.9551 94.3523 77.9551C94.6058 77.9551 94.4471 78.2814 93.9249 78.8345L93.3792 79.4123L92.1824 78.3775L90.9857 77.3427L91.5276 76.71C92.0849 76.0597 92.2147 75.9777 92.3476 76.1921ZM21.3504 77.1204C21.2947 77.5395 21.1987 77.9362 21.1371 78.002C21.0754 78.0676 20.3617 78.0412 19.5512 77.9432C18.4369 77.8085 18.0776 77.7133 18.0776 77.5529C18.0776 77.3762 18.2422 77.3601 19.0598 77.4565C20.9196 77.6757 20.9088 77.6784 20.9597 76.9752C20.9916 76.5366 21.0692 76.3583 21.2281 76.3583C21.4136 76.3583 21.4344 76.4879 21.3504 77.1204ZM162.669 77.6903C163.346 78.3247 163.206 79.6566 162.419 80.0625C161.915 80.3223 161.121 80.3406 160.601 80.1043C159.682 79.6867 159.538 78.1104 160.372 77.5922C161.07 77.1582 162.151 77.2043 162.669 77.6903ZM160.565 78.036C160.236 78.2653 160.121 78.9939 160.356 79.3613C160.539 79.6488 161.283 79.86 161.758 79.7595C162.403 79.6231 162.715 79.2904 162.715 78.7393C162.715 78.1351 162.282 77.8099 161.478 77.8099C161.154 77.8099 160.743 77.9117 160.565 78.036ZM20.5149 79.0592C20.9341 79.1101 21.1333 79.2044 21.1333 79.352C21.1333 79.5233 21.0017 79.5534 20.5149 79.4931C20.1747 79.4512 19.4546 79.3766 18.9143 79.3277C18.1949 79.2623 17.9321 79.1822 17.9321 79.0283C17.9321 78.8171 18.5834 78.8249 20.5149 79.0592ZM90.938 80.0308L91.698 80.7176L92.1882 80.184C92.5116 79.832 92.7138 79.7076 92.7825 79.8186C92.8432 79.9165 92.6251 80.2585 92.2598 80.6378L91.6331 81.2888L90.4804 80.2293C89.7144 79.5252 89.3655 79.1083 89.4407 78.987C89.5641 78.7878 89.5567 78.7826 90.938 80.0308ZM88.9412 80.0348C88.9412 80.1406 88.7775 80.3805 88.5774 80.5681C88.1233 80.9937 88.1244 81.057 88.5922 81.3629C88.9649 81.6065 88.9773 81.6028 89.368 81.1358C89.6533 80.795 89.7968 80.713 89.8783 80.8444C89.9487 80.958 89.834 81.1917 89.5754 81.462L89.1594 81.8969L89.5789 82.2584L89.9986 82.6199L90.4862 82.1482C90.7545 81.889 91.0169 81.7196 91.0694 81.772C91.1701 81.8724 90.1571 83.1851 89.9864 83.1753C89.9317 83.1722 89.3796 82.6986 88.7594 82.1228L87.632 81.0762L88.1531 80.4592C88.6852 79.8293 88.9412 79.6914 88.9412 80.0348ZM20.5493 80.5669C20.8962 80.7523 21.1738 81.5908 21.0504 82.0812C20.8886 82.7241 20.4772 82.8908 19.0517 82.8908C18.085 82.8908 17.7774 82.8453 17.8225 82.7093C17.8627 82.5882 18.2877 82.5136 19.1007 82.4852C20.4508 82.438 20.6968 82.3204 20.6968 81.722C20.6968 81.0199 20.3821 80.8584 19.0131 80.8584C18.0199 80.8584 17.7866 80.8171 17.7866 80.6407C17.7866 80.464 18.022 80.4229 19.033 80.4229C19.7185 80.4229 20.4008 80.4878 20.5493 80.5669ZM162.096 81.2306C163.097 81.3317 163.105 81.3437 162.865 82.3788C162.717 83.0166 162.397 83.3263 161.887 83.3263C161.364 83.3263 160.969 82.8323 160.969 82.1777C160.969 81.6283 160.95 81.6066 160.387 81.5117C160.009 81.4479 159.805 81.3369 159.805 81.1949C159.805 81.0196 159.941 80.9924 160.496 81.0576C160.876 81.1023 161.596 81.1801 162.096 81.2306ZM161.348 81.8139C161.3 81.9402 161.26 82.1035 161.26 82.1768C161.26 82.3506 161.802 82.8908 161.977 82.8908C162.229 82.8908 162.569 82.4362 162.569 82.1002C162.569 81.8418 162.466 81.7451 162.115 81.675C161.482 81.5488 161.448 81.5551 161.348 81.8139ZM87.8416 82.4876C87.9661 82.665 88.0681 82.9529 88.0681 83.1272C88.0681 83.3975 88.1752 83.4589 88.7957 83.544C89.4976 83.6404 89.7319 83.8362 89.3294 83.9902C89.2227 84.031 88.8462 83.9992 88.4927 83.9197C87.9812 83.8044 87.8066 83.8178 87.6381 83.9847C87.453 84.1682 87.4865 84.2565 87.9054 84.6876C88.6781 85.483 88.1656 85.4782 87.2431 84.6814C86.7961 84.2954 86.2638 83.8428 86.0602 83.6758L85.6902 83.372L86.0896 82.8495C86.5353 82.2667 86.6594 82.1929 87.2231 82.1764C87.4722 82.1691 87.6976 82.2825 87.8416 82.4876ZM86.5353 82.8963C86.2729 83.1854 86.2756 83.2008 86.6527 83.577C87.0297 83.9532 87.0452 83.9558 87.335 83.6941C87.669 83.3926 87.7166 83.0336 87.457 82.7746C87.1974 82.5156 86.8375 82.5631 86.5353 82.8963ZM20.9765 83.9659C21.1428 84.1657 21.4232 85.7906 21.2933 85.801C21.2452 85.8048 20.5395 85.8909 19.7247 85.9925C18.2728 86.1732 18.2416 86.1709 18.1625 85.8767C18.0466 85.4465 18.0631 84.4426 18.1889 84.2592C18.3924 83.9629 18.8421 83.8976 19.1759 84.116C19.4677 84.3066 19.5154 84.3066 19.5888 84.1157C19.7606 83.6691 20.6498 83.5732 20.9765 83.9659ZM161.114 84.0521C161.954 84.2118 162.653 84.3424 162.666 84.3424C162.68 84.3424 162.638 84.5546 162.572 84.8142C162.506 85.0738 162.412 85.4657 162.362 85.6852C162.205 86.3881 161.97 86.14 162.071 85.3774C162.165 84.6722 162.164 84.6703 161.711 84.604C161.29 84.5422 161.247 84.5767 161.108 85.0932C160.907 85.8378 160.663 85.8 160.712 85.0319C160.751 84.4159 160.75 84.415 160.205 84.37C159.709 84.3291 159.659 84.3577 159.659 84.6847C159.659 85.1495 159.521 85.5037 159.339 85.5037C159.204 85.5037 159.311 84.1319 159.466 83.8706C159.546 83.7365 159.328 83.7124 161.114 84.0521ZM19.8348 84.4016C19.7213 84.5382 19.6892 84.7873 19.7497 85.0623C19.8345 85.4473 19.9093 85.5037 20.3359 85.5037C20.932 85.5037 20.9931 85.419 20.8618 84.7743C20.7806 84.3751 20.6818 84.2607 20.3882 84.2261C20.184 84.2022 19.9351 84.2812 19.8348 84.4016ZM18.5214 84.5514C18.4258 84.6663 18.3688 84.944 18.3945 85.1684C18.436 85.5289 18.5006 85.5763 18.9507 85.5763C19.4307 85.5763 19.4571 85.5514 19.4095 85.1408C19.3235 84.399 18.8884 84.1103 18.5214 84.5514ZM159.456 86.3669C159.688 86.4424 160.352 86.6411 160.932 86.8085C161.611 87.0043 161.987 87.1872 161.987 87.3215C161.987 87.739 161.509 88.7097 161.229 88.859C160.835 89.0693 160.117 88.7598 160.01 88.3332C159.928 88.0089 159.92 88.0079 159.214 88.2332C158.821 88.3584 158.45 88.4107 158.389 88.3494C158.219 88.1794 158.747 87.8585 159.37 87.7535C159.9 87.6641 160.189 87.3688 160.017 87.0914C159.974 87.021 159.681 86.8944 159.368 86.8102C158.959 86.7003 158.822 86.5967 158.881 86.4434C158.978 86.1901 158.931 86.1963 159.456 86.3669ZM160.333 87.5488C160.224 88.092 160.429 88.4071 160.891 88.4071C161.095 88.4071 161.275 88.2716 161.382 88.0373C161.619 87.5178 161.598 87.4342 161.201 87.3347C161.008 87.2864 160.755 87.2105 160.638 87.1657C160.489 87.1087 160.399 87.2221 160.333 87.5488ZM71.8114 88.9567C71.4807 89.3479 70.8749 90.0866 70.4654 90.598C68.3854 93.1959 64.6083 96.5458 62.0945 98.0223C61.6062 98.3093 58.4723 99.8589 58.0202 100.037C57.3299 100.309 55.6907 100.749 54.592 100.957C53.1999 101.22 49.8456 101.257 48.299 101.025C43.5256 100.31 39.2318 98.1804 35.8973 94.8745C34.2189 93.2106 33.2548 91.9622 32.1649 90.0415C31.7463 89.3036 31.3624 88.7483 31.3119 88.8076C31.1983 88.9408 31.1658 89.0287 29.7148 93.1249C28.0772 97.7475 28.1189 97.6419 27.8054 97.9776C27.3098 98.5081 26.6638 98.3924 23.3888 97.1865C22.5884 96.8917 21.3116 96.4336 20.5513 96.1682C19.791 95.903 18.5305 95.4569 17.7502 95.177C16.6455 94.7807 16.3315 94.7148 16.3315 94.8793C16.3315 94.9954 16.6349 95.6934 17.0057 96.4304C22.4474 107.245 32.5499 114.9 44.527 117.283C50.8758 118.546 57.1834 118.136 62.8948 116.088C69.0658 113.876 74.9279 110.117 80.243 104.965L81.9738 103.287L82.1116 101.98C82.1875 101.261 82.3139 100.053 82.3928 99.2945C82.4715 98.536 82.7298 96.2501 82.9667 94.2149C83.3817 90.6497 83.3881 90.4982 83.1426 90.0776C83.0025 89.8374 82.7267 89.5633 82.5298 89.4682C82.3331 89.3733 80.8958 89.16 79.336 88.9945C77.7762 88.8289 76.0089 88.6312 75.4087 88.555C74.8085 88.4789 73.8889 88.3782 73.365 88.331L72.4126 88.2452L71.8114 88.9567ZM160.655 90.7753C160.776 90.9209 160.772 91.0257 160.639 91.1829C160.407 91.4561 157.135 91.392 157.225 91.1159C157.256 91.0232 157.513 90.9277 157.797 90.9035C158.24 90.8657 158.349 90.7789 158.573 90.2829L158.834 89.7063L158.464 89.3107C158.261 89.0931 158.125 88.832 158.163 88.7302C158.222 88.5701 160.109 90.1191 160.655 90.7753ZM158.928 90.3762C158.85 90.5811 158.786 90.773 158.786 90.8029C158.786 90.8968 160.105 91.0589 160.189 90.9753C160.276 90.8887 159.367 90.0151 159.183 90.0081C159.121 90.0058 159.006 90.1714 158.928 90.3762ZM159.111 93.4617C159.17 93.4886 159.295 93.3423 159.389 93.1364C159.483 92.9304 159.648 92.762 159.755 92.762C160.024 92.762 160.018 92.7802 159.417 93.9104C159.075 94.5554 158.816 94.8861 158.692 94.8386C158.536 94.7788 158.54 94.7068 158.715 94.457C159.024 94.0177 158.987 93.8736 158.513 93.6644C157.327 93.1403 156.477 92.5915 156.552 92.3974C156.613 92.237 156.892 92.3262 157.817 92.8022C158.47 93.138 159.053 93.4347 159.111 93.4617ZM158.337 95.6087C158.401 95.668 157.996 96.4641 157.686 96.8866C157.329 97.3734 157.202 96.9855 157.525 96.3967C157.84 95.8245 157.84 95.8226 157.549 95.6037C157.119 95.2794 156.989 95.3217 156.684 95.8872C156.509 96.2122 156.357 96.3487 156.269 96.2607C156.181 96.1727 156.244 95.9384 156.442 95.619L156.753 95.1159L156.283 94.8189L155.813 94.5219L155.425 95.1069C155.196 95.4518 154.996 95.6269 154.938 95.5334C154.884 95.4463 154.888 95.2934 154.948 95.1936C155.007 95.0938 155.208 94.7672 155.394 94.468L155.734 93.9238L157.005 94.7388C157.705 95.187 158.304 95.5785 158.337 95.6087ZM115.642 98.8647C114.602 98.9227 112.343 99.0434 110.622 99.1328C106.123 99.3664 105.716 99.4177 105.261 99.8097L104.875 100.143L104.92 102.296C104.946 103.479 105.044 105.623 105.139 107.06L105.311 109.673L106.621 110.579C115.019 116.39 123.181 118.718 131.941 117.801C137.27 117.242 141.928 115.825 146.617 113.334C147.407 112.914 148.051 112.507 148.047 112.429C148.043 112.351 147.757 112.211 147.411 112.118C147.065 112.025 144.653 111.353 142.052 110.625C137.003 109.211 136.669 109.061 136.669 108.199C136.669 107.995 137.236 105.81 137.929 103.343C138.622 100.875 139.156 98.8243 139.116 98.7842C139.076 98.7442 138.536 98.9451 137.917 99.2305C135.077 100.539 132.082 101.181 128.811 101.181C126.636 101.182 125.229 100.993 123.354 100.449C122.12 100.091 122.076 100.074 120.478 99.3176C119.067 98.6497 119.227 98.6646 115.642 98.8647ZM112.177 104.717C112.132 105.048 112.048 105.677 111.99 106.116L111.885 106.912L112.782 106.137C113.276 105.711 113.716 105.303 113.76 105.231C113.861 105.069 114.127 105.067 114.381 105.228C114.534 105.325 114.461 105.577 114.035 106.421C113.29 107.898 113.082 108.194 112.91 108.023C112.818 107.93 112.975 107.498 113.362 106.781C113.689 106.177 113.921 105.682 113.878 105.682C113.834 105.682 113.357 106.074 112.816 106.553C112.276 107.032 111.749 107.424 111.644 107.424C111.452 107.424 111.456 107.297 111.712 105.174L111.799 104.448L111.209 105.573C110.854 106.249 110.527 106.698 110.39 106.698C110.264 106.698 110.184 106.649 110.211 106.589C110.239 106.529 110.573 105.874 110.954 105.134C111.599 103.882 111.668 103.799 111.953 103.951C112.212 104.089 112.246 104.206 112.177 104.717ZM45.198 105.75C45.9088 105.872 46.5144 105.972 46.544 105.972C46.5735 105.972 46.5976 106.127 46.5976 106.317C46.5976 106.639 46.5543 106.657 45.9631 106.591L45.3284 106.52L45.0766 107.952C44.6939 110.129 44.7305 110.037 44.251 110.037C43.888 110.037 43.8375 109.99 43.8977 109.71C43.9363 109.53 44.0709 108.828 44.1967 108.15C44.3226 107.471 44.4552 106.777 44.4912 106.607C44.5473 106.344 44.472 106.285 43.9766 106.206C43.4756 106.126 43.3964 106.063 43.3964 105.743C43.3964 105.457 43.4546 105.39 43.6511 105.45C43.791 105.493 44.4872 105.628 45.198 105.75ZM56.7834 106.036C56.7834 106.329 56.7022 106.397 56.3105 106.435C55.8521 106.479 55.8379 106.5 55.8472 107.133C55.8524 107.493 55.9298 108.308 56.0192 108.946C56.1085 109.583 56.1696 110.117 56.1548 110.132C56.1401 110.146 55.9563 110.201 55.7463 110.254C55.3824 110.345 55.3601 110.317 55.2674 109.649C55.214 109.263 55.0952 108.435 55.0035 107.807L54.8366 106.666L54.2093 106.737C53.6261 106.802 53.5821 106.783 53.5821 106.462C53.5821 106.273 53.6641 106.115 53.764 106.111C53.8641 106.108 54.5025 106.016 55.1828 105.908C56.8506 105.642 56.7834 105.636 56.7834 106.036ZM117.074 106.378C117.755 106.99 117.704 108.018 116.953 108.811C116.627 109.157 116.352 109.311 116.062 109.31C115.554 109.31 114.777 108.86 114.549 108.437C114.273 107.922 114.521 106.99 115.082 106.429C115.536 105.977 115.627 105.944 116.188 106.034C116.524 106.087 116.923 106.242 117.074 106.378ZM49.4715 106.209C49.6851 106.266 49.7989 106.407 49.7989 106.615C49.7989 106.915 49.7472 106.931 48.9258 106.871L48.0528 106.808V107.317C48.0528 107.861 48.2636 107.998 49.1077 108.002C49.4102 108.004 49.5079 108.075 49.5079 108.295C49.5079 108.55 49.4108 108.585 48.7076 108.585H47.9072V109.238V109.892H48.7076C49.4753 109.892 49.5079 109.907 49.5079 110.274C49.5079 110.646 49.4885 110.654 48.8327 110.565C48.4615 110.514 47.8965 110.472 47.5771 110.472H46.9966L47.0921 109.275C47.1446 108.616 47.2271 107.636 47.2753 107.097L47.3627 106.117L48.2534 106.119C48.7433 106.12 49.2913 106.161 49.4715 106.209ZM53.0669 106.281C53.1039 106.318 53.0973 106.488 53.0523 106.659C52.9793 106.938 52.8983 106.963 52.2894 106.891C51.7704 106.829 51.562 106.865 51.4148 107.043C51.1229 107.393 51.3238 107.697 52.0648 108.024C52.9653 108.422 53.2921 108.775 53.2865 109.347C53.2783 110.178 52.7088 110.617 51.6393 110.617C50.7614 110.617 50.5264 110.506 50.5264 110.091C50.5264 109.782 50.5733 109.753 50.924 109.841C51.5658 110.001 52.1252 109.956 52.3575 109.724C52.6771 109.405 52.4767 109.08 51.7503 108.739C50.8078 108.298 50.5264 107.961 50.5264 107.276C50.5264 106.471 51.1303 106.076 52.236 106.158C52.6561 106.188 53.0299 106.244 53.0669 106.281ZM115.358 106.741C115.237 106.924 115.063 107.289 114.972 107.552C114.74 108.215 115.151 108.783 115.908 108.848C116.371 108.887 116.473 108.833 116.73 108.412C117.101 107.805 117.115 106.969 116.759 106.648C116.361 106.289 115.622 106.338 115.358 106.741ZM119.09 107.037C119.197 107.144 119.441 107.781 119.631 108.453C119.822 109.124 120.025 109.727 120.082 109.792C120.14 109.858 120.302 109.424 120.443 108.828C120.72 107.653 120.877 107.299 121.047 107.469C121.196 107.617 120.48 110.509 120.277 110.576C119.968 110.679 119.691 110.205 119.355 108.998C119.169 108.332 118.969 107.732 118.911 107.666C118.853 107.6 118.698 108.024 118.566 108.61C118.31 109.754 118.125 110.166 117.948 109.99C117.887 109.929 117.954 109.408 118.097 108.833C118.612 106.757 118.683 106.631 119.09 107.037ZM122.317 108.767C121.984 110.676 121.915 110.908 121.711 110.782C121.419 110.601 121.942 107.714 122.267 107.714C122.477 107.714 122.482 107.821 122.317 108.767ZM125.126 108.107C125.503 108.251 125.311 108.461 124.846 108.415L124.373 108.367L124.227 109.746C124.115 110.811 124.032 111.126 123.864 111.126C123.744 111.126 123.655 111.06 123.668 110.98C123.68 110.901 123.736 110.269 123.793 109.576L123.896 108.317L123.491 108.27C123.268 108.244 123.056 108.132 123.02 108.022C122.966 107.858 123.134 107.841 123.943 107.927C124.488 107.985 125.02 108.066 125.126 108.107ZM127.946 108.299C128.747 108.727 128.884 110.32 128.181 111.022C127.676 111.526 126.643 111.544 126.124 111.057C125.448 110.424 125.509 108.977 126.236 108.407C126.592 108.128 127.516 108.069 127.946 108.299ZM131.349 108.472C131.656 108.909 131.634 109.253 131.278 109.608L130.98 109.905L131.423 110.464C131.922 111.092 131.956 111.198 131.658 111.198C131.543 111.198 131.265 110.938 131.039 110.62C130.762 110.229 130.519 110.042 130.286 110.04C129.961 110.037 129.947 110.072 130.04 110.69C130.13 111.285 130.112 111.343 129.838 111.343C129.567 111.343 129.539 111.256 129.539 110.42C129.539 109.912 129.497 109.194 129.446 108.823L129.353 108.15H130.238C130.987 108.15 131.157 108.199 131.349 108.472ZM126.575 108.741C126.254 108.993 126.192 109.157 126.192 109.757C126.192 110.871 126.945 111.397 127.743 110.839C128.393 110.385 128.259 108.845 127.547 108.575C127.06 108.39 127.012 108.398 126.575 108.741ZM129.912 108.57C129.867 108.642 129.871 108.903 129.921 109.151C129.997 109.528 130.079 109.601 130.425 109.601C130.78 109.601 131.139 109.283 131.139 108.968C131.139 108.594 130.104 108.259 129.912 108.57Z" fill="#147BDA"/>
</svg>
