<svg width="24" height="24" viewBox="0 0 24 24" fill="none" xmlns="http://www.w3.org/2000/svg">
<path d="M5 9.53346L11.78 13.0605C11.848 13.0958 11.9234 13.1142 12 13.1142C12.0766 13.1142 12.152 13.0958 12.22 13.0605L19 9.53446V15.6595C18.9998 16.1877 18.7977 16.6958 18.4349 17.0797C18.0722 17.4637 17.5763 17.6943 17.049 17.7245L16.932 17.7275H7.068C6.5399 17.7276 6.03176 17.5256 5.6478 17.163C5.26384 16.8004 5.03313 16.3047 5.003 15.7775L5 15.6585V9.53346ZM7.068 6.27346H16.932C17.4601 6.27337 17.9682 6.47532 18.3522 6.8379C18.7362 7.20048 18.9669 7.69622 18.997 8.22346L19 8.34146V8.45846L12 12.0985L5 8.45846V8.34046C4.99991 7.81236 5.20185 7.30423 5.56444 6.92026C5.92702 6.5363 6.42276 6.30559 6.95 6.27546L7.068 6.27346Z" fill="#828282"/>
</svg>
