<svg width="180" height="160" viewBox="0 0 180 160" fill="none" xmlns="http://www.w3.org/2000/svg">
<path d="M55.3291 52.0575C42.5636 52.0575 32.2545 63.7134 32.2545 76.4223C20.3594 76.4223 7 85.7151 7 97.5575C7 109.4 16.6429 119 28.538 119H147.785C161.711 119 173 107.761 173 93.8966C173 80.0323 161.711 68.7931 147.785 68.7931C147.785 45.686 131.071 28 107.861 28C89.5391 28 73.9559 39.6725 68.2046 55.9554C64.525 53.4938 60.0955 52.0575 55.3291 52.0575Z" fill="#147BDA"/>
<path d="M71.5852 120.299C76.4724 125.664 80.6059 127.537 83.9044 129.032C86.4467 130.184 88.493 131.111 90.0058 133.239C91.5225 131.123 93.5673 130.186 96.105 129.023C99.4021 127.512 103.531 125.619 108.415 120.264C115.621 112.374 120 77.2827 120 77.2827C101.313 68.2462 90.3302 58.0862 89.9942 57.7734C89.9942 57.7734 78.9766 68.0495 60 77.3177C60 77.3177 64.3792 112.409 71.5852 120.299Z" fill="white"/>
<path d="M71.5852 120.299C76.4724 125.664 80.6059 127.537 83.9044 129.032C86.4467 130.184 88.493 131.111 90.0058 133.239C91.5225 131.123 93.5673 130.186 96.105 129.023C99.4021 127.512 103.531 125.619 108.415 120.264C115.621 112.374 120 77.2827 120 77.2827C101.313 68.2462 90.3302 58.0862 89.9942 57.7734C89.9942 57.7734 78.9766 68.0495 60 77.3177C60 77.3177 64.3792 112.409 71.5852 120.299Z" stroke="#147BDA"/>
<path d="M116 79.8344C116 79.8344 112.197 110.032 105.957 116.832C98.4686 124.99 93.0249 123.797 89.9941 128C86.9751 123.786 81.5314 124.99 74.0315 116.82C67.7915 110.021 64 79.8226 64 79.8226C73.3968 75.4191 82.1426 69.7591 89.9941 63C97.852 69.7595 106.601 75.4232 116 79.8344Z" fill="#147BDA"/>
<path opacity="0.3" d="M64 79.7818C64 79.7818 67.8026 110.013 74.0411 116.82C81.5274 124.986 86.9698 123.793 90 128V63C82.1396 69.742 73.3925 75.3878 64 79.7818Z" fill="#D2E3F3"/>
</svg>
