<svg width="180" height="160" viewBox="0 0 180 160" fill="none" xmlns="http://www.w3.org/2000/svg">
<path d="M159 31.0532H22V62.8082H159V31.0532Z" fill="#147BDA"/>
<path d="M105.47 36.4966H27.4436V39.2184H105.47V36.4966Z" fill="white"/>
<path d="M105.47 41.0332H27.4436V43.7551H105.47V41.0332Z" fill="white"/>
<path d="M105.47 45.5693H27.4436V48.2912H105.47V45.5693Z" fill="white"/>
<path d="M105.47 50.106H27.4436V52.8278H105.47V50.106Z" fill="white"/>
<path d="M105.47 54.6426H27.4436V57.3644H105.47V54.6426Z" fill="white"/>
<path d="M119.987 39.2341C119.984 39.7718 119.821 40.2965 119.52 40.742C119.219 41.1876 118.793 41.534 118.296 41.7376C117.798 41.9412 117.251 41.9928 116.724 41.8861C116.197 41.7793 115.714 41.5188 115.335 41.1375C114.956 40.7562 114.698 40.2712 114.594 39.7437C114.49 39.2161 114.545 38.6697 114.752 38.1732C114.958 37.6768 115.307 37.2526 115.754 36.9543C116.202 36.6559 116.727 36.4966 117.265 36.4966C117.988 36.5007 118.68 36.791 119.19 37.3039C119.7 37.8169 119.987 38.5108 119.987 39.2341Z" fill="white"/>
<path d="M128.152 39.2185C128.152 39.7575 127.992 40.2844 127.692 40.7323C127.393 41.1802 126.967 41.5291 126.468 41.7346C125.97 41.9401 125.422 41.9931 124.894 41.8868C124.365 41.7805 123.88 41.5198 123.5 41.1375C123.12 40.7553 122.862 40.2689 122.759 39.7399C122.656 39.2108 122.712 38.6631 122.92 38.166C123.129 37.6689 123.48 37.2449 123.93 36.9477C124.379 36.6505 124.907 36.4935 125.446 36.4966C126.165 36.5008 126.853 36.7893 127.361 37.2993C127.868 37.8093 128.152 38.4993 128.152 39.2185Z" fill="white"/>
<path d="M137.225 39.2184C137.225 39.7568 137.066 40.283 136.766 40.7306C136.467 41.1782 136.042 41.5271 135.545 41.7331C135.048 41.9391 134.5 41.993 133.972 41.888C133.444 41.783 132.959 41.5237 132.579 41.1431C132.198 40.7624 131.939 40.2774 131.834 39.7495C131.729 39.2215 131.783 38.6742 131.989 38.1768C132.195 37.6795 132.544 37.2544 132.991 36.9553C133.439 36.6562 133.965 36.4966 134.503 36.4966C135.225 36.4966 135.918 36.7834 136.428 37.2938C136.938 37.8043 137.225 38.4965 137.225 39.2184Z" fill="white"/>
<path d="M145.391 39.2341C145.388 39.7718 145.253 40.2965 145.002 40.742C144.751 41.1876 144.396 41.534 143.981 41.7376C143.567 41.9412 143.111 41.9928 142.672 41.8861C142.233 41.7793 141.83 41.5188 141.514 41.1375C141.198 40.7562 140.983 40.2712 140.897 39.7437C140.81 39.2161 140.856 38.6697 141.028 38.1732C141.2 37.6768 141.491 37.2526 141.864 36.9543C142.236 36.6559 142.674 36.4966 143.122 36.4966C143.421 36.4966 143.717 36.5675 143.993 36.7053C144.27 36.843 144.52 37.0449 144.731 37.2993C144.942 37.5537 145.109 37.8557 145.222 38.1877C145.335 38.5198 145.392 38.8754 145.391 39.2341Z" fill="white"/>
<path d="M154.463 39.2341C154.46 39.7718 154.298 40.2965 153.997 40.742C153.696 41.1876 153.27 41.534 152.772 41.7376C152.275 41.9412 151.728 41.9928 151.201 41.8861C150.674 41.7793 150.191 41.5188 149.811 41.1375C149.432 40.7562 149.175 40.2712 149.071 39.7437C148.967 39.2161 149.022 38.6697 149.228 38.1732C149.435 37.6768 149.784 37.2526 150.231 36.9543C150.678 36.6559 151.204 36.4966 151.742 36.4966C152.1 36.4966 152.456 36.5675 152.787 36.7053C153.118 36.843 153.419 37.0449 153.672 37.2993C153.925 37.5537 154.125 37.8557 154.261 38.1877C154.397 38.5198 154.466 38.8754 154.463 39.2341Z" fill="white"/>
<path d="M119.987 46.9303C119.987 47.3789 119.827 47.8175 119.528 48.1905C119.229 48.5635 118.804 48.8542 118.306 49.0259C117.809 49.1975 117.262 49.2425 116.734 49.155C116.206 49.0674 115.721 48.8514 115.34 48.5342C114.96 48.217 114.7 47.8128 114.595 47.3728C114.49 46.9328 114.544 46.4768 114.75 46.0623C114.956 45.6479 115.305 45.2936 115.753 45.0443C116.2 44.7951 116.726 44.6621 117.265 44.6621C117.622 44.6621 117.976 44.7208 118.306 44.8348C118.637 44.9487 118.937 45.1158 119.189 45.3264C119.442 45.537 119.643 45.7871 119.779 46.0623C119.916 46.3375 119.987 46.6324 119.987 46.9303Z" fill="white"/>
<path d="M128.152 47.3683C128.155 47.908 127.998 48.4364 127.7 48.8864C127.402 49.3364 126.977 49.6877 126.479 49.8956C125.981 50.1036 125.433 50.1588 124.903 50.0543C124.374 49.9497 123.887 49.6902 123.506 49.3086C123.124 48.927 122.865 48.4406 122.76 47.9111C122.656 47.3817 122.711 46.8331 122.919 46.3351C123.127 45.8372 123.478 45.4122 123.928 45.1143C124.378 44.8164 124.906 44.6591 125.446 44.6622C126.164 44.6622 126.852 44.9472 127.36 45.4548C127.867 45.9623 128.152 46.6506 128.152 47.3683Z" fill="white"/>
<path d="M137.225 47.3683C137.228 47.9073 137.071 48.4351 136.774 48.8848C136.477 49.3344 136.053 49.6857 135.556 49.8941C135.059 50.1026 134.511 50.1586 133.982 50.0554C133.453 49.9522 132.967 49.6942 132.584 49.3142C132.202 48.9341 131.941 48.4492 131.835 47.9207C131.729 47.3923 131.782 46.8443 131.987 46.346C132.193 45.8478 132.542 45.4217 132.99 45.122C133.437 44.8222 133.964 44.6622 134.503 44.6622C134.86 44.6601 135.214 44.7285 135.544 44.8636C135.874 44.9987 136.174 45.1977 136.427 45.4492C136.68 45.7007 136.881 45.9998 137.018 46.3291C137.155 46.6585 137.225 47.0116 137.225 47.3683Z" fill="white"/>
<path d="M145.391 46.9303C145.391 47.3789 145.258 47.8175 145.008 48.1905C144.759 48.5635 144.405 48.8542 143.99 49.0259C143.576 49.1975 143.12 49.2425 142.68 49.155C142.24 49.0674 141.836 48.8514 141.519 48.5342C141.201 48.217 140.985 47.8128 140.898 47.3728C140.81 46.9329 140.855 46.4768 141.027 46.0623C141.199 45.6479 141.489 45.2936 141.862 45.0444C142.235 44.7951 142.674 44.6621 143.122 44.6621C143.421 44.6604 143.716 44.7179 143.992 44.8312C144.268 44.9446 144.519 45.1116 144.73 45.3226C144.941 45.5335 145.108 45.7843 145.222 46.0603C145.335 46.3362 145.392 46.632 145.391 46.9303Z" fill="white"/>
<path d="M154.463 46.9303C154.463 47.3789 154.304 47.8175 154.005 48.1905C153.706 48.5635 153.281 48.8542 152.783 49.0259C152.286 49.1975 151.739 49.2425 151.211 49.155C150.683 49.0674 150.198 48.8514 149.817 48.5342C149.436 48.217 149.177 47.8128 149.072 47.3728C148.967 46.9329 149.021 46.4768 149.227 46.0623C149.433 45.6479 149.782 45.2936 150.229 45.0444C150.677 44.7951 151.203 44.6621 151.742 44.6621C152.1 44.6604 152.455 44.7179 152.786 44.8312C153.117 44.9446 153.418 45.1116 153.671 45.3226C153.924 45.5335 154.124 45.7843 154.261 46.0603C154.397 46.3362 154.466 46.632 154.463 46.9303Z" fill="white"/>
<path d="M119.987 54.658C119.984 55.1957 119.821 55.7204 119.52 56.1659C119.219 56.6114 118.793 56.9578 118.296 57.1614C117.798 57.365 117.251 57.4167 116.724 57.3099C116.197 57.2031 115.714 56.9426 115.335 56.5613C114.956 56.1801 114.698 55.6951 114.594 55.1675C114.49 54.64 114.545 54.0935 114.752 53.597C114.958 53.1006 115.307 52.6764 115.754 52.378C116.202 52.0796 116.727 51.9204 117.265 51.9204C117.988 51.9246 118.68 52.2148 119.19 52.7278C119.7 53.2407 119.987 53.9347 119.987 54.658Z" fill="white"/>
<path d="M128.151 54.5641C128.167 55.1061 128.02 55.6405 127.73 56.0986C127.44 56.5567 127.019 56.9177 126.523 57.1354C126.026 57.353 125.475 57.4172 124.942 57.32C124.408 57.2227 123.916 56.9682 123.528 56.5893C123.14 56.2103 122.875 55.7241 122.765 55.1931C122.655 54.662 122.706 54.1103 122.912 53.6087C123.118 53.107 123.469 52.6783 123.921 52.3775C124.372 52.0767 124.903 51.9176 125.445 51.9204C126.151 51.9242 126.827 52.202 127.332 52.6952C127.837 53.1885 128.131 53.8585 128.151 54.5641Z" fill="white"/>
<path d="M137.224 54.5641C137.24 55.1055 137.093 55.6392 136.804 56.0969C136.514 56.5547 136.095 56.9158 135.599 57.1338C135.103 57.3519 134.554 57.417 134.021 57.321C133.488 57.225 132.995 56.9721 132.607 56.5947C132.218 56.2174 131.951 55.7327 131.84 55.2027C131.728 54.6727 131.777 54.1215 131.981 53.6196C132.184 53.1176 132.533 52.6878 132.982 52.3851C133.431 52.0825 133.961 51.9206 134.502 51.9204C135.211 51.9201 135.891 52.1961 136.4 52.6898C136.908 53.1834 137.204 53.8558 137.224 54.5641Z" fill="white"/>
<path d="M145.391 54.658C145.388 55.1957 145.253 55.7204 145.002 56.1659C144.751 56.6114 144.396 56.9578 143.981 57.1614C143.567 57.365 143.111 57.4167 142.672 57.3099C142.233 57.2031 141.83 56.9426 141.514 56.5613C141.198 56.1801 140.983 55.6951 140.897 55.1675C140.81 54.64 140.856 54.0935 141.028 53.597C141.2 53.1006 141.491 52.6764 141.864 52.378C142.236 52.0796 142.674 51.9204 143.122 51.9204C143.421 51.9204 143.717 51.9913 143.993 52.1291C144.27 52.2669 144.52 52.4687 144.731 52.7232C144.942 52.9776 145.109 53.2795 145.222 53.6115C145.335 53.9436 145.392 54.2992 145.391 54.658Z" fill="white"/>
<path d="M154.463 54.658C154.46 55.1957 154.298 55.7204 153.997 56.1659C153.696 56.6114 153.27 56.9578 152.772 57.1614C152.275 57.365 151.728 57.4167 151.201 57.3099C150.674 57.2031 150.191 56.9426 149.811 56.5613C149.432 56.1801 149.175 55.6951 149.071 55.1675C148.967 54.64 149.022 54.0935 149.228 53.597C149.435 53.1006 149.784 52.6764 150.231 52.378C150.678 52.0796 151.204 51.9204 151.742 51.9204C152.1 51.9204 152.456 51.9913 152.787 52.1291C153.118 52.2669 153.419 52.4687 153.672 52.7232C153.925 52.9776 154.125 53.2795 154.261 53.6115C154.397 53.9436 154.466 54.2992 154.463 54.658Z" fill="white"/>
<path d="M110.914 36.4966H109.099V57.3641H110.914V36.4966Z" fill="white"/>
<path d="M159 65.8081H22V97.5631H159V65.8081Z" fill="#147BDA"/>
<path d="M105.47 71.252H27.4436V73.9738H105.47V71.252Z" fill="white"/>
<path d="M105.47 75.7881H27.4436V78.5099H105.47V75.7881Z" fill="white"/>
<path d="M105.47 80.3247H27.4436V83.0466H105.47V80.3247Z" fill="white"/>
<path d="M105.47 84.8608H27.4436V87.5827H105.47V84.8608Z" fill="white"/>
<path d="M105.47 89.3975H27.4436V92.1193H105.47V89.3975Z" fill="white"/>
<path d="M119.987 73.9895C119.984 74.5272 119.821 75.0519 119.52 75.4974C119.219 75.9429 118.793 76.2894 118.296 76.493C117.798 76.6966 117.251 76.7482 116.724 76.6414C116.197 76.5346 115.714 76.2742 115.335 75.8929C114.956 75.5116 114.698 75.0266 114.594 74.499C114.49 73.9715 114.545 73.425 114.752 72.9286C114.958 72.4322 115.307 72.008 115.754 71.7096C116.202 71.4112 116.727 71.252 117.265 71.252C117.988 71.2561 118.68 71.5464 119.19 72.0593C119.7 72.5723 119.987 73.2662 119.987 73.9895Z" fill="white"/>
<path d="M128.152 73.9738C128.152 74.5128 127.992 75.0397 127.692 75.4877C127.393 75.9356 126.967 76.2844 126.468 76.49C125.97 76.6955 125.422 76.7485 124.894 76.6422C124.365 76.5359 123.88 76.2751 123.5 75.8929C123.12 75.5107 122.862 75.0242 122.759 74.4952C122.656 73.9662 122.712 73.4184 122.92 72.9214C123.129 72.4243 123.48 72.0003 123.93 71.7031C124.379 71.4059 124.907 71.2489 125.446 71.252C126.165 71.2561 126.853 71.5447 127.361 72.0547C127.868 72.5647 128.152 73.2547 128.152 73.9738Z" fill="white"/>
<path d="M137.225 73.9738C137.225 74.5121 137.066 75.0384 136.766 75.486C136.467 75.9336 136.042 76.2825 135.545 76.4885C135.048 76.6945 134.5 76.7484 133.972 76.6434C133.444 76.5383 132.959 76.2791 132.579 75.8984C132.198 75.5178 131.939 75.0328 131.834 74.5048C131.729 73.9768 131.783 73.4295 131.989 72.9322C132.195 72.4348 132.544 72.0097 132.991 71.7107C133.439 71.4116 133.965 71.252 134.503 71.252C135.225 71.252 135.918 71.5387 136.428 72.0492C136.938 72.5596 137.225 73.2519 137.225 73.9738Z" fill="white"/>
<path d="M145.391 73.9895C145.388 74.5272 145.253 75.0519 145.002 75.4974C144.751 75.9429 144.396 76.2894 143.981 76.493C143.567 76.6966 143.111 76.7482 142.672 76.6414C142.233 76.5346 141.83 76.2742 141.514 75.8929C141.198 75.5116 140.983 75.0266 140.897 74.499C140.81 73.9715 140.856 73.425 141.028 72.9286C141.2 72.4322 141.491 72.008 141.864 71.7096C142.236 71.4112 142.674 71.252 143.122 71.252C143.421 71.2519 143.717 71.3229 143.993 71.4606C144.27 71.5984 144.52 71.8003 144.731 72.0547C144.942 72.3091 145.109 72.6111 145.222 72.9431C145.335 73.2751 145.392 73.6308 145.391 73.9895Z" fill="white"/>
<path d="M154.463 73.9895C154.46 74.5272 154.298 75.0519 153.997 75.4974C153.696 75.9429 153.27 76.2894 152.772 76.493C152.275 76.6966 151.728 76.7482 151.201 76.6414C150.674 76.5346 150.191 76.2742 149.811 75.8929C149.432 75.5116 149.175 75.0266 149.071 74.499C148.967 73.9715 149.022 73.425 149.228 72.9286C149.435 72.4322 149.784 72.008 150.231 71.7096C150.678 71.4112 151.204 71.252 151.742 71.252C152.1 71.2519 152.456 71.3229 152.787 71.4606C153.118 71.5984 153.419 71.8003 153.672 72.0547C153.925 72.3091 154.125 72.6111 154.261 72.9431C154.397 73.2751 154.466 73.6308 154.463 73.9895Z" fill="white"/>
<path d="M119.987 81.6857C119.987 82.1343 119.827 82.5728 119.528 82.9458C119.229 83.3188 118.804 83.6096 118.306 83.7812C117.809 83.9529 117.262 83.9978 116.734 83.9103C116.206 83.8228 115.721 83.6068 115.34 83.2895C114.96 82.9723 114.7 82.5682 114.595 82.1282C114.49 81.6882 114.544 81.2322 114.75 80.8177C114.956 80.4032 115.305 80.0489 115.753 79.7997C116.2 79.5505 116.726 79.4175 117.265 79.4175C117.622 79.4175 117.976 79.4761 118.306 79.5901C118.637 79.7041 118.937 79.8712 119.189 80.0818C119.442 80.2924 119.643 80.5425 119.779 80.8177C119.916 81.0929 119.987 81.3878 119.987 81.6857Z" fill="white"/>
<path d="M128.152 82.1237C128.155 82.6634 127.998 83.1918 127.7 83.6418C127.402 84.0918 126.977 84.4431 126.479 84.651C125.981 84.859 125.433 84.9142 124.903 84.8096C124.374 84.7051 123.887 84.4456 123.506 84.064C123.124 83.6824 122.865 83.1959 122.76 82.6665C122.656 82.137 122.711 81.5885 122.919 81.0905C123.127 80.5925 123.478 80.1676 123.928 79.8697C124.378 79.5718 124.906 79.4144 125.446 79.4175C126.164 79.4175 126.852 79.7026 127.36 80.2101C127.867 80.7176 128.152 81.406 128.152 82.1237Z" fill="white"/>
<path d="M137.225 82.1237C137.228 82.6627 137.071 83.1905 136.774 83.6401C136.477 84.0898 136.053 84.4411 135.556 84.6495C135.059 84.8579 134.511 84.914 133.982 84.8108C133.453 84.7075 132.967 84.4496 132.584 84.0695C132.202 83.6895 131.941 83.2045 131.835 82.6761C131.729 82.1477 131.782 81.5997 131.987 81.1014C132.193 80.6031 132.542 80.1771 132.99 79.8773C133.437 79.5776 133.964 79.4175 134.503 79.4175C134.86 79.4155 135.214 79.4839 135.544 79.619C135.874 79.7541 136.174 79.9531 136.427 80.2046C136.68 80.4561 136.881 80.7551 137.018 81.0845C137.155 81.4138 137.225 81.767 137.225 82.1237Z" fill="white"/>
<path d="M145.391 81.6857C145.391 82.1343 145.258 82.5728 145.008 82.9458C144.759 83.3188 144.405 83.6096 143.99 83.7812C143.576 83.9529 143.12 83.9978 142.68 83.9103C142.24 83.8228 141.836 83.6068 141.519 83.2895C141.201 82.9723 140.985 82.5682 140.898 82.1282C140.81 81.6882 140.855 81.2322 141.027 80.8177C141.199 80.4033 141.489 80.049 141.862 79.7997C142.235 79.5505 142.674 79.4175 143.122 79.4175C143.421 79.4158 143.716 79.4732 143.992 79.5866C144.268 79.7 144.519 79.867 144.73 80.0779C144.941 80.2889 145.108 80.5397 145.222 80.8156C145.335 81.0916 145.392 81.3873 145.391 81.6857Z" fill="white"/>
<path d="M154.463 81.6857C154.463 82.1343 154.304 82.5728 154.005 82.9458C153.706 83.3188 153.281 83.6096 152.783 83.7812C152.286 83.9529 151.739 83.9978 151.211 83.9103C150.683 83.8228 150.198 83.6068 149.817 83.2895C149.436 82.9723 149.177 82.5682 149.072 82.1282C148.967 81.6882 149.021 81.2322 149.227 80.8177C149.433 80.4033 149.782 80.049 150.229 79.7997C150.677 79.5505 151.203 79.4175 151.742 79.4175C152.1 79.4158 152.455 79.4732 152.786 79.5866C153.117 79.7 153.418 79.867 153.671 80.0779C153.924 80.2889 154.124 80.5397 154.261 80.8156C154.397 81.0916 154.466 81.3873 154.463 81.6857Z" fill="white"/>
<path d="M119.987 89.4134C119.984 89.951 119.821 90.4757 119.52 90.9213C119.219 91.3668 118.793 91.7132 118.296 91.9168C117.798 92.1204 117.251 92.172 116.724 92.0653C116.197 91.9585 115.714 91.698 115.335 91.3167C114.956 90.9354 114.698 90.4505 114.594 89.9229C114.49 89.3953 114.545 88.8488 114.752 88.3524C114.958 87.856 115.307 87.4318 115.754 87.1334C116.202 86.835 116.727 86.6758 117.265 86.6758C117.988 86.6799 118.68 86.9702 119.19 87.4831C119.7 87.9961 119.987 88.69 119.987 89.4134Z" fill="white"/>
<path d="M128.151 89.3195C128.167 89.8615 128.02 90.3959 127.73 90.854C127.44 91.3121 127.019 91.6731 126.523 91.8907C126.026 92.1083 125.475 92.1726 124.942 92.0753C124.408 91.978 123.916 91.7236 123.528 91.3446C123.14 90.9657 122.875 90.4795 122.765 89.9485C122.655 89.4174 122.706 88.8657 122.912 88.364C123.118 87.8624 123.469 87.4337 123.921 87.1329C124.372 86.8321 124.903 86.6729 125.445 86.6758C126.151 86.6796 126.827 86.9574 127.332 87.4506C127.837 87.9438 128.131 88.6139 128.151 89.3195Z" fill="white"/>
<path d="M137.224 89.3194C137.24 89.8608 137.093 90.3945 136.804 90.8523C136.514 91.3101 136.095 91.6711 135.599 91.8892C135.103 92.1072 134.554 92.1724 134.021 92.0764C133.488 91.9803 132.995 91.7275 132.607 91.3501C132.218 90.9728 131.951 90.4881 131.84 89.9581C131.728 89.4281 131.777 88.8769 131.981 88.3749C132.184 87.873 132.533 87.4432 132.982 87.1405C133.431 86.8378 133.961 86.676 134.502 86.6758C135.211 86.6755 135.891 86.9515 136.4 87.4451C136.908 87.9388 137.204 88.6112 137.224 89.3194Z" fill="white"/>
<path d="M145.391 89.4134C145.388 89.951 145.253 90.4757 145.002 90.9213C144.751 91.3668 144.396 91.7132 143.981 91.9168C143.567 92.1204 143.111 92.172 142.672 92.0653C142.233 91.9585 141.83 91.698 141.514 91.3167C141.198 90.9354 140.983 90.4505 140.897 89.9229C140.81 89.3953 140.856 88.8488 141.028 88.3524C141.2 87.856 141.491 87.4318 141.864 87.1334C142.236 86.835 142.674 86.6758 143.122 86.6758C143.421 86.6758 143.717 86.7467 143.993 86.8845C144.27 87.0222 144.52 87.2241 144.731 87.4785C144.942 87.733 145.109 88.0348 145.222 88.3669C145.335 88.6989 145.392 89.0546 145.391 89.4134Z" fill="white"/>
<path d="M154.463 89.4134C154.46 89.951 154.298 90.4757 153.997 90.9213C153.696 91.3668 153.27 91.7132 152.772 91.9168C152.275 92.1204 151.728 92.172 151.201 92.0653C150.674 91.9585 150.191 91.698 149.811 91.3167C149.432 90.9354 149.175 90.4505 149.071 89.9229C148.967 89.3953 149.022 88.8488 149.228 88.3524C149.435 87.856 149.784 87.4318 150.231 87.1334C150.678 86.835 151.204 86.6758 151.742 86.6758C152.1 86.6758 152.456 86.7467 152.787 86.8845C153.118 87.0222 153.419 87.2241 153.672 87.4785C153.925 87.733 154.125 88.0348 154.261 88.3669C154.397 88.6989 154.466 89.0546 154.463 89.4134Z" fill="white"/>
<path d="M110.914 71.252H109.099V92.1195H110.914V71.252Z" fill="white"/>
<path d="M159 100.563H22V132.318H159V100.563Z" fill="#147BDA"/>
<path d="M105.47 106.007H27.4436V108.729H105.47V106.007Z" fill="white"/>
<path d="M105.47 110.543H27.4436V113.265H105.47V110.543Z" fill="white"/>
<path d="M105.47 115.08H27.4436V117.801H105.47V115.08Z" fill="white"/>
<path d="M105.47 119.616H27.4436V122.338H105.47V119.616Z" fill="white"/>
<path d="M105.47 124.152H27.4436V126.874H105.47V124.152Z" fill="white"/>
<path d="M119.987 108.744C119.984 109.282 119.821 109.807 119.52 110.252C119.219 110.698 118.793 111.044 118.296 111.248C117.798 111.451 117.251 111.503 116.724 111.396C116.197 111.29 115.714 111.029 115.335 110.648C114.956 110.266 114.698 109.781 114.594 109.254C114.49 108.726 114.545 108.18 114.752 107.683C114.958 107.187 115.307 106.763 115.754 106.465C116.202 106.166 116.727 106.007 117.265 106.007C117.988 106.011 118.68 106.301 119.19 106.814C119.7 107.327 119.987 108.021 119.987 108.744Z" fill="white"/>
<path d="M128.152 108.729C128.152 109.268 127.992 109.795 127.692 110.243C127.393 110.69 126.967 111.039 126.468 111.245C125.97 111.45 125.422 111.503 124.894 111.397C124.365 111.291 123.88 111.03 123.5 110.648C123.12 110.266 122.862 109.779 122.759 109.25C122.656 108.721 122.712 108.173 122.92 107.676C123.129 107.179 123.48 106.755 123.93 106.458C124.379 106.161 124.907 106.004 125.446 106.007C126.165 106.011 126.853 106.3 127.361 106.81C127.868 107.32 128.152 108.01 128.152 108.729Z" fill="white"/>
<path d="M137.225 108.729C137.225 109.267 137.066 109.793 136.766 110.241C136.467 110.688 136.042 111.037 135.545 111.243C135.048 111.449 134.5 111.503 133.972 111.398C133.444 111.293 132.959 111.034 132.579 110.653C132.198 110.273 131.939 109.788 131.834 109.26C131.729 108.732 131.783 108.184 131.989 107.687C132.195 107.19 132.544 106.765 132.991 106.466C133.439 106.166 133.965 106.007 134.503 106.007C135.225 106.007 135.918 106.294 136.428 106.804C136.938 107.315 137.225 108.007 137.225 108.729Z" fill="white"/>
<path d="M145.391 108.744C145.388 109.282 145.253 109.807 145.002 110.252C144.751 110.698 144.396 111.044 143.981 111.248C143.567 111.451 143.111 111.503 142.672 111.396C142.233 111.29 141.83 111.029 141.514 110.648C141.198 110.266 140.983 109.781 140.897 109.254C140.81 108.726 140.856 108.18 141.028 107.683C141.2 107.187 141.491 106.763 141.864 106.465C142.236 106.166 142.674 106.007 143.122 106.007C143.421 106.007 143.717 106.078 143.993 106.216C144.27 106.353 144.52 106.555 144.731 106.81C144.942 107.064 145.109 107.366 145.222 107.698C145.335 108.03 145.392 108.386 145.391 108.744Z" fill="white"/>
<path d="M154.463 108.744C154.46 109.282 154.298 109.807 153.997 110.252C153.696 110.698 153.27 111.044 152.772 111.248C152.275 111.451 151.728 111.503 151.201 111.396C150.674 111.29 150.191 111.029 149.811 110.648C149.432 110.266 149.175 109.781 149.071 109.254C148.967 108.726 149.022 108.18 149.228 107.683C149.435 107.187 149.784 106.763 150.231 106.465C150.678 106.166 151.204 106.007 151.742 106.007C152.1 106.007 152.456 106.078 152.787 106.216C153.118 106.353 153.419 106.555 153.672 106.81C153.925 107.064 154.125 107.366 154.261 107.698C154.397 108.03 154.466 108.386 154.463 108.744Z" fill="white"/>
<path d="M119.987 116.441C119.987 116.889 119.827 117.328 119.528 117.701C119.229 118.074 118.804 118.364 118.306 118.536C117.809 118.708 117.262 118.753 116.734 118.665C116.206 118.578 115.721 118.362 115.34 118.044C114.96 117.727 114.7 117.323 114.595 116.883C114.49 116.443 114.544 115.987 114.75 115.573C114.956 115.158 115.305 114.804 115.753 114.555C116.2 114.305 116.726 114.172 117.265 114.172C117.622 114.172 117.976 114.231 118.306 114.345C118.637 114.459 118.937 114.626 119.189 114.837C119.442 115.047 119.643 115.297 119.779 115.573C119.916 115.848 119.987 116.143 119.987 116.441Z" fill="white"/>
<path d="M128.152 116.879C128.155 117.418 127.998 117.947 127.7 118.397C127.402 118.847 126.977 119.198 126.479 119.406C125.981 119.614 125.433 119.669 124.903 119.565C124.374 119.46 123.887 119.2 123.506 118.819C123.124 118.437 122.865 117.951 122.76 117.421C122.656 116.892 122.711 116.343 122.919 115.845C123.127 115.347 123.478 114.922 123.928 114.625C124.378 114.327 124.906 114.169 125.446 114.172C126.164 114.172 126.852 114.457 127.36 114.965C127.867 115.473 128.152 116.161 128.152 116.879Z" fill="white"/>
<path d="M137.225 116.879C137.228 117.418 137.071 117.945 136.774 118.395C136.477 118.845 136.053 119.196 135.556 119.404C135.059 119.613 134.511 119.669 133.982 119.566C133.453 119.462 132.967 119.204 132.584 118.824C132.202 118.444 131.941 117.959 131.835 117.431C131.729 116.903 131.782 116.355 131.987 115.856C132.193 115.358 132.542 114.932 132.99 114.632C133.437 114.332 133.964 114.172 134.503 114.172C134.86 114.17 135.214 114.239 135.544 114.374C135.874 114.509 136.174 114.708 136.427 114.959C136.68 115.211 136.881 115.51 137.018 115.839C137.155 116.169 137.225 116.522 137.225 116.879Z" fill="white"/>
<path d="M145.391 116.441C145.391 116.889 145.258 117.328 145.008 117.701C144.759 118.074 144.405 118.364 143.99 118.536C143.576 118.708 143.12 118.753 142.68 118.665C142.24 118.578 141.836 118.362 141.519 118.044C141.201 117.727 140.985 117.323 140.898 116.883C140.81 116.443 140.855 115.987 141.027 115.573C141.199 115.158 141.489 114.804 141.862 114.555C142.235 114.305 142.674 114.172 143.122 114.172C143.421 114.171 143.716 114.228 143.992 114.341C144.268 114.455 144.519 114.622 144.73 114.833C144.941 115.044 145.108 115.295 145.222 115.571C145.335 115.846 145.392 116.142 145.391 116.441Z" fill="white"/>
<path d="M154.463 116.441C154.463 116.889 154.304 117.328 154.005 117.701C153.706 118.074 153.281 118.364 152.783 118.536C152.286 118.708 151.739 118.753 151.211 118.665C150.683 118.578 150.198 118.362 149.817 118.044C149.436 117.727 149.177 117.323 149.072 116.883C148.967 116.443 149.021 115.987 149.227 115.573C149.433 115.158 149.782 114.804 150.229 114.555C150.677 114.305 151.203 114.172 151.742 114.172C152.1 114.171 152.455 114.228 152.786 114.341C153.117 114.455 153.418 114.622 153.671 114.833C153.924 115.044 154.124 115.295 154.261 115.571C154.397 115.846 154.466 116.142 154.463 116.441Z" fill="white"/>
<path d="M119.987 124.168C119.984 124.706 119.821 125.231 119.52 125.676C119.219 126.122 118.793 126.468 118.296 126.672C117.798 126.875 117.251 126.927 116.724 126.82C116.197 126.713 115.714 126.453 115.335 126.072C114.956 125.69 114.698 125.205 114.594 124.678C114.49 124.15 114.545 123.604 114.752 123.107C114.958 122.611 115.307 122.187 115.754 121.888C116.202 121.59 116.727 121.431 117.265 121.431C117.988 121.435 118.68 121.725 119.19 122.238C119.7 122.751 119.987 123.445 119.987 124.168Z" fill="white"/>
<path d="M128.151 124.074C128.167 124.616 128.02 125.151 127.73 125.609C127.44 126.067 127.019 126.428 126.523 126.646C126.026 126.863 125.475 126.928 124.942 126.83C124.408 126.733 123.916 126.478 123.528 126.1C123.14 125.721 122.875 125.234 122.765 124.703C122.655 124.172 122.706 123.621 122.912 123.119C123.118 122.617 123.469 122.189 123.921 121.888C124.372 121.587 124.903 121.428 125.445 121.431C126.151 121.434 126.827 121.712 127.332 122.205C127.837 122.699 128.131 123.369 128.151 124.074Z" fill="white"/>
<path d="M137.224 124.074C137.24 124.616 137.093 125.149 136.804 125.607C136.514 126.065 136.095 126.426 135.599 126.644C135.103 126.862 134.554 126.927 134.021 126.831C133.488 126.735 132.995 126.482 132.607 126.105C132.218 125.728 131.951 125.243 131.84 124.713C131.728 124.183 131.777 123.632 131.981 123.13C132.184 122.628 132.533 122.198 132.982 121.895C133.431 121.593 133.961 121.431 134.502 121.431C135.211 121.43 135.891 121.706 136.4 122.2C136.908 122.694 137.204 123.366 137.224 124.074Z" fill="white"/>
<path d="M145.391 124.168C145.388 124.706 145.253 125.231 145.002 125.676C144.751 126.122 144.396 126.468 143.981 126.672C143.567 126.875 143.111 126.927 142.672 126.82C142.233 126.713 141.83 126.453 141.514 126.072C141.198 125.69 140.983 125.205 140.897 124.678C140.81 124.15 140.856 123.604 141.028 123.107C141.2 122.611 141.491 122.187 141.864 121.888C142.236 121.59 142.674 121.431 143.122 121.431C143.421 121.431 143.717 121.502 143.993 121.639C144.27 121.777 144.52 121.979 144.731 122.233C144.942 122.488 145.109 122.79 145.222 123.122C145.335 123.454 145.392 123.809 145.391 124.168Z" fill="white"/>
<path d="M154.463 124.168C154.46 124.706 154.298 125.231 153.997 125.676C153.696 126.122 153.27 126.468 152.772 126.672C152.275 126.875 151.728 126.927 151.201 126.82C150.674 126.713 150.191 126.453 149.811 126.072C149.432 125.69 149.175 125.205 149.071 124.678C148.967 124.15 149.022 123.604 149.228 123.107C149.435 122.611 149.784 122.187 150.231 121.888C150.678 121.59 151.204 121.431 151.742 121.431C152.1 121.431 152.456 121.502 152.787 121.639C153.118 121.777 153.419 121.979 153.672 122.233C153.925 122.488 154.125 122.79 154.261 123.122C154.397 123.454 154.466 123.809 154.463 124.168Z" fill="white"/>
<path d="M110.914 106.007H109.099V126.874H110.914V106.007Z" fill="white"/>
</svg>
