<svg width="40" height="40" viewBox="0 0 40 40" fill="none" xmlns="http://www.w3.org/2000/svg">
<rect width="40" height="40" rx="4" fill="#147BDA"/>
<path d="M27.5603 27.7007C28.271 23.7648 29.6707 15.2257 29.9937 11.7123C30.0153 11.4009 29.9722 11.0007 29.9937 10.8672C29.9722 10.6894 29.9076 10.4447 29.6923 10.2668C29.4338 10.0445 29.0247 10 28.8524 10C28.0341 10 26.8066 10.4447 20.8199 13.0242C18.731 13.9137 14.5533 15.7816 8.26512 18.6057C7.25299 19.0283 6.71462 19.4285 6.67155 19.8288C6.58541 20.6071 7.64061 20.8517 8.99731 21.2964C10.0956 21.6745 11.5599 22.097 12.3352 22.1192C13.0243 22.1414 13.7996 21.8301 14.661 21.2297C20.54 17.1381 23.5548 15.0701 23.7486 15.0256C23.8994 15.0033 24.0717 14.9589 24.2009 15.0701C24.249 15.1227 24.284 15.1867 24.3028 15.2564C24.3215 15.3262 24.3235 15.3996 24.3086 15.4703C24.2009 15.9373 18.688 21.1185 18.3649 21.4521C17.1375 22.7418 15.7592 23.5424 17.8912 24.9878C19.7216 26.2331 20.7984 27.0336 22.6934 28.3234C23.8994 29.1461 24.8469 30.1023 26.0959 29.9911C26.6558 29.9244 27.2588 29.3685 27.5603 27.7007Z" fill="white"/>
</svg>
