<svg width="40" height="40" viewBox="0 0 40 40" fill="none" xmlns="http://www.w3.org/2000/svg">
<rect width="40" height="40" rx="4" fill="white"/>
<path d="M27.5604 27.7007C28.271 23.7648 29.6708 15.2257 29.9938 11.7123C30.0153 11.4009 29.9723 11.0007 29.9938 10.8672C29.9723 10.6894 29.9077 10.4447 29.6923 10.2668C29.4339 10.0445 29.0247 10 28.8525 10C28.0341 10 26.8067 10.4447 20.82 13.0242C18.7311 13.9137 14.5533 15.7816 8.26519 18.6057C7.25305 19.0283 6.71468 19.4285 6.67161 19.8288C6.58547 20.6071 7.64068 20.8517 8.99737 21.2964C10.0956 21.6745 11.56 22.097 12.3353 22.1192C13.0244 22.1414 13.7996 21.8301 14.661 21.2297C20.54 17.1381 23.5549 15.0701 23.7487 15.0256C23.8995 15.0033 24.0717 14.9589 24.2009 15.0701C24.2491 15.1227 24.2841 15.1867 24.3028 15.2564C24.3216 15.3262 24.3236 15.3996 24.3086 15.4703C24.2009 15.9373 18.688 21.1185 18.365 21.4521C17.1375 22.7418 15.7593 23.5424 17.8912 24.9878C19.7217 26.2331 20.7984 27.0336 22.6935 28.3234C23.8995 29.1461 24.847 30.1023 26.096 29.9911C26.6559 29.9244 27.2589 29.3685 27.5604 27.7007Z" fill="#147BDA"/>
</svg>
