<svg width="696" height="500" viewBox="0 0 696 500" fill="none" xmlns="http://www.w3.org/2000/svg">
<path d="M230.18 129.64H103.54V43H230.18V129.64ZM104.54 128.64H229.18V44H104.54V128.64Z" fill="#D2E3F3"/>
<path d="M113.44 48.5796C113.44 49.078 113.292 49.5652 113.015 49.9796C112.738 50.394 112.345 50.717 111.884 50.9077C111.424 51.0985 110.917 51.1484 110.428 51.0511C109.939 50.9539 109.49 50.7139 109.138 50.3615C108.786 50.009 108.546 49.56 108.448 49.0712C108.351 48.5824 108.401 48.0757 108.592 47.6152C108.782 47.1547 109.105 46.7612 109.52 46.4843C109.934 46.2074 110.421 46.0596 110.92 46.0596C111.588 46.0596 112.229 46.3251 112.702 46.7977C113.174 47.2703 113.44 47.9112 113.44 48.5796Z" fill="#A6A6A6"/>
<path d="M123.73 48.5796C123.73 49.078 123.582 49.5652 123.305 49.9796C123.028 50.394 122.635 50.717 122.174 50.9078C121.714 51.0985 121.207 51.1484 120.718 51.0512C120.229 50.9539 119.78 50.7139 119.428 50.3615C119.076 50.0091 118.836 49.56 118.738 49.0712C118.641 48.5824 118.691 48.0757 118.882 47.6152C119.072 47.1548 119.396 46.7612 119.81 46.4843C120.224 46.2074 120.712 46.0596 121.21 46.0596C121.541 46.0583 121.87 46.1225 122.176 46.2487C122.482 46.3749 122.761 46.5605 122.995 46.7947C123.229 47.029 123.415 47.3073 123.541 47.6137C123.667 47.92 123.731 48.2483 123.73 48.5796Z" fill="#D2E3F3"/>
<path d="M134 48.5796C134 49.078 133.852 49.5652 133.575 49.9796C133.298 50.394 132.905 50.717 132.444 50.9077C131.984 51.0985 131.477 51.1484 130.988 51.0511C130.5 50.9539 130.05 50.7139 129.698 50.3615C129.346 50.009 129.106 49.56 129.008 49.0712C128.911 48.5824 128.961 48.0757 129.152 47.6152C129.343 47.1547 129.666 46.7612 130.08 46.4843C130.494 46.2074 130.982 46.0596 131.48 46.0596C132.148 46.0596 132.789 46.3251 133.262 46.7977C133.734 47.2703 134 47.9112 134 48.5796Z" fill="#147BDA"/>
<path d="M229.68 53.0195H104.04V54.0195H229.68V53.0195Z" fill="#D2E3F3"/>
<path d="M77.0999 359.21H76.0999V233.71L49.3699 197.23V128.73H50.3699V196.9L77.0999 233.38V359.21Z" fill="#D2E3F3"/>
<path d="M49.87 129.27C49.2995 129.272 48.7413 129.104 48.2662 128.789C47.791 128.473 47.4203 128.023 47.2011 127.497C46.9819 126.97 46.924 126.39 47.0348 125.83C47.1456 125.271 47.4201 124.757 47.8235 124.353C48.2269 123.95 48.741 123.675 49.3006 123.565C49.8602 123.454 50.4401 123.512 50.9667 123.731C51.4934 123.95 51.9431 124.321 52.2588 124.796C52.5745 125.271 52.7419 125.829 52.74 126.4C52.7373 127.16 52.4341 127.889 51.8965 128.426C51.3588 128.964 50.6303 129.267 49.87 129.27ZM49.87 124.52C49.4977 124.518 49.1333 124.626 48.8228 124.832C48.5123 125.037 48.2698 125.33 48.126 125.673C47.9821 126.017 47.9435 126.395 48.0149 126.76C48.0863 127.126 48.2645 127.462 48.5271 127.726C48.7896 127.989 49.1246 128.17 49.4895 128.243C49.8545 128.316 50.233 128.28 50.5771 128.138C50.9212 127.996 51.2154 127.755 51.4224 127.445C51.6294 127.136 51.74 126.772 51.74 126.4C51.74 125.903 51.5433 125.426 51.1929 125.074C50.8425 124.722 50.3668 124.522 49.87 124.52Z" fill="#D2E3F3"/>
<path d="M70.21 359.21H69.21V238.12L42.48 201.64V153.73H43.48V201.31L70.21 237.79V359.21Z" fill="#D2E3F3"/>
<path d="M42.9999 154.27C42.4303 154.27 41.8734 154.101 41.3998 153.785C40.9262 153.468 40.5571 153.018 40.3391 152.492C40.1211 151.966 40.0641 151.387 40.1752 150.828C40.2863 150.269 40.5606 149.756 40.9634 149.354C41.3662 148.951 41.8793 148.676 42.438 148.565C42.9967 148.454 43.5758 148.511 44.102 148.729C44.6283 148.947 45.078 149.316 45.3945 149.79C45.711 150.264 45.8799 150.82 45.8799 151.39C45.8799 152.154 45.5764 152.886 45.0363 153.426C44.4962 153.967 43.7637 154.27 42.9999 154.27ZM42.9999 149.52C42.6276 149.52 42.2637 149.631 41.9544 149.838C41.645 150.045 41.404 150.339 41.262 150.683C41.12 151.027 41.0834 151.406 41.1568 151.77C41.2301 152.135 41.4102 152.47 41.6741 152.733C41.938 152.995 42.2739 153.174 42.6393 153.245C43.0046 153.317 43.3829 153.278 43.7263 153.134C44.0696 152.99 44.3625 152.748 44.5679 152.437C44.7733 152.127 44.8819 151.762 44.8799 151.39C44.8799 151.144 44.8312 150.9 44.7366 150.672C44.642 150.445 44.5033 150.238 44.3286 150.064C44.1539 149.89 43.9466 149.753 43.7186 149.659C43.4905 149.566 43.2463 149.519 42.9999 149.52Z" fill="#D2E3F3"/>
<path d="M83.73 192.8H82.73V359.21H83.73V192.8Z" fill="#D2E3F3"/>
<path d="M83.2298 193.3C82.6598 193.3 82.1026 193.131 81.6288 192.814C81.1549 192.497 80.7858 192.047 80.5681 191.52C80.3504 190.993 80.294 190.413 80.4059 189.854C80.5179 189.296 80.7932 188.782 81.1969 188.38C81.6007 187.978 82.1148 187.704 82.6741 187.594C83.2335 187.484 83.8128 187.543 84.3389 187.762C84.865 187.982 85.3141 188.352 85.6293 188.827C85.9446 189.302 86.1118 189.86 86.1098 190.43C86.1072 191.192 85.8026 191.922 85.2628 192.46C84.723 192.998 83.9919 193.3 83.2298 193.3ZM83.2298 188.55C82.858 188.55 82.4945 188.66 82.1854 188.867C81.8762 189.073 81.6352 189.367 81.4929 189.711C81.3506 190.054 81.3134 190.432 81.386 190.797C81.4585 191.161 81.6376 191.496 81.9005 191.759C82.1634 192.022 82.4984 192.201 82.8631 192.274C83.2278 192.346 83.6058 192.309 83.9493 192.167C84.2928 192.025 84.5864 191.784 84.793 191.475C84.9996 191.165 85.1098 190.802 85.1098 190.43C85.1098 189.931 84.9118 189.453 84.5592 189.101C84.2066 188.748 83.7284 188.55 83.2298 188.55Z" fill="#D2E3F3"/>
<path d="M90.1199 359.21H89.1199V274.51L89.1699 274.4L107.26 240.28V179.04H108.26V240.53L90.1199 274.76V359.21Z" fill="#D2E3F3"/>
<path d="M107.76 179.54C107.19 179.54 106.633 179.371 106.159 179.054C105.685 178.737 105.316 178.287 105.098 177.76C104.88 177.233 104.824 176.654 104.936 176.095C105.048 175.536 105.323 175.023 105.727 174.62C106.131 174.218 106.645 173.944 107.204 173.834C107.763 173.724 108.343 173.783 108.869 174.002C109.395 174.222 109.844 174.593 110.159 175.068C110.475 175.542 110.642 176.1 110.64 176.67C110.637 177.432 110.333 178.162 109.793 178.7C109.253 179.238 108.522 179.54 107.76 179.54ZM107.76 174.79C107.388 174.79 107.025 174.901 106.715 175.107C106.406 175.314 106.165 175.607 106.023 175.951C105.881 176.294 105.843 176.672 105.916 177.037C105.989 177.402 106.168 177.737 106.431 178C106.693 178.263 107.028 178.442 107.393 178.514C107.758 178.587 108.136 178.549 108.479 178.407C108.823 178.265 109.116 178.024 109.323 177.715C109.53 177.406 109.64 177.042 109.64 176.67C109.64 176.172 109.442 175.693 109.089 175.341C108.737 174.988 108.258 174.79 107.76 174.79Z" fill="#D2E3F3"/>
<path d="M96.47 359.21H95.47V278.16L95.53 278.05L116.86 240.32V200.04H117.86V240.58L96.47 278.43V359.21Z" fill="#D2E3F3"/>
<path d="M117.36 200.54C116.79 200.542 116.232 200.375 115.757 200.06C115.282 199.744 114.912 199.295 114.692 198.769C114.473 198.243 114.414 197.664 114.524 197.105C114.634 196.545 114.908 196.031 115.31 195.627C115.712 195.224 116.225 194.948 116.784 194.836C117.343 194.724 117.923 194.781 118.45 194.999C118.977 195.216 119.427 195.585 119.744 196.059C120.061 196.533 120.23 197.09 120.23 197.66C120.23 198.422 119.928 199.153 119.39 199.693C118.852 200.233 118.122 200.538 117.36 200.54ZM117.36 195.79C116.987 195.788 116.622 195.897 116.312 196.103C116.001 196.309 115.759 196.602 115.615 196.946C115.471 197.29 115.433 197.669 115.506 198.035C115.578 198.4 115.757 198.736 116.021 199C116.284 199.263 116.62 199.442 116.986 199.515C117.351 199.587 117.73 199.549 118.074 199.405C118.418 199.262 118.711 199.019 118.917 198.708C119.123 198.398 119.232 198.033 119.23 197.66C119.227 197.165 119.029 196.691 118.679 196.341C118.329 195.991 117.855 195.793 117.36 195.79Z" fill="#D2E3F3"/>
<path d="M639.51 359.21H638.51V293.38L638.61 293.25L665.24 256.9V218.73H666.24V257.23L666.14 257.36L639.51 293.71V359.21Z" fill="#D2E3F3"/>
<path d="M665.74 219.27C665.17 219.27 664.613 219.101 664.139 218.784C663.665 218.467 663.296 218.017 663.078 217.49C662.86 216.963 662.804 216.383 662.916 215.824C663.028 215.266 663.303 214.752 663.707 214.35C664.111 213.948 664.625 213.674 665.184 213.564C665.743 213.454 666.323 213.513 666.849 213.732C667.375 213.952 667.824 214.322 668.139 214.797C668.455 215.272 668.622 215.83 668.62 216.4C668.617 217.162 668.313 217.892 667.773 218.43C667.233 218.968 666.502 219.27 665.74 219.27ZM665.74 214.52C665.368 214.52 665.005 214.63 664.695 214.837C664.386 215.043 664.145 215.337 664.003 215.681C663.861 216.024 663.823 216.402 663.896 216.767C663.969 217.131 664.148 217.466 664.41 217.729C664.673 217.992 665.008 218.171 665.373 218.244C665.738 218.316 666.116 218.279 666.459 218.137C666.803 217.995 667.096 217.754 667.303 217.444C667.51 217.135 667.62 216.772 667.62 216.4C667.62 215.901 667.422 215.423 667.069 215.071C666.717 214.718 666.238 214.52 665.74 214.52Z" fill="#D2E3F3"/>
<path d="M646.4 359.21H645.4V297.79L672.13 261.31V243.73H673.13V261.64L673.03 261.77L646.4 298.12V359.21Z" fill="#D2E3F3"/>
<path d="M672.63 244.27C672.06 244.272 671.502 244.105 671.027 243.789C670.552 243.474 670.182 243.025 669.962 242.499C669.743 241.973 669.684 241.393 669.794 240.834C669.904 240.275 670.178 239.761 670.58 239.357C670.982 238.953 671.495 238.678 672.054 238.566C672.613 238.454 673.193 238.51 673.72 238.728C674.247 238.946 674.697 239.315 675.014 239.789C675.331 240.263 675.5 240.82 675.5 241.39C675.5 242.152 675.198 242.883 674.66 243.423C674.122 243.963 673.392 244.267 672.63 244.27ZM672.63 239.52C672.257 239.518 671.892 239.627 671.582 239.832C671.271 240.038 671.029 240.332 670.885 240.676C670.742 241.02 670.703 241.398 670.776 241.764C670.848 242.13 671.027 242.466 671.291 242.729C671.554 242.993 671.89 243.172 672.256 243.244C672.621 243.316 673 243.278 673.344 243.135C673.688 242.991 673.981 242.749 674.187 242.438C674.393 242.127 674.502 241.762 674.5 241.39C674.497 240.895 674.3 240.42 673.949 240.07C673.599 239.72 673.125 239.522 672.63 239.52Z" fill="#D2E3F3"/>
<path d="M632.88 252.8H631.88V359.21H632.88V252.8Z" fill="#D2E3F3"/>
<path d="M632.38 253.3C631.81 253.302 631.251 253.135 630.776 252.819C630.301 252.503 629.93 252.053 629.711 251.527C629.492 251 629.434 250.42 629.545 249.861C629.656 249.301 629.93 248.787 630.334 248.384C630.737 247.98 631.251 247.706 631.811 247.595C632.37 247.484 632.95 247.542 633.477 247.761C634.003 247.98 634.453 248.351 634.769 248.826C635.084 249.301 635.252 249.86 635.25 250.43C635.247 251.19 634.944 251.919 634.406 252.457C633.869 252.994 633.14 253.297 632.38 253.3ZM632.38 248.55C632.008 248.548 631.643 248.657 631.333 248.862C631.022 249.067 630.78 249.36 630.636 249.704C630.492 250.047 630.453 250.425 630.525 250.791C630.596 251.156 630.775 251.492 631.037 251.756C631.3 252.02 631.635 252.2 631.999 252.273C632.364 252.346 632.743 252.31 633.087 252.168C633.431 252.026 633.725 251.785 633.932 251.476C634.139 251.166 634.25 250.802 634.25 250.43C634.25 249.933 634.053 249.456 633.703 249.104C633.352 248.752 632.877 248.553 632.38 248.55Z" fill="#D2E3F3"/>
<path d="M626.49 359.21H625.49V304.76L607.35 270.53V209.04H608.35V270.28L626.49 304.51V359.21Z" fill="#D2E3F3"/>
<path d="M607.84 209.54C607.27 209.54 606.713 209.371 606.239 209.054C605.765 208.737 605.396 208.287 605.178 207.76C604.961 207.233 604.904 206.654 605.016 206.095C605.128 205.536 605.403 205.023 605.807 204.62C606.211 204.218 606.725 203.944 607.284 203.834C607.844 203.724 608.423 203.783 608.949 204.002C609.475 204.222 609.924 204.593 610.239 205.068C610.555 205.542 610.722 206.1 610.72 206.67C610.717 207.432 610.413 208.162 609.873 208.7C609.333 209.238 608.602 209.54 607.84 209.54ZM607.84 204.79C607.468 204.79 607.105 204.901 606.795 205.107C606.486 205.314 606.245 205.607 606.103 205.951C605.961 206.294 605.923 206.672 605.996 207.037C606.069 207.402 606.248 207.737 606.511 208C606.773 208.263 607.108 208.442 607.473 208.514C607.838 208.587 608.216 208.549 608.559 208.407C608.903 208.265 609.196 208.024 609.403 207.715C609.61 207.406 609.72 207.042 609.72 206.67C609.72 206.172 609.522 205.693 609.169 205.341C608.817 204.988 608.339 204.79 607.84 204.79Z" fill="#D2E3F3"/>
<path d="M620.14 359.21H619.14V308.43L597.75 270.58V230.04H598.75V270.32L620.14 308.16V359.21Z" fill="#D2E3F3"/>
<path d="M598.25 230.54C597.68 230.542 597.122 230.375 596.647 230.06C596.172 229.744 595.801 229.295 595.582 228.769C595.362 228.243 595.304 227.664 595.414 227.105C595.524 226.545 595.798 226.031 596.2 225.627C596.602 225.224 597.115 224.948 597.674 224.836C598.233 224.724 598.813 224.781 599.34 224.999C599.866 225.216 600.317 225.585 600.634 226.059C600.951 226.533 601.12 227.09 601.12 227.66C601.12 228.422 600.818 229.153 600.28 229.693C599.742 230.233 599.012 230.538 598.25 230.54ZM598.25 225.79C597.877 225.788 597.512 225.897 597.202 226.103C596.891 226.309 596.648 226.602 596.505 226.946C596.361 227.29 596.323 227.669 596.396 228.035C596.468 228.4 596.647 228.736 596.911 229C597.174 229.263 597.51 229.442 597.876 229.515C598.241 229.587 598.62 229.549 598.964 229.405C599.308 229.262 599.601 229.019 599.807 228.708C600.013 228.398 600.122 228.033 600.12 227.66C600.117 227.165 599.919 226.691 599.569 226.341C599.219 225.991 598.745 225.793 598.25 225.79Z" fill="#D2E3F3"/>
<path d="M48.5 125.61C48.9966 125.306 49.5676 125.145 50.15 125.145C50.7323 125.145 51.3033 125.306 51.8 125.61L52.65 126.1L53.5199 126.54C54.0507 126.778 54.5042 127.16 54.8293 127.643C55.1545 128.125 55.3383 128.689 55.36 129.27L55.4899 133.33L68.72 132.92L68.5999 128.86C68.582 128.276 68.728 127.698 69.0214 127.193C69.3148 126.687 69.7438 126.274 70.26 126C70.8376 125.697 71.3984 125.363 71.94 125C72.4154 124.665 72.9746 124.467 73.5553 124.43C74.136 124.393 74.7157 124.518 75.23 124.79L78.8 126.7L85.0599 115L81.48 113.09C80.9706 112.81 80.5482 112.394 80.2589 111.89C79.9696 111.386 79.8247 110.811 79.8399 110.23C79.856 109.563 79.836 108.895 79.7799 108.23C79.7144 107.643 79.8168 107.05 80.0753 106.518C80.3337 105.987 80.7376 105.541 81.2399 105.23L84.69 103.08L77.69 91.83L74.22 93.98C73.7252 94.2843 73.1558 94.4454 72.5749 94.4454C71.9941 94.4454 71.4247 94.2843 70.93 93.98C70.65 93.81 70.37 93.65 70.08 93.5C69.79 93.35 69.5099 93.2 69.2099 93.06C68.6791 92.8191 68.2259 92.4352 67.9009 91.9512C67.5759 91.4673 67.3921 90.9025 67.37 90.32L67.2399 86.25L54 86.73L54.1299 90.79C54.146 91.3725 53.9991 91.9479 53.7058 92.4514C53.4125 92.9549 52.9845 93.3666 52.47 93.64C51.89 93.96 51.33 94.31 50.79 94.64C50.3154 94.977 49.7568 95.176 49.176 95.2149C48.5953 95.2537 48.0151 95.1309 47.5 94.86L44 93L37.7 104.65L41.27 106.57C41.7808 106.846 42.2047 107.259 42.4943 107.762C42.784 108.266 42.9279 108.84 42.91 109.42C42.91 110.087 42.93 110.753 42.97 111.42C43.0343 112.007 42.9313 112.6 42.673 113.131C42.4147 113.662 42.0115 114.109 41.5099 114.42L38.07 116.55L45.07 127.8L48.5 125.61ZM51.8099 104.71C52.8236 102.819 54.3754 101.271 56.2689 100.261C58.1625 99.2517 60.3128 98.8264 62.448 99.039C64.5833 99.2516 66.6075 100.093 68.2648 101.456C69.9221 102.819 71.1381 104.642 71.7589 106.696C72.3797 108.751 72.3776 110.943 71.7527 112.995C71.1278 115.048 69.9082 116.87 68.2482 118.229C66.5882 119.589 64.5623 120.426 62.4266 120.634C60.291 120.843 58.1415 120.413 56.25 119.4C53.7148 118.039 51.8234 115.728 50.9909 112.974C50.1585 110.219 50.453 107.247 51.8099 104.71Z" fill="#D2E3F3"/>
<path d="M655.24 225.29C655.444 224.946 655.738 224.664 656.09 224.473C656.443 224.283 656.84 224.192 657.24 224.21C657.47 224.21 657.7 224.21 657.93 224.21C658.16 224.21 658.39 224.21 658.61 224.21C659.01 224.191 659.408 224.282 659.76 224.472C660.113 224.662 660.406 224.945 660.61 225.29L662.04 227.76L670.04 223.12L668.62 220.66C668.417 220.304 668.317 219.899 668.331 219.489C668.345 219.079 668.473 218.682 668.7 218.34C668.951 217.956 669.182 217.559 669.39 217.15C669.575 216.78 669.861 216.469 670.215 216.253C670.569 216.038 670.976 215.926 671.39 215.93H674.23V206.65H671.39C670.976 206.655 670.569 206.543 670.215 206.327C669.861 206.111 669.575 205.801 669.39 205.43C669.182 205.021 668.951 204.624 668.7 204.24C668.472 203.901 668.344 203.505 668.33 203.097C668.316 202.689 668.416 202.284 668.62 201.93L670.04 199.46L662.04 194.82L660.61 197.3C660.406 197.644 660.112 197.926 659.759 198.114C659.407 198.303 659.009 198.392 658.61 198.37H657.24C656.839 198.393 656.44 198.304 656.087 198.113C655.734 197.922 655.441 197.638 655.24 197.29L653.82 194.82L645.82 199.46L647.24 201.92C647.443 202.274 647.544 202.679 647.529 203.087C647.515 203.495 647.387 203.891 647.16 204.23C646.913 204.624 646.683 205.024 646.47 205.43C646.284 205.801 645.998 206.111 645.645 206.327C645.291 206.543 644.884 206.655 644.47 206.65H641.63V215.93H644.47C644.884 215.926 645.291 216.038 645.645 216.253C645.998 216.469 646.284 216.78 646.47 217.15C646.683 217.557 646.913 217.957 647.16 218.35C647.387 218.69 647.515 219.086 647.529 219.494C647.544 219.902 647.443 220.306 647.24 220.66L645.82 223.12L653.82 227.76L655.24 225.29ZM650.36 211.29C650.36 209.788 650.805 208.319 651.64 207.069C652.475 205.819 653.661 204.845 655.049 204.27C656.437 203.694 657.965 203.543 659.439 203.836C660.913 204.128 662.267 204.851 663.33 205.913C664.394 206.975 665.118 208.328 665.413 209.801C665.707 211.275 665.558 212.803 664.984 214.192C664.411 215.581 663.438 216.768 662.189 217.605C660.941 218.441 659.473 218.888 657.97 218.89C655.953 218.89 654.019 218.09 652.592 216.665C651.165 215.24 650.363 213.307 650.36 211.29Z" fill="#D2E3F3"/>
<path d="M88.3799 137.31C88.7312 137.52 89.018 137.822 89.2086 138.183C89.3991 138.545 89.4861 138.952 89.4599 139.36C89.4599 139.59 89.4599 139.82 89.4599 140.04C89.4599 140.26 89.4599 140.5 89.4599 140.73C89.48 141.13 89.391 141.527 89.2025 141.879C89.014 142.231 88.7331 142.526 88.3899 142.73L85.9199 144.15L90.5499 152.15L93.0199 150.73C93.3741 150.527 93.7781 150.427 94.1863 150.441C94.5945 150.455 94.9906 150.583 95.3299 150.81C95.7166 151.064 96.1166 151.294 96.5299 151.5C96.9003 151.686 97.211 151.972 97.4267 152.325C97.6424 152.679 97.7544 153.086 97.7499 153.5V156.34H107V153.5C106.995 153.086 107.107 152.679 107.323 152.325C107.539 151.972 107.85 151.686 108.22 151.5C108.633 151.287 109.033 151.057 109.42 150.81C109.759 150.583 110.155 150.455 110.563 150.441C110.972 150.427 111.376 150.527 111.73 150.73L114.2 152.15L118.83 144.15L116.36 142.72C116.014 142.518 115.731 142.224 115.54 141.872C115.35 141.519 115.26 141.121 115.28 140.72C115.28 140.49 115.28 140.26 115.28 140.03C115.28 139.8 115.28 139.58 115.28 139.35C115.255 138.943 115.342 138.536 115.533 138.174C115.723 137.813 116.009 137.51 116.36 137.3L118.83 135.88L114.2 127.88L111.74 129.3C111.386 129.504 110.982 129.604 110.573 129.59C110.165 129.576 109.769 129.448 109.43 129.22C109.039 128.969 108.635 128.739 108.22 128.53C107.85 128.345 107.539 128.059 107.323 127.705C107.107 127.352 106.995 126.945 107 126.53V123.69H97.7299V126.53C97.7344 126.945 97.6224 127.352 97.4067 127.705C97.191 128.059 96.8803 128.345 96.5099 128.53C96.0945 128.739 95.6906 128.969 95.2999 129.22C94.9606 129.448 94.5645 129.576 94.1563 129.59C93.7481 129.604 93.3441 129.504 92.9899 129.3L90.5299 127.88L85.8999 135.88L88.3799 137.31ZM102.38 132.44C103.883 132.438 105.354 132.883 106.605 133.716C107.856 134.55 108.832 135.737 109.409 137.125C109.985 138.514 110.137 140.042 109.845 141.517C109.553 142.992 108.83 144.347 107.767 145.411C106.705 146.475 105.351 147.2 103.876 147.494C102.402 147.788 100.873 147.638 99.4838 147.063C98.0945 146.488 96.907 145.514 96.0714 144.264C95.2359 143.014 94.7899 141.544 94.7899 140.04C94.7899 138.027 95.5892 136.095 97.0124 134.67C98.4355 133.245 100.366 132.443 102.38 132.44Z" fill="#D2E3F3"/>
<path d="M121.2 248.71C117.4 244.99 112.49 240.49 106.68 242.09C101.22 243.6 99.13 249.57 98.15 254.53C96.89 260.94 95.91 267.41 94.89 273.85C93.87 280.29 92.89 286.85 91.96 293.41C91.4333 297.09 90.9133 300.757 90.4 304.41C90.14 306.25 89.88 308.1 89.63 309.94C89.38 311.78 89.07 313.55 88.98 315.37C88.98 315.95 89.86 316.04 89.98 315.48C90.69 312.41 90.98 309.22 91.43 306.1C91.88 302.98 92.34 299.83 92.79 296.69C93.7 290.46 94.65 284.24 95.58 278.02C96.51 271.8 97.49 265.57 98.49 259.35C99.33 254.08 99.73 247.52 104.4 244.05C105.667 243.177 107.136 242.643 108.668 242.5C110.2 242.356 111.743 242.608 113.15 243.23C116.22 244.4 118.68 246.6 121.09 248.78C121.102 248.785 121.115 248.787 121.127 248.786C121.14 248.785 121.152 248.781 121.163 248.774C121.174 248.767 121.183 248.758 121.189 248.747C121.196 248.736 121.199 248.723 121.2 248.71Z" fill="#11111B"/>
<path d="M116 244.9C116 244.9 108.23 242.11 104.4 247.78C100.57 253.45 105.15 267.85 140.5 275.99C139.47 264.925 136.597 254.109 132 243.99C124.42 227.5 110.91 233.76 116 244.9Z" fill="#147BDA"/>
<path d="M138.47 273.63C137.936 272.638 137.342 271.679 136.69 270.76C136.1 269.85 135.5 268.94 134.9 268.04C134.45 267.36 133.98 266.69 133.52 266.04C133.52 265.88 133.52 265.71 133.58 265.54L133.7 264.62C133.79 263.96 133.89 263.3 133.98 262.62C134.07 261.94 134.19 261.3 134.32 260.62C134.402 259.913 134.556 259.216 134.78 258.54C134.78 258.44 134.64 258.39 134.63 258.54C134.553 258.938 134.446 259.329 134.31 259.71L134.07 260.6C133.9 261.27 133.74 261.95 133.59 262.6C133.44 263.25 133.33 263.85 133.22 264.48C133.17 264.78 133.13 265.08 133.09 265.38C132.46 264.49 131.81 263.6 131.15 262.72C129.27 260.25 127.29 257.87 125.23 255.55C125.235 255.527 125.235 255.503 125.23 255.48C125.42 251.77 125.33 248.09 126.15 244.48C126.15 244.38 126.03 244.32 126 244.42C125.077 247.869 124.643 251.431 124.71 255C123.98 254.18 123.23 253.36 122.48 252.55C120.76 250.704 119.003 248.884 117.21 247.09C117.14 247.02 117.02 247.09 117.09 247.2C120.09 250.41 122.9 253.75 125.66 257.2C123.501 257.165 121.341 257.245 119.19 257.44C116.8 257.62 114.42 257.92 112.04 258.25C112.019 258.25 111.998 258.259 111.983 258.274C111.968 258.289 111.96 258.309 111.96 258.33C111.96 258.351 111.968 258.372 111.983 258.387C111.998 258.402 112.019 258.41 112.04 258.41C114.406 258.067 116.79 257.853 119.18 257.77C121.49 257.67 123.78 257.77 126.09 257.77C127.58 259.62 129.09 261.47 130.5 263.35H128.55C127.47 263.35 126.4 263.45 125.33 263.54C123.133 263.723 120.951 264.057 118.8 264.54C118.785 264.546 118.771 264.556 118.762 264.57C118.753 264.583 118.748 264.599 118.748 264.615C118.748 264.632 118.753 264.648 118.762 264.661C118.771 264.674 118.785 264.685 118.8 264.69C120.97 264.45 123.15 264.24 125.33 264.17C126.38 264.17 127.42 264.17 128.46 264.17H130.09C130.389 264.216 130.694 264.188 130.98 264.09C131.98 265.33 132.88 266.56 133.82 267.8C134.57 268.8 135.31 269.8 136.04 270.8C136.77 271.8 137.46 272.95 138.28 273.91C138.317 273.935 138.363 273.945 138.407 273.936C138.451 273.928 138.49 273.902 138.515 273.865C138.54 273.828 138.55 273.783 138.541 273.738C138.533 273.694 138.507 273.655 138.47 273.63Z" fill="#11111B"/>
<path d="M119.38 252.93C118.127 252.77 116.863 252.71 115.6 252.75C114.34 252.75 113.07 252.75 111.81 252.83C111.789 252.83 111.768 252.839 111.753 252.854C111.738 252.869 111.73 252.889 111.73 252.91C111.73 252.932 111.738 252.952 111.753 252.967C111.768 252.982 111.789 252.99 111.81 252.99C113.09 252.9 114.37 252.87 115.65 252.89C116.93 252.91 118.13 253.03 119.36 253L119.38 252.93Z" fill="#11111B"/>
<path d="M130.48 255.78C130.62 254.58 130.77 253.36 131.03 252.17C131.03 252.149 131.022 252.128 131.007 252.113C130.992 252.098 130.971 252.09 130.95 252.09C130.929 252.09 130.909 252.098 130.894 252.113C130.879 252.128 130.87 252.149 130.87 252.17C130.69 253.36 130.46 254.54 130.29 255.73C130.2 256.32 130.12 256.92 130.04 257.52C129.939 258.074 129.892 258.637 129.9 259.2C129.907 259.222 129.921 259.242 129.94 259.256C129.959 259.27 129.982 259.277 130.005 259.277C130.029 259.277 130.051 259.27 130.07 259.256C130.089 259.242 130.103 259.222 130.11 259.2C130.215 258.646 130.275 258.084 130.29 257.52C130.34 256.93 130.41 256.36 130.48 255.78Z" fill="#11111B"/>
<path d="M128.15 242.41C127.84 243.58 127.53 244.77 127.32 245.97C127.21 246.57 127.11 247.18 127.03 247.79C126.921 248.38 126.88 248.981 126.91 249.58C126.91 249.594 126.915 249.606 126.925 249.616C126.934 249.625 126.947 249.63 126.96 249.63C126.973 249.63 126.986 249.625 126.996 249.616C127.005 249.606 127.01 249.594 127.01 249.58C127.15 249.019 127.241 248.447 127.28 247.87C127.36 247.29 127.45 246.7 127.55 246.12C127.77 244.88 127.99 243.66 128.3 242.45C128.3 242.433 128.295 242.415 128.284 242.401C128.273 242.387 128.258 242.376 128.241 242.372C128.224 242.367 128.205 242.369 128.189 242.376C128.172 242.383 128.159 242.395 128.15 242.41Z" fill="#11111B"/>
<path d="M82.12 314.11C81.92 311.88 81.7 309.66 81.47 307.43C81.01 303.03 80.47 298.64 79.88 294.25C79.29 289.86 78.73 285.49 78.02 281.13C77.7637 279.092 77.3116 277.082 76.67 275.13C76.4415 274.299 76.0251 273.531 75.4529 272.886C74.8808 272.241 74.1682 271.736 73.37 271.41C69.21 269.97 66.37 274.28 64.73 277.34C64.73 277.43 64.81 277.49 64.87 277.41C65.87 275.97 68.65 271.91 71.81 272.1C73.93 272.23 75.63 273.73 76.65 279.02C79.19 292.21 81.48 319.02 81.74 320.73C81.89 321.66 82.54 321.62 82.55 320.63C82.56 318.48 82.31 316.29 82.12 314.11Z" fill="#11111B"/>
<path d="M65.8501 275.73C65.8501 275.73 69.4901 262.9 61.4501 269.32C48.0701 280 47.6001 303.24 47.6001 303.24C47.6001 303.24 71.3801 289.43 74.3301 280.32C78.7401 266.75 65.8501 275.73 65.8501 275.73Z" fill="#147BDA"/>
<path d="M70.3501 282C68.4901 282.37 66.5901 282.62 64.7101 282.89L62.0301 283.27C61.4301 283.35 60.8201 283.41 60.2101 283.48C61.9801 281.04 63.7701 278.61 65.4701 276.12C65.5301 276.03 65.3901 275.93 65.3101 276.01C63.8923 277.461 62.5569 278.99 61.3101 280.59C60.9601 279.59 60.6001 278.59 60.2501 277.59C59.9001 276.59 59.4101 275.3 59.1201 274.12C59.1144 274.105 59.1042 274.092 59.0908 274.082C59.0774 274.073 59.0615 274.068 59.0451 274.068C59.0288 274.068 59.0128 274.073 58.9994 274.082C58.986 274.092 58.9758 274.105 58.9701 274.12C59.2901 275.3 59.5201 276.5 59.8401 277.68C60.1601 278.86 60.4901 279.94 60.8401 281.05C59.9701 282.18 59.1301 283.34 58.3201 284.51C57.9101 283.35 57.4001 282.23 57.0501 281.05C57.0435 281.029 57.0287 281.011 57.009 281.001C56.9893 280.991 56.9663 280.989 56.9451 280.995C56.9239 281.002 56.9062 281.017 56.8959 281.036C56.8856 281.056 56.8835 281.079 56.8901 281.1C57.3201 282.4 57.5501 283.75 57.9501 285.1C57.4001 285.9 56.8601 286.7 56.3401 287.5C55.3401 288.99 54.4701 290.5 53.5901 292.02C53.5211 292.05 53.4635 292.101 53.4257 292.166C53.3879 292.23 53.3719 292.306 53.3801 292.38C51.8801 294.98 50.4501 297.62 49.0401 300.28C49.0327 300.29 49.0275 300.3 49.0248 300.312C49.0221 300.324 49.022 300.336 49.0246 300.347C49.0272 300.359 49.0323 300.37 49.0396 300.379C49.0469 300.389 49.0563 300.396 49.0669 300.402C49.0776 300.407 49.0893 300.41 49.1012 300.41C49.1131 300.41 49.1249 300.408 49.1358 300.403C49.1466 300.398 49.1562 300.391 49.1639 300.382C49.1716 300.373 49.1771 300.362 49.1801 300.35C50.5901 297.73 52.1801 295.17 53.7901 292.65C54.045 292.576 54.3061 292.526 54.5701 292.5L55.3901 292.32C56.0001 292.19 56.6101 292.03 57.2201 291.88C58.4301 291.58 59.6201 291.3 60.8501 291.08C60.9501 291.08 60.8501 290.91 60.8501 290.93C59.4101 291.2 57.9701 291.37 56.5101 291.54C55.8201 291.62 55.1401 291.7 54.5101 291.81H54.4101C55.2635 290.477 56.1301 289.187 57.0101 287.94C57.8701 286.69 58.7601 285.45 59.6501 284.22C60.4801 284.1 61.2901 283.89 62.1101 283.73L64.8701 283.19C66.7101 282.83 68.5501 282.42 70.4001 282.11C70.5001 282.17 70.4501 282 70.3501 282Z" fill="#11111B"/>
<path d="M56.06 283.301C55.95 282.961 55.85 282.621 55.74 282.301C55.5168 281.595 55.3332 280.877 55.19 280.151C55.19 280.051 55.02 280.091 55.04 280.151C55.2 280.881 55.37 281.601 55.53 282.321C55.6816 283.049 55.8889 283.764 56.15 284.461C56.1669 284.491 56.1937 284.514 56.226 284.527C56.2582 284.54 56.2938 284.541 56.3268 284.53C56.3598 284.52 56.3881 284.498 56.4069 284.469C56.4257 284.44 56.4339 284.405 56.43 284.371C56.32 284.001 56.18 283.671 56.06 283.301Z" fill="#11111B"/>
<path d="M72.7801 279.06C71.7001 279.23 70.6101 279.3 69.5101 279.4C68.4101 279.5 67.3401 279.65 66.2501 279.81C66.1901 279.81 66.1901 279.91 66.2501 279.91C67.3401 279.83 68.4301 279.75 69.5201 279.6C70.6101 279.45 71.6901 279.3 72.7901 279.22C72.8901 279.22 72.8801 279.05 72.7801 279.06Z" fill="#11111B"/>
<path d="M99.62 297.85C99.19 288.4 98.62 278.97 97.62 269.55C97.15 264.86 96.62 260.18 95.96 255.55C95.378 250.965 94.4724 246.427 93.25 241.97C92.4167 238.501 90.8781 235.24 88.73 232.39C87.674 230.999 86.2798 229.902 84.6801 229.202C83.0803 228.502 81.3281 228.222 79.59 228.39C75.46 228.9 72.12 231.5 69.24 234.34C66.01 237.51 63.05 240.98 60.06 244.34C59.3 245.2 58.55 246.06 57.8 246.93C57.74 247.01 57.85 247.12 57.92 247.04C60.85 243.68 63.92 240.41 67.07 237.29C70.01 234.4 73.07 231.29 77.07 230.06C78.9622 229.45 80.9907 229.401 82.91 229.92C84.4391 230.4 85.8175 231.268 86.91 232.44C89.21 234.83 90.49 238.06 91.41 241.18C93.95 249.87 94.86 258.98 95.8 267.95C96.8 277.07 97.41 286.21 97.87 295.36C98.33 304.51 98.69 313.78 99.58 322.95C99.69 324.08 99.83 325.21 99.98 326.34C100.07 327.1 101.25 327.1 101.19 326.34C100.48 316.84 100 307.35 99.62 297.85Z" fill="#11111B"/>
<path d="M68.7401 235.33C68.7401 235.33 74.1401 225.33 67.7401 222.14C61.3401 218.95 40.0001 242.76 33.8101 277.6C33.8101 277.6 68.2801 262.34 79.9901 247.15C91.7001 231.96 78.4201 228.6 68.7401 235.33Z" fill="#147BDA"/>
<path d="M73.81 243.45C69.94 243.45 66.07 243.16 62.2 243.19C62.92 242.35 63.65 241.52 64.38 240.69C65.4566 239.585 66.4588 238.409 67.38 237.17C67.38 237.09 67.32 236.98 67.24 237.04C66.1992 237.952 65.2297 238.941 64.34 240C63.34 241 62.4 242.07 61.44 243.11C59.96 244.71 58.51 246.34 57.06 247.97C57.06 247.81 57.06 247.65 57.06 247.5C57.06 246.82 57.06 246.14 57.06 245.5C57.06 244.19 57.06 242.88 57.06 241.56C57.06 238.9 57.06 236.22 57.26 233.56C57.26 233.46 57.11 233.46 57.1 233.56C56.92 236.23 56.64 238.89 56.51 241.56C56.45 242.87 56.42 244.18 56.4 245.5C56.4 246.18 56.4 246.86 56.4 247.5C56.4 247.86 56.4 248.26 56.4 248.64C56.18 248.89 55.94 249.14 55.72 249.4C52.63 252.93 49.72 256.58 46.82 260.3C46.82 260.1 46.82 259.89 46.82 259.69C46.82 259.28 46.73 258.87 46.69 258.46C46.59 257.57 46.47 256.68 46.33 255.8C46.19 254.92 46.08 254.14 45.94 253.31C45.8 252.48 45.55 251.43 45.48 250.49C45.4845 250.478 45.486 250.465 45.4843 250.452C45.4827 250.44 45.478 250.427 45.4706 250.417C45.4633 250.406 45.4535 250.398 45.442 250.392C45.4306 250.386 45.4179 250.383 45.405 250.383C45.3921 250.383 45.3794 250.386 45.3679 250.392C45.3565 250.398 45.3467 250.406 45.3393 250.417C45.3319 250.427 45.3272 250.44 45.3256 250.452C45.324 250.465 45.3255 250.478 45.33 250.49C45.4865 251.427 45.5933 252.372 45.65 253.32L45.89 255.88C45.96 256.74 46.04 257.59 46.13 258.44L46.25 259.67C46.25 259.88 46.3 260.08 46.32 260.29C46.339 260.461 46.3972 260.626 46.49 260.77C46 261.41 45.49 262.05 45.02 262.7C43.02 265.28 41.14 267.9 39.22 270.51C39.16 270.59 39.28 270.71 39.34 270.62C41.16 268.25 43.03 265.93 44.92 263.62C46.34 263.68 47.79 263.62 49.21 263.55C50.63 263.48 52.21 263.55 53.69 263.55C53.79 263.55 53.79 263.38 53.69 263.39L49.2 263.44C47.84 263.44 46.45 263.38 45.09 263.44C46.75 261.44 48.44 259.44 50.09 257.44C50.7 256.7 51.32 255.97 51.94 255.24C52.513 255.32 53.0928 255.34 53.67 255.3H55.67L59.49 255.24C62.12 255.24 64.75 255.11 67.38 255.11C67.4012 255.11 67.4215 255.102 67.4365 255.087C67.4515 255.072 67.46 255.052 67.46 255.03C67.46 255.009 67.4515 254.989 67.4365 254.974C67.4215 254.959 67.4012 254.95 67.38 254.95C64.74 254.95 62.11 254.8 59.48 254.74C58.2 254.74 56.93 254.66 55.65 254.64H53.65C53.27 254.64 52.87 254.64 52.47 254.64L56.82 249.5C56.8564 249.476 56.8844 249.441 56.9 249.4C58.31 247.74 59.72 246.07 61.15 244.4C61.35 244.17 61.55 243.95 61.74 243.72C65.74 243.85 69.74 243.58 73.74 243.66C73.92 243.61 73.92 243.45 73.81 243.45Z" fill="#11111B"/>
<path d="M71.8301 250.301H70.8901C70.8809 250.301 70.8718 250.303 70.8633 250.306C70.8548 250.31 70.8471 250.315 70.8406 250.321C70.8341 250.328 70.8289 250.336 70.8254 250.344C70.8219 250.352 70.8201 250.362 70.8201 250.371C70.8201 250.38 70.8219 250.389 70.8254 250.398C70.8289 250.406 70.8341 250.414 70.8406 250.42C70.8471 250.427 70.8548 250.432 70.8633 250.435C70.8718 250.439 70.8809 250.441 70.8901 250.441H71.8201C71.8331 250.435 71.8443 250.425 71.8525 250.414C71.8607 250.402 71.8655 250.388 71.8666 250.374C71.8676 250.359 71.8647 250.345 71.8583 250.332C71.8519 250.319 71.8421 250.309 71.8301 250.301Z" fill="#11111B"/>
<path d="M69.74 250.31C68.5 250.31 67.26 250.31 66.02 250.24L64.16 250.18C63.5858 250.105 63.0042 250.105 62.43 250.18C62.37 250.18 62.38 250.28 62.43 250.29C63.0024 250.406 63.5873 250.446 64.17 250.41H66.03C67.27 250.41 68.51 250.41 69.75 250.41C69.85 250.47 69.85 250.32 69.74 250.31Z" fill="#11111B"/>
<path d="M58.91 262C56.3874 261.581 53.837 261.35 51.28 261.31C51.28 261.31 51.28 261.36 51.28 261.37C53.82 261.61 56.35 261.74 58.87 262.15C59 262.12 59 262 58.91 262Z" fill="#11111B"/>
<path d="M48.54 250.861C48.54 250.641 48.49 250.411 48.46 250.191C48.4 249.691 48.32 249.191 48.24 248.701C48.09 247.751 47.93 246.811 47.75 245.871C47.75 245.781 47.58 245.801 47.59 245.871C47.71 246.871 47.82 247.871 47.91 248.801L48.03 250.241C48.0166 250.702 48.0809 251.161 48.22 251.601C48.24 251.631 48.268 251.654 48.3009 251.669C48.3338 251.684 48.3702 251.689 48.4059 251.684C48.4415 251.678 48.4749 251.663 48.5022 251.64C48.5295 251.616 48.5496 251.585 48.56 251.551C48.5958 251.322 48.589 251.088 48.54 250.861Z" fill="#11111B"/>
<path d="M99.2801 222.5C98.0401 220.2 96.4701 217.17 93.3901 217.36C90.8501 217.52 89.7001 220.12 89.1601 222.26C87.4801 228.9 87.3601 235.89 87.0401 242.69C86.3401 257.06 85.7201 271.45 85.6301 285.83C85.6301 289.83 85.6301 293.83 85.6301 297.83C85.6301 301.89 85.6301 305.99 85.9101 310.05C85.9101 310.13 85.9417 310.206 85.998 310.262C86.0543 310.318 86.1306 310.35 86.2101 310.35C86.2897 310.35 86.366 310.318 86.4223 310.262C86.4785 310.206 86.5101 310.13 86.5101 310.05C86.5101 306.57 86.4101 303.05 86.4001 299.61C86.3901 296.17 86.4001 292.82 86.4601 289.43C86.5735 282.55 86.7568 275.673 87.0101 268.8C87.2701 261.97 87.5701 255.14 87.8601 248.31C88.0001 244.897 88.1468 241.483 88.3001 238.07C88.4501 234.77 88.5901 231.46 88.9701 228.17C89.1801 226.33 89.4501 224.48 89.8401 222.67C90.0337 221.321 90.5825 220.047 91.4301 218.98C92.0184 218.402 92.7934 218.052 93.6162 217.993C94.439 217.935 95.2558 218.171 95.9201 218.66C97.33 219.676 98.4335 221.06 99.1101 222.66C99.1901 222.68 99.3301 222.59 99.2801 222.5Z" fill="#11111B"/>
<path d="M98.4402 221.4C98.4402 221.4 95.9102 212.46 101.51 216.93C110.83 224.38 111.16 240.57 111.16 240.57C111.16 240.57 94.5902 230.94 92.5302 224.57C89.4602 215.14 98.4402 221.4 98.4402 221.4Z" fill="#147BDA"/>
<path d="M107.67 233.931C107.52 233.681 107.36 233.441 107.2 233.201C107.22 232.944 107.22 232.687 107.2 232.431C107.2 232.051 107.2 231.661 107.2 231.281C107.2 230.521 107.2 229.771 107.28 229.011C107.28 228.911 107.12 228.921 107.12 229.011C107.08 229.751 107.05 230.491 107.03 231.231C107.03 231.601 107.03 231.971 107.03 232.341C107.03 232.491 107.03 232.651 107.03 232.821C106.38 231.821 105.71 230.821 105.03 229.821C104.83 229.531 104.62 229.261 104.42 228.971C104.33 227.999 104.33 227.022 104.42 226.051C104.42 225.051 104.42 223.981 104.48 222.941C104.48 222.919 104.472 222.899 104.457 222.884C104.442 222.869 104.421 222.861 104.4 222.861C104.379 222.861 104.358 222.869 104.343 222.884C104.328 222.899 104.32 222.919 104.32 222.941C104.32 224.021 104.24 225.101 104.18 226.181C104.115 226.949 104.095 227.72 104.12 228.491C102.52 226.321 100.82 224.221 99.12 222.141C99.12 222.071 98.94 222.141 99 222.241C100.06 223.581 101.08 224.961 102.08 226.361C100.08 225.911 98.15 225.641 96.17 225.361C96.07 225.361 96.03 225.501 96.17 225.511C98.27 225.831 100.33 226.361 102.4 226.811C103.19 227.921 103.98 229.051 104.75 230.171C105.07 230.631 105.38 231.101 105.69 231.561H105.61C105.39 231.561 105.18 231.491 104.96 231.471C104.5 231.411 104.04 231.381 103.58 231.341C102.58 231.261 101.67 231.211 100.71 231.161C100.61 231.161 100.62 231.321 100.71 231.321C101.65 231.321 102.59 231.421 103.52 231.521C104.02 231.571 104.52 231.641 105.01 231.701L105.65 231.771H105.84C106.37 232.551 106.91 233.331 107.43 234.121C108.37 235.501 109.21 236.981 110.2 238.321C110.213 238.332 110.229 238.339 110.246 238.34C110.263 238.341 110.28 238.337 110.294 238.328C110.309 238.319 110.32 238.306 110.327 238.29C110.333 238.275 110.334 238.257 110.33 238.241C109.533 236.75 108.645 235.311 107.67 233.931Z" fill="#11111B"/>
<path d="M103.55 223.83C103.55 223.48 103.55 223.13 103.55 222.78C103.53 222.049 103.56 221.317 103.64 220.59C103.644 220.578 103.646 220.565 103.644 220.552C103.643 220.54 103.638 220.527 103.631 220.517C103.623 220.506 103.613 220.497 103.602 220.492C103.591 220.486 103.578 220.482 103.565 220.482C103.552 220.482 103.539 220.486 103.528 220.492C103.516 220.497 103.507 220.506 103.499 220.517C103.492 220.527 103.487 220.54 103.486 220.552C103.484 220.565 103.485 220.578 103.49 220.59C103.49 221.31 103.41 222.03 103.37 222.76C103.37 223.12 103.37 223.48 103.37 223.84V224.34C103.345 224.513 103.345 224.688 103.37 224.86C103.37 224.879 103.377 224.897 103.39 224.91C103.404 224.923 103.421 224.93 103.44 224.93C103.459 224.93 103.476 224.923 103.489 224.91C103.503 224.897 103.51 224.879 103.51 224.86C103.535 224.701 103.535 224.539 103.51 224.38L103.55 223.83Z" fill="#11111B"/>
<path d="M101.5 227.531C100.88 227.431 100.25 227.391 99.6301 227.341C99.0101 227.291 98.2701 227.221 97.6301 227.141C97.618 227.136 97.6049 227.135 97.5921 227.136C97.5793 227.138 97.5671 227.143 97.5565 227.15C97.5459 227.157 97.5373 227.167 97.5313 227.179C97.5253 227.19 97.5222 227.203 97.5222 227.216C97.5222 227.229 97.5253 227.241 97.5313 227.253C97.5373 227.264 97.5459 227.274 97.5565 227.281C97.5671 227.289 97.5793 227.293 97.5921 227.295C97.6049 227.297 97.618 227.295 97.6301 227.291C98.9401 227.381 100.24 227.611 101.55 227.661C101.56 227.661 101.57 227.541 101.5 227.531Z" fill="#11111B"/>
<path d="M99.6602 270.211C96.1802 267.601 93.0502 263.841 88.3602 263.661C84.4902 263.501 81.7802 266.421 80.2302 269.661C79.4551 271.386 78.8229 273.172 78.3402 275.001C77.6402 277.447 76.9735 279.907 76.3402 282.381C75.1302 287.231 74.0902 292.141 73.2402 297.071C72.7702 299.821 72.3302 302.591 71.9802 305.361C71.5405 308.168 71.27 311 71.1702 313.841C71.171 313.949 71.2117 314.053 71.2845 314.133C71.3573 314.213 71.4572 314.264 71.5649 314.275C71.6726 314.286 71.7807 314.257 71.8684 314.194C71.956 314.13 72.0172 314.036 72.0402 313.931C72.5102 311.611 72.7102 309.221 73.0402 306.881C73.3702 304.541 73.7402 302.171 74.1302 299.831C74.9302 295.141 75.8502 290.461 76.9102 285.831C77.9102 281.451 78.9102 277.001 80.3002 272.731C81.3002 269.671 82.9402 266.101 86.3002 265.001C91.3002 263.321 95.8902 267.581 99.5702 270.341C99.6302 270.391 99.7402 270.281 99.6602 270.211Z" fill="#11111B"/>
<path d="M96.06 267.71C96.06 267.71 92.85 258.54 97.49 256.71C104.49 254.02 122.67 274.54 119.1 305.98C119.1 305.98 105.03 298.23 94.63 289.5C84.23 280.77 81.63 269.39 86.16 266.44C90.69 263.49 96.06 267.71 96.06 267.71Z" fill="#147BDA"/>
<path d="M117 299.27C116.514 298.174 115.949 297.115 115.31 296.1C114.71 295.03 114.11 293.95 113.49 292.89C112.28 290.82 111.08 288.75 109.84 286.7C109.64 286.36 109.43 286.04 109.23 285.7C109.23 285.58 109.28 285.46 109.3 285.34L109.51 284.43C109.67 283.74 109.79 283.05 109.91 282.37C110.17 281.02 110.4 279.66 110.76 278.37C110.76 278.27 110.63 278.24 110.61 278.37C110.32 279.71 109.89 281.04 109.5 282.37C109.3 283.02 109.09 283.67 108.92 284.32L108.74 285C107.25 282.54 105.74 280.1 104.08 277.74C104.188 277.418 104.245 277.08 104.25 276.74C104.25 276.28 104.35 275.82 104.41 275.37C104.53 274.37 104.65 273.3 104.8 272.27C105.1 270.27 105.4 268.27 105.9 266.27C105.9 266.17 105.77 266.14 105.74 266.27C105.24 268.27 104.74 270.27 104.32 272.27C104.14 273.27 103.96 274.27 103.83 275.27C103.77 275.76 103.71 276.27 103.66 276.76C103.66 276.91 103.66 277.06 103.6 277.21C103.1 276.5 102.6 275.79 102.07 275.09C100.46 272.98 98.79 270.91 97.07 268.85C97.01 268.77 96.87 268.85 96.94 268.94C99.8178 272.629 102.463 276.493 104.86 280.51C105.32 281.24 105.77 281.99 106.23 282.73L105.77 282.67C105.18 282.6 104.59 282.56 104 282.51C102.81 282.39 101.63 282.29 100.44 282.2C98.07 282.01 95.69 281.86 93.33 281.61C93.3088 281.61 93.2884 281.619 93.2734 281.634C93.2584 281.649 93.25 281.669 93.25 281.69C93.25 281.711 93.2584 281.732 93.2734 281.747C93.2884 281.762 93.3088 281.77 93.33 281.77C95.73 282.04 98.11 282.43 100.5 282.77L104 283C104.892 283.181 105.8 283.275 106.71 283.28C107.64 284.79 108.58 286.28 109.51 287.82C109.3 287.82 109.08 287.82 108.88 287.82H105.49C103.96 287.82 102.43 287.82 100.91 287.82C100.8 287.82 100.82 287.98 100.91 287.98C102.46 287.98 104 288.08 105.55 288.16C106.28 288.16 107.01 288.24 107.75 288.29L108.85 288.37C109.179 288.447 109.521 288.447 109.85 288.37L112.23 292.23C112.96 293.42 113.7 294.61 114.45 295.78C115.154 297.033 115.953 298.229 116.84 299.36C116.91 299.42 117 299.37 117 299.27Z" fill="#11111B"/>
<path d="M110.29 273.86C110.151 274.874 109.94 275.876 109.66 276.86C109.4 277.86 109.11 278.86 108.78 279.86C108.78 279.99 108.92 280.05 108.97 279.92C109.28 278.92 109.56 277.92 109.8 276.92C110.04 275.92 110.2 274.92 110.45 273.87C110.47 273.79 110.3 273.76 110.29 273.86Z" fill="#11111B"/>
<path d="M100 280C99.785 279.818 99.5118 279.719 99.23 279.72L97.9 279.53C97.08 279.42 96.25 279.33 95.43 279.23C93.71 279.03 92 278.87 90.28 278.65C90.2587 278.65 90.2384 278.659 90.2234 278.674C90.2084 278.689 90.2 278.709 90.2 278.73C90.2 278.752 90.2084 278.772 90.2234 278.787C90.2384 278.802 90.2587 278.81 90.28 278.81C91.9 279 93.51 279.25 95.13 279.46C95.92 279.56 96.71 279.68 97.5 279.77L98.65 279.9C99.0928 279.897 99.5329 279.971 99.95 280.12C99.9639 280.121 99.9777 280.117 99.9894 280.109C100.001 280.101 100.01 280.09 100.016 280.077C100.021 280.064 100.022 280.05 100.02 280.036C100.017 280.023 100.01 280.01 100 280Z" fill="#11111B"/>
<path d="M110.27 293.83C109.46 293.76 108.64 293.73 107.83 293.71H106.6H106.01C105.754 293.74 105.496 293.74 105.24 293.71C105.13 293.71 105.12 293.89 105.24 293.87C105.479 293.845 105.721 293.845 105.96 293.87H106.6L107.82 293.94C108.63 293.99 109.45 294.04 110.26 294.04C110.288 294.041 110.315 294.032 110.336 294.013C110.356 293.994 110.369 293.968 110.37 293.94C110.371 293.912 110.362 293.885 110.343 293.864C110.324 293.844 110.298 293.831 110.27 293.83Z" fill="#11111B"/>
<path d="M115.23 290.31L115.5 288.93C115.66 288.02 115.83 287.12 116 286.21C116 286.189 115.992 286.168 115.977 286.153C115.962 286.138 115.941 286.13 115.92 286.13C115.899 286.13 115.878 286.138 115.863 286.153C115.848 286.168 115.84 286.189 115.84 286.21L115.24 288.86C115.14 289.3 115.04 289.74 114.95 290.19C114.95 290.39 114.87 290.6 114.82 290.8C114.757 291.01 114.733 291.231 114.75 291.45C114.752 291.47 114.76 291.489 114.773 291.505C114.786 291.52 114.803 291.531 114.823 291.537C114.842 291.542 114.863 291.542 114.882 291.535C114.901 291.528 114.918 291.516 114.93 291.5C115.106 291.126 115.207 290.722 115.23 290.31Z" fill="#11111B"/>
<path d="M67.5701 310.32L68.5501 321.46L71.8801 359.1H101.35L105.51 321.46L106.74 310.32H67.5701Z" fill="#37474F"/>
<path d="M67.5701 310.32L68.5501 321.46H105.51L106.74 310.32H67.5701Z" fill="#11111B"/>
<path d="M64.6502 316.32H109.66V307.28H64.6502V316.32Z" fill="#37474F"/>
<path d="M695.748 358.605L608.805 358.31L347.995 358L87.185 358.31L0.25166 358.605C0.184915 358.605 0.120905 358.645 0.0737092 358.718C0.0265139 358.791 0 358.889 0 358.992C0 359.095 0.0265139 359.194 0.0737092 359.266C0.120905 359.339 0.184915 359.38 0.25166 359.38L87.185 359.69L347.995 360L608.805 359.69L695.748 359.38C695.815 359.38 695.879 359.339 695.926 359.266C695.973 359.194 696 359.095 696 358.992C695.997 358.891 695.97 358.794 695.923 358.722C695.877 358.651 695.814 358.608 695.748 358.605Z" fill="#11111B"/>
<path d="M590.95 63.9102H119.36V379.37H590.95V63.9102Z" fill="#D2E3F3"/>
<path d="M587.52 67.7598H122.79V375.52H587.52V67.7598Z" fill="#11111B"/>
<path d="M652.37 403.03H57.9399V424.68H652.37V403.03Z" fill="#BAD2E8"/>
<path d="M57.9399 403.03L119.37 379.37H590.95L652.38 403.03H57.9399Z" fill="#D2E3F3"/>
<path d="M124.85 394.64L164.49 379.37H545.83L585.47 394.64H124.85Z" fill="#11111B"/>
<path d="M561.27 91.1406H149.06V352.141H561.27V91.1406Z" fill="white"/>
<path d="M561.27 91.1406H148.71V101.181H561.27V91.1406Z" fill="#455A64"/>
<path d="M156.69 96.1602C156.69 96.6526 156.544 97.1341 156.27 97.5435C155.997 97.953 155.608 98.2722 155.153 98.4606C154.698 98.6491 154.197 98.6984 153.714 98.6023C153.231 98.5062 152.787 98.2691 152.439 97.9209C152.091 97.5726 151.854 97.129 151.758 96.6459C151.662 96.1629 151.711 95.6623 151.9 95.2073C152.088 94.7523 152.407 94.3634 152.817 94.0898C153.226 93.8162 153.707 93.6702 154.2 93.6702C154.86 93.6728 155.491 93.936 155.958 94.4024C156.424 94.8688 156.687 95.5006 156.69 96.1602Z" fill="#C7C7C7"/>
<path d="M166.86 96.1602C166.86 96.6526 166.714 97.1341 166.44 97.5435C166.167 97.953 165.778 98.2722 165.323 98.4606C164.868 98.6491 164.367 98.6984 163.884 98.6023C163.401 98.5062 162.957 98.2691 162.609 97.9209C162.261 97.5726 162.024 97.129 161.928 96.6459C161.832 96.1629 161.881 95.6623 162.069 95.2073C162.258 94.7523 162.577 94.3634 162.987 94.0898C163.396 93.8162 163.877 93.6702 164.37 93.6702C165.03 93.6702 165.664 93.9325 166.131 94.3995C166.598 94.8664 166.86 95.4998 166.86 96.1602Z" fill="white"/>
<path d="M177 96.1602C177 96.6526 176.854 97.1341 176.58 97.5435C176.307 97.953 175.918 98.2722 175.463 98.4606C175.008 98.6491 174.507 98.6984 174.024 98.6023C173.541 98.5062 173.098 98.2691 172.749 97.9209C172.401 97.5726 172.164 97.129 172.068 96.6459C171.972 96.1629 172.021 95.6623 172.21 95.2073C172.398 94.7523 172.717 94.3634 173.127 94.0898C173.536 93.8162 174.018 93.6702 174.51 93.6702C175.17 93.6702 175.804 93.9325 176.271 94.3995C176.738 94.8664 177 95.4998 177 96.1602Z" fill="#147BDA"/>
<path d="M462.49 290.28H249.49V276.79H462.49V290.28ZM250 289.78H462V277.29H250V289.78Z" fill="#147BDA"/>
<path d="M257.05 279.51H252.23V287.57H257.05V279.51Z" fill="#147BDA"/>
<path d="M263.69 279.51H258.87V287.57H263.69V279.51Z" fill="#147BDA"/>
<path d="M270.34 279.51H265.52V287.57H270.34V279.51Z" fill="#147BDA"/>
<path d="M276.99 279.51H272.17V287.57H276.99V279.51Z" fill="#147BDA"/>
<path d="M283.64 279.51H278.82V287.57H283.64V279.51Z" fill="#147BDA"/>
<path d="M290.29 279.51H285.47V287.57H290.29V279.51Z" fill="#147BDA"/>
<path d="M296.94 279.51H292.12V287.57H296.94V279.51Z" fill="#147BDA"/>
<path d="M303.58 279.51H298.76V287.57H303.58V279.51Z" fill="#147BDA"/>
<path d="M310.23 279.51H305.41V287.57H310.23V279.51Z" fill="#147BDA"/>
<path d="M316.88 279.51H312.06V287.57H316.88V279.51Z" fill="#147BDA"/>
<path d="M323.53 279.51H318.71V287.57H323.53V279.51Z" fill="#147BDA"/>
<path d="M330.18 279.51H325.36V287.57H330.18V279.51Z" fill="#147BDA"/>
<path d="M329.315 302.64H331.658V309.834C331.658 310.642 331.465 311.349 331.079 311.954C330.696 312.56 330.161 313.033 329.472 313.372C328.783 313.707 327.981 313.875 327.065 313.875C326.146 313.875 325.341 313.707 324.653 313.372C323.964 313.033 323.428 312.56 323.046 311.954C322.664 311.349 322.473 310.642 322.473 309.834V302.64H324.815V309.634C324.815 310.056 324.907 310.431 325.091 310.759C325.278 311.087 325.542 311.345 325.881 311.532C326.22 311.72 326.614 311.814 327.065 311.814C327.52 311.814 327.914 311.72 328.25 311.532C328.589 311.345 328.85 311.087 329.034 310.759C329.222 310.431 329.315 310.056 329.315 309.634V302.64ZM333.585 313.718V302.64H337.955C338.795 302.64 339.511 302.8 340.103 303.121C340.694 303.439 341.145 303.88 341.455 304.447C341.769 305.009 341.925 305.658 341.925 306.394C341.925 307.129 341.767 307.779 341.449 308.341C341.132 308.904 340.672 309.342 340.07 309.656C339.471 309.969 338.747 310.126 337.896 310.126H335.11V308.249H337.517C337.968 308.249 338.339 308.172 338.631 308.017C338.927 307.858 339.147 307.64 339.291 307.362C339.439 307.081 339.513 306.758 339.513 306.394C339.513 306.026 339.439 305.705 339.291 305.431C339.147 305.153 338.927 304.939 338.631 304.787C338.336 304.632 337.96 304.555 337.506 304.555H335.927V313.718H333.585ZM347.374 313.718H343.447V302.64H347.406C348.52 302.64 349.48 302.862 350.284 303.305C351.088 303.745 351.706 304.378 352.139 305.204C352.575 306.03 352.794 307.018 352.794 308.168C352.794 309.322 352.575 310.314 352.139 311.143C351.706 311.972 351.084 312.609 350.273 313.052C349.465 313.496 348.499 313.718 347.374 313.718ZM345.789 311.711H347.276C347.969 311.711 348.551 311.588 349.023 311.343C349.499 311.094 349.857 310.71 350.095 310.191C350.336 309.668 350.457 308.994 350.457 308.168C350.457 307.349 350.336 306.681 350.095 306.161C349.857 305.642 349.501 305.26 349.029 305.014C348.557 304.769 347.974 304.647 347.282 304.647H345.789V311.711ZM355.813 313.718H353.303L357.128 302.64H360.146L363.965 313.718H361.455L358.68 305.171H358.594L355.813 313.718ZM355.656 309.363H361.585V311.192H355.656V309.363ZM363.523 304.571V302.64H372.621V304.571H369.229V313.718H366.914V304.571H363.523ZM374.119 313.718V302.64H381.584V304.571H376.461V307.211H381.2V309.142H376.461V311.787H381.605V313.718H374.119ZM384.749 313.858C384.392 313.858 384.086 313.732 383.83 313.48C383.577 313.224 383.451 312.917 383.451 312.56C383.451 312.207 383.577 311.904 383.83 311.651C384.086 311.399 384.392 311.273 384.749 311.273C385.096 311.273 385.398 311.399 385.658 311.651C385.918 311.904 386.048 312.207 386.048 312.56C386.048 312.798 385.986 313.016 385.864 313.215C385.745 313.409 385.588 313.566 385.393 313.685C385.198 313.801 384.984 313.858 384.749 313.858ZM389.286 313.858C388.929 313.858 388.623 313.732 388.367 313.48C388.114 313.224 387.988 312.917 387.988 312.56C387.988 312.207 388.114 311.904 388.367 311.651C388.623 311.399 388.929 311.273 389.286 311.273C389.632 311.273 389.935 311.399 390.195 311.651C390.455 311.904 390.584 312.207 390.584 312.56C390.584 312.798 390.523 313.016 390.401 313.215C390.282 313.409 390.125 313.566 389.93 313.685C389.735 313.801 389.521 313.858 389.286 313.858ZM393.823 313.858C393.466 313.858 393.16 313.732 392.904 313.48C392.651 313.224 392.525 312.917 392.525 312.56C392.525 312.207 392.651 311.904 392.904 311.651C393.16 311.399 393.466 311.273 393.823 311.273C394.169 311.273 394.472 311.399 394.732 311.651C394.992 311.904 395.121 312.207 395.121 312.56C395.121 312.798 395.06 313.016 394.937 313.215C394.818 313.409 394.662 313.566 394.467 313.685C394.272 313.801 394.058 313.858 393.823 313.858Z" fill="#11111B"/>
<path d="M355.943 139.522C359.706 139.522 362.757 136.471 362.757 132.708C362.757 128.945 359.706 125.895 355.943 125.895C352.18 125.895 349.13 128.945 349.13 132.708C349.13 136.471 352.18 139.522 355.943 139.522Z" fill="#147BDA"/>
<path opacity="0.9" d="M316.436 141.533C316.436 142.814 316.816 144.067 317.528 145.133C318.24 146.199 319.253 147.03 320.437 147.52C321.621 148.011 322.924 148.139 324.181 147.889C325.438 147.639 326.593 147.022 327.5 146.115C328.406 145.209 329.023 144.054 329.273 142.797C329.523 141.54 329.395 140.237 328.904 139.053C328.414 137.868 327.583 136.856 326.518 136.144C325.452 135.432 324.199 135.052 322.917 135.052C321.199 135.056 319.553 135.74 318.338 136.954C317.124 138.169 316.44 139.815 316.436 141.533Z" fill="#147BDA"/>
<path opacity="0.8" d="M296.125 164.041C296.125 165.257 296.486 166.447 297.162 167.458C297.839 168.469 298.8 169.257 299.924 169.722C301.048 170.187 302.285 170.308 303.478 170.07C304.671 169.831 305.767 169.244 306.626 168.383C307.485 167.522 308.07 166.425 308.305 165.231C308.541 164.038 308.417 162.801 307.949 161.678C307.482 160.555 306.692 159.596 305.679 158.922C304.666 158.248 303.476 157.89 302.259 157.893C300.631 157.896 299.071 158.546 297.921 159.698C296.771 160.851 296.125 162.413 296.125 164.041Z" fill="#147BDA"/>
<path opacity="0.7" d="M295.199 200.092C298.411 200.092 301.015 197.488 301.015 194.276C301.015 191.065 298.411 188.461 295.199 188.461C291.988 188.461 289.384 191.065 289.384 194.276C289.384 197.488 291.988 200.092 295.199 200.092Z" fill="#147BDA"/>
<path opacity="0.6" d="M296.27 222.804C296.267 223.89 296.587 224.952 297.188 225.856C297.789 226.759 298.645 227.464 299.648 227.881C300.65 228.298 301.754 228.408 302.819 228.197C303.884 227.986 304.862 227.463 305.63 226.695C306.397 225.928 306.92 224.95 307.131 223.885C307.342 222.82 307.232 221.716 306.815 220.714C306.399 219.711 305.694 218.855 304.79 218.254C303.886 217.653 302.824 217.333 301.738 217.336C300.288 217.336 298.897 217.912 297.872 218.938C296.846 219.963 296.27 221.354 296.27 222.804Z" fill="#147BDA"/>
<path opacity="0.5" d="M316.61 246.152C316.612 247.167 316.916 248.158 317.482 249.001C318.048 249.844 318.851 250.5 319.79 250.886C320.729 251.273 321.761 251.372 322.756 251.173C323.751 250.973 324.665 250.482 325.382 249.764C326.098 249.045 326.586 248.13 326.783 247.134C326.98 246.138 326.877 245.106 326.488 244.169C326.099 243.231 325.441 242.43 324.597 241.866C323.753 241.303 322.76 241.002 321.745 241.002C321.07 241.002 320.401 241.135 319.777 241.394C319.152 241.653 318.586 242.033 318.109 242.511C317.632 242.99 317.254 243.557 316.996 244.182C316.739 244.807 316.608 245.476 316.61 246.152Z" fill="#147BDA"/>
<path opacity="0.4" d="M351.357 255.902C351.357 256.852 351.639 257.781 352.167 258.571C352.695 259.36 353.445 259.976 354.322 260.34C355.2 260.703 356.166 260.798 357.097 260.613C358.029 260.428 358.885 259.97 359.556 259.298C360.228 258.627 360.685 257.771 360.871 256.839C361.056 255.908 360.961 254.942 360.597 254.064C360.234 253.187 359.618 252.437 358.829 251.909C358.039 251.381 357.11 251.1 356.16 251.1C354.886 251.1 353.665 251.606 352.764 252.506C351.863 253.407 351.357 254.629 351.357 255.902Z" fill="#147BDA"/>
<path opacity="0.3" d="M386.554 245.4C386.554 246.284 386.816 247.148 387.307 247.883C387.798 248.618 388.496 249.191 389.313 249.53C390.13 249.868 391.029 249.956 391.896 249.784C392.763 249.611 393.559 249.186 394.185 248.561C394.81 247.935 395.235 247.139 395.408 246.272C395.58 245.405 395.492 244.506 395.154 243.689C394.815 242.872 394.242 242.174 393.507 241.683C392.772 241.192 391.908 240.93 391.024 240.93C389.838 240.93 388.701 241.401 387.863 242.239C387.025 243.077 386.554 244.214 386.554 245.4Z" fill="#147BDA"/>
<path opacity="0.2" d="M406.749 220.923C406.749 221.742 406.991 222.542 407.446 223.222C407.901 223.902 408.547 224.433 409.303 224.746C410.059 225.059 410.891 225.141 411.693 224.981C412.496 224.822 413.233 224.428 413.812 223.849C414.39 223.27 414.784 222.533 414.944 221.731C415.104 220.928 415.022 220.096 414.709 219.34C414.395 218.584 413.865 217.938 413.185 217.483C412.504 217.029 411.704 216.786 410.886 216.786C409.789 216.786 408.736 217.222 407.961 217.998C407.185 218.774 406.749 219.826 406.749 220.923Z" fill="#147BDA"/>
<path opacity="0.1" d="M413.447 193.669C413.447 194.421 413.67 195.157 414.088 195.783C414.506 196.408 415.1 196.896 415.795 197.184C416.49 197.472 417.255 197.547 417.993 197.4C418.731 197.254 419.409 196.891 419.941 196.359C420.474 195.827 420.836 195.149 420.983 194.411C421.13 193.673 421.054 192.908 420.766 192.213C420.478 191.518 419.991 190.924 419.365 190.505C418.739 190.087 418.004 189.864 417.251 189.864C416.751 189.862 416.255 189.959 415.793 190.15C415.33 190.341 414.91 190.621 414.557 190.974C414.203 191.328 413.923 191.748 413.732 192.211C413.542 192.673 413.445 193.169 413.447 193.669Z" fill="#147BDA"/>
<path opacity="0.05" d="M407.4 162.059C409.317 162.059 410.872 160.505 410.872 158.587C410.872 156.67 409.317 155.115 407.4 155.115C405.482 155.115 403.928 156.67 403.928 158.587C403.928 160.505 405.482 162.059 407.4 162.059Z" fill="#147BDA"/>
<path opacity="0.01" d="M383.805 141.996C385.539 141.996 386.944 140.591 386.944 138.857C386.944 137.123 385.539 135.718 383.805 135.718C382.071 135.718 380.666 137.123 380.666 138.857C380.666 140.591 382.071 141.996 383.805 141.996Z" fill="#147BDA"/>
<path d="M574.38 61.1198L568 54.4698C573.429 49.3036 580.214 45.7853 587.564 44.3245C594.915 42.8636 602.529 43.5203 609.521 46.2179C616.513 48.9156 622.595 53.5435 627.06 59.5629C631.524 65.5823 634.188 72.7458 634.74 80.2198L625.58 80.8998C625.158 75.1607 623.114 69.6596 619.687 65.0367C616.26 60.4138 611.591 56.8592 606.222 54.7869C600.854 52.7145 595.007 52.2095 589.363 53.3306C583.719 54.4518 578.509 57.153 574.34 61.1198H574.38Z" fill="#147BDA"/>
<path d="M617.3 74.79L626.64 98.67L642.65 78.66L617.3 74.79Z" fill="#147BDA"/>
<g opacity="0.2">
<path d="M574.38 61.1198L568 54.4698C573.429 49.3036 580.214 45.7853 587.564 44.3245C594.915 42.8636 602.529 43.5203 609.521 46.2179C616.513 48.9156 622.595 53.5435 627.06 59.5629C631.524 65.5823 634.188 72.7458 634.74 80.2198L625.58 80.8998C625.158 75.1607 623.114 69.6596 619.687 65.0367C616.26 60.4138 611.591 56.8592 606.222 54.7869C600.854 52.7145 595.007 52.2095 589.363 53.3306C583.719 54.4518 578.509 57.153 574.34 61.1198H574.38Z" fill="#11111B"/>
<path d="M617.3 74.79L626.64 98.67L642.65 78.66L617.3 74.79Z" fill="#11111B"/>
</g>
<path d="M578.82 116.539C572.684 113.459 567.45 108.844 563.626 103.142C559.803 97.4397 557.52 90.8451 557 83.9993L566.16 83.3193C566.596 89.2192 568.746 94.8634 572.344 99.5591C575.943 104.255 580.834 107.797 586.418 109.752C592.001 111.708 598.034 111.99 603.776 110.564C609.518 109.139 614.719 106.069 618.74 101.729L625.48 107.969C619.655 114.221 611.972 118.43 603.568 119.973C595.164 121.517 586.486 120.313 578.82 116.539Z" fill="#147BDA"/>
<path d="M574.44 89.4398L565.11 65.5598L549.09 85.5798L574.44 89.4398Z" fill="#147BDA"/>
<path d="M455.03 462.25C508.508 462.25 551.86 458.019 551.86 452.8C551.86 447.581 508.508 443.35 455.03 443.35C401.552 443.35 358.2 447.581 358.2 452.8C358.2 458.019 401.552 462.25 455.03 462.25Z" fill="#D2E3F3"/>
<path d="M471.82 454.591C473.98 453.801 522.82 414.731 523.82 412.061C524.17 411.061 518.9 403.601 512.27 394.781C510.84 392.881 509.35 390.921 507.82 388.941C497.94 376.071 487.16 362.641 487.16 362.641L454.39 388.641L475.95 414.221L480.68 419.841C480.68 419.841 468.68 443.161 467.96 446.201C467.24 449.241 469.65 455.381 471.82 454.591Z" fill="#ECBCB3"/>
<path d="M471.82 454.59C473.98 453.8 522.82 414.73 523.82 412.06C524.24 410.83 516.37 400.06 507.82 388.94L475.95 414.26L480.68 419.88C480.68 419.88 468.68 443.2 467.96 446.24C467.24 449.28 469.65 455.38 471.82 454.59Z" fill="white"/>
<path d="M471.82 454.59C473.98 453.8 522.82 414.73 523.82 412.06C524.17 411.06 518.9 403.6 512.27 394.78L480.68 419.88C480.68 419.88 468.68 443.2 467.96 446.24C467.24 449.28 469.65 455.38 471.82 454.59Z" fill="#147BDA"/>
<path d="M471 452.08C479 445.33 512.07 418.86 520.52 412.8C520.59 412.75 520.62 412.8 520.52 412.85C512.71 419.71 479.45 445.91 471.06 452.21C470.89 452.34 470.79 452.22 471 452.08Z" fill="#11111B"/>
<path d="M469.67 442C470.561 441.248 471.6 440.689 472.718 440.358C473.837 440.028 475.013 439.933 476.17 440.08C478.25 440.334 480.154 441.375 481.49 442.99C481.49 443.04 481.44 443.12 481.4 443.07C479.828 441.665 477.842 440.808 475.742 440.628C473.641 440.447 471.538 440.954 469.75 442.07C469.68 442.12 469.6 442 469.67 442Z" fill="#11111B"/>
<path d="M478.12 423.23C481.37 420.57 486.12 418.68 490.28 419.74C490.44 419.74 490.38 420.01 490.28 420.04C486.211 420.827 482.239 422.047 478.43 423.68C478.37 423.721 478.297 423.737 478.225 423.724C478.154 423.711 478.091 423.67 478.05 423.61C478.009 423.551 477.993 423.477 478.006 423.406C478.019 423.334 478.06 423.271 478.12 423.23Z" fill="#11111B"/>
<path d="M476.38 426.24C479.62 423.58 484.38 421.69 488.53 422.75C488.69 422.75 488.63 423.02 488.53 423.05C484.461 423.835 480.488 425.055 476.68 426.69C476.62 426.73 476.547 426.744 476.477 426.73C476.407 426.716 476.345 426.675 476.305 426.615C476.265 426.555 476.251 426.482 476.265 426.412C476.279 426.342 476.32 426.28 476.38 426.24Z" fill="#11111B"/>
<path d="M474.64 429.251C477.88 426.591 482.64 424.701 486.79 425.761C486.95 425.761 486.89 426.031 486.79 426.061C482.722 426.849 478.749 428.069 474.94 429.701C474.88 429.74 474.807 429.755 474.737 429.741C474.667 429.727 474.605 429.685 474.565 429.626C474.525 429.566 474.511 429.493 474.525 429.423C474.539 429.352 474.58 429.29 474.64 429.251Z" fill="#11111B"/>
<path d="M472.89 432.261C476.14 429.601 480.89 427.721 485.05 428.771C485.21 428.771 485.15 429.041 485.05 429.071C480.982 429.858 477.009 431.079 473.2 432.711C473.14 432.752 473.067 432.767 472.995 432.754C472.924 432.741 472.861 432.7 472.82 432.641C472.779 432.581 472.763 432.507 472.776 432.436C472.789 432.365 472.83 432.302 472.89 432.261Z" fill="#11111B"/>
<path d="M512.17 406.68C515.86 403.75 520.42 409.48 516.73 412.42C513.04 415.36 508.48 409.62 512.17 406.68Z" fill="white"/>
<path d="M471.69 421.91C475.28 422.78 479.13 422.06 482.75 421.81C482.83 421.8 482.907 421.771 482.973 421.725C483.04 421.678 483.094 421.617 483.131 421.545C483.169 421.473 483.188 421.393 483.188 421.312C483.188 421.231 483.168 421.152 483.13 421.08C483.144 421.07 483.156 421.057 483.164 421.041C483.172 421.025 483.177 421.008 483.177 420.99C483.177 420.973 483.172 420.955 483.164 420.94C483.156 420.924 483.144 420.91 483.13 420.9C480.486 418.085 477.147 416.016 473.45 414.9C471.28 414.29 468.12 414.62 467.56 417.32C467 420.02 469.59 421.4 471.69 421.91ZM469.37 419.32C466.84 415.49 472.25 415.65 473.83 416.17C474.857 416.519 475.859 416.937 476.83 417.42C478.83 418.42 480.67 419.64 482.57 420.81C480.78 420.81 479.01 420.99 477.22 421.07C475.05 421.16 470.76 421.43 469.37 419.32Z" fill="#11111B"/>
<path d="M493.13 409.5C491.13 407.56 488.35 409.05 486.89 410.77C484.437 413.753 482.812 417.33 482.18 421.14C482.177 421.157 482.177 421.174 482.182 421.191C482.187 421.208 482.195 421.223 482.207 421.235C482.219 421.248 482.233 421.258 482.249 421.264C482.266 421.27 482.283 421.272 482.3 421.27C482.311 421.35 482.341 421.426 482.387 421.493C482.433 421.559 482.494 421.614 482.565 421.653C482.636 421.692 482.715 421.713 482.795 421.716C482.876 421.719 482.956 421.704 483.03 421.67C486.18 419.86 489.77 418.32 492.28 415.6C493.74 414 495 411.33 493.13 409.5ZM487.25 418C485.72 418.93 484.15 419.78 482.66 420.76C483.516 418.712 484.478 416.709 485.54 414.76C486.069 413.825 486.66 412.926 487.31 412.07C488.31 410.77 492.74 407.62 492.77 412.2C492.78 414.68 489.07 416.85 487.25 418Z" fill="#11111B"/>
<path d="M421.26 338.61C423.5 355.61 465.47 404.79 470.31 410.43L471.42 411.71L506.13 385L505.73 384.48L475.16 344.48L566.34 353.65L542.72 327.03C542.72 327.03 539.91 328.65 534.07 327.8C513.95 324.85 457.59 308.33 446.89 308.8C433.09 309.35 419.2 323 421.26 338.61Z" fill="#37474F"/>
<path d="M464.19 329.62C465.321 330.887 466.373 332.223 467.34 333.62C468.42 335.04 469.52 336.44 470.6 337.86C470.41 337.45 470.22 337.03 470.02 336.62C469.34 335.21 468.79 333.75 468.02 332.4C468.015 332.391 468.013 332.382 468.012 332.372C468.011 332.363 468.011 332.353 468.014 332.344C468.017 332.334 468.022 332.326 468.028 332.318C468.034 332.311 468.041 332.304 468.05 332.3C468.059 332.295 468.068 332.292 468.078 332.291C468.087 332.29 468.097 332.291 468.106 332.294C468.115 332.297 468.124 332.302 468.132 332.308C468.139 332.314 468.145 332.321 468.15 332.33C468.97 333.67 469.93 334.94 470.64 336.33C470.98 336.99 471.29 337.66 471.59 338.33C471.75 338.71 471.91 339.08 472.06 339.46C472.135 339.639 472.199 339.823 472.25 340.01C472.74 340.66 473.25 341.32 473.68 342.01C474.68 343.5 475.62 345.07 476.68 346.55C476.68 346.63 476.61 346.7 476.55 346.63C475.55 345.24 474.31 343.94 473.24 342.56C472.17 341.18 471.12 339.71 470.1 338.26C469.08 336.81 468.1 335.4 467.1 333.98C466.005 332.584 465.003 331.117 464.1 329.59C464.07 329.64 464.14 329.58 464.19 329.62Z" fill="#11111B"/>
<path d="M552.55 289.25C547.55 308.85 537.61 332.25 533.55 336C528.38 340.73 494.68 348.83 493.01 349C488.86 349.32 481.29 319.35 485.71 318.82C492.44 318.01 516.84 317.27 518.34 315.82C519.84 314.37 530.49 301.56 541.42 287.16C548.93 277.15 555.65 277.08 552.55 289.25Z" fill="#ECBCB3"/>
<path d="M496.32 347.441C492.461 349.303 488.474 350.887 484.39 352.181C481.14 353.041 471.72 355.261 470.39 351.771C469.5 349.401 474.88 347.441 478.66 345.971C480.66 345.201 483.13 343.191 482.58 341.911C481.58 339.671 476.49 341.781 473.11 343.641C466.57 347.231 457.81 353.771 453.95 350.401C452.49 349.131 454.27 346.921 456.86 344.771C452.69 347.251 448.26 349.251 446.58 347.901C445.58 347.131 445.58 346.111 446.17 344.951C445.647 345.183 445.066 345.253 444.502 345.151C443.939 345.049 443.419 344.781 443.01 344.381C441.71 342.951 442.41 340.911 443.92 338.831C443.67 338.797 443.432 338.704 443.225 338.559C443.018 338.415 442.848 338.223 442.73 338.001C440.01 333.631 454.45 321.591 459.37 320.551C469.128 318.677 479.076 317.982 489 318.481C494.58 323.131 496.34 347.431 496.32 347.441Z" fill="#ECBCB3"/>
<path d="M475.48 333.681C472.039 334.133 468.736 335.316 465.79 337.151C462.08 339.471 459.59 342.231 456.46 345.001C456.38 345.071 456.46 345.201 456.57 345.131C458.06 343.811 464.23 338.881 465.82 337.771C468.697 335.719 472.004 334.351 475.49 333.771C475.49 333.771 475.51 333.681 475.48 333.681Z" fill="#11111B"/>
<path d="M472.94 327.51C469.074 328.324 465.301 329.53 461.68 331.11C457.79 332.98 454.68 336.11 451.68 339.11C449.86 340.91 448.08 342.753 446.34 344.64C446.27 344.72 446.34 344.85 446.45 344.77C449.53 341.656 452.7 338.656 455.96 335.77C458.967 333.053 462.481 330.957 466.3 329.6C468.49 328.82 470.73 328.22 472.96 327.6C473 327.57 473 327.5 472.94 327.51Z" fill="#11111B"/>
<path d="M469 322.07C465.3 322.74 462.08 323.31 458.78 325.2C454.41 327.7 450.14 332 448.64 333.52C446.99 335.2 445.4 336.94 443.83 338.7C443.76 338.77 443.89 338.88 443.95 338.81C447.547 334.96 451.392 331.349 455.46 328C457.365 326.366 459.515 325.04 461.83 324.07C464.17 323.215 466.579 322.563 469.03 322.12L469 322.07Z" fill="#11111B"/>
<path d="M491.38 317.31L500.89 350.18C500.89 350.18 528.96 342.89 534.19 337.52C539.42 332.15 549.5 304 552.6 290.32C555.7 276.64 548.73 276.81 542.13 285.32C535.53 293.83 519.13 314.47 518.22 314.91C517.31 315.35 491.38 317.31 491.38 317.31Z" fill="#147BDA"/>
<path d="M503.92 335.76C502.76 331.88 501.58 328.01 500.56 324.09C499.99 321.86 499.4 319.64 498.85 317.41C498.85 317.32 498.97 317.28 499 317.36C500.31 321.2 501.62 325.06 502.76 328.97C503.9 332.88 505.05 336.73 506.13 340.63C506.75 342.84 507.29 345.07 507.77 347.32H507.69C506.25 343.55 505.08 339.66 503.92 335.76Z" fill="#11111B"/>
<path d="M503.11 316.39H503.34C503.335 316.48 503.335 316.57 503.34 316.66C503.36 318.13 503.637 319.586 504.16 320.96C504.695 322.333 505.455 323.607 506.41 324.73C507.34 325.87 508.525 326.774 509.87 327.37C511.222 327.957 512.661 328.319 514.13 328.44C515.293 328.558 516.462 328.592 517.63 328.54H517.9H518.55C520.02 328.46 521.49 328.29 522.97 328.11C525.899 327.654 528.849 327.354 531.81 327.21C533.297 327.159 534.784 327.311 536.23 327.66C537.314 327.924 538.335 328.403 539.23 329.07L539.17 329.2C538.278 328.529 537.256 328.052 536.17 327.8C534.736 327.462 533.262 327.317 531.79 327.37C528.833 327.524 525.886 327.828 522.96 328.28C521.49 328.46 520.02 328.63 518.54 328.73H518.11H517.86C516.6 328.812 515.336 328.788 514.08 328.66C512.59 328.54 511.131 328.175 509.76 327.58C508.387 326.966 507.172 326.046 506.21 324.89C505.241 323.748 504.468 322.454 503.92 321.06C503.656 320.365 503.452 319.649 503.31 318.92C503.182 318.183 503.109 317.438 503.09 316.69C503.09 316.59 503.096 316.49 503.11 316.39ZM512.39 320.12C512.751 321.565 513.32 322.949 514.08 324.23C514.812 325.529 515.724 326.717 516.79 327.76C517.06 328.02 517.34 328.27 517.63 328.52C517.706 328.587 517.79 328.644 517.88 328.69C518.669 329.327 519.532 329.868 520.45 330.3C521.803 330.922 523.213 331.411 524.66 331.76C527.53 332.48 530.48 332.9 533.22 334.04C534.129 334.399 534.998 334.855 535.81 335.4C535.83 335.362 535.854 335.325 535.88 335.29C535.059 334.742 534.185 334.28 533.27 333.91C530.51 332.76 527.55 332.34 524.69 331.61C523.254 331.267 521.857 330.777 520.52 330.15C519.676 329.745 518.875 329.256 518.13 328.69C518.049 328.636 517.972 328.576 517.9 328.51C517.55 328.24 517.23 327.94 516.9 327.64C514.805 325.547 513.304 322.934 512.55 320.07C512.214 318.635 512.066 317.163 512.11 315.69C512.105 315.667 512.105 315.643 512.11 315.62H511.9V315.68C511.857 317.176 512.022 318.67 512.39 320.12Z" fill="white"/>
<path opacity="0.1" d="M499.94 346.91L500.89 350.18C500.89 350.18 528.97 342.89 534.19 337.53C539.41 332.17 549.5 304 552.6 290.32C554.86 280.32 551.75 277.71 547.33 280.37C535.38 296.81 512.85 328 499.94 346.91Z" fill="#11111B"/>
<path d="M584.77 353.94C584.61 354.1 525.28 341.1 524.77 340.41C524 339.41 534.6 294.82 545.77 281.5C548.57 278.17 557.48 278.4 561.46 281.76C581.2 298.42 585.33 353.36 584.77 353.94Z" fill="#147BDA"/>
<path d="M566.32 285.13C578.62 294.59 611.05 332.85 604.27 341.93C597.49 351.01 551 348 537.48 344.08C533.48 342.92 543.8 317.26 548.1 315.99C551.68 314.94 571.8 320.39 572.16 319.23C572.57 317.91 568.16 309.43 560.93 293.93C552.64 276.06 560.89 281 566.32 285.13Z" fill="#ECBCB3"/>
<path d="M528.29 311.551C519 311.781 516.65 313.271 508.7 309.311C503.48 306.711 499.58 308.921 503.13 313.841C508.92 321.841 520.98 324.091 525.38 323.661L528.29 311.551Z" fill="#ECBCB3"/>
<path d="M553.86 316.3C553.86 316.3 542.72 312.3 532.79 311.59C525.93 311.09 510.87 311.66 499.16 328.59C496.39 332.59 495.27 340.27 502.16 335.38C507.07 331.9 509.16 328.21 512.36 326.71C512.36 326.71 512.1 336.64 516.22 339.27C519.825 341.563 523.588 343.598 527.48 345.36C527.962 344.72 528.407 344.052 528.81 343.36C528.81 343.36 532.89 345.45 539.62 343.67L553.86 316.3Z" fill="#ECBCB3"/>
<path d="M526.16 312.16C523.28 314.33 517.24 319.02 513.64 324.58C509.64 330.76 503.64 343.73 508.19 346.64C511.56 348.77 514.3 344.02 514.3 344.02C514.3 344.02 512.93 349.91 516.39 351.17C519.55 352.32 521.45 348.51 521.45 348.51C521.45 348.51 521.23 352.23 524.45 352.75C528.36 353.37 528.17 345.49 532.68 342.7C533.72 342.07 526.16 312.16 526.16 312.16Z" fill="#ECBCB3"/>
<path d="M520.87 327.721C517.064 332.306 514.747 337.944 514.23 343.881C514.23 344.041 514.33 344.121 514.37 343.991C515.891 338.335 518.093 332.885 520.93 327.761L520.87 327.721Z" fill="#11111B"/>
<path d="M527 331.94C525.17 334.29 521.42 341.72 521.33 348.47C521.33 348.62 521.44 348.7 521.47 348.56C522.706 342.849 524.577 337.294 527.05 332C527.05 332 527 331.91 527 331.94Z" fill="#11111B"/>
<path d="M512.36 326.61C509.55 327.97 507.86 329.74 505.65 331.89C504.568 332.967 503.43 333.985 502.24 334.94C501.14 335.79 499.53 337.07 498.07 336.26C497.717 335.993 497.444 335.635 497.278 335.225C497.113 334.814 497.062 334.367 497.13 333.93C497.287 332.667 497.648 331.437 498.2 330.29C498.2 330.29 498.14 330.21 498.12 330.29C497.581 331.343 497.152 332.449 496.84 333.59C496.635 334.366 496.674 335.186 496.95 335.94C497.66 337.5 499.62 337.4 500.95 336.72C501.713 336.292 502.43 335.786 503.09 335.21C503.74 334.68 504.36 334.12 504.97 333.54C506.22 332.36 507.4 331.11 508.64 329.91C509.848 328.773 511.127 327.714 512.47 326.74C512.48 326.66 512.42 326.58 512.36 326.61Z" fill="#11111B"/>
<path d="M507.89 338.05C509.158 334.162 510.677 330.36 512.44 326.67C512.44 326.62 512.44 326.58 512.37 326.62C510.37 329.19 507.67 335.62 507.12 337.62C506.41 339.723 506.135 341.947 506.31 344.16C506.82 347.26 508.97 347.5 509.76 347.53C510.688 347.54 511.591 347.233 512.32 346.66C513.16 345.926 513.841 345.027 514.32 344.02C514.32 344.02 514.32 343.93 514.25 344.02C513.38 345.41 511.8 346.91 510.08 346.97C509.703 346.993 509.325 346.941 508.968 346.817C508.611 346.694 508.282 346.501 508 346.25C507.417 345.582 507.094 344.726 507.09 343.84C507.026 341.878 507.296 339.92 507.89 338.05Z" fill="#11111B"/>
<path d="M553.86 316.3L544.53 348.78C544.53 348.78 602.61 352.09 605.83 341.55C609.05 331.01 581 296.45 569.35 287C555.86 276 555.14 280.62 559.53 291.62C564.12 303.13 572.04 319.62 572.04 319.62L553.86 316.3Z" fill="#147BDA"/>
<path d="M570.5 313.89C571.964 313.758 573.398 313.397 574.75 312.82C575.83 312.361 576.875 311.827 577.88 311.22L578.11 311.08C578.3 310.97 578.49 310.86 578.66 310.74C579.91 309.97 581.13 309.12 582.33 308.26C583.74 307.26 585.13 306.26 586.56 305.26C586.599 305.299 586.632 305.343 586.66 305.39C585.24 306.39 583.84 307.39 582.44 308.39C581.23 309.26 580.02 310.1 578.76 310.89L578.4 311.11L578.17 311.25C577.098 311.904 575.982 312.482 574.83 312.98C573.458 313.575 571.999 313.947 570.51 314.08C570.177 314.099 569.843 314.099 569.51 314.08L569.42 313.87C569.779 313.895 570.14 313.902 570.5 313.89ZM559.26 286.71C558.703 286.238 558.108 285.813 557.48 285.44C557.48 285.54 557.48 285.64 557.55 285.75C558.101 286.086 558.623 286.467 559.11 286.89C560.221 287.853 561.158 288.999 561.88 290.28C562.595 291.555 563.188 292.894 563.65 294.28C564.15 295.67 564.57 297.1 565.05 298.5C565.513 299.913 566.078 301.29 566.74 302.62C567.413 303.95 568.26 305.185 569.26 306.29C570.274 307.385 571.435 308.334 572.71 309.11C573.973 309.905 575.344 310.514 576.78 310.92C577.142 311.027 577.509 311.114 577.88 311.18H578.17C579.16 311.348 580.166 311.408 581.17 311.36C582.654 311.272 584.125 311.03 585.56 310.64C587.02 310.28 588.46 309.83 589.9 309.43L589.81 309.31C588.38 309.69 586.96 310.13 585.52 310.5C584.094 310.878 582.633 311.113 581.16 311.2C580.227 311.247 579.291 311.194 578.37 311.04C578.272 311.033 578.175 311.016 578.08 310.99C577.644 310.926 577.213 310.832 576.79 310.71C575.379 310.296 574.032 309.687 572.79 308.9C571.529 308.137 570.384 307.198 569.39 306.11C568.406 305.015 567.573 303.794 566.91 302.48C566.252 301.157 565.694 299.786 565.24 298.38C564.76 296.98 564.34 295.56 563.85 294.15C563.385 292.741 562.789 291.378 562.07 290.08C561.699 289.428 561.277 288.807 560.81 288.22C560.338 287.673 559.82 287.167 559.26 286.71ZM555.39 318.56C555.39 319.01 555.39 319.45 555.39 319.91C555.39 319.91 555.39 320 555.39 320.05C555.473 321.039 555.637 322.019 555.88 322.98C556.237 324.425 556.796 325.812 557.54 327.1C558.297 328.383 559.24 329.546 560.34 330.55C562.53 332.55 565.18 333.99 567.61 335.67C568.837 336.487 569.977 337.429 571.01 338.48C571.661 339.152 572.241 339.889 572.74 340.68C572.808 340.755 572.865 340.839 572.91 340.93C573.139 341.303 573.35 341.686 573.54 342.08C574.172 343.414 574.61 344.832 574.84 346.29C575 347.212 575.08 348.145 575.08 349.08H575.27C575.272 348.135 575.189 347.191 575.02 346.26C574.78 344.785 574.332 343.35 573.69 342C573.53 341.67 573.35 341.34 573.16 341L573.01 340.74C572.468 339.88 571.838 339.079 571.13 338.35C570.085 337.292 568.932 336.347 567.69 335.53C565.25 333.85 562.62 332.43 560.44 330.43C559.342 329.438 558.401 328.285 557.65 327.01C556.918 325.756 556.363 324.406 556 323C555.742 322.017 555.572 321.013 555.49 320C555.49 319.94 555.49 319.89 555.49 319.85C555.49 319.44 555.49 319.04 555.49 318.63C555.49 317.978 555.53 317.327 555.61 316.68H555.54C555.454 317.303 555.404 317.931 555.39 318.56ZM552.58 332.08C553.198 333.45 554.189 334.618 555.44 335.45C556.679 336.277 558.025 336.933 559.44 337.4C562.269 338.29 565.143 339.031 568.05 339.62C569.48 339.96 570.92 340.31 572.33 340.73L572.96 340.93C573.047 340.95 573.131 340.98 573.21 341.02C574.327 341.368 575.417 341.799 576.47 342.31C577.802 342.932 579.025 343.766 580.09 344.78C581.144 345.807 581.949 347.063 582.44 348.45C582.468 348.525 582.491 348.602 582.51 348.68H582.74L582.65 348.4C582.145 346.982 581.321 345.698 580.24 344.65C579.155 343.622 577.913 342.775 576.56 342.14C575.428 341.601 574.259 341.146 573.06 340.78L572.79 340.7L572.38 340.58C570.97 340.15 569.52 339.8 568.08 339.46C565.181 338.879 562.314 338.148 559.49 337.27C558.078 336.814 556.732 336.172 555.49 335.36C554.25 334.548 553.271 333.395 552.67 332.04C552.086 330.683 551.852 329.201 551.99 327.73C552.161 326.263 552.616 324.843 553.33 323.55C553.95 322.36 554.69 321.21 555.41 320.07L555.49 319.95C556.115 318.982 556.686 317.981 557.2 316.95H557.13C556.639 317.946 556.088 318.911 555.48 319.84C555.454 319.886 555.424 319.93 555.39 319.97C554.65 321.14 553.88 322.3 553.23 323.54C552.504 324.845 552.039 326.278 551.86 327.76C551.746 329.237 551.993 330.72 552.58 332.08Z" fill="white"/>
<path d="M590.39 324.74C587.476 323.376 584.469 322.223 581.39 321.29C578.356 320.399 575.261 319.731 572.13 319.29C570.34 319.01 568.55 318.81 566.75 318.61C566.75 318.61 566.69 318.69 566.75 318.7C569.899 319.186 573.018 319.853 576.09 320.7C579.15 321.5 582.193 322.353 585.22 323.26C586.93 323.77 588.62 324.37 590.32 324.94C590.42 324.89 590.46 324.77 590.39 324.74Z" fill="#11111B"/>
<path d="M554 316.18C554.29 316.18 570.44 318.73 571 318.88C570.89 318.66 566.8 310.98 566.19 309.88L566.01 309.54C565.65 309.06 565.28 308.54 564.93 308.07C564.58 307.6 564.04 306.79 563.6 306.14L565 308L565.63 308.88C565.22 308.08 564.82 307.28 564.42 306.47C563.78 305.19 563.19 303.89 562.6 302.58C562.6 302.58 562.6 302.52 562.66 302.58C563.87 304.82 565.14 307.02 566.36 309.25C567.58 311.48 572.17 319.71 572.14 319.71C572.11 319.71 554.29 316.55 553.94 316.46C553.903 316.452 553.87 316.43 553.85 316.398C553.829 316.366 553.822 316.327 553.83 316.29C553.838 316.253 553.86 316.221 553.892 316.2C553.924 316.179 553.963 316.172 554 316.18Z" fill="#11111B"/>
<path d="M556.22 336.001C557.22 332.381 558.22 328.751 559.38 325.161C560.04 323.161 560.68 321.091 561.38 319.051C561.38 318.981 561.54 319.051 561.52 319.051C560.64 322.731 559.75 326.411 558.7 330.051C557.65 333.691 556.7 337.291 555.56 340.891C554.94 342.937 554.273 344.967 553.56 346.981C553.56 346.981 553.47 346.981 553.48 346.981C554.18 343.291 555.19 339.651 556.22 336.001Z" fill="#11111B"/>
<path d="M543.89 349.37C544.29 348.37 544.78 346.9 545.23 345.9C545.35 345.63 545.54 345.65 545.46 345.9C545.17 346.82 544.97 347.82 544.69 348.76C545.5 348.76 546.32 348.76 547.13 348.83L550 349C551.84 349.07 553.68 349.12 555.52 349.16C559.25 349.23 562.97 349.22 566.7 349.16C574.156 348.997 581.6 348.449 589 347.52C591.08 347.26 593.147 346.947 595.2 346.58C597.221 346.253 599.224 345.819 601.2 345.28C601.25 345.28 601.28 345.36 601.2 345.38C599.516 346.034 597.785 346.556 596.02 346.94C594.17 347.34 592.3 347.69 590.43 347.94C586.7 348.51 582.94 348.89 579.18 349.16C571.72 349.7 564.23 349.92 556.75 349.84C554.66 349.84 552.56 349.77 550.47 349.7L547.29 349.57C546.33 349.55 543.82 349.55 543.89 349.37Z" fill="#11111B"/>
<path d="M529.79 355.69H461.2V358.76H529.79V355.69Z" fill="#C7C7C7"/>
<path d="M461.2 355.69V358.76H507.82L505.47 355.69H461.2Z" fill="#A6A6A6"/>
<path d="M502.51 358.76H435.67L430.1 313.36H496.95L502.51 358.76Z" fill="#BAD2E8"/>
<path d="M470.38 336.06C470.389 336.591 470.293 337.119 470.096 337.612C469.899 338.106 469.606 338.555 469.233 338.934C468.861 339.313 468.417 339.614 467.927 339.819C467.437 340.025 466.911 340.13 466.38 340.13C465.295 340.128 464.254 339.7 463.48 338.94C462.706 338.179 462.261 337.145 462.24 336.06C462.231 335.529 462.327 335.001 462.524 334.508C462.721 334.015 463.014 333.565 463.386 333.186C463.759 332.808 464.203 332.507 464.693 332.301C465.183 332.096 465.709 331.99 466.24 331.99C467.324 331.998 468.362 332.427 469.134 333.186C469.907 333.946 470.354 334.977 470.38 336.06Z" fill="white"/>
<path d="M548.56 291.78C551.28 291.78 556.61 286.36 558.56 281.96C558.69 281.66 558 278.66 557.33 274.96C556.93 272.72 556.53 270.22 556.33 267.91L542.14 272.64C543.209 275.458 543.927 278.397 544.28 281.39C544.318 281.722 544.318 282.058 544.28 282.39C544.275 282.44 544.275 282.49 544.28 282.54C544.12 284.34 544.31 291.84 548.56 291.78Z" fill="#ECBCB3"/>
<path d="M544.28 282.36C544.273 282.413 544.273 282.467 544.28 282.52C544.779 282.559 545.281 282.559 545.78 282.52C554 281.64 555.18 271.44 555.33 268.32L542.17 272.7C543.239 275.519 543.961 278.457 544.32 281.45C544.325 281.754 544.312 282.058 544.28 282.36Z" fill="#11111B"/>
<path d="M554.44 249.841C557.12 254.511 557.78 269.631 554.94 273.681C550.83 279.551 542.46 281.941 537.05 276.621C531.81 271.471 531.3 251.751 534.62 247.901C539.51 242.231 550.48 242.941 554.44 249.841Z" fill="#ECBCB3"/>
<path d="M544.49 260.331C544.046 260.237 543.609 260.116 543.18 259.971C542.704 259.911 542.261 259.697 541.92 259.361C541.832 259.234 541.789 259.081 541.798 258.927C541.807 258.773 541.868 258.626 541.97 258.511C542.204 258.312 542.486 258.179 542.789 258.126C543.091 258.073 543.402 258.103 543.69 258.211C544.312 258.335 544.863 258.693 545.23 259.211C545.304 259.331 545.342 259.47 545.34 259.611C545.337 259.752 545.295 259.889 545.217 260.007C545.139 260.125 545.03 260.218 544.901 260.275C544.772 260.332 544.629 260.352 544.49 260.331Z" fill="#11111B"/>
<path d="M534.22 261.19C534.654 261.068 535.082 260.921 535.5 260.75C535.971 260.659 536.399 260.417 536.72 260.06C536.796 259.927 536.826 259.773 536.806 259.622C536.787 259.47 536.718 259.329 536.61 259.22C536.365 259.037 536.076 258.922 535.772 258.887C535.468 258.852 535.16 258.898 534.88 259.02C534.272 259.184 533.748 259.569 533.41 260.1C533.338 260.225 533.304 260.369 533.312 260.513C533.321 260.657 533.371 260.795 533.457 260.911C533.543 261.027 533.661 261.115 533.797 261.165C533.932 261.214 534.079 261.223 534.22 261.19Z" fill="#11111B"/>
<path d="M543.35 269.23C543.124 269.652 542.813 270.022 542.436 270.317C542.059 270.611 541.624 270.824 541.16 270.94C540.757 271.055 540.339 271.106 539.92 271.09C539.84 271.1 539.76 271.1 539.68 271.09H539.45C539.395 271.084 539.344 271.061 539.304 271.023C539.264 270.985 539.238 270.935 539.23 270.88C539.225 270.844 539.225 270.807 539.23 270.77V270.68C539.15 269.9 539.14 268.68 539.14 268.68C538.86 268.84 537.45 269.61 537.45 269.2C537.273 265.667 537.458 262.126 538 258.63C538.006 258.61 538.019 258.593 538.036 258.581C538.053 258.568 538.074 258.562 538.095 258.562C538.116 258.562 538.136 258.568 538.154 258.581C538.171 258.593 538.183 258.61 538.19 258.63C538.37 261.89 537.97 265.17 538.1 268.45C538.601 268.168 539.14 267.959 539.7 267.83C539.81 267.83 539.7 270.14 539.7 270.49C540.346 270.508 540.989 270.395 541.591 270.158C542.192 269.92 542.74 269.564 543.2 269.11C543.32 269.08 543.41 269.15 543.35 269.23Z" fill="#11111B"/>
<path d="M540.35 270.66C540.821 271.187 541.42 271.583 542.09 271.81C542.458 271.925 542.852 271.925 543.22 271.81C544.01 271.54 543.98 270.81 543.78 270.16C543.67 269.827 543.523 269.509 543.34 269.21C542.524 270 541.476 270.508 540.35 270.66Z" fill="#11111B"/>
<path d="M542.09 271.81C542.458 271.925 542.852 271.925 543.22 271.81C544.01 271.54 543.98 270.81 543.78 270.16C543.355 270.208 542.957 270.396 542.651 270.695C542.345 270.993 542.147 271.386 542.09 271.81Z" fill="#FF98B9"/>
<path d="M542.36 263C542.36 263 542.44 263 542.45 263.08C542.52 264.08 542.78 265.23 543.73 265.47V265.53C542.59 265.47 542.27 264 542.36 263Z" fill="#11111B"/>
<path d="M543.15 261.83C544.75 261.53 545.23 264.77 543.74 265.04C542.25 265.31 541.8 262.08 543.15 261.83Z" fill="#11111B"/>
<path d="M536.48 263.44C536.48 263.44 536.4 263.5 536.41 263.54C536.6 264.54 536.64 265.71 535.79 266.18V266.23C536.89 265.91 536.81 264.35 536.48 263.44Z" fill="#11111B"/>
<path d="M535.42 262.531C533.79 262.661 534.16 265.911 535.67 265.791C537.18 265.671 536.79 262.431 535.42 262.531Z" fill="#11111B"/>
<path d="M556.76 265C555.94 265.12 554.52 262.4 554.05 262.38C553.782 262.361 553.522 262.288 553.283 262.166C553.044 262.044 552.832 261.876 552.66 261.67C552.255 258.886 551.701 256.125 551 253.4C550.564 252.083 549.685 250.957 548.513 250.215C547.34 249.473 545.947 249.161 544.57 249.33C541.92 249.86 540.65 252.47 538.74 252.47C536.83 252.47 535.98 250.64 534.82 251.03C533.66 251.42 532.82 253.6 532.63 255.44C532.87 251.97 533.54 249.13 534.63 247.9C539.52 242.23 550.5 242.9 554.45 249.84C556.07 252.66 556.94 259.3 556.76 265Z" fill="#11111B"/>
<path d="M554 262.38C554 262.38 556.32 256.98 558.7 257.71C561.08 258.44 560.02 265.79 557.7 267.24C557.416 267.448 557.092 267.596 556.749 267.675C556.406 267.754 556.051 267.764 555.704 267.702C555.358 267.64 555.027 267.509 554.732 267.316C554.438 267.124 554.185 266.873 553.99 266.58L554 262.38Z" fill="#ECBCB3"/>
<path d="M558.38 259.811V259.871C556.77 260.951 556.18 262.781 555.88 264.601C555.947 264.407 556.054 264.23 556.194 264.082C556.335 263.933 556.505 263.816 556.694 263.739C556.884 263.661 557.087 263.625 557.292 263.632C557.496 263.639 557.697 263.69 557.88 263.781V263.891C557.551 263.853 557.219 263.92 556.93 264.081C556.641 264.243 556.41 264.491 556.27 264.791C556.031 265.292 555.849 265.818 555.73 266.361C555.73 266.541 555.38 266.511 555.4 266.361V266.311C554.92 264.001 556 260.531 558.38 259.811Z" fill="#11111B"/>
<path d="M345.1 410.321C345.9 412.481 385.1 461.231 387.79 462.151C388.79 462.501 396.24 457.201 405.04 450.541C406.94 449.111 408.89 447.611 410.87 446.081C423.71 436.161 437.1 425.331 437.1 425.331L411 392.641L385.49 414.291L379.84 419.001C379.84 419.001 356.48 407.001 353.44 406.361C350.4 405.721 344.3 408.151 345.1 410.321Z" fill="#ECBCB3"/>
<path d="M345.1 410.32C345.9 412.48 385.1 461.23 387.79 462.15C389.03 462.57 399.74 454.66 410.87 446.08L385.45 414.29L379.84 419C379.84 419 356.48 407 353.44 406.36C350.4 405.72 344.3 408.15 345.1 410.32Z" fill="white"/>
<path d="M345.1 410.32C345.9 412.48 385.1 461.23 387.79 462.15C388.79 462.5 396.24 457.2 405.04 450.54L379.84 419C379.84 419 356.48 407 353.44 406.36C350.4 405.72 344.3 408.15 345.1 410.32Z" fill="#147BDA"/>
<path d="M347.61 409.45C354.39 417.45 380.96 450.45 387.05 458.84C387.1 458.91 387.05 458.95 387 458.84C380.11 451.05 353.8 417.84 347.48 409.51C347.35 409.38 347.47 409.28 347.61 409.45Z" fill="#11111B"/>
<path d="M357.72 408.121C358.473 409.012 359.034 410.05 359.366 411.168C359.698 412.287 359.795 413.463 359.65 414.621C359.409 416.706 358.374 418.619 356.76 419.961C356.71 419.961 356.64 419.901 356.68 419.861C358.074 418.281 358.919 416.291 359.086 414.191C359.254 412.09 358.736 409.992 357.61 408.211C357.57 408.141 357.66 408.061 357.72 408.121Z" fill="#11111B"/>
<path d="M376.48 416.52C379.16 419.75 381.05 424.52 380.01 428.66C380.01 428.82 379.74 428.76 379.71 428.66C378.904 424.582 377.66 420.602 376 416.79C375.964 416.727 375.955 416.651 375.975 416.581C375.994 416.511 376.041 416.451 376.105 416.415C376.169 416.379 376.244 416.37 376.314 416.39C376.385 416.41 376.444 416.457 376.48 416.52Z" fill="#11111B"/>
<path d="M373.46 414.79C376.14 418.02 378.04 422.74 377 426.93C377 427.09 376.73 427.03 376.7 426.93C375.892 422.85 374.651 418.868 373 415.05C372.966 414.989 372.957 414.917 372.975 414.85C372.994 414.782 373.039 414.725 373.1 414.69C373.161 414.656 373.233 414.647 373.301 414.666C373.368 414.685 373.426 414.729 373.46 414.79Z" fill="#11111B"/>
<path d="M370.45 413.05C373.12 416.29 375.02 421.05 373.98 425.19C373.98 425.36 373.71 425.3 373.68 425.19C372.882 421.113 371.648 417.134 370 413.32C369.982 413.262 369.984 413.2 370.005 413.144C370.027 413.087 370.067 413.039 370.119 413.008C370.171 412.977 370.232 412.964 370.292 412.972C370.352 412.979 370.408 413.007 370.45 413.05Z" fill="#11111B"/>
<path d="M367.43 411.32C370.11 414.56 372 419.32 370.96 423.46C370.96 423.62 370.69 423.56 370.67 423.46C369.876 419.383 368.646 415.403 367 411.59C366.988 411.536 366.994 411.479 367.015 411.428C367.037 411.377 367.073 411.334 367.12 411.304C367.167 411.275 367.222 411.26 367.278 411.263C367.333 411.266 367.386 411.286 367.43 411.32Z" fill="#11111B"/>
<path d="M393.14 450.52C396.08 454.19 390.37 458.77 387.42 455.09C384.47 451.41 390.19 446.83 393.14 450.52Z" fill="white"/>
<path d="M377.78 410.08C376.92 413.68 377.65 417.52 377.91 421.15C377.925 421.229 377.958 421.303 378.006 421.367C378.054 421.431 378.117 421.483 378.188 421.518C378.26 421.554 378.339 421.573 378.419 421.573C378.499 421.574 378.578 421.555 378.65 421.52C378.66 421.535 378.674 421.546 378.689 421.555C378.705 421.563 378.722 421.567 378.74 421.567C378.758 421.567 378.775 421.563 378.791 421.555C378.806 421.546 378.82 421.535 378.83 421.52C381.646 418.869 383.715 415.524 384.83 411.82C385.44 409.65 385.1 406.48 382.39 405.93C379.81 405.44 378.28 408 377.78 410.08ZM380.37 407.75C384.19 405.21 384.04 410.62 383.53 412.2C383.185 413.229 382.768 414.231 382.28 415.2C381.258 417.169 380.136 419.085 378.92 420.94C378.92 419.16 378.73 417.39 378.64 415.6C378.54 413.44 378.26 409.15 380.37 407.75Z" fill="#11111B"/>
<path d="M390.26 431.49C392.19 429.49 390.69 426.7 388.97 425.25C385.978 422.805 382.394 421.191 378.58 420.57C378.563 420.567 378.546 420.568 378.529 420.573C378.513 420.577 378.497 420.586 378.485 420.598C378.472 420.609 378.462 420.624 378.456 420.64C378.45 420.656 378.448 420.673 378.45 420.69C378.371 420.704 378.296 420.735 378.231 420.781C378.165 420.827 378.112 420.888 378.073 420.958C378.035 421.029 378.012 421.107 378.008 421.187C378.004 421.267 378.019 421.347 378.05 421.42C379.87 424.57 381.42 428.16 384.15 430.65C385.75 432.11 388.43 433.35 390.26 431.49ZM381.79 425.63C380.85 424.1 380 422.54 379.02 421.05C381.068 421.9 383.07 422.855 385.02 423.91C385.958 424.436 386.86 425.024 387.72 425.67C389.03 426.67 392.19 431.08 387.6 431.13C385.08 431.15 382.9 427.45 381.79 425.63Z" fill="#11111B"/>
<path d="M386.81 409.36L414 446.06L505.8 382.36L514.65 376.21C514.65 376.21 517.16 377.9 520.93 379.99C526.17 382.89 533.85 386.55 540.65 387.55C552.04 389.24 571.07 389.06 580.65 376.21C588.74 365.4 584.35 351.29 584.35 351.29L571.83 345.91C571.83 345.91 542.22 321.24 523.04 320.5C514.89 320.17 503.04 326.35 492.04 332.8C481.04 339.25 386.81 409.36 386.81 409.36Z" fill="#37474F"/>
<path d="M514.67 376.21C514.67 376.21 517.18 377.9 520.95 379.99C527.62 371.99 541.74 357.5 542.17 356.99L514.67 376.21Z" fill="#11111B"/>
<path d="M561 337.66C562.77 338.88 564.48 340.19 566.23 341.45C567.98 342.71 569.72 343.86 571.35 345.21C572.98 346.56 574.59 348.06 576.15 349.55C576.91 350.27 577.66 350.99 578.39 351.73C579.159 352.444 579.871 353.216 580.52 354.04C580.57 354.12 580.46 354.21 580.39 354.17C579.558 353.58 578.767 352.935 578.02 352.24L575.54 350.13C573.95 348.78 572.33 347.46 570.74 346.13C569.15 344.8 567.74 343.3 566.14 341.94C564.54 340.58 562.7 339.12 560.97 337.73L561 337.66Z" fill="#11111B"/>
<path d="M393.2 408C394.97 409.91 396.6 412 398.25 414C399.9 416 401.54 418.05 403.17 420.08C406.43 424.16 409.72 428.22 412.93 432.34C414.69 434.6 416.43 436.88 418.07 439.23C418.14 439.34 417.98 439.46 417.89 439.37C414.38 435.51 411.17 431.37 407.89 427.32C404.61 423.27 401.37 419.15 398.17 415.02C396.42 412.76 394.62 410.51 393.01 408.15C393 408.06 393.12 408 393.2 408Z" fill="#11111B"/>
<path d="M468.54 408.41C473.11 404.81 477.84 401.41 482.54 398.04C487.24 394.67 491.96 391.31 496.74 388.04L500.88 385.27C502.27 384.36 503.7 383.51 505.06 382.55C505.13 382.5 505.2 382.63 505.13 382.68C503.89 383.58 502.71 384.57 501.49 385.5C500.27 386.43 499.17 387.27 497.99 388.14C495.7 389.84 493.38 391.51 491.07 393.14C486.403 396.527 481.673 399.86 476.88 403.14C474.17 405 471.48 406.87 468.71 408.63C468.58 408.8 468.38 408.54 468.54 408.41Z" fill="#11111B"/>
<path d="M439.18 370.54C443.4 367.04 447.93 363.9 452.35 360.66C456.77 357.42 461.28 354.09 465.77 350.84L479.14 341.18C483.46 338.05 487.76 334.88 492.32 332.11C494.82 330.6 497.38 329.2 500.02 327.94C502.568 326.63 505.225 325.543 507.96 324.69C507.977 324.688 507.994 324.692 508.008 324.701C508.023 324.709 508.034 324.722 508.041 324.738C508.048 324.753 508.049 324.771 508.045 324.787C508.042 324.804 508.033 324.819 508.02 324.83C505.77 326.08 503.41 327.14 501.13 328.35C498.85 329.56 496.66 330.81 494.48 332.13C489.95 334.88 485.68 338 481.38 341.13C472.46 347.55 463.55 353.99 454.56 360.32C449.56 363.86 444.61 367.6 439.38 370.85C439.22 370.92 439 370.67 439.18 370.54Z" fill="#11111B"/>
<path d="M315.503 200.877C315.503 203.331 316.43 205.694 318.099 207.493C319.768 209.291 322.055 210.393 324.502 210.577H379.581C382.521 210.58 385.35 209.45 387.479 207.422C389.608 205.393 390.873 202.622 391.011 199.684C391.149 196.746 390.15 193.869 388.22 191.649C386.291 189.43 383.58 188.04 380.652 187.768C380.509 183.3 378.816 179.021 375.864 175.665C372.912 172.309 368.884 170.084 364.471 169.372C360.058 168.66 355.535 169.505 351.677 171.763C347.819 174.02 344.867 177.549 343.326 181.745C341.741 180.945 339.989 180.53 338.214 180.534C335.304 180.535 332.505 181.646 330.385 183.639C328.266 185.632 326.986 188.358 326.806 191.262C326.283 191.171 325.753 191.127 325.223 191.129C323.944 191.13 322.679 191.383 321.498 191.874C320.317 192.364 319.245 193.083 318.342 193.988C317.439 194.894 316.724 195.968 316.236 197.15C315.749 198.332 315.5 199.599 315.503 200.877Z" fill="#147BDA"/>
<path d="M362.752 198.559H348.725V210.604H362.752V198.559Z" fill="white"/>
<path d="M343.907 198.56H367.564L355.735 186.76L343.907 198.56Z" fill="white"/>
</svg>
