<svg width="488" height="500" viewBox="0 0 488 500" fill="none" xmlns="http://www.w3.org/2000/svg">
<path d="M329.76 332.68L335.26 323.8L332.55 322.12C332.16 321.875 331.845 321.526 331.64 321.114C331.436 320.701 331.349 320.239 331.39 319.78C331.442 319.262 331.459 318.741 331.44 318.22C331.426 317.761 331.541 317.308 331.77 316.91C332 316.513 332.336 316.187 332.74 315.97L335.56 314.46L330.62 305.25L327.8 306.76C327.396 306.976 326.94 307.076 326.482 307.048C326.025 307.019 325.585 306.864 325.21 306.6C324.783 306.299 324.339 306.022 323.88 305.77C323.475 305.552 323.139 305.227 322.908 304.83C322.676 304.433 322.56 303.979 322.57 303.52L322.67 300.33L312.24 300L312.14 303.21C312.12 303.67 311.973 304.115 311.715 304.496C311.458 304.878 311.099 305.18 310.68 305.37C310.45 305.48 310.22 305.59 310 305.72C309.78 305.85 309.55 305.96 309.33 306.1C308.941 306.34 308.492 306.467 308.035 306.467C307.578 306.467 307.13 306.34 306.74 306.1L304 304.42L298.49 313.29L301.22 314.98C301.609 315.226 301.923 315.574 302.126 315.987C302.329 316.401 302.413 316.862 302.37 317.32C302.324 317.839 302.307 318.359 302.32 318.88C302.332 319.338 302.216 319.791 301.987 320.188C301.758 320.585 301.423 320.911 301.02 321.13L298.2 322.64L303.14 331.84L305.96 330.33C306.365 330.115 306.822 330.017 307.279 330.047C307.737 330.077 308.177 330.234 308.55 330.5C308.976 330.796 309.416 331.069 309.87 331.32C310.276 331.536 310.614 331.861 310.846 332.258C311.077 332.656 311.193 333.11 311.18 333.57L311.08 336.77L321.52 337.09L321.62 333.89C321.641 333.433 321.787 332.991 322.043 332.611C322.299 332.232 322.654 331.931 323.07 331.74L323.77 331.39L324.43 331.01C324.822 330.767 325.274 330.639 325.735 330.639C326.196 330.639 326.648 330.767 327.04 331.01L329.76 332.68ZM320.92 326.09C319.43 326.888 317.736 327.226 316.053 327.061C314.371 326.896 312.775 326.237 311.467 325.165C310.159 324.094 309.198 322.658 308.706 321.041C308.214 319.423 308.212 317.696 308.701 316.078C309.191 314.46 310.149 313.023 311.454 311.949C312.76 310.875 314.355 310.212 316.037 310.044C317.719 309.876 319.414 310.211 320.906 311.006C322.398 311.801 323.621 313.02 324.42 314.51C324.953 315.5 325.284 316.585 325.397 317.703C325.509 318.821 325.399 319.951 325.074 321.027C324.749 322.102 324.215 323.103 323.502 323.972C322.789 324.841 321.912 325.561 320.92 326.09Z" fill="#024786"/>
<path d="M56.8301 79.9199C51.1953 79.9199 45.6871 81.5908 41.0019 84.7214C36.3167 87.8519 32.6651 92.3014 30.5088 97.5073C28.3524 102.713 27.7882 108.442 28.8875 113.968C29.9868 119.495 32.7002 124.571 36.6846 128.555C40.669 132.54 45.7455 135.253 51.272 136.352C56.7985 137.452 62.5269 136.888 67.7327 134.731C72.9386 132.575 77.3881 128.923 80.5187 124.238C83.6492 119.553 85.3201 114.045 85.3201 108.41C85.3214 104.668 84.5854 100.963 83.1541 97.5057C81.7228 94.0486 79.6243 90.9073 76.9785 88.2615C74.3327 85.6157 71.1915 83.5172 67.7343 82.0859C64.2771 80.6546 60.5718 79.9186 56.8301 79.9199ZM56.8301 121.71C54.1972 121.71 51.6235 120.929 49.4344 119.466C47.2454 118.003 45.5394 115.924 44.5323 113.491C43.5252 111.058 43.2622 108.382 43.7766 105.8C44.291 103.217 45.5596 100.846 47.4221 98.9848C49.2845 97.1238 51.657 95.8569 54.2396 95.3445C56.8221 94.832 59.4986 95.097 61.9305 96.106C64.3625 97.1149 66.4405 98.8224 67.9018 101.013C69.3631 103.203 70.1421 105.777 70.1401 108.41C70.1401 110.157 69.7958 111.888 69.1267 113.502C68.4577 115.116 67.4772 116.583 66.2411 117.818C65.005 119.053 63.5376 120.033 61.9229 120.7C60.3081 121.368 58.5775 121.711 56.8301 121.71Z" fill="#D2E3F3"/>
<path d="M62.3101 81.0998H51.3501L51.9601 73.3398H61.7001L62.3101 81.0998Z" fill="#D2E3F3"/>
<path d="M41.4501 84.7902L33.7101 92.5402L28.6501 86.6302L35.5401 79.7402L41.4501 84.7902Z" fill="#D2E3F3"/>
<path d="M29.3201 102.149V113.109L21.5601 112.499V102.759L29.3201 102.149Z" fill="#D2E3F3"/>
<path d="M33.0102 123L40.7602 130.75L34.8402 135.81L27.9502 128.92L33.0102 123Z" fill="#D2E3F3"/>
<path d="M50.3701 135.14H61.3201L60.7201 142.9H50.9701L50.3701 135.14Z" fill="#D2E3F3"/>
<path d="M71.2202 131.45L78.9702 123.7L84.0302 129.62L77.1302 136.51L71.2202 131.45Z" fill="#D2E3F3"/>
<path d="M83.3601 114.09V103.14L91.1101 103.74V113.49L83.3601 114.09Z" fill="#D2E3F3"/>
<path d="M79.6702 93.2399L71.9202 85.4899L77.8302 80.4299L84.7202 87.3299L79.6702 93.2399Z" fill="#D2E3F3"/>
<path d="M410 233.56C404.365 233.56 398.857 235.23 394.172 238.361C389.487 241.492 385.835 245.941 383.679 251.147C381.523 256.353 380.958 262.081 382.058 267.608C383.157 273.134 385.87 278.211 389.855 282.195C393.839 286.179 398.916 288.893 404.442 289.992C409.969 291.091 415.697 290.527 420.903 288.371C426.109 286.215 430.558 282.563 433.689 277.878C436.819 273.193 438.49 267.684 438.49 262.05C438.492 258.308 437.756 254.603 436.324 251.145C434.893 247.688 432.794 244.547 430.149 241.901C427.503 239.255 424.362 237.157 420.904 235.726C417.447 234.294 413.742 233.558 410 233.56ZM410 275.35C407.367 275.35 404.794 274.569 402.605 273.106C400.416 271.643 398.71 269.563 397.702 267.131C396.695 264.698 396.432 262.021 396.947 259.439C397.461 256.857 398.73 254.485 400.592 252.624C402.455 250.763 404.827 249.497 407.41 248.984C409.992 248.472 412.669 248.737 415.101 249.746C417.533 250.755 419.611 252.462 421.072 254.652C422.533 256.842 423.312 259.417 423.31 262.05C423.31 263.797 422.966 265.527 422.297 267.142C421.628 268.756 420.647 270.222 419.411 271.458C418.175 272.693 416.708 273.672 415.093 274.34C413.478 275.008 411.748 275.351 410 275.35Z" fill="#D2E3F3"/>
<path d="M415.43 234.74H404.47L405.08 226.979H414.82L415.43 234.74Z" fill="#D2E3F3"/>
<path d="M394.57 238.43L386.82 246.18L381.77 240.26L388.66 233.37L394.57 238.43Z" fill="#D2E3F3"/>
<path d="M382.44 255.79V266.74L374.68 266.14V256.39L382.44 255.79Z" fill="#D2E3F3"/>
<path d="M386.13 276.64L393.88 284.39L387.96 289.44L381.07 282.55L386.13 276.64Z" fill="#D2E3F3"/>
<path d="M403.49 288.78H414.44L413.84 296.53H404.09L403.49 288.78Z" fill="#D2E3F3"/>
<path d="M424.34 285.09L432.09 277.34L437.14 283.25L430.25 290.14L424.34 285.09Z" fill="#D2E3F3"/>
<path d="M436.48 267.73V256.77L444.23 257.38V267.12L436.48 267.73Z" fill="#D2E3F3"/>
<path d="M432.79 246.87L425.04 239.13L430.95 234.07L437.84 240.96L432.79 246.87Z" fill="#D2E3F3"/>
<path d="M317.37 104.59H315.87V103.59H316.37V103.09H317.37V104.59Z" fill="#D2E3F3"/>
<path d="M313.87 104.59H311.87V103.59H313.87V104.59ZM309.87 104.59H307.87V103.59H309.87V104.59ZM305.87 104.59H303.87V103.59H305.87V104.59ZM301.87 104.59H299.87V103.59H301.87V104.59ZM297.87 104.59H295.87V103.59H297.87V104.59ZM293.87 104.59H291.87V103.59H293.87V104.59ZM289.87 104.59H287.87V103.59H289.87V104.59ZM285.87 104.59H283.87V103.59H285.87V104.59ZM281.87 104.59H279.87V103.59H281.87V104.59ZM277.87 104.59H275.87V103.59H277.87V104.59ZM273.87 104.59H271.87V103.59H273.87V104.59ZM269.87 104.59H267.87V103.59H269.87V104.59ZM265.87 104.59H263.87V103.59H265.87V104.59ZM261.87 104.59H259.87V103.59H261.87V104.59ZM257.87 104.59H255.87V103.59H257.87V104.59ZM253.87 104.59H251.87V103.59H253.87V104.59ZM249.87 104.59H247.87V103.59H249.87V104.59Z" fill="#D2E3F3"/>
<path d="M245.92 104.59H244.42V103.09H245.42V103.59H245.92V104.59Z" fill="#D2E3F3"/>
<path d="M245.42 101.09H244.42V99.0898H245.42V101.09ZM245.42 97.0898H244.42V95.0898H245.42V97.0898ZM245.42 93.0898H244.42V91.0898H245.42V93.0898ZM245.42 89.0898H244.42V87.0898H245.42V89.0898ZM245.42 85.0898H244.42V83.0898H245.42V85.0898ZM245.42 81.0898H244.42V79.0898H245.42V81.0898ZM245.42 77.0898H244.42V75.0898H245.42V77.0898ZM245.42 73.0898H244.42V71.0898H245.42V73.0898ZM245.42 69.0898H244.42V67.0898H245.42V69.0898ZM245.42 65.0898H244.42V63.0898H245.42V65.0898ZM245.42 61.0898H244.42V59.0898H245.42V61.0898ZM245.42 57.0898H244.42V55.0898H245.42V57.0898ZM245.42 53.0898H244.42V51.0898H245.42V53.0898ZM245.42 49.0898H244.42V47.0898H245.42V49.0898ZM245.42 45.0898H244.42V43.0898H245.42V45.0898ZM245.42 41.0898H244.42V39.0898H245.42V41.0898ZM245.42 37.0898H244.42V35.0898H245.42V37.0898Z" fill="#D2E3F3"/>
<path d="M245.42 33.1494H244.42V31.6494H245.92V32.6494H245.42V33.1494Z" fill="#D2E3F3"/>
<path d="M313.87 32.6494H311.87V31.6494H313.87V32.6494ZM309.87 32.6494H307.87V31.6494H309.87V32.6494ZM305.87 32.6494H303.87V31.6494H305.87V32.6494ZM301.87 32.6494H299.87V31.6494H301.87V32.6494ZM297.87 32.6494H295.87V31.6494H297.87V32.6494ZM293.87 32.6494H291.87V31.6494H293.87V32.6494ZM289.87 32.6494H287.87V31.6494H289.87V32.6494ZM285.87 32.6494H283.87V31.6494H285.87V32.6494ZM281.87 32.6494H279.87V31.6494H281.87V32.6494ZM277.87 32.6494H275.87V31.6494H277.87V32.6494ZM273.87 32.6494H271.87V31.6494H273.87V32.6494ZM269.87 32.6494H267.87V31.6494H269.87V32.6494ZM265.87 32.6494H263.87V31.6494H265.87V32.6494ZM261.87 32.6494H259.87V31.6494H261.87V32.6494ZM257.87 32.6494H255.87V31.6494H257.87V32.6494ZM253.87 32.6494H251.87V31.6494H253.87V32.6494ZM249.87 32.6494H247.87V31.6494H249.87V32.6494Z" fill="#D2E3F3"/>
<path d="M317.37 33.1494H316.37V32.6494H315.87V31.6494H317.37V33.1494Z" fill="#D2E3F3"/>
<path d="M317.36 101.09H316.36V99.0898H317.36V101.09ZM317.36 97.0898H316.36V95.0898H317.36V97.0898ZM317.36 93.0898H316.36V91.0898H317.36V93.0898ZM317.36 89.0898H316.36V87.0898H317.36V89.0898ZM317.36 85.0898H316.36V83.0898H317.36V85.0898ZM317.36 81.0898H316.36V79.0898H317.36V81.0898ZM317.36 77.0898H316.36V75.0898H317.36V77.0898ZM317.36 73.0898H316.36V71.0898H317.36V73.0898ZM317.36 69.0898H316.36V67.0898H317.36V69.0898ZM317.36 65.0898H316.36V63.0898H317.36V65.0898ZM317.36 61.0898H316.36V59.0898H317.36V61.0898ZM317.36 57.0898H316.36V55.0898H317.36V57.0898ZM317.36 53.0898H316.36V51.0898H317.36V53.0898ZM317.36 49.0898H316.36V47.0898H317.36V49.0898ZM317.36 45.0898H316.36V43.0898H317.36V45.0898ZM317.36 41.0898H316.36V39.0898H317.36V41.0898ZM317.36 37.0898H316.36V35.0898H317.36V37.0898Z" fill="#D2E3F3"/>
<path d="M249.41 99.6104H240.44V108.58H249.41V99.6104Z" fill="white"/>
<path d="M249.9 109.07H239.9V99.0703H249.9V109.07ZM240.9 108.07H248.9V100.07H240.9V108.07Z" fill="#D2E3F3"/>
<path d="M249.45 63.6399H240.48V72.6099H249.45V63.6399Z" fill="white"/>
<path d="M249.9 73.0996H239.9V63.0996H249.9V73.0996ZM240.9 72.0996H248.9V64.0996H240.9V72.0996Z" fill="#D2E3F3"/>
<path d="M249.45 27.6602H240.48V36.6302H249.45V27.6602Z" fill="white"/>
<path d="M249.9 37.1299H239.9V27.1299H249.9V37.1299ZM240.9 36.1299H248.9V28.1299H240.9V36.1299Z" fill="#D2E3F3"/>
<path d="M321.39 99.6104H312.42V108.58H321.39V99.6104Z" fill="white"/>
<path d="M321.85 109.07H311.85V99.0703H321.85V109.07ZM312.85 108.07H320.85V100.07H312.85V108.07Z" fill="#D2E3F3"/>
<path d="M321.39 63.6399H312.42V72.6099H321.39V63.6399Z" fill="white"/>
<path d="M321.85 73.0996H311.85V63.0996H321.85V73.0996ZM312.85 72.0996H320.85V64.0996H312.85V72.0996Z" fill="#D2E3F3"/>
<path d="M321.39 27.6602H312.42V36.6302H321.39V27.6602Z" fill="white"/>
<path d="M321.85 37.1299H311.85V27.1299H321.85V37.1299ZM312.85 36.1299H320.85V28.1299H312.85V36.1299Z" fill="#D2E3F3"/>
<path d="M285.42 27.6602H276.45V36.6302H285.42V27.6602Z" fill="white"/>
<path d="M285.88 37.1299H275.88V27.1299H285.88V37.1299ZM276.88 36.1299H284.88V28.1299H276.88V36.1299Z" fill="#D2E3F3"/>
<path d="M285.38 99.6104H276.41V108.58H285.38V99.6104Z" fill="white"/>
<path d="M285.88 109.07H275.88V99.0703H285.88V109.07ZM276.88 108.07H284.88V100.07H276.88V108.07Z" fill="#D2E3F3"/>
<path d="M93.3 371.18H91.8V370.18H92.3V369.68H93.3V371.18Z" fill="#D2E3F3"/>
<path d="M89.8101 371.18H87.8101V370.18H89.8101V371.18ZM85.8101 371.18H83.8101V370.18H85.8101V371.18ZM81.8101 371.18H79.8101V370.18H81.8101V371.18ZM77.8101 371.18H75.8101V370.18H77.8101V371.18ZM73.8101 371.18H71.8101V370.18H73.8101V371.18ZM69.8101 371.18H67.8101V370.18H69.8101V371.18ZM65.8101 371.18H63.8101V370.18H65.8101V371.18ZM61.8101 371.18H59.8101V370.18H61.8101V371.18ZM57.8101 371.18H55.8101V370.18H57.8101V371.18ZM53.8101 371.18H51.8101V370.18H53.8101V371.18ZM49.8101 371.18H47.8101V370.18H49.8101V371.18ZM45.8101 371.18H43.8101V370.18H45.8101V371.18ZM41.8101 371.18H39.8101V370.18H41.8101V371.18ZM37.8101 371.18H35.8101V370.18H37.8101V371.18ZM33.8101 371.18H31.8101V370.18H33.8101V371.18ZM29.8101 371.18H27.8101V370.18H29.8101V371.18ZM25.8101 371.18H23.8101V370.18H25.8101V371.18Z" fill="#D2E3F3"/>
<path d="M21.8601 371.18H20.3601V369.68H21.3601V370.18H21.8601V371.18Z" fill="#D2E3F3"/>
<path d="M21.3601 367.68H20.3601V365.68H21.3601V367.68ZM21.3601 363.68H20.3601V361.68H21.3601V363.68ZM21.3601 359.68H20.3601V357.68H21.3601V359.68ZM21.3601 355.68H20.3601V353.68H21.3601V355.68ZM21.3601 351.68H20.3601V349.68H21.3601V351.68ZM21.3601 347.68H20.3601V345.68H21.3601V347.68ZM21.3601 343.68H20.3601V341.68H21.3601V343.68ZM21.3601 339.68H20.3601V337.68H21.3601V339.68ZM21.3601 335.68H20.3601V333.68H21.3601V335.68ZM21.3601 331.68H20.3601V329.68H21.3601V331.68ZM21.3601 327.68H20.3601V325.68H21.3601V327.68ZM21.3601 323.68H20.3601V321.68H21.3601V323.68ZM21.3601 319.68H20.3601V317.68H21.3601V319.68ZM21.3601 315.68H20.3601V313.68H21.3601V315.68ZM21.3601 311.68H20.3601V309.68H21.3601V311.68ZM21.3601 307.68H20.3601V305.68H21.3601V307.68ZM21.3601 303.68H20.3601V301.68H21.3601V303.68Z" fill="#D2E3F3"/>
<path d="M21.3601 299.729H20.3601V298.229H21.8601V299.229H21.3601V299.729Z" fill="#D2E3F3"/>
<path d="M89.8101 299.229H87.8101V298.229H89.8101V299.229ZM85.8101 299.229H83.8101V298.229H85.8101V299.229ZM81.8101 299.229H79.8101V298.229H81.8101V299.229ZM77.8101 299.229H75.8101V298.229H77.8101V299.229ZM73.8101 299.229H71.8101V298.229H73.8101V299.229ZM69.8101 299.229H67.8101V298.229H69.8101V299.229ZM65.8101 299.229H63.8101V298.229H65.8101V299.229ZM61.8101 299.229H59.8101V298.229H61.8101V299.229ZM57.8101 299.229H55.8101V298.229H57.8101V299.229ZM53.8101 299.229H51.8101V298.229H53.8101V299.229ZM49.8101 299.229H47.8101V298.229H49.8101V299.229ZM45.8101 299.229H43.8101V298.229H45.8101V299.229ZM41.8101 299.229H39.8101V298.229H41.8101V299.229ZM37.8101 299.229H35.8101V298.229H37.8101V299.229ZM33.8101 299.229H31.8101V298.229H33.8101V299.229ZM29.8101 299.229H27.8101V298.229H29.8101V299.229ZM25.8101 299.229H23.8101V298.229H25.8101V299.229Z" fill="#D2E3F3"/>
<path d="M93.3 299.729H92.3V299.229H91.8V298.229H93.3V299.729Z" fill="#D2E3F3"/>
<path d="M93.3 367.68H92.3V365.68H93.3V367.68ZM93.3 363.68H92.3V361.68H93.3V363.68ZM93.3 359.68H92.3V357.68H93.3V359.68ZM93.3 355.68H92.3V353.68H93.3V355.68ZM93.3 351.68H92.3V349.68H93.3V351.68ZM93.3 347.68H92.3V345.68H93.3V347.68ZM93.3 343.68H92.3V341.68H93.3V343.68ZM93.3 339.68H92.3V337.68H93.3V339.68ZM93.3 335.68H92.3V333.68H93.3V335.68ZM93.3 331.68H92.3V329.68H93.3V331.68ZM93.3 327.68H92.3V325.68H93.3V327.68ZM93.3 323.68H92.3V321.68H93.3V323.68ZM93.3 319.68H92.3V317.68H93.3V319.68ZM93.3 315.68H92.3V313.68H93.3V315.68ZM93.3 311.68H92.3V309.68H93.3V311.68ZM93.3 307.68H92.3V305.68H93.3V307.68ZM93.3 303.68H92.3V301.68H93.3V303.68Z" fill="#D2E3F3"/>
<path d="M25.3501 366.189H16.3801V375.159H25.3501V366.189Z" fill="white"/>
<path d="M25.8401 375.66H15.8401V365.66H25.8401V375.66ZM16.8401 374.66H24.8401V366.66H16.8401V374.66Z" fill="#D2E3F3"/>
<path d="M25.3802 330.22H16.4102V339.19H25.3802V330.22Z" fill="white"/>
<path d="M25.8401 339.689H15.8401V329.689H25.8401V339.689ZM16.8401 338.689H24.8401V330.689H16.8401V338.689Z" fill="#D2E3F3"/>
<path d="M25.3802 294.25H16.4102V303.22H25.3802V294.25Z" fill="white"/>
<path d="M25.8401 303.71H15.8401V293.71H25.8401V303.71ZM16.8401 302.71H24.8401V294.71H16.8401V302.71Z" fill="#D2E3F3"/>
<path d="M97.3301 366.189H88.3601V375.159H97.3301V366.189Z" fill="white"/>
<path d="M97.79 375.66H87.79V365.66H97.79V375.66ZM88.79 374.66H96.79V366.66H88.79V374.66Z" fill="#D2E3F3"/>
<path d="M97.3301 330.22H88.3601V339.19H97.3301V330.22Z" fill="white"/>
<path d="M97.79 339.689H87.79V329.689H97.79V339.689ZM88.79 338.689H96.79V330.689H88.79V338.689Z" fill="#D2E3F3"/>
<path d="M97.3301 294.25H88.3601V303.22H97.3301V294.25Z" fill="white"/>
<path d="M97.79 303.71H87.79V293.71H97.79V303.71ZM88.79 302.71H96.79V294.71H88.79V302.71Z" fill="#D2E3F3"/>
<path d="M61.3601 294.25H52.3901V303.22H61.3601V294.25Z" fill="white"/>
<path d="M61.8101 303.71H51.8101V293.71H61.8101V303.71ZM52.8101 302.71H60.8101V294.71H52.8101V302.71Z" fill="#D2E3F3"/>
<path d="M61.3201 366.189H52.3501V375.159H61.3201V366.189Z" fill="white"/>
<path d="M61.8101 375.66H51.8101V365.66H61.8101V375.66ZM52.8101 374.66H60.8101V366.66H52.8101V374.66Z" fill="#D2E3F3"/>
<path d="M226 460.97C338.114 460.97 429 452.365 429 441.75C429 431.135 338.114 422.53 226 422.53C113.886 422.53 23 431.135 23 441.75C23 452.365 113.886 460.97 226 460.97Z" fill="#D2E3F3"/>
<path d="M63.93 278.82C64.7645 284.595 64.4656 290.478 63.05 296.14C62.385 298.764 61.4985 301.326 60.4 303.8C59.02 306.97 57.58 310.07 57.93 313.54C58.26 313.76 57.11 313.72 57.07 313.39C47.81 308.11 35.92 307.14 28.79 298.51C25.41 294.43 23.7 289.25 22.9 284.07C22.02 278.43 21.78 272.19 23.23 266.63C24.46 261.93 27.23 257.39 31.62 255.09C36.01 252.79 42.15 252.91 46.96 254.4C57.31 257.62 62.46 268.8 63.93 278.82Z" fill="#147BDA"/>
<path d="M68.6899 347.43C67.4199 343.21 66.1599 339 64.8599 334.79C62.3199 326.55 59.6699 318.35 56.7499 310.24C54.9899 305.413 53.1399 300.6 51.1999 295.8C51.4122 292.783 51.7794 289.779 52.2999 286.8C53.0799 283.21 54.2099 279.74 55.2999 276.22C55.3699 276.01 55.0199 275.89 54.9299 276.1C52.8499 280.94 50.1299 287.1 50.0599 292.88C47.7999 287.487 45.3732 282.17 42.7799 276.93C42.4821 272.501 42.6194 268.053 43.1899 263.65C43.1899 263.45 42.9099 263.39 42.8799 263.59C42.0857 267.443 41.78 271.381 41.9699 275.31C39.9699 271.38 37.8799 267.5 35.6399 263.67C35.4399 263.32 34.9699 263.67 35.1399 264.02C38.6299 270.72 41.8599 277.57 44.8899 284.51C40.6195 280.814 35.6899 277.958 30.3599 276.09C30.1299 276.01 29.9499 276.35 30.1899 276.44C36.0064 278.944 41.3272 282.469 45.8999 286.85C48.0799 291.93 50.1565 297.05 52.1299 302.21C46.3299 296.53 38.3999 292.79 30.7199 290.78C30.4599 290.71 30.3899 291.11 30.6399 291.19C39.5299 293.87 46.4299 298.9 53.1799 304.95C53.9732 307.037 54.7432 309.13 55.4899 311.23C58.3632 319.17 61.0899 327.17 63.6699 335.23C64.8899 339.077 66.0999 342.937 67.2999 346.81C68.5999 350.96 69.6099 355.35 71.2999 359.37C71.4599 359.75 72.1499 359.66 72.0599 359.2C71.1353 355.223 70.0106 351.294 68.6899 347.43Z" fill="#11111B"/>
<path d="M53.31 270.7C51.6783 273.226 50.5541 276.045 50 279C50 279.08 50.11 279.13 50.14 279.05C51.1714 276.256 52.3806 273.53 53.76 270.89C53.87 270.63 53.47 270.46 53.31 270.7Z" fill="#11111B"/>
<path d="M36.78 290C34.201 288.567 31.3811 287.618 28.46 287.2C28.447 287.205 28.4359 287.214 28.4281 287.226C28.4202 287.238 28.416 287.251 28.416 287.265C28.416 287.279 28.4202 287.293 28.4281 287.304C28.4359 287.316 28.447 287.325 28.46 287.33C29.79 287.88 31.2 288.27 32.55 288.79C33.9 289.31 35.24 289.95 36.61 290.43C36.6622 290.436 36.7147 290.424 36.7595 290.397C36.8043 290.37 36.839 290.328 36.8583 290.28C36.8776 290.231 36.8804 290.177 36.8662 290.127C36.8521 290.076 36.8218 290.032 36.78 290Z" fill="#11111B"/>
<path d="M32.1199 266.79C31.2829 266.15 30.3853 265.594 29.4399 265.13C29.4241 265.12 29.4066 265.113 29.3883 265.11C29.3699 265.107 29.3512 265.108 29.3331 265.112C29.2965 265.12 29.2648 265.143 29.2449 265.175C29.225 265.206 29.2186 265.245 29.227 265.281C29.2355 265.318 29.2581 265.35 29.2899 265.37C30.1137 266.022 30.9977 266.595 31.9299 267.08C32.0999 267.18 32.2899 266.9 32.1199 266.79Z" fill="#11111B"/>
<path d="M95.1801 310.299C88.5001 312.299 81.7901 314.109 75.1201 316.069C74.5401 316.239 63.2501 294.619 67.3301 283.479C71.1001 273.169 79.7301 265.479 90.0201 261.949C94.7901 260.329 100.65 258.949 105.68 260.079C110.16 261.079 113.32 264.739 114.78 268.949C116.78 274.669 116.1 281.499 115.02 287.339C114.161 292.822 111.897 297.99 108.45 302.339C104.9 306.559 100.38 308.749 95.1801 310.299Z" fill="#147BDA"/>
<path d="M104.85 289.749C100.629 291.807 96.2519 293.529 91.76 294.899C88.7657 295.703 85.8452 296.761 83.03 298.059C85.85 291.779 88.94 285.619 92.22 279.529C96.54 278.279 101.07 276.329 104.32 273.279C104.357 273.248 104.38 273.202 104.384 273.154C104.388 273.105 104.372 273.057 104.34 273.019C104.308 272.982 104.263 272.959 104.214 272.956C104.165 272.952 104.117 272.968 104.08 272.999C100.52 275.509 96.6 276.999 92.67 278.719C93.55 277.079 94.4467 275.443 95.36 273.809C95.62 273.349 94.99 272.899 94.68 273.339C91.1779 278.438 88.0112 283.759 85.2 289.269C84.4848 284.441 84.2536 279.554 84.51 274.679C84.5035 274.659 84.4907 274.642 84.4737 274.63C84.4566 274.617 84.4361 274.611 84.415 274.611C84.394 274.611 84.3735 274.617 84.3564 274.63C84.3393 274.642 84.3266 274.659 84.32 274.679C83.4875 279.985 83.5416 285.392 84.48 290.679C82.14 295.349 80.01 300.139 78.09 304.989C77.33 302.069 76.34 299.209 75.68 296.269C74.6588 292.068 74.3211 287.729 74.68 283.419C74.68 283.289 74.51 283.289 74.49 283.419C73.3087 291.392 74.2753 299.535 77.29 307.009C76.17 309.919 75.11 312.849 74.14 315.789C69.1064 330.755 66.1259 346.333 65.28 362.099C65.28 362.174 65.3095 362.245 65.362 362.297C65.4145 362.35 65.4858 362.379 65.56 362.379C65.6343 362.379 65.7055 362.35 65.758 362.297C65.8105 362.245 65.84 362.174 65.84 362.099C67.6041 346.542 70.9549 331.205 75.84 316.329C77.77 310.509 80 304.859 82.45 299.329C86.39 298.159 90.32 296.579 94.19 295.239C98.06 293.899 101.84 292.419 105.01 289.929C105.13 289.879 105 289.679 104.85 289.749Z" fill="#11111B"/>
<path d="M111.08 283.46C107 284.92 103.08 286.95 99.08 288.46C98.89 288.53 99 288.83 99.19 288.79C103.51 287.9 107.79 286.57 111.26 283.74C111.37 283.59 111.22 283.41 111.08 283.46Z" fill="#11111B"/>
<path d="M77.7401 274.66C77.7901 274.44 77.4701 274.32 77.4101 274.54C76.2901 278.3 75.5201 282.29 76.6101 286.14C76.6101 286.29 76.8901 286.3 76.8901 286.14C77.0901 282.25 76.8701 278.48 77.7401 274.66Z" fill="#11111B"/>
<path d="M94.61 266C93.3082 267.869 92.6838 270.127 92.8399 272.4C92.8399 272.55 93.07 272.63 93.11 272.46C93.61 270.31 94.44 268.34 95.11 266.25C95.138 266.184 95.14 266.11 95.1154 266.043C95.0909 265.976 95.0416 265.921 94.9778 265.889C94.9139 265.857 94.8403 265.851 94.7719 265.871C94.7035 265.892 94.6456 265.938 94.61 266Z" fill="#11111B"/>
<path d="M15.77 319.84C17.77 326.05 22.38 334.63 29.77 334.7C34.55 334.75 39.36 334.18 44.14 334.11C49.27 334.03 54.4 334.05 59.52 334.35C59.93 334.35 58.9 319 46.58 311.52C43.13 309.42 38.91 308.76 35 307.91C30.5168 306.85 25.9154 306.372 21.31 306.49C18.48 306.6 16.13 307.2 15.12 310.1C14.11 313 14.83 316.88 15.77 319.84Z" fill="#147BDA"/>
<path d="M21.0699 312.06C24.0699 312.83 27.0699 313.72 30.0699 314.67C29.2883 313.819 28.4604 313.011 27.5899 312.25C26.2999 311.18 24.8799 310.32 23.4899 309.38C23.3799 309.3 23.4899 309.08 23.5899 309.14C26.509 310.344 29.029 312.347 30.8599 314.92C34.5999 316.13 38.3099 317.46 41.8599 318.92C44.3077 319.931 46.652 321.177 48.8599 322.64C48.1477 321.085 47.2941 319.599 46.3099 318.2C44.6799 316.08 42.4699 314.9 40.3099 313.39C40.2832 313.381 40.2589 313.366 40.2388 313.346C40.2186 313.326 40.2032 313.302 40.1935 313.276C40.1837 313.249 40.1801 313.221 40.1827 313.193C40.1853 313.165 40.1941 313.138 40.2085 313.114C40.2229 313.089 40.2425 313.069 40.2659 313.053C40.2893 313.037 40.316 313.027 40.3439 313.023C40.3718 313.018 40.4002 313.021 40.4272 313.029C40.4542 313.037 40.479 313.051 40.4999 313.07C42.7377 314.04 44.7479 315.467 46.4012 317.259C48.0546 319.052 49.3144 321.171 50.0999 323.48C52.6684 325.322 55.0171 327.453 57.0999 329.83C65.2499 339.08 71.6699 351.4 71.6899 363.96C71.6899 364.26 71.2099 364.35 71.1499 364.04C69.0631 351.719 63.695 340.188 55.6099 330.66C55.0299 329.98 54.4299 329.33 53.8199 328.66C51.5881 328.363 49.341 328.196 47.0899 328.16C44.4599 328.16 41.8599 328.55 39.2499 328.76C34.9499 329.11 30.1999 329.16 26.3199 327C26.1499 326.9 26.2599 326.6 26.4599 326.67C35.0999 329.82 44.1699 325.83 52.8399 327.67C49.1374 324.142 44.8012 321.347 40.0599 319.43L39.2599 319.11C33.7099 319.78 27.8499 321.22 22.4499 319.42C22.4184 319.409 22.3922 319.387 22.3767 319.358C22.3612 319.328 22.3575 319.294 22.3665 319.262C22.3755 319.23 22.3964 319.203 22.4249 319.185C22.4534 319.168 22.4874 319.163 22.5199 319.17C27.7399 320.47 32.7499 318.83 37.8999 318.57C32.2899 316.38 26.5699 314.65 20.8999 312.48C20.5699 312.36 20.5599 311.93 21.0699 312.06Z" fill="#11111B"/>
<path d="M18.62 317.529C21.3004 317.877 23.9976 318.081 26.7 318.139C26.76 318.139 26.78 318.239 26.7 318.249C23.9821 318.754 21.1816 318.575 18.55 317.729C18.5368 317.725 18.5247 317.718 18.5143 317.708C18.504 317.699 18.4955 317.688 18.4895 317.675C18.4835 317.663 18.4799 317.649 18.4792 317.635C18.4784 317.621 18.4804 317.608 18.485 317.594C18.4895 317.581 18.4967 317.569 18.506 317.559C18.5152 317.548 18.5265 317.54 18.539 317.534C18.5515 317.528 18.5651 317.524 18.579 317.524C18.5929 317.523 18.6068 317.525 18.62 317.529Z" fill="#11111B"/>
<path d="M36.8599 312.199C38.3549 312.869 39.7115 313.812 40.8599 314.979C40.9999 315.099 40.8599 315.359 40.6599 315.239C39.9799 314.749 39.2799 314.239 38.5799 313.829C37.9097 313.452 37.2589 313.042 36.6299 312.599C36.5936 312.562 36.5705 312.514 36.5641 312.462C36.5577 312.41 36.5682 312.358 36.5942 312.313C36.6202 312.268 36.6602 312.232 36.7081 312.212C36.756 312.191 36.8093 312.187 36.8599 312.199Z" fill="#11111B"/>
<path d="M80.3501 332.2C80.2601 332.4 80.5601 332.59 80.6701 332.38C80.7162 332.442 80.784 332.485 80.8601 332.5C85.8017 333.682 90.8111 334.56 95.8601 335.13C99.9301 335.49 104.63 335.71 108.19 333.35C113.02 330.15 116.19 321.58 113.59 316.14C110.5 309.68 101.19 313.19 96.5201 315.49C89.3449 319.001 83.6244 324.913 80.3501 332.2Z" fill="#147BDA"/>
<path d="M76.74 335.18C79.4607 332.554 82.4816 330.258 85.74 328.34C88.0809 324.633 91.1869 321.469 94.85 319.06C95.02 318.94 95.17 319.22 95.01 319.34C92.0977 321.672 89.5172 324.39 87.34 327.42C90.9649 325.434 94.7318 323.719 98.61 322.29C99.9935 319.721 102.096 317.612 104.66 316.22C104.66 316.22 104.78 316.22 104.73 316.31C102.608 317.915 100.761 319.853 99.26 322.05C101.55 321.19 103.86 320.39 106.17 319.63C106.38 319.56 106.46 319.88 106.26 319.95C102.15 321.56 97.94 323.26 93.86 325.21C98.829 325.997 103.891 325.997 108.86 325.21C109 325.21 109.06 325.38 108.92 325.42C103.728 326.953 98.2157 327.036 92.98 325.66C90.3831 326.921 87.8622 328.334 85.43 329.89C87.477 329.724 89.5374 329.893 91.53 330.39C95.051 331.209 98.655 331.619 102.27 331.61C102.4 331.61 102.44 331.83 102.27 331.85C96.04 332.92 90.16 330.09 83.98 330.85C81.7088 332.379 79.5741 334.102 77.6 336C73.7501 339.846 70.5787 344.316 68.22 349.22C65.62 354.51 64.22 360.12 62.11 365.58C62.0901 365.623 62.0551 365.658 62.0115 365.678C61.968 365.698 61.9187 365.702 61.8727 365.688C61.8266 365.675 61.7869 365.646 61.7607 365.606C61.7346 365.565 61.7237 365.517 61.73 365.47C63.53 354.74 68.89 342.86 76.74 335.18Z" fill="#11111B"/>
<path d="M95.5199 320.41C95.9342 319.676 96.476 319.023 97.1199 318.48C97.656 317.908 98.2934 317.44 98.9999 317.1C99.0599 317.1 99.0899 317.16 99.0599 317.2C98.5499 317.78 97.8399 318.2 97.2799 318.76C96.7199 319.32 96.2799 319.97 95.7099 320.52C95.6953 320.545 95.6713 320.563 95.6432 320.571C95.6151 320.578 95.5851 320.574 95.5599 320.56C95.5347 320.545 95.5163 320.521 95.5088 320.493C95.5013 320.465 95.5053 320.435 95.5199 320.41Z" fill="#11111B"/>
<path d="M105.79 323.75C106.72 323.52 107.69 323.54 108.63 323.35C109.57 323.16 110.47 322.81 111.39 322.52C111.51 322.52 111.58 322.66 111.47 322.73C109.769 323.772 107.775 324.232 105.79 324.04C105.758 324.031 105.73 324.012 105.71 323.986C105.689 323.96 105.678 323.928 105.678 323.895C105.678 323.862 105.689 323.83 105.71 323.803C105.73 323.777 105.758 323.758 105.79 323.75Z" fill="#11111B"/>
<path d="M51.0801 352.24L51.9001 361.52L54.6701 392.86H79.2201L82.6801 361.52L83.7101 352.24H51.0801Z" fill="#455A64"/>
<path d="M51.0801 352.24L51.9001 361.52H82.6801L83.7101 352.24H51.0801Z" fill="#11111B"/>
<path d="M48.6501 357.24H86.1401V349.71H48.6501V357.24Z" fill="#455A64"/>
<path d="M12.47 392.86L65.85 392.62L119.23 392.53L226 392.37L332.77 392.53L386.15 392.62L439.53 392.86L386.15 393.11L332.77 393.2L226 393.36L119.23 393.19L65.85 393.11L12.47 392.86Z" fill="#11111B"/>
<path d="M264.89 57.7803H95.83C93.5634 57.8012 91.323 58.2684 89.2369 59.1551C87.1509 60.0419 85.2599 61.3309 83.672 62.9485C82.0841 64.5661 80.8304 66.4807 79.9824 68.5829C79.1345 70.685 78.7089 72.9336 78.73 75.2003V423.2C78.69 427.777 80.4686 432.183 83.6749 435.449C86.8813 438.715 91.2531 440.575 95.83 440.62H264.89C269.465 440.573 273.835 438.714 277.042 435.45C280.249 432.187 282.032 427.786 282 423.21V75.2003C282.037 70.6224 280.257 66.2169 277.049 62.9508C273.841 59.6848 269.468 57.8252 264.89 57.7803ZM271.31 412.45C271.31 421.61 264.45 429.02 255.99 429.02H104.75C96.27 429.02 89.41 421.61 89.41 412.45V88.3903C89.41 69.7303 96.27 68.8203 104.75 68.8203H135.05C136.81 68.8203 138.25 70.8203 138.25 73.3003V74.3703C138.25 80.1803 141.43 80.2003 145.33 80.2003H215.39C219.33 80.2003 222.49 80.2003 222.49 74.3703V73.3003C222.49 70.8203 223.91 68.8203 225.7 68.8203H256C264.46 68.8203 271.32 71.3003 271.32 88.3903L271.31 412.45Z" fill="#11111B"/>
<path d="M271.31 88.3903V412.45C271.31 421.61 264.45 429.02 255.99 429.02H104.75C96.2699 429.02 89.4099 421.61 89.4099 412.45V88.3903C89.4099 69.7303 96.2699 68.8203 104.75 68.8203H135.05C136.81 68.8203 138.25 70.8203 138.25 73.3003V74.3703C138.25 80.1803 141.43 80.2003 145.33 80.2003H215.39C219.33 80.2003 222.49 80.2003 222.49 74.3703V73.3003C222.49 70.8203 223.91 68.8203 225.7 68.8203H256C264.45 68.8203 271.31 71.3003 271.31 88.3903Z" fill="white"/>
<path d="M271.31 88.3903V113.89H89.4099V88.3903C89.4099 69.7303 96.2699 68.8203 104.75 68.8203H135.05C136.81 68.8203 138.25 70.8203 138.25 73.3003V74.3703C138.25 80.1803 141.43 80.2003 145.33 80.2003H215.39C219.33 80.2003 222.49 80.2003 222.49 74.3703V73.3003C222.49 70.8203 223.91 68.8203 225.7 68.8203H256C264.45 68.8203 271.31 71.3003 271.31 88.3903Z" fill="#147BDA"/>
<path d="M129.81 76.1003C129.72 76.2003 129.62 76.2903 129.52 76.3903L129.36 76.5603C128.61 75.8122 127.594 75.3921 126.535 75.3921C125.476 75.3921 124.46 75.8122 123.71 76.5603C123.66 76.5603 123.61 76.4503 123.55 76.4003L123.27 76.1103C123.39 76.0003 123.51 75.8803 123.64 75.7803C123.9 75.5638 124.186 75.3792 124.49 75.2303C124.851 75.0532 125.235 74.9254 125.63 74.8503L126.2 74.7803H126.69H127.08C127.422 74.8217 127.758 74.9057 128.08 75.0303C128.322 75.1164 128.556 75.2235 128.78 75.3503C129.019 75.4872 129.243 75.648 129.45 75.8303L129.76 76.1003H129.81Z" fill="white"/>
<path d="M124.64 77.48C124.49 77.32 124.33 77.17 124.18 77.02C124.676 76.4843 125.339 76.132 126.06 76.02C126.572 75.9467 127.095 75.9935 127.586 76.1566C128.077 76.3197 128.523 76.5948 128.89 76.96L128.43 77.42C127.925 76.9189 127.242 76.6384 126.53 76.64C126.175 76.6467 125.825 76.7245 125.5 76.8688C125.175 77.013 124.883 77.2209 124.64 77.48Z" fill="white"/>
<path d="M128 77.9403L127.54 78.4003C127.41 78.2681 127.254 78.1642 127.082 78.0954C126.91 78.0265 126.725 77.9942 126.54 78.0003C126.355 77.9959 126.171 78.0291 125.999 78.0979C125.827 78.1666 125.671 78.2695 125.54 78.4003L125.09 77.9403C125.277 77.742 125.503 77.5841 125.753 77.4761C126.003 77.3682 126.273 77.3125 126.545 77.3125C126.818 77.3125 127.087 77.3682 127.337 77.4761C127.588 77.5841 127.813 77.742 128 77.9403Z" fill="white"/>
<path d="M127 78.8204C127 78.8751 126.989 78.9292 126.968 78.9796C126.947 79.03 126.916 79.0757 126.876 79.1139C126.837 79.1521 126.791 79.1821 126.74 79.2021C126.689 79.2221 126.635 79.2317 126.58 79.2304C126.471 79.2304 126.367 79.1872 126.29 79.1103C126.213 79.0334 126.17 78.9291 126.17 78.8204C126.169 78.7657 126.178 78.7113 126.198 78.6604C126.218 78.6095 126.248 78.5631 126.287 78.524C126.325 78.4848 126.37 78.4538 126.421 78.4325C126.471 78.4113 126.525 78.4004 126.58 78.4004C126.691 78.4004 126.798 78.4446 126.877 78.5234C126.956 78.6022 127 78.709 127 78.8204Z" fill="white"/>
<path d="M101.27 77.0003C101.268 76.7605 101.337 76.5256 101.469 76.3253C101.601 76.125 101.789 75.9684 102.01 75.8753C102.231 75.7822 102.475 75.7568 102.71 75.8023C102.945 75.8479 103.162 75.9623 103.332 76.1311C103.502 76.3 103.619 76.5155 103.666 76.7505C103.714 76.9855 103.69 77.2293 103.599 77.451C103.508 77.6727 103.353 77.8622 103.153 77.9956C102.954 78.129 102.72 78.2003 102.48 78.2003C102.161 78.2003 101.855 78.0742 101.628 77.8494C101.401 77.6247 101.273 77.3195 101.27 77.0003Z" fill="white"/>
<path d="M105.07 77.0002C105.068 76.7601 105.138 76.5248 105.27 76.3243C105.402 76.1238 105.591 75.9671 105.812 75.8743C106.034 75.7815 106.278 75.7567 106.514 75.803C106.749 75.8494 106.966 75.9649 107.136 76.1347C107.305 76.3045 107.421 76.521 107.467 76.7567C107.514 76.9923 107.489 77.2364 107.396 77.4579C107.303 77.6794 107.147 77.8683 106.946 78.0005C106.746 78.1327 106.51 78.2022 106.27 78.2002C105.953 78.1976 105.649 78.0704 105.424 77.8459C105.2 77.6214 105.073 77.3177 105.07 77.0002Z" fill="white"/>
<path d="M108.86 77.0003C108.858 76.7605 108.927 76.5256 109.059 76.3253C109.191 76.125 109.379 75.9684 109.6 75.8753C109.821 75.7822 110.064 75.7568 110.3 75.8023C110.535 75.8479 110.752 75.9623 110.922 76.1311C111.092 76.3 111.208 76.5155 111.256 76.7505C111.303 76.9855 111.28 77.2293 111.189 77.451C111.097 77.6727 110.942 77.8622 110.743 77.9956C110.544 78.129 110.31 78.2003 110.07 78.2003C109.751 78.2003 109.444 78.0742 109.218 77.8494C108.991 77.6247 108.863 77.3195 108.86 77.0003Z" fill="white"/>
<path d="M112.66 77.0003C112.658 76.7605 112.727 76.5256 112.859 76.3253C112.991 76.125 113.179 75.9684 113.4 75.8753C113.621 75.7822 113.864 75.7568 114.1 75.8023C114.335 75.8479 114.552 75.9623 114.722 76.1311C114.892 76.3 115.008 76.5155 115.056 76.7505C115.103 76.9855 115.08 77.2293 114.989 77.451C114.897 77.6727 114.742 77.8622 114.543 77.9956C114.344 78.129 114.11 78.2003 113.87 78.2003C113.551 78.2003 113.244 78.0742 113.018 77.8494C112.791 77.6247 112.663 77.3195 112.66 77.0003Z" fill="white"/>
<path d="M116.46 77.0002C116.458 76.7601 116.528 76.5248 116.66 76.3243C116.792 76.1238 116.981 75.9671 117.202 75.8743C117.424 75.7815 117.668 75.7567 117.904 75.803C118.139 75.8494 118.356 75.9649 118.526 76.1347C118.695 76.3045 118.811 76.521 118.857 76.7567C118.904 76.9923 118.879 77.2364 118.786 77.4579C118.693 77.6794 118.536 77.8683 118.336 78.0005C118.135 78.1327 117.9 78.2022 117.66 78.2002C117.343 78.1976 117.039 78.0704 116.814 77.8459C116.59 77.6214 116.463 77.3177 116.46 77.0002Z" fill="white"/>
<path d="M257.66 79.6203H247.85V75.0703H257.66V79.6203ZM248.35 79.1203H257.16V75.5703H248.35V79.1203Z" fill="white"/>
<path d="M254.99 75.8398H248.66V78.8398H254.99V75.8398Z" fill="white"/>
<path d="M258.54 76.1299H257.67V78.5599H258.54V76.1299Z" fill="white"/>
<path d="M189.92 72.9999H170.81C170.654 72.9999 170.5 72.969 170.356 72.9091C170.212 72.8492 170.082 72.7614 169.972 72.6507C169.862 72.5401 169.776 72.4088 169.717 72.2645C169.658 72.1202 169.629 71.9657 169.63 71.8099C169.63 71.4969 169.754 71.1968 169.976 70.9755C170.197 70.7542 170.497 70.6299 170.81 70.6299H189.92C190.233 70.6299 190.533 70.7542 190.754 70.9755C190.976 71.1968 191.1 71.4969 191.1 71.8099C191.101 71.9657 191.072 72.1202 191.013 72.2645C190.954 72.4088 190.868 72.5401 190.758 72.6507C190.648 72.7614 190.518 72.8492 190.374 72.9091C190.23 72.969 190.076 72.9999 189.92 72.9999Z" fill="white"/>
<path d="M262.57 201.74H186.83V277.48H262.57V201.74Z" fill="white"/>
<path d="M262.94 277.85H260.57V277.1H262.19V275.48H262.94V277.85Z" fill="#147BDA"/>
<path d="M257.62 277.851H253.69V277.101H257.62V277.851ZM250.74 277.851H246.81V277.101H250.74V277.851ZM243.86 277.851H239.93V277.101H243.86V277.851ZM236.98 277.851H233.05V277.101H237L236.98 277.851ZM230.1 277.851H226.17V277.101H230.1V277.851ZM223.22 277.851H219.29V277.101H223.22V277.851ZM216.34 277.851H212.41V277.101H216.34V277.851ZM209.46 277.851H205.53V277.101H209.46V277.851ZM202.58 277.851H198.65V277.101H202.58V277.851ZM195.71 277.851H191.77V277.101H195.71V277.851Z" fill="#147BDA"/>
<path d="M188.83 277.85H186.45V275.48H187.2V277.1H188.83V277.85Z" fill="#147BDA"/>
<path d="M187.2 272.531H186.45V268.601H187.2V272.531ZM187.2 265.651H186.45V261.721H187.2V265.651ZM187.2 258.771H186.45V254.841H187.2V258.771ZM187.2 251.891H186.45V248.001H187.2V251.891ZM187.2 245.011H186.45V241.081H187.2V245.011ZM187.2 238.131H186.45V234.201H187.2V238.131ZM187.2 231.251H186.45V227.321H187.2V231.251ZM187.2 224.371H186.45V220.441H187.2V224.371ZM187.2 217.491H186.45V213.561H187.2V217.491ZM187.2 210.621H186.45V206.681H187.2V210.621Z" fill="#147BDA"/>
<path d="M187.2 203.74H186.45V201.36H188.83V202.11H187.2V203.74Z" fill="#147BDA"/>
<path d="M257.62 202.11H253.69V201.36H257.62V202.11ZM250.74 202.11H246.81V201.36H250.74V202.11ZM243.86 202.11H239.93V201.36H243.86V202.11ZM236.98 202.11H233.05V201.36H237L236.98 202.11ZM230.1 202.11H226.17V201.36H230.1V202.11ZM223.22 202.11H219.29V201.36H223.22V202.11ZM216.34 202.11H212.41V201.36H216.34V202.11ZM209.46 202.11H205.53V201.36H209.46V202.11ZM202.58 202.11H198.65V201.36H202.58V202.11ZM195.71 202.11H191.77V201.36H195.71V202.11Z" fill="#147BDA"/>
<path d="M262.94 203.74H262.19V202.11H260.57V201.36H262.94V203.74Z" fill="#147BDA"/>
<path d="M262.94 272.531H262.19V268.601H262.94V272.531ZM262.94 265.651H262.19V261.721H262.94V265.651ZM262.94 258.771H262.19V254.841H262.94V258.771ZM262.94 251.891H262.19V248.001H262.94V251.891ZM262.94 245.011H262.19V241.081H262.94V245.011ZM262.94 238.131H262.19V234.201H262.94V238.131ZM262.94 231.251H262.19V227.321H262.94V231.251ZM262.94 224.371H262.19V220.441H262.94V224.371ZM262.94 217.491H262.19V213.561H262.94V217.491ZM262.94 210.621H262.19V206.681H262.94V210.621Z" fill="#147BDA"/>
<path d="M194.06 270.24H255.33V208.97H194.06V270.24Z" fill="#147BDA"/>
<path opacity="0.1" d="M202.82 223.18C202.586 224.352 202.735 225.569 203.245 226.65C203.755 227.731 204.6 228.619 205.654 229.183C206.708 229.747 207.915 229.957 209.098 229.782C210.28 229.607 211.375 229.056 212.22 228.211C213.066 227.365 213.617 226.271 213.792 225.088C213.967 223.906 213.757 222.698 213.193 221.644C212.629 220.59 211.741 219.746 210.66 219.235C209.579 218.725 208.362 218.576 207.19 218.81C206.112 219.027 205.122 219.558 204.345 220.335C203.567 221.112 203.037 222.102 202.82 223.18Z" fill="#11111B"/>
<g opacity="0.2">
<path d="M214.28 253.25H255.33L234.8 227.95L214.28 253.25Z" fill="#11111B"/>
</g>
<path d="M194.06 253.281H230.47L212.27 236.801L194.06 253.281Z" fill="#147BDA"/>
<g opacity="0.1">
<path d="M194.06 253.281H230.47L212.27 236.801L194.06 253.281Z" fill="#11111B"/>
</g>
<path d="M255.33 253.28H194.06V270.24H255.33V253.28Z" fill="#147BDA"/>
<g opacity="0.1">
<path d="M255.33 253.28H194.06V270.24H255.33V253.28Z" fill="#11111B"/>
</g>
<path d="M261.72 126.2H98.3V193.78H261.72V126.2Z" fill="white"/>
<path d="M262.09 194.16H259.71V193.41H261.34V191.78H262.09V194.16Z" fill="#147BDA"/>
<path d="M256.67 194.16H252.6V193.41H256.67V194.16ZM249.56 194.16H245.5V193.41H249.56V194.16ZM242.45 194.16H238.39V193.41H242.45V194.16ZM235.34 194.16H231.28V193.41H235.34V194.16ZM228.24 194.16H224.17V193.41H228.24V194.16ZM221.13 194.16H217.07V193.41H221.13V194.16ZM214.02 194.16H210V193.41H214L214.02 194.16ZM206.91 194.16H202.85V193.41H206.91V194.16ZM199.8 194.16H195.74V193.41H199.8V194.16ZM192.7 194.16H188.63V193.41H192.7V194.16ZM185.59 194.16H181.53V193.41H185.59V194.16ZM178.48 194.16H174.42V193.41H178.48V194.16ZM171.37 194.16H167.31V193.41H171.37V194.16ZM164.27 194.16H160.2V193.41H164.27V194.16ZM157.16 194.16H153.1V193.41H157.16V194.16ZM150.05 194.16H146V193.41H150.06L150.05 194.16ZM142.94 194.16H138.88V193.41H142.94V194.16ZM135.83 194.16H131.77V193.41H135.83V194.16ZM128.73 194.16H124.67V193.41H128.73V194.16ZM121.62 194.16H117.56V193.41H121.62V194.16ZM114.51 194.16H110.45V193.41H114.51V194.16ZM107.4 194.16H103.34V193.41H107.4V194.16Z" fill="#147BDA"/>
<path d="M100.3 194.16H97.9199V191.78H98.6699V193.41H100.3V194.16Z" fill="#147BDA"/>
<path d="M98.6699 188.89H97.9199V185H98.6699V188.89ZM98.6699 182.15H97.9199V178.3H98.6699V182.15ZM98.6699 175.41H97.9199V171.55H98.6699V175.41ZM98.6699 168.66H97.9199V164.81H98.6699V168.66ZM98.6699 161.92H97.9199V158.06H98.6699V161.92ZM98.6699 155.17H97.9199V151.32H98.6699V155.17ZM98.6699 148.43H97.9199V144.58H98.6699V148.43ZM98.6699 141.69H97.9199V137.83H98.6699V141.69ZM98.6699 134.94H97.9199V131.09H98.6699V134.94Z" fill="#147BDA"/>
<path d="M98.6699 128.2H97.9199V125.82H100.3V126.57H98.6699V128.2Z" fill="#147BDA"/>
<path d="M256.67 126.57H252.6V125.82H256.67V126.57ZM249.56 126.57H245.5V125.82H249.56V126.57ZM242.45 126.57H238.39V125.82H242.45V126.57ZM235.34 126.57H231.28V125.82H235.34V126.57ZM228.23 126.57H224.17V125.82H228.23V126.57ZM221.13 126.57H217.07V125.82H221.13V126.57ZM214.02 126.57H210V125.82H214L214.02 126.57ZM206.91 126.57H202.85V125.82H206.91V126.57ZM199.8 126.57H195.74V125.82H199.8V126.57ZM192.7 126.57H188.63V125.82H192.7V126.57ZM185.59 126.57H181.53V125.82H185.59V126.57ZM178.48 126.57H174.42V125.82H178.48V126.57ZM171.37 126.57H167.31V125.82H171.37V126.57ZM164.26 126.57H160.2V125.82H164.26V126.57ZM157.16 126.57H153.1V125.82H157.16V126.57ZM150.05 126.57H146V125.82H150.06L150.05 126.57ZM142.94 126.57H138.88V125.82H142.94V126.57ZM135.83 126.57H131.77V125.82H135.83V126.57ZM128.73 126.57H124.66V125.82H128.73V126.57ZM121.62 126.57H117.56V125.82H121.62V126.57ZM114.51 126.57H110.45V125.82H114.51V126.57ZM107.4 126.57H103.34V125.82H107.4V126.57Z" fill="#147BDA"/>
<path d="M262.09 128.2H261.34V126.57H259.71V125.82H262.09V128.2Z" fill="#147BDA"/>
<path d="M262.09 188.89H261.34V185H262.09V188.89ZM262.09 182.15H261.34V178.3H262.09V182.15ZM262.09 175.41H261.34V171.55H262.09V175.41ZM262.09 168.66H261.34V164.81H262.09V168.66ZM262.09 161.92H261.34V158.06H262.09V161.92ZM262.09 155.17H261.34V151.32H262.09V155.17ZM262.09 148.43H261.34V144.58H262.09V148.43ZM262.09 141.69H261.34V137.83H262.09V141.69ZM262.09 134.94H261.34V131.09H262.09V134.94Z" fill="#147BDA"/>
<path d="M107.23 183.721H154.7V136.251H107.23V183.721Z" fill="#147BDA"/>
<path opacity="0.1" d="M114 147.27C113.82 148.177 113.937 149.117 114.333 149.953C114.728 150.788 115.382 151.474 116.197 151.91C117.013 152.345 117.947 152.507 118.861 152.371C119.775 152.235 120.622 151.809 121.275 151.155C121.929 150.502 122.355 149.655 122.491 148.741C122.627 147.827 122.465 146.893 122.03 146.077C121.594 145.262 120.908 144.608 120.073 144.213C119.237 143.817 118.297 143.7 117.39 143.88C116.553 144.047 115.785 144.458 115.182 145.062C114.578 145.665 114.167 146.433 114 147.27Z" fill="#11111B"/>
<g opacity="0.2">
<path d="M122.89 170.57H154.7L138.79 150.96L122.89 170.57Z" fill="#11111B"/>
</g>
<path d="M107.23 170.58H135.44L121.33 157.82L107.23 170.58Z" fill="#147BDA"/>
<g opacity="0.1">
<path d="M107.23 170.58H135.44L121.33 157.82L107.23 170.58Z" fill="#11111B"/>
</g>
<path d="M154.7 170.58H107.23V183.72H154.7V170.58Z" fill="#147BDA"/>
<g opacity="0.1">
<path d="M154.7 170.58H107.23V183.72H154.7V170.58Z" fill="#11111B"/>
</g>
<path d="M251.88 136.42H161.05V138.08H251.88V136.42Z" fill="#D2E3F3"/>
<path d="M251.88 145.48H161.05V147.14H251.88V145.48Z" fill="#D2E3F3"/>
<path d="M251.88 150.301H161.05V151.961H251.88V150.301Z" fill="#D2E3F3"/>
<path d="M251.88 155.12H161.05V156.78H251.88V155.12Z" fill="#D2E3F3"/>
<path d="M251.88 164.761H161.05V166.421H251.88V164.761Z" fill="#D2E3F3"/>
<path d="M251.88 169.58H161.05V171.24H251.88V169.58Z" fill="#D2E3F3"/>
<path d="M251.88 174.4H161.05V176.06H251.88V174.4Z" fill="#D2E3F3"/>
<path d="M211.7 179.23H161.05V180.89H211.7V179.23Z" fill="#D2E3F3"/>
<path d="M136.9 201.74H61.1599V277.48H136.9V201.74Z" fill="white"/>
<path d="M137.28 277.85H134.9V277.1H136.53V275.48H137.28V277.85Z" fill="#147BDA"/>
<path d="M132 277.851H128V277.101H132V277.851ZM125.12 277.851H121.19V277.101H125.12V277.851ZM118.24 277.851H114.31V277.101H118.24V277.851ZM111.36 277.851H107.43V277.101H111.36V277.851ZM104.48 277.851H100.55V277.101H104.48V277.851ZM97.5999 277.851H93.6699V277.101H97.5999V277.851ZM90.7199 277.851H86.7899V277.101H90.7199V277.851ZM83.8399 277.851H79.9099V277.101H83.8399V277.851ZM76.9599 277.851H72.9999V277.101H76.9299L76.9599 277.851ZM70.0799 277.851H66.1099V277.101H69.9999L70.0799 277.851Z" fill="#147BDA"/>
<path d="M63.16 277.85H60.79V275.48H61.54V277.1H63.16V277.85Z" fill="#147BDA"/>
<path d="M61.54 272.531H60.79V268.601H61.54V272.531ZM61.54 265.651H60.79V261.721H61.54V265.651ZM61.54 258.771H60.79V254.841H61.54V258.771ZM61.54 251.891H60.79V248.001H61.54V251.891ZM61.54 245.011H60.79V241.081H61.54V245.011ZM61.54 238.131H60.79V234.201H61.54V238.131ZM61.54 231.251H60.79V227.321H61.54V231.251ZM61.54 224.371H60.79V220.441H61.54V224.371ZM61.54 217.491H60.79V213.561H61.54V217.491ZM61.54 210.621H60.79V206.681H61.54V210.621Z" fill="#147BDA"/>
<path d="M61.54 203.74H60.79V201.36H63.16V202.11H61.54V203.74Z" fill="#147BDA"/>
<path d="M132 202.11H128V201.36H132V202.11ZM125.12 202.11H121.19V201.36H125.12V202.11ZM118.24 202.11H114.31V201.36H118.24V202.11ZM111.36 202.11H107.43V201.36H111.36V202.11ZM104.48 202.11H100.55V201.36H104.48V202.11ZM97.5999 202.11H93.6699V201.36H97.5999V202.11ZM90.7199 202.11H86.7899V201.36H90.7199V202.11ZM83.8399 202.11H79.9099V201.36H83.8399V202.11ZM76.9599 202.11H72.9999V201.36H76.9299L76.9599 202.11ZM70.0799 202.11H66.1099V201.36H69.9999L70.0799 202.11Z" fill="#147BDA"/>
<path d="M137.28 203.74H136.53V202.11H134.9V201.36H137.28V203.74Z" fill="#147BDA"/>
<path d="M137.28 272.531H136.53V268.601H137.28V272.531ZM137.28 265.651H136.53V261.721H137.28V265.651ZM137.28 258.771H136.53V254.841H137.28V258.771ZM137.28 251.891H136.53V248.001H137.28V251.891ZM137.28 245.011H136.53V241.081H137.28V245.011ZM137.28 238.131H136.53V234.201H137.28V238.131ZM137.28 231.251H136.53V227.321H137.28V231.251ZM137.28 224.371H136.53V220.441H137.28V224.371ZM137.28 217.491H136.53V213.561H137.28V217.491ZM137.28 210.621H136.53V206.681H137.28V210.621Z" fill="#147BDA"/>
<path d="M64.12 198.79H58.22V204.69H64.12V198.79Z" fill="#147BDA"/>
<path d="M101.99 198.79H96.0898V204.69H101.99V198.79Z" fill="#147BDA"/>
<path d="M139.86 198.79H133.96V204.69H139.86V198.79Z" fill="#147BDA"/>
<path d="M64.12 274.53H58.22V280.43H64.12V274.53Z" fill="#147BDA"/>
<path d="M101.99 274.53H96.0898V280.43H101.99V274.53Z" fill="#147BDA"/>
<path d="M139.86 274.53H133.96V280.43H139.86V274.53Z" fill="#147BDA"/>
<path d="M64.12 236.66H58.22V242.56H64.12V236.66Z" fill="#147BDA"/>
<path d="M139.86 236.66H133.96V242.56H139.86V236.66Z" fill="#147BDA"/>
<path d="M127.96 210.681H70.1099V268.531H127.96V210.681Z" fill="#455A64"/>
<path d="M90.8398 246.701V232.511L107.23 241.381L90.8398 246.701Z" fill="white"/>
<path d="M194.88 287.86H98.1499V299.98H194.88V287.86Z" fill="#147BDA"/>
<path d="M194.63 299.94H98.4099V407H194.63V299.94Z" fill="white"/>
<path d="M195 407.37H190.62V406.62H194.25V406.45H195V407.37ZM187.62 407.37H183.62V406.62H187.62V407.37ZM180.62 407.37H176.62V406.62H180.62V407.37ZM173.62 407.37H169.62V406.62H173.62V407.37ZM166.62 407.37H162.62V406.62H166.62V407.37ZM159.62 407.37H155.62V406.62H159.62V407.37ZM152.62 407.37H148.62V406.62H152.62V407.37ZM145.62 407.37H141.62V406.62H145.62V407.37ZM138.62 407.37H134.62V406.62H138.62V407.37ZM131.62 407.37H127.62V406.62H131.62V407.37ZM124.62 407.37H120.62V406.62H124.62V407.37ZM117.62 407.37H113.62V406.62H117.62V407.37ZM110.62 407.37H106.62V406.62H110.62V407.37ZM103.62 407.37H99.62V406.62H103.62V407.37ZM98.78 405.21H98V401.21H98.75L98.78 405.21ZM195 403.45H194.25V399.45H195V403.45ZM98.78 398.21H98V394.21H98.75L98.78 398.21ZM195 396.45H194.25V392.45H195V396.45ZM98.78 391.21H98V387.21H98.75L98.78 391.21ZM195 389.45H194.25V385.45H195V389.45ZM98.78 384.21H98V380.21H98.75L98.78 384.21ZM195 382.45H194.25V378.45H195V382.45ZM98.78 377.21H98V373.21H98.75L98.78 377.21ZM195 375.45H194.25V371.45H195V375.45ZM98.78 370.21H98V366.21H98.75L98.78 370.21ZM195 368.45H194.25V364.45H195V368.45ZM98.78 363.21H98V359.21H98.75L98.78 363.21ZM195 361.45H194.25V357.45H195V361.45ZM98.78 356.21H98V352.21H98.75L98.78 356.21ZM195 354.45H194.25V350.45H195V354.45ZM98.78 349.21H98V345.21H98.75L98.78 349.21ZM195 347.45H194.25V343.45H195V347.45ZM98.78 342.21H98V338.21H98.75L98.78 342.21ZM195 340.45H194.25V336.45H195V340.45ZM98.78 335.21H98V331.21H98.75L98.78 335.21ZM195 333.45H194.25V329.45H195V333.45ZM98.78 328.21H98V324.21H98.75L98.78 328.21ZM195 326.45H194.25V322.45H195V326.45ZM98.78 321.21H98V317.21H98.75L98.78 321.21ZM195 319.45H194.25V315.45H195V319.45ZM98.78 314.21H98V310.21H98.75L98.78 314.21ZM195 312.45H194.25V308.45H195V312.45ZM98.78 307.21H98V303.21H98.75L98.78 307.21ZM195 305.45H194.25V301.45H195V305.45ZM193.13 300.32H189.13V299.57H193.13V300.32ZM186.13 300.32H182.13V299.57H186.13V300.32ZM179.13 300.32H175.13V299.57H179.13V300.32ZM172.13 300.32H168.13V299.57H172.13V300.32ZM165.13 300.32H161.13V299.57H165.13V300.32ZM158.13 300.32H154.13V299.57H158.13V300.32ZM151.13 300.32H147.13V299.57H151.13V300.32ZM144.13 300.32H140.13V299.57H144.13V300.32ZM137.13 300.32H133.13V299.57H137.13V300.32ZM130.13 300.32H126.13V299.57H130.13V300.32ZM123.13 300.32H119.13V299.57H123.13V300.32ZM116.13 300.32H112.13V299.57H116.13V300.32ZM109.13 300.32H105.13V299.57H109.13V300.32ZM102.13 300.32H98.4V300.21H98V299.57H102.1L102.13 300.32Z" fill="#147BDA"/>
<path d="M194.9 407.171H98.1499V299.761H194.9V407.171ZM98.6799 406.821H194.36V300.121H98.6799V406.821Z" fill="#D2E3F3"/>
<path d="M98.6599 407.06L98.1599 406.93L194.38 299.88L194.88 300.01L98.6599 407.06Z" fill="#D2E3F3"/>
<path d="M194.38 407.06L98.1599 300.01L98.6599 299.88L194.88 406.93L194.38 407.06Z" fill="#D2E3F3"/>
<path d="M271.18 188C271.182 191.862 272.329 195.637 274.476 198.848C276.624 202.058 279.674 204.56 283.243 206.036C286.812 207.513 290.739 207.898 294.526 207.144C298.314 206.389 301.793 204.528 304.523 201.796C307.254 199.065 309.113 195.585 309.866 191.796C310.618 188.008 310.231 184.082 308.752 180.514C307.274 176.946 304.771 173.896 301.559 171.751C298.348 169.605 294.572 168.46 290.71 168.46C285.53 168.465 280.564 170.526 276.903 174.19C273.241 177.853 271.183 182.82 271.18 188ZM275.34 188C275.34 184.958 276.242 181.984 277.933 179.454C279.623 176.925 282.026 174.954 284.837 173.79C287.648 172.626 290.741 172.322 293.724 172.916C296.708 173.511 299.448 174.976 301.599 177.128C303.749 179.28 305.213 182.022 305.806 185.006C306.398 187.99 306.092 191.082 304.926 193.893C303.761 196.703 301.788 199.104 299.257 200.793C296.727 202.482 293.752 203.382 290.71 203.38C288.691 203.38 286.691 202.982 284.826 202.209C282.96 201.436 281.266 200.303 279.838 198.875C278.411 197.446 277.279 195.751 276.507 193.885C275.735 192.019 275.339 190.019 275.34 188ZM271.18 188C271.182 191.862 272.329 195.637 274.476 198.848C276.624 202.058 279.674 204.56 283.243 206.036C286.812 207.513 290.739 207.898 294.526 207.144C298.314 206.389 301.793 204.528 304.523 201.796C307.254 199.065 309.113 195.585 309.866 191.796C310.618 188.008 310.231 184.082 308.752 180.514C307.274 176.946 304.771 173.896 301.559 171.751C298.348 169.605 294.572 168.46 290.71 168.46C285.53 168.465 280.564 170.526 276.903 174.19C273.241 177.853 271.183 182.82 271.18 188ZM275.34 188C275.34 184.958 276.242 181.984 277.933 179.454C279.623 176.925 282.026 174.954 284.837 173.79C287.648 172.626 290.741 172.322 293.724 172.916C296.708 173.511 299.448 174.976 301.599 177.128C303.749 179.28 305.213 182.022 305.806 185.006C306.398 187.99 306.092 191.082 304.926 193.893C303.761 196.703 301.788 199.104 299.257 200.793C296.727 202.482 293.752 203.382 290.71 203.38C288.691 203.38 286.691 202.982 284.826 202.209C282.96 201.436 281.266 200.303 279.838 198.875C278.411 197.446 277.279 195.751 276.507 193.885C275.735 192.019 275.339 190.019 275.34 188ZM257.78 188C257.794 194.51 259.737 200.87 263.364 206.276C266.991 211.682 272.138 215.892 278.157 218.373C284.175 220.855 290.794 221.497 297.177 220.219C303.56 218.94 309.421 215.798 314.02 211.19C318.618 206.582 321.747 200.715 323.012 194.329C324.277 187.943 323.621 181.325 321.127 175.312C318.632 169.299 314.411 164.16 308.998 160.545C303.584 156.93 297.22 155 290.71 155C286.38 155.001 282.093 155.856 278.094 157.516C274.094 159.176 270.462 161.608 267.403 164.673C264.345 167.738 261.921 171.376 260.269 175.378C258.618 179.381 257.772 183.67 257.78 188ZM269.31 188C269.31 183.765 270.566 179.625 272.919 176.104C275.272 172.583 278.616 169.839 282.529 168.219C286.442 166.599 290.747 166.175 294.901 167.002C299.054 167.829 302.869 169.869 305.863 172.864C308.857 175.86 310.895 179.675 311.72 183.829C312.545 187.983 312.119 192.288 310.497 196.2C308.875 200.112 306.13 203.455 302.608 205.807C299.085 208.158 294.945 209.412 290.71 209.41C285.035 209.402 279.595 207.143 275.583 203.13C271.571 199.116 269.315 193.675 269.31 188ZM271.18 188C271.182 191.862 272.329 195.637 274.476 198.848C276.624 202.058 279.674 204.56 283.243 206.036C286.812 207.513 290.739 207.898 294.526 207.144C298.314 206.389 301.793 204.528 304.523 201.796C307.254 199.065 309.113 195.585 309.866 191.796C310.618 188.008 310.231 184.082 308.752 180.514C307.274 176.946 304.771 173.896 301.559 171.751C298.348 169.605 294.572 168.46 290.71 168.46C285.53 168.465 280.564 170.526 276.903 174.19C273.241 177.853 271.183 182.82 271.18 188ZM275.34 188C275.34 184.958 276.242 181.984 277.933 179.454C279.623 176.925 282.026 174.954 284.837 173.79C287.648 172.626 290.741 172.322 293.724 172.916C296.708 173.511 299.448 174.976 301.599 177.128C303.749 179.28 305.213 182.022 305.806 185.006C306.398 187.99 306.092 191.082 304.926 193.893C303.761 196.703 301.788 199.104 299.257 200.793C296.727 202.482 293.752 203.382 290.71 203.38C288.691 203.38 286.691 202.982 284.826 202.209C282.96 201.436 281.266 200.303 279.838 198.875C278.411 197.446 277.279 195.751 276.507 193.885C275.735 192.019 275.339 190.019 275.34 188Z" fill="#147BDA"/>
<path d="M286.85 155.64H294.39L293.63 148.11H287.6L286.85 155.64Z" fill="#147BDA"/>
<path d="M303.53 158.03L310.06 161.8L313.17 154.91L307.94 151.89L303.53 158.03Z" fill="#147BDA"/>
<path d="M316.78 168.45L320.55 174.98L326.69 170.57L323.68 165.34L316.78 168.45Z" fill="#147BDA"/>
<path d="M323.05 184.101V191.641L330.57 190.891V184.851L323.05 184.101Z" fill="#147BDA"/>
<path d="M320.65 200.79L316.88 207.32L323.77 210.43L326.79 205.2L320.65 200.79Z" fill="#147BDA"/>
<path d="M310.23 214.04L303.7 217.81L308.11 223.95L313.34 220.93L310.23 214.04Z" fill="#147BDA"/>
<path d="M294.58 220.3H287.04L287.79 227.83H293.83L294.58 220.3Z" fill="#147BDA"/>
<path d="M277.9 217.91L271.37 214.13L268.25 221.03L273.48 224.05L277.9 217.91Z" fill="#147BDA"/>
<path d="M264.65 207.49L260.88 200.96L254.73 205.37L257.75 210.6L264.65 207.49Z" fill="#147BDA"/>
<path d="M258.38 191.84V184.3L250.85 185.05V191.09L258.38 191.84Z" fill="#147BDA"/>
<path d="M260.78 175.15L264.55 168.62L257.65 165.51L254.64 170.74L260.78 175.15Z" fill="#147BDA"/>
<path d="M271.2 161.9L277.73 158.13L273.31 151.99L268.08 155.01L271.2 161.9Z" fill="#147BDA"/>
<path d="M207.85 156.86C207.731 161.346 208.945 165.767 211.338 169.563C213.732 173.36 217.197 176.361 221.297 178.188C225.396 180.014 229.945 180.584 234.368 179.826C238.791 179.067 242.89 177.014 246.146 173.925C249.403 170.837 251.67 166.852 252.661 162.475C253.653 158.098 253.324 153.526 251.717 149.336C250.109 145.145 247.296 141.526 243.631 138.935C239.967 136.344 235.616 134.898 231.13 134.78C225.115 134.622 219.283 136.859 214.918 140.999C210.552 145.14 208.01 150.845 207.85 156.86ZM219.94 157.18C219.994 155.084 220.669 153.051 221.879 151.338C223.089 149.625 224.78 148.31 226.737 147.558C228.695 146.807 230.832 146.653 232.877 147.116C234.922 147.579 236.784 148.638 238.227 150.159C239.67 151.681 240.63 153.596 240.984 155.663C241.338 157.73 241.072 159.855 240.218 161.771C239.364 163.686 237.961 165.305 236.187 166.423C234.412 167.54 232.346 168.107 230.25 168.05C228.859 168.014 227.489 167.704 226.218 167.138C224.947 166.572 223.8 165.761 222.843 164.751C221.885 163.742 221.136 162.554 220.638 161.255C220.14 159.955 219.903 158.571 219.94 157.18Z" fill="#BAD2E8"/>
<path d="M226.75 135.6L235.47 135.83L235.15 129.65L227.4 129.44L226.75 135.6Z" fill="#BAD2E8"/>
<path d="M243.27 138.98L249.28 145.31L253.43 140.71L248.09 135.08L243.27 138.98Z" fill="#BAD2E8"/>
<path d="M252.57 153.05L252.34 161.77L258.53 161.46L258.73 153.7L252.57 153.05Z" fill="#BAD2E8"/>
<path d="M249.19 169.58L242.86 175.58L247.46 179.73L253.09 174.39L249.19 169.58Z" fill="#BAD2E8"/>
<path d="M235.12 178.87L226.4 178.64L226.72 184.83L234.48 185.03L235.12 178.87Z" fill="#BAD2E8"/>
<path d="M218.6 175.5L212.59 169.16L208.44 173.77L213.78 179.4L218.6 175.5Z" fill="#BAD2E8"/>
<path d="M209.3 161.42L209.53 152.7L203.34 153.02L203.14 160.78L209.3 161.42Z" fill="#BAD2E8"/>
<path d="M212.68 144.9L219.01 138.9L214.41 134.75L208.78 140.09L212.68 144.9Z" fill="#BAD2E8"/>
<path d="M236.56 151.9L229.13 149.69L223.5 155L225.31 162.53L232.74 164.74L238.37 159.4L236.56 151.9ZM230.87 159.7C230.384 159.688 229.912 159.532 229.514 159.252C229.116 158.972 228.811 158.58 228.636 158.127C228.46 157.673 228.424 157.177 228.53 156.702C228.637 156.228 228.882 155.795 229.234 155.46C229.586 155.124 230.03 154.901 230.51 154.817C230.989 154.734 231.482 154.795 231.927 154.992C232.372 155.189 232.748 155.513 233.009 155.924C233.269 156.335 233.402 156.814 233.39 157.3C233.382 157.624 233.311 157.942 233.18 158.237C233.049 158.533 232.861 158.8 232.627 159.023C232.393 159.245 232.118 159.42 231.816 159.536C231.515 159.653 231.193 159.708 230.87 159.7Z" fill="#BAD2E8"/>
<path d="M319.35 142.57C321.229 142.746 323.118 142.361 324.778 141.463C326.438 140.565 327.794 139.195 328.675 137.526C329.557 135.857 329.923 133.965 329.728 132.088C329.534 130.211 328.787 128.433 327.582 126.981C326.377 125.528 324.769 124.466 322.96 123.928C321.151 123.39 319.223 123.4 317.42 123.958C315.617 124.515 314.02 125.595 312.831 127.06C311.642 128.526 310.914 130.311 310.74 132.19C310.623 133.437 310.753 134.695 311.122 135.892C311.492 137.089 312.094 138.201 312.893 139.165C313.693 140.129 314.675 140.926 315.783 141.51C316.891 142.094 318.103 142.455 319.35 142.57ZM311.9 132.3C312.053 130.652 312.692 129.086 313.735 127.801C314.779 126.516 316.18 125.569 317.761 125.08C319.343 124.59 321.034 124.581 322.62 125.053C324.207 125.525 325.618 126.457 326.675 127.731C327.732 129.005 328.388 130.563 328.559 132.21C328.73 133.856 328.41 135.517 327.637 136.981C326.865 138.445 325.676 139.647 324.22 140.436C322.765 141.224 321.108 141.563 319.46 141.41C318.365 141.308 317.302 140.992 316.329 140.479C315.357 139.966 314.495 139.267 313.793 138.421C313.091 137.575 312.562 136.599 312.238 135.549C311.913 134.499 311.798 133.395 311.9 132.3ZM319.35 142.57C321.229 142.746 323.118 142.361 324.778 141.463C326.438 140.565 327.794 139.195 328.675 137.526C329.557 135.857 329.923 133.965 329.728 132.088C329.534 130.211 328.787 128.433 327.582 126.981C326.377 125.528 324.769 124.466 322.96 123.928C321.151 123.39 319.223 123.4 317.42 123.958C315.617 124.515 314.02 125.595 312.831 127.06C311.642 128.526 310.914 130.311 310.74 132.19C310.623 133.437 310.753 134.695 311.122 135.892C311.492 137.089 312.094 138.201 312.893 139.165C313.693 140.129 314.675 140.926 315.783 141.51C316.891 142.094 318.103 142.455 319.35 142.57ZM311.9 132.3C312.053 130.652 312.692 129.086 313.735 127.801C314.779 126.516 316.18 125.569 317.761 125.08C319.343 124.59 321.034 124.581 322.62 125.053C324.207 125.525 325.618 126.457 326.675 127.731C327.732 129.005 328.388 130.563 328.559 132.21C328.73 133.856 328.41 135.517 327.637 136.981C326.865 138.445 325.676 139.647 324.22 140.436C322.765 141.224 321.108 141.563 319.46 141.41C318.365 141.308 317.302 140.992 316.329 140.479C315.357 139.966 314.495 139.267 313.793 138.421C313.091 137.575 312.562 136.599 312.238 135.549C311.913 134.499 311.798 133.395 311.9 132.3ZM319.35 142.57C321.229 142.746 323.118 142.361 324.778 141.463C326.438 140.565 327.794 139.195 328.675 137.526C329.557 135.857 329.923 133.965 329.728 132.088C329.534 130.211 328.787 128.433 327.582 126.981C326.377 125.528 324.769 124.466 322.96 123.928C321.151 123.39 319.223 123.4 317.42 123.958C315.617 124.515 314.02 125.595 312.831 127.06C311.642 128.526 310.914 130.311 310.74 132.19C310.623 133.437 310.753 134.695 311.122 135.892C311.492 137.089 312.094 138.201 312.893 139.165C313.693 140.129 314.675 140.926 315.783 141.51C316.891 142.094 318.103 142.455 319.35 142.57ZM311.9 132.3C312.053 130.652 312.692 129.086 313.735 127.801C314.779 126.516 316.18 125.569 317.761 125.08C319.343 124.59 321.034 124.581 322.62 125.053C324.207 125.525 325.618 126.457 326.675 127.731C327.732 129.005 328.388 130.563 328.559 132.21C328.73 133.856 328.41 135.517 327.637 136.981C326.865 138.445 325.676 139.647 324.22 140.436C322.765 141.224 321.108 141.563 319.46 141.41C318.365 141.308 317.302 140.992 316.329 140.479C315.357 139.966 314.495 139.267 313.793 138.421C313.091 137.575 312.562 136.599 312.238 135.549C311.913 134.499 311.798 133.395 311.9 132.3ZM318.37 153.09C322.328 153.459 326.307 152.645 329.803 150.752C333.298 148.86 336.155 145.973 338.01 142.457C339.865 138.942 340.636 134.955 340.226 131.001C339.815 127.047 338.241 123.303 335.703 120.244C333.165 117.184 329.777 114.946 325.967 113.812C322.157 112.678 318.096 112.699 314.298 113.873C310.5 115.047 307.135 117.32 304.63 120.406C302.124 123.492 300.589 127.252 300.22 131.21C299.728 136.518 301.363 141.804 304.766 145.907C308.17 150.01 313.063 152.593 318.37 153.09ZM309.26 132.09C309.467 129.926 310.31 127.872 311.683 126.187C313.056 124.502 314.897 123.261 316.975 122.622C319.052 121.983 321.273 121.973 323.356 122.595C325.439 123.216 327.291 124.441 328.678 126.114C330.065 127.788 330.926 129.834 331.151 131.996C331.376 134.158 330.956 136.339 329.943 138.262C328.93 140.185 327.37 141.765 325.46 142.802C323.549 143.84 321.375 144.288 319.21 144.09C317.765 143.958 316.36 143.542 315.076 142.865C313.793 142.188 312.656 141.264 311.731 140.146C310.806 139.028 310.112 137.738 309.688 136.35C309.264 134.962 309.118 133.504 309.26 132.06V132.09ZM310.74 132.22C310.564 134.099 310.949 135.989 311.847 137.649C312.746 139.309 314.116 140.666 315.785 141.547C317.455 142.428 319.348 142.794 321.225 142.599C323.103 142.404 324.88 141.656 326.333 140.45C327.785 139.244 328.847 137.635 329.384 135.825C329.921 134.015 329.909 132.087 329.35 130.284C328.791 128.481 327.71 126.885 326.243 125.697C324.776 124.509 322.99 123.782 321.11 123.61C318.599 123.382 316.099 124.155 314.157 125.763C312.214 127.37 310.986 129.681 310.74 132.19V132.22ZM311.9 132.33C312.053 130.682 312.692 129.116 313.735 127.831C314.779 126.546 316.18 125.599 317.761 125.11C319.343 124.62 321.034 124.611 322.62 125.083C324.207 125.555 325.618 126.487 326.675 127.761C327.732 129.035 328.388 130.593 328.559 132.24C328.73 133.886 328.41 135.547 327.637 137.011C326.865 138.475 325.676 139.677 324.22 140.466C322.765 141.254 321.108 141.593 319.46 141.44C318.363 141.338 317.296 141.021 316.322 140.506C315.347 139.992 314.484 139.29 313.782 138.44C313.079 137.591 312.551 136.612 312.228 135.558C311.906 134.504 311.794 133.397 311.9 132.3V132.33ZM319.35 142.6C321.229 142.776 323.118 142.391 324.778 141.493C326.438 140.595 327.794 139.225 328.675 137.556C329.557 135.887 329.923 133.995 329.728 132.118C329.534 130.241 328.787 128.463 327.582 127.011C326.377 125.558 324.769 124.496 322.96 123.958C321.151 123.42 319.223 123.43 317.42 123.988C315.617 124.545 314.02 125.625 312.831 127.09C311.642 128.556 310.914 130.341 310.74 132.22C310.512 134.734 311.291 137.235 312.905 139.176C314.519 141.116 316.837 142.337 319.35 142.57V142.6ZM311.9 132.3C312.053 130.652 312.692 129.086 313.735 127.801C314.779 126.516 316.18 125.569 317.761 125.08C319.343 124.59 321.034 124.581 322.62 125.053C324.207 125.525 325.618 126.457 326.675 127.731C327.732 129.005 328.388 130.563 328.559 132.21C328.73 133.856 328.41 135.517 327.637 136.981C326.865 138.445 325.676 139.647 324.22 140.436C322.765 141.224 321.108 141.563 319.46 141.41C318.365 141.308 317.302 140.992 316.329 140.479C315.357 139.966 314.495 139.267 313.793 138.421C313.091 137.575 312.562 136.599 312.238 135.549C311.913 134.499 311.798 133.395 311.9 132.3ZM319.35 142.57C321.229 142.746 323.118 142.361 324.778 141.463C326.438 140.565 327.794 139.195 328.675 137.526C329.557 135.857 329.923 133.965 329.728 132.088C329.534 130.211 328.787 128.433 327.582 126.981C326.377 125.528 324.769 124.466 322.96 123.928C321.151 123.39 319.223 123.4 317.42 123.958C315.617 124.515 314.02 125.595 312.831 127.06C311.642 128.526 310.914 130.311 310.74 132.19C310.623 133.437 310.753 134.695 311.122 135.892C311.492 137.089 312.094 138.201 312.893 139.165C313.693 140.129 314.675 140.926 315.783 141.51C316.891 142.094 318.103 142.455 319.35 142.57ZM311.9 132.3C312.053 130.652 312.692 129.086 313.735 127.801C314.779 126.516 316.18 125.569 317.761 125.08C319.343 124.59 321.034 124.581 322.62 125.053C324.207 125.525 325.618 126.457 326.675 127.731C327.732 129.005 328.388 130.563 328.559 132.21C328.73 133.856 328.41 135.517 327.637 136.981C326.865 138.445 325.676 139.647 324.22 140.436C322.765 141.224 321.108 141.563 319.46 141.41C318.365 141.308 317.302 140.992 316.329 140.479C315.357 139.966 314.495 139.267 313.793 138.421C313.091 137.575 312.562 136.599 312.238 135.549C311.913 134.499 311.798 133.395 311.9 132.3Z" fill="#024786"/>
<path d="M318.17 113.53L325.87 114.25L325.95 108.76L319.1 108.12L318.17 113.53Z" fill="#024786"/>
<path d="M332.58 117.48L337.52 123.43L341.45 119.61L337.06 114.32L332.58 117.48Z" fill="#024786"/>
<path d="M339.97 130.47L339.26 138.16L344.74 138.25L345.38 131.4L339.97 130.47Z" fill="#024786"/>
<path d="M336.02 144.88L330.07 149.81L333.89 153.75L339.18 149.36L336.02 144.88Z" fill="#024786"/>
<path d="M323.03 152.27L315.34 151.55L315.26 157.04L322.1 157.68L323.03 152.27Z" fill="#024786"/>
<path d="M308.62 148.31L303.69 142.37L299.75 146.19L304.14 151.48L308.62 148.31Z" fill="#024786"/>
<path d="M301.23 135.33L301.95 127.63L296.46 127.55L295.82 134.4L301.23 135.33Z" fill="#024786"/>
<path d="M305.19 120.92L311.13 115.98L307.31 112.05L302.02 116.44L305.19 120.92Z" fill="#024786"/>
<path d="M394.18 421.9C397.89 419.9 402.92 418.95 406.83 420.8C406.99 420.87 406.88 421.08 406.74 421.08C402.579 421.076 398.428 421.515 394.36 422.39C394.295 422.414 394.223 422.411 394.16 422.382C394.098 422.353 394.049 422.3 394.025 422.235C394.001 422.17 394.004 422.098 394.033 422.035C394.062 421.972 394.115 421.924 394.18 421.9Z" fill="#11111B"/>
<path d="M391.88 424.53C395.59 422.53 400.62 421.58 404.54 423.43C404.69 423.5 404.54 423.71 404.44 423.71C400.279 423.699 396.129 424.131 392.06 425C392.003 425.006 391.945 424.993 391.896 424.964C391.847 424.934 391.809 424.888 391.788 424.834C391.768 424.781 391.765 424.722 391.782 424.666C391.799 424.611 391.833 424.563 391.88 424.53Z" fill="#11111B"/>
<path d="M389.58 427.159C393.3 425.159 398.32 424.159 402.24 426.059C402.39 426.129 402.29 426.349 402.14 426.349C397.979 426.342 393.829 426.778 389.76 427.649C389.695 427.673 389.623 427.67 389.56 427.641C389.498 427.612 389.449 427.559 389.425 427.494C389.401 427.429 389.404 427.357 389.433 427.295C389.462 427.232 389.515 427.183 389.58 427.159Z" fill="#11111B"/>
<path d="M387.29 429.79C391 427.79 396.02 426.85 399.94 428.69C400.09 428.76 399.99 428.98 399.85 428.98C395.685 428.973 391.532 429.409 387.46 430.28C387.396 430.297 387.329 430.289 387.271 430.259C387.213 430.228 387.168 430.176 387.147 430.114C387.125 430.052 387.128 429.984 387.155 429.924C387.181 429.864 387.23 429.816 387.29 429.79Z" fill="#11111B"/>
<path d="M387.53 420.16C391.02 421.44 394.94 421.16 398.59 421.32C398.97 421.32 399.13 420.93 399.05 420.63C399.066 420.624 399.081 420.614 399.093 420.602C399.104 420.589 399.113 420.574 399.118 420.558C399.123 420.541 399.124 420.524 399.121 420.507C399.117 420.49 399.11 420.474 399.1 420.46C396.775 417.344 393.671 414.895 390.1 413.36C388 412.51 384.81 412.47 383.94 415.11C383.07 417.75 385.5 419.42 387.53 420.16ZM385.53 417.31C383.45 413.2 388.83 413.98 390.34 414.67C391.314 415.137 392.256 415.668 393.16 416.26C395.05 417.46 396.74 418.91 398.5 420.26C396.71 420.07 394.92 420.04 393.13 419.91C391 419.8 386.66 419.57 385.51 417.31H385.53Z" fill="#11111B"/>
<path d="M410.35 410.21C408.6 408.06 405.63 409.21 403.97 410.77C401.186 413.469 399.159 416.852 398.09 420.58C398.086 420.597 398.085 420.615 398.088 420.632C398.092 420.65 398.099 420.666 398.109 420.681C398.12 420.695 398.134 420.707 398.149 420.715C398.165 420.724 398.182 420.729 398.2 420.73C398.202 420.81 398.223 420.889 398.262 420.961C398.3 421.032 398.354 421.093 398.42 421.14C398.486 421.186 398.562 421.217 398.642 421.229C398.722 421.241 398.803 421.234 398.88 421.21C402.23 419.77 405.99 418.64 408.8 416.21C410.44 414.79 412 412.25 410.35 410.21ZM403.51 418C401.88 418.75 400.22 419.42 398.62 420.23C399.709 418.283 400.898 416.394 402.18 414.57C402.809 413.694 403.501 412.865 404.25 412.09C405.42 410.9 410.17 408.26 409.68 412.84C409.41 415.35 405.46 417.09 403.51 418Z" fill="#11111B"/>
<path d="M435.78 416.249C436.03 417.689 436.25 419.089 436.47 420.439C437.89 429.159 438.73 435.889 438.08 436.509C436.08 438.419 375.87 450.509 373.62 450.229C371.37 449.949 372.03 443.519 373.99 441.229C375.18 439.819 383.41 433.739 389.67 429.229C393.67 426.319 396.91 424.029 396.91 424.029L384.83 385.029L425.29 377.029C425.29 377.029 435.39 413.939 435.78 416.249Z" fill="#ECBCB3"/>
<path d="M373.62 450.23C375.87 450.5 436.07 438.42 438.08 436.51C438.73 435.89 437.9 429.16 436.47 420.44C436.25 419.09 436.03 417.69 435.78 416.25C435.64 415.45 434.31 410.39 432.66 404.17L393.28 412.08L397 423.93C397 423.93 393.78 426.21 389.75 429.13C383.49 433.68 375.26 439.75 374.07 441.13C372 443.52 371.38 449.94 373.62 450.23Z" fill="#D2E3F3"/>
<path d="M373.12 450.61C374.61 450.79 400.72 445.61 419.64 441.36C424.01 440.36 428.01 439.44 431.22 438.64C435.65 437.53 438.6 436.64 439.03 436.27C439.76 435.56 435.15 410.88 434.34 408.02L394.34 416.3L396.69 423.7C396.69 423.7 375.46 439 373.45 441.37C371.44 443.74 370.83 450.33 373.12 450.61Z" fill="#147BDA"/>
<path d="M374.07 447.86C384.33 445.48 425.97 436.86 436.3 435.3C436.39 435.3 436.4 435.35 436.3 435.37C426.18 437.94 384.47 446.22 374.09 448.03C373.88 448.06 373.85 447.91 374.07 447.86Z" fill="#11111B"/>
<path d="M389.32 418.16C388.89 417.95 372.73 356.28 367.38 335.74C359.66 306.11 352.18 257.82 349.94 247.74C345.313 236.152 342.168 224.026 340.58 211.65H389.25C389.25 211.65 402.01 236.07 395.43 253.32C394.83 254.91 403.93 315.9 408.64 325.77C412.71 334.31 435.64 408.17 435.64 408.17L389.32 418.16Z" fill="#37474F"/>
<path d="M389.58 407.839C390.77 407.409 392.04 407.189 393.27 406.839C394.5 406.489 395.86 406.179 397.17 405.839C399.78 405.249 402.39 404.689 405 404.129C410.23 402.999 415.47 401.929 420.71 400.869L425.01 400.019C426.441 399.671 427.9 399.45 429.37 399.359C429.385 399.365 429.399 399.375 429.408 399.389C429.417 399.402 429.422 399.418 429.422 399.434C429.422 399.451 429.417 399.467 429.408 399.48C429.399 399.493 429.385 399.504 429.37 399.509C428.184 399.947 426.963 400.282 425.72 400.509C424.42 400.829 423.12 401.129 421.81 401.419C419.24 401.999 416.68 402.589 414.11 403.149C408.92 404.279 403.75 405.439 398.55 406.479C397.07 406.779 395.6 407.079 394.12 407.329C392.64 407.579 391.12 407.959 389.67 408.069C389.51 408.199 389.36 407.909 389.58 407.839Z" fill="#11111B"/>
<path d="M362.67 245.519C363.61 250.589 364.39 255.689 365.23 260.779C365.66 263.369 366.23 265.929 366.65 268.519C367.07 271.109 367.49 273.609 367.89 276.159C369.543 286.399 371.18 296.639 372.8 306.879C373.607 311.959 374.423 317.043 375.25 322.129C376.007 327.137 377.032 332.101 378.32 336.999C379.66 341.899 391.32 390.349 394.04 400.329L395.04 404.039C395.044 404.054 395.045 404.069 395.043 404.084C395.041 404.099 395.036 404.113 395.029 404.126C395.022 404.139 395.012 404.15 395 404.159C394.988 404.169 394.974 404.175 394.96 404.179C394.945 404.183 394.93 404.184 394.916 404.182C394.901 404.181 394.886 404.176 394.873 404.168C394.86 404.161 394.849 404.151 394.84 404.139C394.831 404.127 394.824 404.114 394.82 404.099C391.46 394.309 381.15 350.799 378.21 340.919C376.777 336.112 375.632 331.223 374.78 326.279C373.91 321.189 373.15 316.089 372.34 310.989C370.713 300.749 369.08 290.509 367.44 280.269C366.64 275.269 365.75 270.199 365.12 265.139C364.48 259.899 363.57 254.699 362.79 249.479C362.6 248.199 362.42 246.919 362.24 245.639C362.23 245.359 362.62 245.249 362.67 245.519Z" fill="#11111B"/>
<path d="M320.82 425.26C324.96 424.46 330.04 425.06 333.22 428C333.35 428.11 333.22 428.28 333.05 428.24C329.079 426.987 324.986 426.162 320.84 425.78C320.771 425.783 320.704 425.758 320.653 425.711C320.603 425.664 320.573 425.599 320.57 425.53C320.567 425.461 320.592 425.394 320.639 425.343C320.686 425.293 320.751 425.263 320.82 425.26Z" fill="#11111B"/>
<path d="M317.84 427.08C321.98 426.28 327.05 426.88 330.24 429.82C330.36 429.93 330.24 430.11 330.07 430.06C326.098 428.811 322.005 427.987 317.86 427.6C317.791 427.602 317.724 427.578 317.673 427.531C317.623 427.484 317.593 427.419 317.59 427.35C317.587 427.281 317.612 427.214 317.659 427.163C317.706 427.112 317.771 427.082 317.84 427.08Z" fill="#11111B"/>
<path d="M314.86 428.899C319 428.099 324.07 428.709 327.26 431.639C327.38 431.749 327.26 431.929 327.08 431.889C323.113 430.632 319.023 429.804 314.88 429.419C314.811 429.422 314.744 429.397 314.693 429.35C314.643 429.303 314.613 429.238 314.61 429.169C314.607 429.1 314.632 429.033 314.679 428.982C314.726 428.932 314.791 428.902 314.86 428.899Z" fill="#11111B"/>
<path d="M311.88 430.72C316.02 429.92 321.09 430.53 324.28 433.46C324.4 433.58 324.28 433.75 324.1 433.71C320.134 432.452 316.043 431.627 311.9 431.25C311.838 431.24 311.781 431.209 311.739 431.162C311.697 431.116 311.673 431.056 311.671 430.993C311.668 430.93 311.688 430.868 311.726 430.819C311.764 430.769 311.819 430.734 311.88 430.72Z" fill="#11111B"/>
<path d="M315 421.609C317.94 423.869 321.77 424.779 325.2 426.029C325.55 426.149 325.83 425.819 325.85 425.499C325.867 425.497 325.883 425.492 325.897 425.483C325.911 425.473 325.923 425.461 325.932 425.447C325.941 425.432 325.946 425.416 325.947 425.399C325.949 425.382 325.946 425.365 325.94 425.349C324.661 421.688 322.44 418.429 319.5 415.899C317.76 414.449 314.72 413.459 313.1 415.719C311.48 417.979 313.28 420.289 315 421.609ZM313.92 418.279C313.16 413.739 318.06 416.089 319.3 417.209C320.09 417.944 320.828 418.733 321.51 419.569C322.899 421.311 324.197 423.124 325.4 424.999C323.75 424.279 322.06 423.719 320.4 423.059C318.39 422.289 314.34 420.789 313.92 418.279Z" fill="#11111B"/>
<path d="M339.74 419C338.74 416.42 335.54 416.64 333.5 417.62C330.028 419.358 327.079 421.983 324.95 425.23C324.939 425.243 324.932 425.258 324.929 425.275C324.926 425.291 324.927 425.308 324.932 425.324C324.937 425.34 324.945 425.354 324.957 425.366C324.969 425.377 324.984 425.386 325 425.39C324.94 425.7 325.13 426.1 325.5 426.06C329.14 425.68 333.06 425.73 336.5 424.26C338.46 423.34 340.71 421.39 339.74 419ZM330.89 424.36C329.11 424.59 327.33 424.73 325.56 425.02C327.23 423.55 328.83 422.02 330.65 420.69C331.517 420.047 332.425 419.462 333.37 418.94C334.84 418.16 340.17 417.06 338.37 421.29C337.31 423.57 333 424 330.89 424.31V424.36Z" fill="#11111B"/>
<path d="M362.35 420.48C362.35 422.93 361.29 447.48 360.52 448.01C358.18 449.49 296.78 449.67 294.63 449.01C292.48 448.35 294.37 442.12 296.74 440.21C298.19 439.06 307.43 434.69 314.46 431.45C318.98 429.37 322.58 427.75 322.58 427.75L322.38 420.54L321.82 387.73H362.39C362.39 387.73 362.62 404.56 362.35 420.48Z" fill="#ECBCB3"/>
<path d="M294.63 449C296.78 449.71 358.18 449.53 360.52 448.05C361.28 447.56 362.31 422.97 362.35 420.53C362.35 418.9 362.35 417.27 362.41 415.64H322.32L322.4 420.53L322.61 427.72C322.61 427.72 319 429.35 314.49 431.43C307.49 434.67 298.22 439.05 296.77 440.21C294.37 442.08 292.49 448.25 294.63 449Z" fill="#D2E3F3"/>
<path d="M293.17 449.47C294.6 449.93 321.22 449.94 340.61 449.47C345.09 449.36 349.19 449.22 352.5 449.07C357.06 448.84 360.12 448.58 360.62 448.27C361.47 447.71 362.69 422.6 362.46 419.64L321.89 419.86L321.74 427.59C321.74 427.59 297.74 438.5 295.31 440.46C292.88 442.42 291 448.74 293.17 449.47Z" fill="#147BDA"/>
<path d="M294.64 446.999C305.18 446.669 347.69 446.359 358.13 446.839C358.22 446.839 358.22 446.899 358.13 446.899C347.7 447.449 305.18 447.419 294.64 447.169C294.42 447.109 294.42 446.999 294.64 446.999Z" fill="#11111B"/>
<path d="M369.59 255.21C369.59 255.21 362.66 323.21 362.59 324.86C362.59 325.49 365.59 419.36 365.59 419.36H319.66C319.66 419.36 321.29 330.72 321.99 321.11C322.07 319.99 324.99 250.83 338.38 211.67H389.32C389.32 211.67 388.88 234.67 378.41 251.32C375.4 252.452 372.455 253.75 369.59 255.21Z" fill="#37474F"/>
<path d="M322.55 410.759C323.81 410.579 325.1 410.619 326.36 410.559C327.62 410.499 329.03 410.429 330.36 410.399C333.04 410.399 335.71 410.319 338.36 410.289C343.71 410.229 349.06 410.239 354.36 410.289C355.82 410.289 357.28 410.289 358.75 410.289C360.22 410.228 361.693 410.301 363.15 410.509C363.165 410.517 363.177 410.528 363.185 410.543C363.194 410.557 363.199 410.573 363.199 410.589C363.199 410.606 363.194 410.622 363.185 410.636C363.177 410.65 363.165 410.662 363.15 410.669C361.897 410.868 360.629 410.961 359.36 410.949C358.03 410.999 356.69 411.029 355.36 411.059C352.73 411.109 350.1 411.179 347.47 411.209C342.17 411.279 336.86 411.369 331.56 411.349C330.05 411.349 328.56 411.349 327.05 411.289C325.54 411.229 324.05 411.289 322.54 411.129C322.41 411.099 322.33 410.799 322.55 410.759Z" fill="#11111B"/>
<path d="M333 328.66C334.2 304.15 336.78 279.75 340 255.44C341.78 242.13 343.86 228.83 347.46 215.87C347.46 215.82 347.55 215.87 347.54 215.87C344.74 227.738 342.627 239.758 341.21 251.87C339.69 263.87 338.21 275.87 337.03 287.87C334.56 312.24 333.46 336.71 333.31 361.19C333.22 374.97 333.59 392.19 333.97 405.95C333.97 406.09 333.78 406.08 333.77 405.95C331.72 381.41 331.74 353.2 333 328.66Z" fill="#11111B"/>
<path d="M335.4 221.15C335.406 221.134 335.416 221.121 335.429 221.112C335.443 221.102 335.459 221.097 335.475 221.097C335.491 221.097 335.507 221.102 335.521 221.112C335.534 221.121 335.544 221.134 335.55 221.15C335.36 224.05 334.87 227.22 336.16 229.95C337.3 232.36 339.46 233.72 341.45 235.35C341.51 235.35 341.45 235.5 341.37 235.48C338.72 234.67 336.08 233.21 335.04 230.48C333.87 227.48 334.5 224.17 335.4 221.15Z" fill="#11111B"/>
<path d="M357.49 253.72C359.616 253.655 361.743 253.725 363.86 253.93C365.933 254.043 368.012 254.007 370.08 253.82C371.12 253.715 372.152 253.545 373.17 253.31C374.22 253.06 375.22 252.67 376.26 252.38C377.21 252.171 378.198 252.209 379.13 252.49C380.23 252.74 381.34 252.91 382.46 253.06C385.013 253.436 387.601 253.503 390.17 253.26C390.27 253.26 390.31 253.39 390.17 253.41C388.013 253.869 385.815 254.1 383.61 254.1C382.478 254.072 381.348 253.968 380.23 253.79C379.203 253.496 378.138 253.358 377.07 253.38C376.025 253.655 374.997 253.989 373.99 254.38C372.961 254.658 371.916 254.872 370.86 255.02C368.745 255.298 366.608 255.362 364.48 255.21C362.076 255.154 359.69 254.788 357.38 254.12C357.343 254.094 357.314 254.057 357.299 254.014C357.283 253.971 357.281 253.925 357.294 253.881C357.306 253.837 357.331 253.798 357.366 253.769C357.401 253.74 357.445 253.723 357.49 253.72Z" fill="#11111B"/>
<path d="M362.43 321.11C362.439 321.103 362.449 321.1 362.46 321.1C362.471 321.1 362.481 321.103 362.49 321.11C362.49 321.11 362.49 321.11 362.54 321.11C362.59 321.11 362.54 321.11 362.54 321.17V321.33C362.526 321.328 362.513 321.323 362.502 321.314C362.492 321.305 362.484 321.293 362.48 321.28V321.13C362.462 321.127 362.445 321.12 362.43 321.11Z" fill="#11111B"/>
<path d="M363.64 309.39C364.04 304.983 364.473 300.576 364.94 296.17C365.86 287.35 366.74 278.53 367.65 269.71C368.16 264.71 368.53 259.71 369.35 254.71C369.35 254.58 369.57 254.57 369.57 254.71C369.5 259.13 369.03 263.55 368.65 267.96C368.27 272.37 367.88 276.78 367.47 281.19C366.65 290.02 365.85 298.85 364.82 307.65C364.527 310.15 364.217 312.65 363.89 315.15C363.56 317.65 363.12 320.15 362.8 322.64C362.8 322.74 362.63 322.74 362.64 322.64C363 318.22 363.24 313.8 363.64 309.39Z" fill="#11111B"/>
<path d="M363.11 154.46C363.04 155.46 359.43 162.53 354.96 163.04C353.51 163.2 352.25 155.3 352.25 155.3L352.03 154.73L348.87 146.85L357.47 139.13L358.72 138.13C358.72 138.13 359.45 140.34 360.32 143.13L360.44 143.53C360.49 143.68 360.55 143.83 360.59 143.97C360.73 144.39 360.86 144.81 360.99 145.23C361.12 145.65 361.18 145.86 361.28 146.23L361.57 147.23C362.243 149.603 362.758 152.018 363.11 154.46Z" fill="#ECBCB3"/>
<path d="M360.32 143.06C359.866 145.493 358.887 147.799 357.45 149.814C356.013 151.83 354.153 153.508 352 154.73L348.84 146.85L357.44 139.13L358.69 138.13C358.69 138.13 359.45 140.3 360.32 143.06Z" fill="#11111B"/>
<path d="M362.05 138.27C362.73 137.38 364.05 138.44 363.42 139.34C362.79 140.24 361.38 139.16 362.05 138.27Z" fill="#147BDA"/>
<path d="M361.41 139.749C362.08 138.859 363.41 139.919 362.78 140.809C362.632 140.967 362.43 141.064 362.215 141.081C361.999 141.099 361.784 141.035 361.613 140.902C361.442 140.77 361.326 140.578 361.289 140.365C361.251 140.152 361.294 139.932 361.41 139.749Z" fill="#147BDA"/>
<path d="M360.51 141.11C361.18 140.22 362.51 141.28 361.88 142.17C361.732 142.328 361.53 142.425 361.314 142.442C361.099 142.459 360.884 142.395 360.713 142.263C360.542 142.13 360.426 141.939 360.388 141.725C360.351 141.512 360.394 141.293 360.51 141.11Z" fill="#147BDA"/>
<path d="M359.47 142.299C360.14 141.409 361.47 142.479 360.84 143.369C360.694 143.54 360.489 143.647 360.266 143.67C360.043 143.692 359.819 143.628 359.643 143.49C359.466 143.352 359.35 143.151 359.317 142.929C359.285 142.708 359.34 142.482 359.47 142.299Z" fill="#147BDA"/>
<path d="M358.21 143.32C358.89 142.43 360.21 143.5 359.58 144.39C358.95 145.28 357.54 144.21 358.21 143.32Z" fill="#147BDA"/>
<path d="M356.84 144.07C356.986 143.899 357.191 143.792 357.414 143.769C357.637 143.747 357.86 143.811 358.037 143.949C358.214 144.087 358.33 144.288 358.362 144.51C358.395 144.731 358.34 144.957 358.21 145.14C357.54 146 356.17 145 356.84 144.07Z" fill="#147BDA"/>
<path d="M335.18 134.069C332.84 148.779 341.32 151.989 344.56 152.349C347.46 152.669 357.3 153.989 361.15 139.599C365 125.209 358.91 119.469 352.37 118.079C345.83 116.689 337.52 119.359 335.18 134.069Z" fill="#ECBCB3"/>
<path d="M336.41 132.08C336.76 132.08 337.09 132 337.41 131.96C337.769 131.956 338.119 131.841 338.41 131.63C338.492 131.546 338.543 131.437 338.553 131.32C338.564 131.204 338.535 131.087 338.47 130.99C338.316 130.811 338.117 130.678 337.893 130.604C337.669 130.53 337.43 130.518 337.2 130.57C336.723 130.594 336.273 130.797 335.94 131.14C335.867 131.225 335.821 131.33 335.807 131.441C335.793 131.552 335.812 131.665 335.863 131.766C335.913 131.866 335.992 131.95 336.089 132.005C336.186 132.061 336.298 132.087 336.41 132.08Z" fill="#11111B"/>
<path d="M345.68 133.329C345.34 133.259 345.03 133.129 344.68 133.029C344.317 132.97 343.984 132.795 343.73 132.529C343.665 132.432 343.636 132.315 343.647 132.199C343.657 132.082 343.708 131.973 343.79 131.889C343.973 131.743 344.191 131.647 344.423 131.612C344.655 131.577 344.892 131.603 345.11 131.689C345.572 131.808 345.976 132.088 346.25 132.479C346.308 132.571 346.338 132.677 346.336 132.786C346.334 132.894 346.302 133 346.241 133.09C346.181 133.179 346.096 133.25 345.996 133.293C345.897 133.335 345.787 133.348 345.68 133.329Z" fill="#11111B"/>
<path d="M344.19 135.84C345.83 135.84 345.59 139.16 344.07 139.11C342.55 139.06 342.82 135.79 344.19 135.84Z" fill="#11111B"/>
<path d="M337.21 134.84C335.59 134.61 335.21 137.84 336.75 138.08C338.29 138.32 338.57 135 337.21 134.84Z" fill="#11111B"/>
<path d="M338 145.261C338.505 146.238 339.229 147.055 340.104 147.634C340.588 147.921 341.138 148.043 341.686 147.987C342.898 147.82 343.066 146.652 342.982 145.613C342.932 145.062 342.818 144.52 342.645 144C341.262 144.965 339.632 145.407 338 145.261Z" fill="#11111B"/>
<path d="M359.51 144.17C357.94 143.71 354.71 135.57 356.35 127.86C356.35 127.86 355.35 134.86 355.64 136.01C355.93 137.16 353.9 133.01 355.14 126.79C352.869 127.734 350.475 128.35 348.03 128.62C344.91 128.76 343.13 128.32 342.97 128.06C342.81 127.8 347.43 127.44 348.9 126.37C348.9 126.37 340.29 128.19 336.64 127.63C336.22 127.57 337.91 119.44 344.28 117.1C350.65 114.76 358.28 120.18 360.15 123C360.15 123 361.98 124 364.05 128.76C366.12 133.52 361.2 144.67 359.51 144.17Z" fill="#11111B"/>
<path d="M354.29 140C354.29 140 357.7 135.47 359.77 136.71C361.84 137.95 359.15 144.59 356.64 145.42C356.326 145.55 355.99 145.614 355.65 145.61C355.311 145.606 354.976 145.533 354.666 145.395C354.355 145.258 354.076 145.059 353.845 144.811C353.613 144.562 353.435 144.269 353.32 143.95L354.29 140Z" fill="#ECBCB3"/>
<path d="M336.32 124.75C336.32 124.75 343.8 109.46 357.48 116.02C371.16 122.58 363.94 138.02 363.94 138.02L336.32 124.75Z" fill="#147BDA"/>
<path d="M365.457 137.406L335.787 123.191L334.746 125.364L364.416 139.58L365.457 137.406Z" fill="#147BDA"/>
<path d="M344.43 127.32L339.81 125.12L346.76 113.89L352.24 114.08L344.43 127.32Z" fill="#147BDA"/>
<path opacity="0.1" d="M344.43 127.32L339.81 125.12L346.76 113.89L352.24 114.08L344.43 127.32Z" fill="#11111B"/>
<path opacity="0.1" d="M336.93 123.67C341.55 125.77 346.12 128 350.71 130.15C355.3 132.3 359.86 134.56 364.39 136.86C359.77 134.76 355.2 132.54 350.61 130.38C346.02 128.22 341.46 126 336.93 123.67Z" fill="#11111B"/>
<path d="M337.2 198.12L334 220.4H394.2C394.2 220.4 383.34 170.35 369.63 157.93C362.29 151.28 357.33 149.86 352.3 154.93C351.03 156.22 335.87 176.25 334.3 183.93C332.83 190.68 337.2 198.12 337.2 198.12Z" fill="#147BDA"/>
<path d="M391.79 210.669H335.37L335.79 207.819H391C391.3 208.819 391.563 209.769 391.79 210.669Z" fill="#D2E3F3"/>
<path d="M393.08 215.84H334.62L335 213H392.34C392.64 214 392.88 215 393.08 215.84Z" fill="#D2E3F3"/>
<path d="M357.67 166.67C354.56 175.92 338.96 207.06 329.82 208.8C315.49 211.52 293.82 208.52 284.64 207.8C279.64 207.42 286.97 176.37 292.16 178.54C298.92 181.35 320.49 182.59 323.11 182.87C325.73 183.15 338.4 168.94 348.11 159.19C356.2 151.08 361.61 154.94 357.67 166.67Z" fill="#ECBCB3"/>
<path d="M259 175.369C258.594 176.13 258.431 176.997 258.533 177.854C258.635 178.71 258.997 179.515 259.57 180.159C258.277 180.846 257.265 181.964 256.71 183.319C255.84 185.749 259.27 188.179 259.27 188.179C258.079 189.173 257.212 190.499 256.78 191.989C256.19 194.399 259.3 197.339 259.3 197.339C258.709 198.856 258.684 200.535 259.23 202.069C260.84 206.069 267.38 207.289 271.53 208.069C275.68 208.849 288.2 207.219 290.62 207.149L297.36 181.899C297.36 181.899 287.6 172.189 273.36 171.459C269.07 171.269 260.64 172.519 259 175.369Z" fill="#ECBCB3"/>
<path d="M259.82 179.77C264.36 178.91 268.91 179.43 273.48 179.7C273.58 179.7 273.57 179.87 273.48 179.86C268.94 179.54 264.39 180.13 259.84 179.99C259.71 180 259.7 179.79 259.82 179.77Z" fill="#11111B"/>
<path d="M259.41 187.849C260.461 187.749 261.52 187.79 262.56 187.969C263.67 188.089 264.77 188.229 265.88 188.389C268.09 188.699 270.3 189.069 272.49 189.499C272.59 189.499 272.59 189.669 272.49 189.659C270.29 189.349 268.08 189.069 265.86 188.849L262.53 188.549C261.475 188.538 260.424 188.403 259.4 188.149C259.37 188.137 259.344 188.116 259.326 188.088C259.308 188.061 259.299 188.029 259.3 187.996C259.301 187.963 259.313 187.932 259.332 187.905C259.352 187.879 259.379 187.86 259.41 187.849Z" fill="#11111B"/>
<path d="M259.38 197.35C260.331 197.277 261.288 197.365 262.21 197.61C263.21 197.78 264.21 197.94 265.21 198.09C267.21 198.4 269.21 198.7 271.21 198.94C271.31 198.94 271.3 199.11 271.21 199.1C269.15 198.87 267.09 198.67 265.03 198.42L262.03 198.04C261.099 198.007 260.181 197.807 259.32 197.45C259.31 197.44 259.304 197.428 259.302 197.414C259.301 197.401 259.304 197.388 259.311 197.376C259.317 197.364 259.328 197.356 259.341 197.351C259.353 197.346 259.367 197.346 259.38 197.35Z" fill="#11111B"/>
<path d="M333.89 172.13L350.23 186.26C350.23 186.26 358.11 170.64 359.03 161.03C359.95 151.42 355.33 152.34 349.81 156.79C344.29 161.24 333.89 172.13 333.89 172.13Z" fill="#D2E3F3"/>
<path d="M337.49 170.48C337.39 170.39 337.29 170.48 337.39 170.53C341.732 174.744 346.33 178.685 351.16 182.33C351.16 182.33 351.23 182.33 351.16 182.27C349.19 180.06 338.65 171.52 337.49 170.48Z" fill="#11111B"/>
<path d="M357.7 168.22C355.59 174.82 353.75 180.46 350.57 186.63C349.978 186.315 349.441 185.907 348.98 185.42C348.87 185.3 348.98 185.21 349.12 185.28C349.519 185.534 349.937 185.758 350.37 185.95C352.92 180.29 355.2 174.31 357.58 167.95C357.6 167.93 357.72 168.17 357.7 168.22Z" fill="#11111B"/>
<path d="M356.47 171.679C356.906 170.839 357.391 170.024 357.92 169.239C357.817 169.712 357.631 170.162 357.37 170.569C357.125 170.98 356.822 171.354 356.47 171.679Z" fill="#11111B"/>
<path d="M195.62 407.17C200.242 407.181 204.77 408.481 208.694 410.924C212.617 413.367 215.781 416.857 217.83 421H197.49L193.55 432L197.45 443.08H217.81C215.825 447.034 212.82 450.386 209.106 452.791C205.392 455.195 201.104 456.564 196.684 456.757C192.264 456.949 187.872 455.958 183.963 453.886C180.054 451.814 176.769 448.736 174.448 444.969C172.126 441.203 170.852 436.885 170.758 432.462C170.663 428.039 171.751 423.67 173.909 419.808C176.067 415.946 179.217 412.73 183.034 410.492C186.851 408.255 191.196 407.077 195.62 407.08V407.17Z" fill="#455A64"/>
<path d="M52.74 456.61C48.1172 456.602 43.5882 455.304 39.6627 452.863C35.7372 450.421 32.5709 446.933 30.52 442.79H50.86L54.86 431.73L50.9 420.7H30.55C32.529 416.742 35.529 413.385 39.2399 410.976C42.9509 408.567 47.2381 407.192 51.6582 406.994C56.0784 406.797 60.4711 407.784 64.3821 409.853C68.2931 411.922 71.5806 414.998 73.9046 418.763C76.2286 422.528 77.5047 426.845 77.6011 431.269C77.6975 435.692 76.6106 440.061 74.4528 443.924C72.295 447.787 69.1446 451.003 65.3273 453.24C61.5101 455.477 57.1646 456.655 52.74 456.65V456.61Z" fill="#455A64"/>
<path d="M66.6023 420.688L66.5637 442.818L187.404 443.029L187.442 420.899L66.6023 420.688Z" fill="#455A64"/>
<path d="M102.121 427.26L102.105 436.37L151.865 436.457L151.881 427.347L102.121 427.26Z" fill="#37474F"/>
</svg>
