<svg width="41" height="44" viewBox="0 0 41 44" fill="none" xmlns="http://www.w3.org/2000/svg">
<path d="M2 20C2 9.50659 10.5066 1 21 1C31.4934 1 40 9.50659 40 20C40 30.4934 31.4934 39 21 39H4.63636C3.18034 39 2 37.8197 2 36.3636V20Z" fill="#147BDA" stroke="#11111B" stroke-width="2"/>
<path d="M31.9412 25.4706C31.9412 34.0148 25.0148 40.9412 16.4706 40.9412C7.92642 40.9412 1 34.0148 1 25.4706C1 16.9264 7.92642 10 16.4706 10C25.0148 10 31.9412 16.9264 31.9412 25.4706Z" fill="#147BDA" stroke="#11111B" stroke-width="2"/>
<path d="M27.2353 28.1176C27.2353 35.3623 21.3623 41.2353 14.1176 41.2353C6.87297 41.2353 1 35.3623 1 28.1176C1 20.873 6.87297 15 14.1176 15C21.3623 15 27.2353 20.873 27.2353 28.1176Z" fill="#147BDA" stroke="#11111B" stroke-width="2"/>
<circle cx="11.7647" cy="30.7647" r="10.7647" fill="#147BDA" stroke="#11111B" stroke-width="2"/>
<circle cx="9.41177" cy="33.4118" r="8.41177" fill="#147BDA" stroke="#11111B" stroke-width="2"/>
<circle cx="7.05882" cy="36.0588" r="6.05882" fill="#147BDA" stroke="#11111B" stroke-width="2"/>
<path d="M8.41177 38.7059C8.41177 40.7526 6.75258 42.4118 4.70588 42.4118C2.65918 42.4118 1 40.7526 1 38.7059C1 36.6592 2.65918 35 4.70588 35C6.75258 35 8.41177 36.6592 8.41177 38.7059Z" fill="#147BDA" stroke="#11111B" stroke-width="2"/>
</svg>
